<svg width="72" height="69" viewBox="0 0 72 69" fill="none" xmlns="http://www.w3.org/2000/svg">
<g clip-path="url(#clip0_665_1143)">
<path fill-rule="evenodd" clip-rule="evenodd" d="M69.92 34.1962C69.92 30.7062 65.712 27.9262 64.689 24.7782C63.63 21.5172 65.363 16.8002 63.389 14.0882C61.395 11.3442 56.361 11.5452 53.618 9.54723C50.9 7.57023 49.547 2.71223 46.281 1.65223C43.137 0.630234 39.2 3.73523 35.708 3.73523C32.216 3.73523 28.283 0.630234 25.134 1.65223C21.873 2.71223 20.517 7.57023 17.8 9.55223C15.06 11.5522 10.026 11.3522 8.029 14.0892C6.055 16.8052 7.788 21.5222 6.729 24.7832C5.708 27.9272 1.5 30.7072 1.5 34.1962C1.5 37.6852 5.708 40.4662 6.731 43.6102C7.79 46.8752 6.057 51.5882 8.031 54.3042C10.031 57.0482 15.063 56.8472 17.802 58.8412C20.518 60.8192 21.873 65.6802 25.135 66.7412C28.284 67.7642 32.223 64.6592 35.709 64.6592C39.195 64.6592 43.138 67.7592 46.283 66.7412C49.548 65.6822 50.9 60.8202 53.616 58.8412C56.36 56.8472 61.394 57.0482 63.387 54.3042C65.365 51.5882 63.632 46.8752 64.687 43.6102C65.71 40.4652 69.918 37.6812 69.918 34.1962H69.92Z" stroke="black" stroke-width="3" stroke-miterlimit="22.926" stroke-linecap="round" stroke-linejoin="round"/>
<path fill-rule="evenodd" clip-rule="evenodd" d="M30.1364 55.34C14.0914 57.891 14.7534 15.861 30.1444 45.813C36.3094 40.896 48.7364 16.844 56.4824 19.889C66.3214 23.748 40.5934 52.749 30.1364 55.34Z" fill="#3E6C02"/>
<path fill-rule="evenodd" clip-rule="evenodd" d="M27.0075 51.6212C10.9625 54.1722 11.6245 12.1422 27.0155 42.0902C33.1805 37.1712 45.6075 13.1252 53.3535 16.1662C63.1925 20.0242 37.4645 49.0262 27.0075 51.6212Z" fill="white" stroke="black" stroke-width="3" stroke-miterlimit="22.926" stroke-linecap="round" stroke-linejoin="round"/>
</g>
<defs>
<clipPath id="clip0_665_1143">
<rect width="71.42" height="68.392" fill="white"/>
</clipPath>
</defs>
</svg>
