<svg xmlns:xlink="http://www.w3.org/1999/xlink"  xmlns="http://www.w3.org/2000/svg" width="76.435" height="83.975" viewBox="0 0 76.435 83.975"><g id="Health_and_Safety_Commitment" data-name="Health and Safety Commitment" transform="translate(1.5 1.5)"><path id="Path_1027" data-name="Path 1027" d="M69.669,62.82a39.611,39.611,0,0,1,5.522,4.76c.273.234-.944,1.328-1.973,2.67-2.409-1.511-5.567,1.5-2.871,3.913-1.126,1.354-.41.163-2,2.077-1.576-1.608-4.773.638-2.741,3.282-1,1.459-1.81,2.025-3.308,4.291-2.005,0-1.465-4.682-3.523,2.826-.9,3.269-2.761,5.47-6.817,7.963-.632-1.634-4.519-2.409-5.43,1.061-1.354.02-2.312.384-3.92.339-.4-3.425-4.669-2.663-5.463-.645-1.3-.345-5.541-1.107-5.3-1.647a30.583,30.583,0,0,0,.892-3.959c1.524-1.087,4.271-1.009,4.59,1.712,1.615.046,2.565-.326,3.92-.339.912-3.471,4.8-2.7,5.43-1.061,4.063-2.5,5.919-4.7,6.817-7.97,2.064-7.5,1.524-2.819,3.529-2.819,1.5-2.272,2.3-2.839,3.308-4.291-2.032-2.65,1.159-4.9,2.735-3.288,1.6-1.908.879-.716,2.005-2.077-2.7-2.4.462-5.424,2.871-3.913,1.022-1.335,2.246-2.429,1.973-2.663-.078-.072-.163-.143-.247-.221Z" transform="translate(-12.324 -23.133)" fill="#cccacb" fill-rule="evenodd"></path><path id="Path_1028" data-name="Path 1028" d="M28.736,28.45A32.045,32.045,0,1,0,65.961,60.069" transform="translate(-1.87 -11.143)" fill="none" stroke="#000" stroke-linecap="round" stroke-linejoin="round" stroke-miterlimit="22.926" stroke-width="3" fill-rule="evenodd"></path><path id="Path_1029" data-name="Path 1029" d="M61.982,49.673C59.065,52,49.3,63.582,48.139,66.941c-1.035,3.008-2.077,7.169-5.066,8.471a18.749,18.749,0,0,1-4.017,1.517c-2.344.69-9.259.072-11.694-.41-1.029-.208-2.754.306-2.149-2.657.951-4.656,18.622-4.623,8.816-19.124-1.8-2.67-6.909-6.948-3.458-8.907,1.576-.9,6.029-2.442,7.423-.417.332.482,1.9,5.925,2.6,6.909.651.918-.742-4.063.931-5.242,3.926-2.767.762-7.013,4.017-8.51,1.745-.8,10.789,7.716,13.96,9.22a15.6,15.6,0,0,1,2.474,1.882Z" transform="translate(-9.97 -14.656)" fill="none" stroke="#000" stroke-linecap="round" stroke-linejoin="round" stroke-miterlimit="22.926" stroke-width="3" fill-rule="evenodd"></path><path id="Path_1030" data-name="Path 1030" d="M61.507,55.65c2.448,1.517,4.187,3.588,5.58,4.8.273.234-.951,1.328-1.973,2.663-2.409-1.511-5.574,1.511-2.871,3.92-1.126,1.354-.41.163-2.005,2.071-1.576-1.608-4.766.638-2.735,3.288-1.009,1.459-1.81,2.019-3.308,4.291-2.005,0-1.465-4.682-3.529,2.819-.9,3.275-2.754,5.476-6.817,7.97-.632-1.634-4.519-2.409-5.43,1.061-1.354.013-2.305.384-3.92.339-.4-3.431-4.662-2.663-5.463-.645-1.289-.352-5.535-1.113-5.3-1.654.547-1.237.736-4.057,1.146-4.643" transform="translate(-9.495 -20.632)" fill="none" stroke="#000" stroke-linecap="round" stroke-linejoin="round" stroke-miterlimit="22.926" stroke-width="3" fill-rule="evenodd"></path><path id="Path_1031" data-name="Path 1031" d="M46.443,68c-1.947.547-3.718,1.843-5.743,1.843" transform="translate(-15.417 -24.941)" fill="none" stroke="#000" stroke-linecap="round" stroke-linejoin="round" stroke-miterlimit="22.926" stroke-width="3" fill-rule="evenodd"></path><path id="Path_1032" data-name="Path 1032" d="M47.281,76.876c-1.836,0-3.777-.176-5.821-.176" transform="translate(-15.682 -27.976)" fill="none" stroke="#000" stroke-linecap="round" stroke-linejoin="round" stroke-miterlimit="22.926" stroke-width="3" fill-rule="evenodd"></path><path id="Path_1033" data-name="Path 1033" d="M95.294,33.25h0a9.373,9.373,0,0,1-9.344,9.344h0a9.373,9.373,0,0,1,9.344,9.344h0a9.369,9.369,0,0,1,9.344-9.344h0A9.369,9.369,0,0,1,95.294,33.25Z" transform="translate(-31.203 -12.817)" fill="none" stroke="#000" stroke-linecap="round" stroke-linejoin="round" stroke-miterlimit="22.926" stroke-width="3" fill-rule="evenodd"></path><path id="Path_1034" data-name="Path 1034" d="M79.689,11.95h0a6.631,6.631,0,0,1-6.609,6.609h0a6.631,6.631,0,0,1,6.609,6.609h0a6.625,6.625,0,0,1,6.6-6.609h0a6.625,6.625,0,0,1-6.6-6.609Z" transform="translate(-26.713 -5.387)" fill="none" stroke="#000" stroke-linecap="round" stroke-linejoin="round" stroke-miterlimit="22.926" stroke-width="3" fill-rule="evenodd"></path><path id="Path_1035" data-name="Path 1035" d="M49.454,1.87h0a9.373,9.373,0,0,1-9.344,9.344h0a9.368,9.368,0,0,1,9.344,9.337h0a9.362,9.362,0,0,1,9.337-9.337h0A9.368,9.368,0,0,1,49.454,1.87Z" transform="translate(-15.211 -1.87)" fill="none" stroke="#000" stroke-linecap="round" stroke-linejoin="round" stroke-miterlimit="22.926" stroke-width="3" fill-rule="evenodd"></path></g></svg>