<svg width="70" height="70" viewBox="0 0 70 70" fill="none" xmlns="http://www.w3.org/2000/svg">
<path fill-rule="evenodd" clip-rule="evenodd" d="M54.6142 25.7021C54.1805 38.6848 54.7376 45.2098 55.6059 58.1783C55.7794 60.8607 53.8948 63.0851 51.7756 63.0993L22.843 63.2769C20.736 63.2901 18.7617 61.0791 18.9749 58.3966C19.9789 45.0098 20.2146 38.8348 19.4708 25.448C18.8137 13.6887 17.1159 12.3826 26.9978 12.3285L45.6046 12.2204C56.9099 12.1531 55.0509 12.3551 54.6172 25.7021H54.6142Z" fill="#3E6C02"/>
<path fill-rule="evenodd" clip-rule="evenodd" d="M51.6959 24.8074C51.2878 36.1259 51.8286 41.8143 52.6734 53.1206C52.7188 53.6487 52.6574 54.1806 52.493 54.6845C52.3287 55.1884 52.0646 55.6542 51.7166 56.054C51.3685 56.4538 50.9437 56.7795 50.4672 57.0118C49.9907 57.2441 49.4724 57.3781 48.9431 57.406L20.7696 57.5591C20.2381 57.5402 19.7159 57.4136 19.2348 57.1869C18.7536 56.9603 18.3235 56.6383 17.9705 56.2404C17.6175 55.8426 17.349 55.3772 17.1812 54.8725C17.0134 54.3678 16.9498 53.8343 16.9944 53.3043C17.9719 41.6337 18.2137 36.2504 17.4892 24.5798C16.8454 14.3347 15.1945 13.1949 24.8142 13.148L42.9323 13.0531C53.9407 12.9939 52.1306 13.1715 51.6959 24.8074Z" fill="white" stroke="black" stroke-width="3.061" stroke-miterlimit="22.926" stroke-linecap="round"/>
<path d="M34.9993 68.4682C53.4837 68.4682 68.4682 53.4837 68.4682 34.9993C68.4682 16.5148 53.4837 1.53027 34.9993 1.53027C16.5148 1.53027 1.53027 16.5148 1.53027 34.9993C1.53027 53.4837 16.5148 68.4682 34.9993 68.4682Z" stroke="black" stroke-width="3.061" stroke-miterlimit="22.926" stroke-linecap="round" stroke-linejoin="round"/>
<path d="M12.8662 12.8813L60.2005 57.3475" stroke="black" stroke-width="3.061" stroke-miterlimit="22.926" stroke-linecap="round" stroke-linejoin="round"/>
<path d="M23.5479 52.6488C31.8126 36.1929 15.1669 49.4235 25.6712 52.3019C28.6169 53.1121 28.1486 48.5644 30.5127 50.6316C34.8236 54.4069 39.9936 52.9304 44.7596 51.8723" stroke="black" stroke-width="3.061" stroke-miterlimit="22.926" stroke-linecap="round" stroke-linejoin="round"/>
<path d="M21.4717 25.1957C25.6795 24.4203 31.9515 24.5325 36.3481 24.5325" stroke="black" stroke-width="3.061" stroke-miterlimit="22.926" stroke-linecap="round"/>
<path d="M21.9736 31.7189C28.717 31.5454 37.1072 31.6475 44.2169 31.0557" stroke="black" stroke-width="3.061" stroke-miterlimit="22.926" stroke-linecap="round"/>
<path d="M21.5693 38.8937C28.6219 38.7202 37.3978 38.8223 44.8329 38.2305" stroke="black" stroke-width="3.061" stroke-miterlimit="22.926" stroke-linecap="round"/>
</svg>
