<svg width="70" height="70" viewBox="0 0 70 70" fill="none" xmlns="http://www.w3.org/2000/svg">
<path d="M26.8982 60.2941C21.312 59.3787 16.1045 56.8838 11.8906 53.104C7.67666 49.3243 4.63239 44.4176 3.11729 38.9634C1.60218 33.5093 1.67952 27.7354 3.34016 22.3238C5.00081 16.9122 8.17541 12.0888 12.489 8.42328C16.8027 4.75776 22.0752 2.40322 27.6839 1.63771C33.2926 0.872199 39.0032 1.7277 44.1413 4.10318C49.2795 6.47866 53.6305 10.2749 56.6807 15.0436C59.7308 19.8122 61.3526 25.3542 61.3545 31.0149" stroke="black" stroke-width="2.73" stroke-miterlimit="22.926" stroke-linecap="round" stroke-linejoin="round"/>
<path fill-rule="evenodd" clip-rule="evenodd" d="M47.3748 68.5459C35.8178 70.3787 36.281 40.1029 47.3748 61.68C51.8129 58.1428 60.7682 40.81 66.332 43.0131C73.4227 45.795 54.8996 66.6804 47.3748 68.5459Z" fill="white" stroke="black" stroke-width="2.73" stroke-miterlimit="22.926" stroke-linecap="round" stroke-linejoin="round"/>
<path fill-rule="evenodd" clip-rule="evenodd" d="M36.7719 16.1836C43.01 16.1836 48.075 22.8403 48.075 31.0403C48.075 37.9863 44.1193 41.3306 39.6821 44.5137C36.579 46.7323 35.8228 46.2983 32.6751 43.8549C29.3627 41.2659 25.4561 37.4075 25.4561 31.0403C25.4515 22.8403 30.5166 16.1836 36.7719 16.1836Z" fill="#3E6C02"/>
<path fill-rule="evenodd" clip-rule="evenodd" d="M32.0983 13.1289C38.3364 13.1289 43.4014 19.7856 43.4014 27.9856C43.4014 34.9152 39.4457 38.2759 35.0249 41.4591C31.9054 43.6776 31.1501 43.2436 28.0179 40.8002C24.69 38.2113 20.7988 34.3529 20.7988 27.9856C20.7952 19.7856 25.8639 13.1289 32.0983 13.1289Z" fill="white" stroke="black" stroke-width="2.73" stroke-miterlimit="22.926"/>
<path d="M15.3896 49.9176C22.9372 46.102 40.3237 45.5987 48.3535 49.9176" stroke="black" stroke-width="2.73" stroke-miterlimit="22.926" stroke-linecap="round" stroke-linejoin="round"/>
<path fill-rule="evenodd" clip-rule="evenodd" d="M34.2696 13.0169C43.6918 8.83632 40.6042 18.2102 48.7086 19.1139C44.2869 23.8732 32.0674 27.6351 28.128 21.1878C24.8002 19.1457 20.6351 21.8148 20.7962 27.9891C19.4312 17.586 23.4652 7.42309 34.2696 13.0196V13.0169Z" fill="white" stroke="black" stroke-width="2.73" stroke-miterlimit="22.926" stroke-linecap="round" stroke-linejoin="round"/>
</svg>
