<svg width="70" height="70" viewBox="0 0 70 70" fill="none" xmlns="http://www.w3.org/2000/svg">
<path fill-rule="evenodd" clip-rule="evenodd" d="M14.0322 53.7409C11.5243 53.8964 12.5839 59.3107 12.613 57.3666C12.6422 55.2378 74.9601 60.5063 69.6819 53.1674C70.3623 52.6619 61.4778 44.4676 60.1461 43.5538C59.3296 43.4761 58.5033 43.3983 57.6868 43.34C61.7986 43.5247 61.8763 42.7568 61.8763 36.2732V22.1591C61.8763 14.6646 60.9529 15.9477 52.6613 16.3657C44.0473 16.8014 35.4125 16.5706 26.8341 15.6755C26.4148 15.6299 25.9907 15.6698 25.5873 15.7927C25.1839 15.9156 24.8096 16.119 24.4871 16.3907C24.1645 16.6624 23.9004 16.9966 23.7107 17.3733C23.521 17.7499 23.4096 18.1611 23.3833 18.582V40.5308C23.4283 41.2689 23.7347 41.9669 24.2478 42.4996C24.7608 43.0322 25.4468 43.3646 26.1828 43.4372L25.9495 43.4566L12.6422 52.8369C12.3311 53.0605 13.0213 53.4784 14.0322 53.7409Z" fill="#3E6C02"/>
<path fill-rule="evenodd" clip-rule="evenodd" d="M44.9465 42.791C36.4429 42.4444 27.9263 42.5937 19.44 43.2382C19.0197 43.2773 18.5958 43.2319 18.1932 43.1047C17.7907 42.9775 17.4176 42.771 17.0961 42.4975C16.7745 42.2239 16.511 41.8888 16.3209 41.5119C16.1308 41.1349 16.018 40.7238 15.9893 40.3026V18.3635C16.0144 17.9418 16.125 17.5296 16.3142 17.1519C16.5034 16.7742 16.7673 16.4389 17.09 16.1662C17.4126 15.8936 17.7873 15.6893 18.1912 15.5657C18.5952 15.4421 19.02 15.4019 19.44 15.4473C28.0182 16.3473 36.6533 16.578 45.2673 16.1375C53.5589 15.7195 54.4823 14.4364 54.4823 21.9309V36.045C54.4823 44.6185 54.3462 43.209 44.9465 42.791Z" fill="white" stroke="black" stroke-width="2.81894" stroke-miterlimit="22.926" stroke-linecap="round"/>
<path fill-rule="evenodd" clip-rule="evenodd" d="M53.0544 40.9195L62.0362 50.0956C62.5513 50.4261 60.5003 51.2621 58.634 51.2135C54.7264 51.126 54.0459 51.1941 47.9318 51.2427C38.9112 51.0871 20.5006 51.0288 11.48 51.2524C9.61368 51.2913 7.65015 50.5525 8.07785 50.1248L17.1179 40.832C29.0762 39.8101 41.1012 39.8394 53.0544 40.9195Z" fill="white" stroke="black" stroke-width="2.81894" stroke-miterlimit="22.926" stroke-linecap="round" stroke-linejoin="round"/>
<path fill-rule="evenodd" clip-rule="evenodd" d="M35.5057 20.606C36.8974 20.6613 38.2102 21.2667 39.1561 22.2891C40.1019 23.3114 40.6035 24.6673 40.5506 26.0591C40.5506 28.6059 38.7912 29.8404 36.8082 31.0069L36.7791 31.0166C39.8524 31.4524 42.7009 32.875 44.8956 35.07C45.0597 35.2334 45.17 35.4429 45.212 35.6706C45.2539 35.8983 45.2255 36.1334 45.1305 36.3446C45.0355 36.5557 44.8784 36.7329 44.6801 36.8525C44.4819 36.9721 44.2519 37.0285 44.0208 37.0141L26.8836 36.6253C26.5821 36.6197 26.2952 36.4948 26.0856 36.2779C25.8761 36.0611 25.7611 35.77 25.7658 35.4686C25.7716 35.1745 25.8939 34.8948 26.106 34.6909L26.0963 34.6812C28.1989 32.5439 30.9932 31.2243 33.9796 30.9583L33.6782 30.7638C32.191 29.8112 30.451 28.3921 30.451 26.0591C30.4003 24.6663 30.9039 23.3101 31.8514 22.2879C32.7988 21.2657 34.113 20.6609 35.5057 20.606Z" fill="#CCCACB"/>
<path d="M34.9671 68.5578C53.5007 68.5578 68.5251 53.5334 68.5251 34.9999C68.5251 16.4663 53.5007 1.44189 34.9671 1.44189C16.4336 1.44189 1.40918 16.4663 1.40918 34.9999C1.40918 53.5334 16.4336 68.5578 34.9671 68.5578Z" stroke="black" stroke-width="2.81894" stroke-miterlimit="22.926" stroke-linecap="round" stroke-linejoin="round"/>
<path d="M26.6133 47.6812C32.0276 47.4479 38.8708 47.6909 44.7906 47.6521" stroke="black" stroke-width="2.81894" stroke-miterlimit="22.926" stroke-linecap="round"/>
</svg>
