<svg width="70" height="70" viewBox="0 0 70 70" fill="none" xmlns="http://www.w3.org/2000/svg">
<path fill-rule="evenodd" clip-rule="evenodd" d="M17.6142 18.0154L18.0081 16.3753C18.1618 15.8148 18.4306 15.2924 18.7973 14.8415C19.1641 14.3906 19.6207 14.0211 20.1382 13.7565C20.6557 13.4919 21.2226 13.338 21.8029 13.3046C22.3831 13.2713 22.9639 13.3592 23.5083 13.5628C35.6843 17.9889 44.7431 20.8306 57.3475 23.4211C68.4168 25.6961 70.0616 24.2547 67.6157 34.5651L63.0108 53.9827C61.1485 61.8312 60.6467 63.5787 56.899 62.7389C55.3778 64.7002 52.4512 63.2989 44.7242 61.6289C32.5018 58.9794 22.7658 57.7423 10.3453 56.4701C9.16184 56.3547 8.07232 55.7752 7.31511 54.8584C6.5579 53.9417 6.19467 52.7623 6.30489 51.5783L10.7667 20.8803C10.8713 20.3084 11.0936 19.7644 11.4196 19.2829C11.7457 18.8015 12.1682 18.3931 12.6605 18.0837C13.1528 17.7743 13.7041 17.5707 14.2793 17.4858C14.8545 17.4008 15.4411 17.4364 16.0018 17.5903C16.548 17.7389 17.0814 17.8776 17.6126 18.0159L17.6142 18.0154Z" fill="#3E6C02"/>
<path fill-rule="evenodd" clip-rule="evenodd" d="M43.887 53.2783C31.9506 49.5566 22.358 47.4681 10.1089 45.0959C9.52938 44.9897 8.97653 44.7703 8.48194 44.4503C7.98734 44.1302 7.56072 43.7158 7.22646 43.2307C6.89221 42.7455 6.65689 42.1993 6.53398 41.6231C6.41107 41.047 6.40297 40.4522 6.51015 39.8729L13.673 9.68425C13.8266 9.12373 14.0954 8.60137 14.4622 8.15049C14.8289 7.6996 15.2856 7.33008 15.803 7.06547C16.3205 6.80086 16.8875 6.64697 17.4677 6.61361C18.0479 6.58025 18.6288 6.66815 19.1732 6.87172C31.3492 11.2978 40.3999 14.1412 53.0124 16.7301C64.0817 19.005 65.7264 17.5637 63.2805 27.874L58.6756 47.2917C55.8786 59.0865 56.1555 57.0985 43.8866 53.2805L43.887 53.2783Z" fill="white" stroke="black" stroke-width="2.14319" stroke-miterlimit="22.926" stroke-linecap="round"/>
<path fill-rule="evenodd" clip-rule="evenodd" d="M41.3598 55.3C29.1449 52.6518 19.4088 51.4147 6.98758 50.1424C5.80415 50.0269 4.71462 49.4474 3.95741 48.5307C3.2002 47.6139 2.83697 46.4345 2.9472 45.2506L7.40862 14.5548C7.51316 13.9829 7.73551 13.4389 8.06154 12.9574C8.38756 12.476 8.81014 12.0676 9.30244 11.7582C9.79474 11.4488 10.346 11.2452 10.9212 11.1602C11.4964 11.0753 12.083 11.1109 12.6437 11.2648C25.1604 14.5909 34.4312 16.6225 47.2202 18.0862C58.4483 19.3799 59.9547 17.793 58.4366 28.2826L55.5645 48.0339C53.8184 60.022 53.9185 58.0242 41.3598 55.3Z" fill="white" stroke="black" stroke-width="2.26394" stroke-miterlimit="22.926" stroke-linecap="round"/>
<path fill-rule="evenodd" clip-rule="evenodd" d="M22.4812 27.373C22.9322 27.4228 31.8683 24.5559 31.5843 26.1633C30.8279 30.4453 29.3018 31.1719 28.7591 37.3584C28.7129 37.915 27.0618 45.9128 26.9384 46.1515C26.2974 45.9494 21.5864 41.3921 19.9119 41.2449L22.4812 27.373Z" fill="white" stroke="black" stroke-width="2.26394" stroke-miterlimit="22.926" stroke-linecap="round" stroke-linejoin="round"/>
<path fill-rule="evenodd" clip-rule="evenodd" d="M18.7596 42.9294C18.0514 42.9123 17.3499 42.7884 16.6788 42.5618C16.5353 42.5066 16.5799 41.4815 16.7828 40.3724L19.1336 27.3164C19.7883 23.6923 18.8953 24.5829 22.0024 25.1318C22.6801 25.2515 22.9111 24.408 21.9827 29.5814L20.2244 39.322C19.7113 42.1013 19.9076 43.0502 18.7618 42.9298L18.7596 42.9294Z" fill="white" stroke="black" stroke-width="2.26394" stroke-miterlimit="22.926" stroke-linecap="round"/>
<path d="M21.0953 24.607C22.4091 24.8391 23.6582 23.9848 23.8854 22.699C24.1125 21.4131 23.2316 20.1826 21.9179 19.9505C20.6041 19.7184 19.3549 20.5727 19.1278 21.8585C18.9006 23.1444 19.7815 24.3749 21.0953 24.607Z" fill="white" stroke="black" stroke-width="2.26394" stroke-miterlimit="22.926"/>
<path fill-rule="evenodd" clip-rule="evenodd" d="M40.0767 45.3939C39.6257 45.3441 30.6807 48.2095 30.9646 46.6021C31.7211 42.3201 33.2546 41.5948 33.7972 35.4083C33.8435 34.8516 35.4946 26.8539 35.618 26.6152C36.259 26.8173 40.97 31.3746 42.6444 31.5217L40.0767 45.3939Z" fill="white" stroke="black" stroke-width="2.26394" stroke-miterlimit="22.926" stroke-linecap="round" stroke-linejoin="round"/>
<path fill-rule="evenodd" clip-rule="evenodd" d="M43.7974 29.8371C44.5056 29.8542 45.2071 29.9781 45.8782 30.2047C46.0217 30.2599 45.9771 31.285 45.7742 32.3941L43.4234 45.4501C42.7687 49.0742 43.6617 48.1836 40.5546 47.6347C39.8769 47.515 39.6459 48.3585 40.5743 43.1851L42.3326 33.4445C42.8383 30.6639 42.6494 29.7163 43.7952 29.8367L43.7974 29.8371Z" fill="white" stroke="black" stroke-width="2.26394" stroke-miterlimit="22.926" stroke-linecap="round"/>
<path d="M44.8609 28.9092C46.1747 29.1413 47.4238 28.2871 47.651 27.0012C47.8781 25.7153 46.9972 24.4848 45.6835 24.2527C44.3697 24.0207 43.1205 24.8749 42.8934 26.1608C42.6663 27.4466 43.5471 28.6772 44.8609 28.9092Z" fill="white" stroke="black" stroke-width="2.26394" stroke-miterlimit="22.926"/>
<path d="M26.6305 34.5218C26.5162 35.0308 26.4422 35.5481 26.4093 36.0687" stroke="black" stroke-width="2.26394" stroke-miterlimit="22.926" stroke-linecap="round" stroke-linejoin="round"/>
<path d="M36.308 36.4763C36.125 37.0911 36.0131 37.7247 35.9744 38.3649" stroke="black" stroke-width="2.26394" stroke-miterlimit="22.926" stroke-linecap="round" stroke-linejoin="round"/>
<path d="M45.671 33.0005L57.6178 34.3078" stroke="black" stroke-width="2.26394" stroke-miterlimit="22.926" stroke-linecap="round" stroke-linejoin="round"/>
<path d="M42.9746 48.0469L55.2214 50.3068" stroke="black" stroke-width="2.26394" stroke-miterlimit="22.926" stroke-linecap="round" stroke-linejoin="round"/>
<path d="M7.11731 25.2534L19.0641 26.5607" stroke="black" stroke-width="2.26394" stroke-miterlimit="22.926" stroke-linecap="round" stroke-linejoin="round"/>
<path d="M4.42188 40.3003L16.6753 42.5614" stroke="black" stroke-width="2.26394" stroke-miterlimit="22.926" stroke-linecap="round" stroke-linejoin="round"/>
</svg>
