<svg width="70" height="70" viewBox="0 0 70 70" fill="none" xmlns="http://www.w3.org/2000/svg">
<path fill-rule="evenodd" clip-rule="evenodd" d="M44.1165 35.7366C48.0022 28.4719 52.6482 19.7856 56.6117 12.9729C58.4059 9.14708 63.3551 11.2555 61.4494 15.4302C57.687 22.4498 53.1356 31.1015 49.0446 38.264C54.4196 41.1538 58.9279 44.1695 58.2656 46.1588C52.4581 58.4445 46.9928 63.8617 30.2317 64.2385C21.9804 48.8814 24.3118 43.813 33.0725 30.0541C33.0176 30.5592 38.3436 32.8957 44.1165 35.7366Z" fill="#3E6C02"/>
<path fill-rule="evenodd" clip-rule="evenodd" d="M39.8928 31.5129C43.7786 24.2483 48.4246 15.5619 52.388 8.74922C54.1822 4.92345 59.1315 7.03189 57.2258 11.2065C53.4634 18.2262 48.912 26.8779 44.821 34.0403C50.196 36.9302 54.7043 39.9458 54.042 41.9352C48.2345 54.2209 42.7691 59.6381 26.008 60.0149C17.7568 44.6577 20.0882 39.5894 28.8489 25.8304C28.794 26.3356 34.12 28.6721 39.8928 31.5129Z" fill="white" stroke="black" stroke-width="2.4835" stroke-miterlimit="22.926" stroke-linecap="round" stroke-linejoin="round"/>
<path d="M31.7824 14.3203C26.691 15.1553 21.945 17.43 18.1048 20.8756C14.2647 24.3212 11.4908 28.7938 10.1108 33.7652C8.73084 38.7366 8.80244 43.9991 10.3172 48.9312C11.8319 53.8632 14.7264 58.2587 18.6589 61.5985C22.5914 64.9384 27.3976 67.0831 32.5098 67.7793C37.622 68.4754 42.8266 67.6941 47.509 65.5274C52.1914 63.3607 56.1559 59.8993 58.9343 55.5519C61.7127 51.2045 63.1889 46.1528 63.1885 40.9934" stroke="black" stroke-width="2.4835" stroke-miterlimit="22.926" stroke-linecap="round" stroke-linejoin="round"/>
<path fill-rule="evenodd" clip-rule="evenodd" d="M9.12349 25.231C9.11747 27.3194 8.28519 29.3205 6.80846 30.7972C5.33173 32.274 3.33059 33.1062 1.24219 33.1123C3.33059 33.1183 5.33173 33.9506 6.80846 35.4273C8.28519 36.904 9.11747 38.9052 9.12349 40.9936C9.12951 38.9052 9.96179 36.904 11.4385 35.4273C12.9152 33.9506 14.9164 33.1183 17.0048 33.1123C14.9164 33.1062 12.9152 32.274 11.4385 30.7972C9.96179 29.3205 9.12951 27.3194 9.12349 25.231Z" fill="white" stroke="black" stroke-width="2.4835" stroke-miterlimit="22.926" stroke-linecap="round" stroke-linejoin="round"/>
<path fill-rule="evenodd" clip-rule="evenodd" d="M38.9233 1.97119C38.9173 4.05959 38.085 6.06074 36.6083 7.53747C35.1315 9.0142 33.1304 9.84648 31.042 9.8525C33.1304 9.85851 35.1315 10.6908 36.6083 12.1675C38.085 13.6443 38.9173 15.6454 38.9233 17.7338C38.9293 15.6454 39.7616 13.6443 41.2383 12.1675C42.7151 10.6908 44.7162 9.85851 46.8046 9.8525C44.7162 9.84648 42.7151 9.0142 41.2383 7.53747C39.7616 6.06074 38.9293 4.05959 38.9233 1.97119Z" fill="white" stroke="black" stroke-width="2.4835" stroke-miterlimit="22.926" stroke-linecap="round" stroke-linejoin="round"/>
<path fill-rule="evenodd" clip-rule="evenodd" d="M63.1885 20.2812C63.1825 21.758 62.5932 23.1726 61.5489 24.2169C60.5047 25.2611 59.0901 25.8504 57.6133 25.8564C59.0897 25.8609 60.5044 26.449 61.5488 27.4925C62.5933 28.536 63.1827 29.9502 63.1885 31.4266C63.1927 29.9506 63.7809 28.5363 64.8246 27.4926C65.8683 26.4489 67.2826 25.8607 68.7586 25.8564C67.2822 25.8507 65.868 25.2612 64.8245 24.2168C63.781 23.1724 63.1929 21.7576 63.1885 20.2812Z" fill="white" stroke="black" stroke-width="2.4835" stroke-miterlimit="22.926" stroke-linecap="round" stroke-linejoin="round"/>
<path fill-rule="evenodd" clip-rule="evenodd" d="M29.1985 36.1834C30.3017 38.4641 28.3124 37.5096 27.4676 40.9983C26.9929 43.0713 27.6003 43.791 27.2142 45.0049C26.7741 46.408 26.1465 46.5549 25.2874 45.2634C23.8632 43.1203 25.42 38.6525 27.5487 36.349C28.5539 35.2601 28.6308 35.016 29.1959 36.18L29.1985 36.1834Z" fill="black"/>
</svg>
