<svg width="70" height="70" viewBox="0 0 70 70" fill="none" xmlns="http://www.w3.org/2000/svg">
<path fill-rule="evenodd" clip-rule="evenodd" d="M39.3908 25.1333C38.365 29.9782 37.6727 33.8213 35.79 38.4282C35.402 39.3764 36.4244 40.554 37.8296 40.9282L43.4917 42.4445L40.0348 46.9851L50.7046 44.5204L55.4744 45.8497C56.8753 46.2411 58.3977 45.7885 58.5365 44.7678C59.2262 39.6669 60.8555 36.2264 62.7038 31.448C64.327 27.254 65.5856 27.0825 59.0434 25.2592L46.7219 21.8238C39.2391 19.7394 40.4451 20.1523 39.3908 25.1333Z" fill="#3E6C02"/>
<path fill-rule="evenodd" clip-rule="evenodd" d="M52.9119 31.3956C49.7421 41.7767 47.7912 50.087 45.4981 60.706C45.024 62.9008 43.2567 64.3413 41.8283 63.9586L22.293 58.7293C20.8628 58.3474 20.0317 56.2068 20.7602 54.0844C24.1915 44.4617 27.0415 34.6414 29.2947 24.6767C31.4567 15.087 30.6016 13.7172 37.274 15.5043L49.8404 18.8663C57.4628 20.9043 56.1679 20.7258 52.9119 31.3956Z" fill="#3E6C02"/>
<path d="M15.7849 18.791C12.3503 21.901 9.72067 25.7971 8.12131 30.1457C6.52195 34.4943 6.00053 39.1658 6.60169 43.7601C7.20285 48.3543 8.90868 52.7344 11.5731 56.5251C14.2375 60.3158 17.781 63.4042 21.9002 65.5257C26.0194 67.6472 30.5914 68.7386 35.2247 68.7064C39.858 68.6743 44.4145 67.5195 48.5038 65.341C52.5932 63.1625 56.0935 60.0253 58.705 56.1979C61.3165 52.3706 62.9614 47.9673 63.4987 43.3652" stroke="black" stroke-width="2.58621" stroke-miterlimit="22.926" stroke-linecap="round" stroke-linejoin="round"/>
<path fill-rule="evenodd" clip-rule="evenodd" d="M49.772 26.2656C46.6022 36.6466 44.6531 44.9569 42.3582 55.5759C41.8824 57.7707 40.1169 59.2113 38.6884 58.8285L19.1531 53.6009C17.7229 53.2164 16.8901 51.0768 17.6203 48.9544C21.0489 39.3301 23.8969 29.5087 26.1488 19.5432C28.3125 9.9535 27.4582 8.58539 34.1281 10.3707L46.6944 13.7328C54.3238 15.7742 53.0306 15.5957 49.7729 26.2647L49.772 26.2656Z" fill="white" stroke="black" stroke-width="2.58621" stroke-miterlimit="22.926" stroke-linecap="round"/>
<path fill-rule="evenodd" clip-rule="evenodd" d="M34.6473 19.8005C33.6197 24.6453 32.9292 28.4885 31.0465 33.0954C30.6568 34.0436 31.6792 35.2212 33.0844 35.5954L38.7482 37.1117L35.293 41.6548L45.9646 39.1902L50.7318 40.5195C52.1327 40.9109 53.6568 40.4583 53.7939 39.4376C54.4835 34.3367 56.1146 30.8962 57.9628 26.1178C59.5835 21.9238 60.8421 21.7522 54.3025 19.929L41.9792 16.4936C34.4982 14.4074 35.7059 14.8203 34.6516 19.8005H34.6473Z" fill="white" stroke="black" stroke-width="2.58621" stroke-miterlimit="22.926" stroke-linecap="round" stroke-linejoin="round"/>
<path d="M38.9307 24.3955C42.4419 24.6679 47.3945 26.13 50.8841 27.0912" stroke="black" stroke-width="2.58621" stroke-miterlimit="22.926" stroke-linecap="round"/>
<path d="M38.1143 29.5273C41.5625 30.3187 45.7867 31.5739 49.5143 32.0679" stroke="black" stroke-width="2.58621" stroke-miterlimit="22.926" stroke-linecap="round"/>
<path fill-rule="evenodd" clip-rule="evenodd" d="M29.374 50.9673C29.524 51.9846 32.5947 53.9389 33.9162 51.2035C35.0861 48.7854 28.8688 47.5432 29.374 50.9673Z" fill="white" stroke="black" stroke-width="2.58621" stroke-miterlimit="22.926"/>
<path d="M22.3164 9.92471C23.613 5.2842 26.9457 4.56006 31.2561 4.56006" stroke="black" stroke-width="2.58621" stroke-miterlimit="22.926" stroke-linecap="round" stroke-linejoin="round"/>
<path d="M20.3633 5.30504C21.3331 1.83176 23.8254 1.29297 27.0495 1.29297" stroke="black" stroke-width="2.58621" stroke-miterlimit="22.926" stroke-linecap="round" stroke-linejoin="round"/>
</svg>
