<svg width="68" height="68" viewBox="0 0 68 68" fill="none" xmlns="http://www.w3.org/2000/svg">
<g clip-path="url(#clip0_665_1115)">
<path d="M11.7287 26.4126C12.5869 25.6498 14.0172 25.6498 14.78 26.6033C15.5428 27.4615 15.5428 28.701 14.78 29.5592C14.4939 29.8453 14.3032 30.036 14.1125 30.2267C11.7287 32.7058 10.2031 35.8525 9.5356 39.1898C8.96348 42.4318 10.0124 45.6738 12.3962 47.9623C12.5869 48.153 12.6822 48.2483 12.7776 48.3437C14.9707 50.2507 17.7359 51.5856 20.5965 52.1578C22.3128 52.5392 24.1245 52.5392 25.8409 52.1578C27.0805 51.8717 28.2247 51.1089 28.7968 49.9647C29.3689 48.8204 29.5596 47.4855 29.4643 46.2459C29.4643 45.0063 30.4178 44.0528 31.562 43.9574C32.7063 43.9574 33.7551 44.8156 33.8505 46.0552C33.9459 48.153 33.5644 50.1554 32.7063 51.9671C31.4667 54.1602 29.4643 55.7812 26.9851 56.3533C24.6013 56.9254 22.1221 56.9254 19.7383 56.3533C16.1149 55.5905 12.6822 53.9695 9.91701 51.4903C9.7263 51.2996 9.5356 51.1089 9.34489 50.9182C6.00755 47.6762 4.48191 43.0039 5.24473 38.427C6.00755 34.2315 7.9146 30.322 10.8705 27.1754C11.1566 26.8893 11.4426 26.6033 11.6334 26.4126H11.7287Z" fill="#3E6C02"/>
<path d="M60.7668 33.0875C61.2435 31.9433 62.4831 31.4665 63.6273 31.9433C64.7716 32.4201 65.2483 33.6596 64.7716 34.8039L64.4855 35.5667C63.1506 38.618 62.2924 40.4297 58.3829 42.0507C57.4294 42.5274 56.3805 42.8135 55.3317 43.1949C55.0456 44.0531 54.6642 44.8159 54.1874 45.5787C53.2339 47.1997 51.6129 48.3439 49.8012 48.7253C47.7988 49.2021 45.7011 49.2975 43.6986 48.9161C39.9799 48.1532 37.31 50.7277 35.8797 52.9209C35.5937 53.3976 35.3076 53.9697 35.1169 54.5419V55.0186C35.1169 56.2582 34.1634 57.3071 32.9238 57.4024C31.8749 57.4024 30.9214 56.735 30.6353 55.7814C30.4446 54.9233 30.54 53.9697 30.8261 53.1116C31.1121 52.2534 31.5889 51.3952 32.0656 50.6324C34.1634 47.2951 38.2636 43.481 44.4615 44.7205C45.7964 45.0066 47.2267 44.9112 48.5616 44.6252C49.2291 44.5298 49.8012 44.1484 50.278 43.5763C50.7547 42.8135 51.0408 42.0507 51.3269 41.1925C51.3269 40.6204 51.7083 40.1436 52.185 39.7622C52.5664 39.3808 53.0432 39.1901 53.52 39.1901C54.5688 38.9994 55.6177 38.618 56.6666 38.1412C59.0504 37.0923 59.6225 35.9481 60.5761 33.8503C60.7668 33.3736 60.5761 33.8503 60.8621 33.1829L60.7668 33.0875Z" fill="#3E6C02"/>
<path d="M22.8031 16.4005C26.4265 13.826 31.8616 13.9214 31.8616 13.9214L40.4433 15.447L46.3552 19.2611L52.5531 23.2659L57.7975 25.7451L61.0395 26.9847L62.7558 30.7034L59.5138 35.5664L57.0347 38.1409L54.1741 39.6665L51.981 40.9061C51.5042 41.4782 51.1228 42.0504 50.7414 42.7178C50.4554 43.2899 50.1693 43.7667 49.7879 44.3388C49.7879 44.3388 47.6901 45.2923 47.118 45.3877C46.5459 45.4831 40.4433 45.3877 40.4433 45.3877H38.2502C37.2013 46.1505 36.1525 47.0087 35.1989 47.9622C34.4361 48.8204 31.7663 50.2507 31.8616 50.7274C31.957 51.2042 31.0034 52.8252 31.0034 52.8252L27.9521 50.7274L31.0034 46.1505C31.0034 46.1505 32.243 44.3388 31.8616 43.3853C31.4802 42.4318 30.9081 40.4294 30.1453 38.9991C29.3824 37.5688 27.9521 33.4686 27.9521 33.4686L26.5219 30.7034V23.9334C26.5219 23.9334 26.0451 22.9798 25.473 23.2659C24.9009 23.552 19.0844 23.9334 19.0844 23.9334L16.7959 22.7891L20.4193 17.6401L22.7078 16.4959L22.8031 16.4005Z" fill="white"/>
<path d="M57.8109 10.1891C63.9407 16.3189 67.7276 24.7781 67.7276 34.1362C67.7276 43.4944 63.9407 51.9535 57.8109 58.0834C51.6811 64.2132 43.222 68 33.8638 68C24.5056 68 16.0465 64.2132 9.91667 58.0834C3.78686 51.9535 0 43.4944 0 34.1362C0 24.7781 3.78686 16.3189 9.91667 10.1891C16.0465 4.05932 24.5192 0.272461 33.8638 0.272461C43.2083 0.272461 51.6811 4.05932 57.8109 10.1891ZM64.867 34.1362C64.867 25.5681 61.3934 17.8173 55.7812 12.2188C50.1691 6.60659 42.4183 3.13304 33.8638 3.13304C25.3093 3.13304 17.5449 6.60659 11.9463 12.2188C6.33413 17.831 2.86058 25.5818 2.86058 34.1362C2.86058 42.6907 6.33413 50.4551 11.9463 56.0537C17.5585 61.6659 25.3093 65.1394 33.8638 65.1394C42.4183 65.1394 50.1827 61.6659 55.7812 56.0537C61.3934 50.4415 64.867 42.6907 64.867 34.1362Z" fill="black"/>
<path fill-rule="evenodd" clip-rule="evenodd" d="M35.7707 25.5547C34.3404 26.8896 35.0079 28.4153 37.0103 28.606C37.7731 26.8896 37.2963 25.5547 35.7707 25.5547Z" fill="black"/>
<path fill-rule="evenodd" clip-rule="evenodd" d="M42.8272 23.0753C42.2551 24.6963 42.3505 25.5545 44.3529 25.8405C45.4971 24.1242 44.8296 22.5985 42.8272 23.0753Z" fill="black"/>
<path d="M12.0558 23.7838C12.2328 23.6067 12.4372 23.4977 12.6415 23.4296L12.7777 23.1708L18.6896 17.2589H18.5942L18.5397 17.4632C20.6647 15.2974 23.5934 13.9216 26.7809 13.1996C31.1808 12.2052 36.1255 12.4777 40.0485 13.69C40.8931 13.9488 41.7104 14.2621 42.4732 14.6163C44.9796 15.7878 46.8322 17.3815 48.712 18.9889C51.6407 21.4953 54.6239 24.0426 60.1271 24.6011C60.1407 24.6011 60.1679 24.6011 60.1816 24.6011C60.6038 24.6419 60.9852 24.7509 61.3258 24.8871C62.3474 25.323 62.9604 26.1131 63.2873 27.0938C63.5598 27.8975 63.6006 28.8102 63.5189 29.7092C63.3963 30.9761 63.0149 32.2701 62.6471 33.1555C62.6471 33.1692 62.6335 33.1964 62.6199 33.21C62.4973 33.4825 62.5654 33.3463 62.3747 33.7958C61.0806 36.7926 60.345 38.4817 56.5309 40.0346H56.4901C54.8146 40.7429 53.8066 41.0426 53.1936 41.1788C53.0301 41.71 52.7032 42.5546 51.9949 43.8623V43.8895C51.2048 45.3062 49.7336 46.178 48.0854 46.6411C46.1784 47.186 43.958 47.186 42.3779 46.8863C42.3506 46.8863 42.3234 46.8863 42.2961 46.8727C38.1415 46.0418 35.2264 48.8479 33.7553 51.2044C33.333 51.8719 33.0469 52.4985 32.8699 52.9889C32.829 53.1115 32.7881 53.166 32.7473 53.2068C32.8426 53.3703 32.8971 53.561 32.9107 53.7653C32.9788 54.5554 32.3931 55.2365 31.603 55.3046C30.7721 55.3727 30.2272 54.9777 29.9684 54.2012C29.805 53.7108 29.8731 52.9208 30.1727 52.049C30.4043 51.3679 30.7993 50.5506 31.3306 49.6924C33.2649 46.5866 37.1471 42.936 42.841 44.0666C42.8683 44.0666 42.8955 44.0666 42.9227 44.0666C44.1351 44.2982 45.8514 44.2982 47.3226 43.8759C48.3034 43.6035 49.1343 43.1539 49.5157 42.4729C50.3739 40.8791 50.5237 40.2253 50.5918 39.9256C50.7008 39.4624 50.7553 39.2309 51.1639 38.8767C51.5045 38.577 51.7224 38.5362 52.1583 38.4544C52.5534 38.3863 53.3843 38.2229 55.4139 37.3783C55.4275 37.3783 55.4548 37.3647 55.4684 37.3511C58.2064 36.2477 58.7649 34.94 59.7593 32.6379C59.7865 32.5698 59.7048 32.7605 60.0181 32.0386V32.0113C60.3178 31.3302 60.6038 30.3631 60.6992 29.4368C60.7537 28.8783 60.74 28.3607 60.6038 27.9656C60.5357 27.7477 60.4131 27.5706 60.236 27.4889C60.1407 27.448 60.0453 27.4208 59.9227 27.4071H59.8819C53.466 26.7533 50.1559 23.92 46.8867 21.1275C45.1567 19.6427 43.4267 18.1716 41.2881 17.1636C40.6615 16.8639 39.9668 16.6051 39.2312 16.3735C35.7441 15.2974 31.3442 15.0522 27.4211 15.9376C23.6615 16.7822 20.365 18.6756 18.8803 21.8495C18.7168 22.2036 18.567 22.5714 18.4444 22.9664L18.4035 23.089C18.5125 23.0618 18.6215 23.0346 18.7441 23.0346C19.071 23.0209 19.7521 22.8438 20.5285 22.6395C22.2993 22.1764 24.4652 21.6043 26.1271 22.1083C28.1159 22.7076 29.2192 24.3559 28.1022 28.1563C28.1022 28.1836 28.0886 28.2108 28.075 28.2381C27.6118 29.7092 29.0013 32.5562 30.3771 35.3895C31.6439 37.9777 32.8971 40.5522 32.9925 42.7317C33.0878 44.9929 32.6655 46.8318 31.8891 48.2894C30.7449 50.4007 28.8787 51.6676 26.6447 52.2805C24.5606 52.8527 22.1631 52.8118 19.7793 52.3214C16.2376 51.5995 12.6824 49.8831 10.2849 47.6628C10.0125 47.4176 9.80816 47.2269 9.65832 47.077C6.22563 43.6443 5.2721 39.4897 5.87146 35.4304C6.4572 31.5073 8.51409 27.666 11.1703 24.6964C11.4973 24.3286 11.7969 24.0153 12.0558 23.7565" fill="black"/>
<path fill-rule="evenodd" clip-rule="evenodd" d="M38.2502 34.1362C35.485 41.097 42.1597 42.3366 45.211 39.6667C49.5972 35.7572 43.0178 38.8085 38.4409 34.4223" fill="black"/>
<path fill-rule="evenodd" clip-rule="evenodd" d="M60.9572 26.6987C58.0967 27.0801 53.2337 27.7476 53.043 31.1803C57.4292 33.0874 60.0037 32.5152 61.8154 28.129L60.9572 26.6987Z" fill="black"/>
</g>
<defs>
<clipPath id="clip0_665_1115">
<rect width="68" height="68" fill="white"/>
</clipPath>
</defs>
</svg>
