<svg width="106" height="106" viewBox="0 0 106 106" fill="none" xmlns="http://www.w3.org/2000/svg">
<path d="M48.708 65.0321C48.7541 62.461 49.0055 23.8622 48.4434 23.8213" stroke="#CCCACB" stroke-width="6.92213" stroke-miterlimit="22.926" stroke-linecap="round" stroke-linejoin="round"/>
<path fill-rule="evenodd" clip-rule="evenodd" d="M48.3891 4.62305C48.4954 4.62305 48.2583 22.5195 48.4679 25.2184L52.6636 25.7508C52.5327 19.1722 52.4152 10.65 52.3766 6.96438L48.3891 4.62305Z" fill="#CCCACB"/>
<path fill-rule="evenodd" clip-rule="evenodd" d="M73.5904 48.6948C73.5829 51.2798 72.5525 53.7568 70.7244 55.5844C68.8962 57.412 66.419 58.4416 63.834 58.4483C66.4189 58.4553 68.8959 59.4851 70.7239 61.3126C72.552 63.1401 73.5825 65.6168 73.5904 68.2017C73.598 65.6173 74.6281 63.1409 76.4555 61.3134C78.283 59.486 80.7594 58.4559 83.3438 58.4483C80.7593 58.441 78.2827 57.4111 76.4551 55.5835C74.6276 53.756 73.5976 51.2794 73.5904 48.6948Z" fill="#CCCACB"/>
<path fill-rule="evenodd" clip-rule="evenodd" d="M26.285 52.8711C26.2807 54.6988 25.5529 56.4505 24.2608 57.7431C22.9687 59.0358 21.2174 59.7643 19.3896 59.7694C21.2168 59.7745 22.9677 60.5026 24.2598 61.7947C25.5518 63.0867 26.2799 64.8376 26.285 66.6648C26.2901 64.8371 27.0186 63.0857 28.3113 61.7936C29.604 60.5015 31.3556 59.7737 33.1833 59.7694C31.3551 59.7651 29.603 59.0369 28.3103 57.7442C27.0175 56.4514 26.2893 54.6993 26.285 52.8711Z" fill="#CCCACB"/>
<path fill-rule="evenodd" clip-rule="evenodd" d="M35.8072 28.9971C35.7993 31.5819 34.7688 34.0587 32.9408 35.8862C31.1127 37.7137 28.6357 38.7434 26.0508 38.7505C28.6357 38.7576 31.1127 39.7873 32.9408 41.6148C34.7688 43.4423 35.7993 45.9191 35.8072 48.5039C35.8148 45.9195 36.8449 43.4431 38.6724 41.6157C40.4998 39.7882 42.9762 38.7582 45.5606 38.7505C42.9762 38.7429 40.4998 37.7128 38.6724 35.8853C36.8449 34.0579 35.8148 31.5815 35.8072 28.9971Z" fill="#CCCACB"/>
<path fill-rule="evenodd" clip-rule="evenodd" d="M68.6319 69.3319C75.186 82.994 84.8405 94.2396 89.2272 97.7074L91.2994 105.946C80.5928 106.475 33.0078 102.831 26.618 105.861L26.0693 98.4442C36.3774 82.5137 38.9485 74.8354 41.2058 67.7051L68.6319 69.3319Z" fill="#CCCACB"/>
<path fill-rule="evenodd" clip-rule="evenodd" d="M17.9219 101.087L33.039 77.2451C37.6957 77.376 60.6747 77.1633 62.1105 78.7381L82.6032 101.171C71.8966 101.704 24.3116 98.0598 17.9219 101.087Z" fill="white" stroke="black" stroke-width="2.23055" stroke-miterlimit="22.926" stroke-linecap="round" stroke-linejoin="round"/>
<path fill-rule="evenodd" clip-rule="evenodd" d="M17.9217 101.087L17.376 93.6701C27.6811 77.7417 30.2537 70.0627 32.5095 62.9302C33.2359 62.9302 31.592 75.3699 33.0389 77.2451L17.9217 101.087Z" fill="white" stroke="black" stroke-width="2.23055" stroke-miterlimit="22.926" stroke-linecap="round" stroke-linejoin="round"/>
<path fill-rule="evenodd" clip-rule="evenodd" d="M59.9355 64.5581C60.2032 67.121 61.2189 74.1666 62.1141 78.7392L82.6031 101.169L80.5309 92.9329C76.1449 89.4674 66.4896 78.2232 59.9355 64.5581Z" fill="white" stroke="black" stroke-width="2.23055" stroke-miterlimit="22.926" stroke-linecap="round" stroke-linejoin="round"/>
<path d="M46.2217 63.7435C46.2678 61.1725 46.5191 22.5736 45.957 22.5327" stroke="black" stroke-width="2.23055" stroke-miterlimit="22.926" stroke-linecap="round" stroke-linejoin="round"/>
<path fill-rule="evenodd" clip-rule="evenodd" d="M32.5094 62.9302C33.2359 62.9302 31.5919 75.3699 33.0388 77.2451C37.6955 77.3759 60.6746 77.1633 62.1103 78.738C61.2181 74.1654 60.1994 67.1199 59.9318 64.557L32.5094 62.9302Z" fill="white" stroke="black" stroke-width="2.23055" stroke-miterlimit="22.926" stroke-linecap="round" stroke-linejoin="round"/>
<path fill-rule="evenodd" clip-rule="evenodd" d="M43.057 1.11523C43.2101 1.11523 42.8629 19.4563 43.1662 22.2192L49.2482 22.7649C49.0601 16.0227 48.8906 7.29013 48.8333 3.51456L43.057 1.11523Z" fill="#D11D1D" stroke="black" stroke-width="2.23055" stroke-miterlimit="22.926" stroke-linecap="round" stroke-linejoin="round"/>
<path fill-rule="evenodd" clip-rule="evenodd" d="M70.0112 45.2036C70.0036 47.788 68.9736 50.2644 67.1461 52.0919C65.3186 53.9194 62.8422 54.9494 60.2578 54.957C62.8427 54.9647 65.3196 55.9951 67.1471 57.8233C68.9747 59.6514 70.0044 62.1285 70.0112 64.7134C70.0189 62.129 71.0489 59.6527 72.8764 57.8252C74.7039 55.9977 77.1803 54.9677 79.7647 54.96C77.1797 54.9524 74.7029 53.9219 72.8754 52.0938C71.0478 50.2657 70.0181 47.7885 70.0112 45.2036Z" fill="white" stroke="black" stroke-width="2.23055" stroke-miterlimit="22.926" stroke-linecap="round" stroke-linejoin="round"/>
<path fill-rule="evenodd" clip-rule="evenodd" d="M22.7099 49.3799C22.7048 51.2076 21.9762 52.9589 20.6836 54.251C19.3909 55.5432 17.6392 56.2709 15.8115 56.2752C17.6397 56.2796 19.3919 57.0077 20.6846 58.3005C21.9774 59.5932 22.7055 61.3453 22.7099 63.1736C22.7142 61.3459 23.4419 59.5942 24.7341 58.3015C26.0262 57.0089 27.7775 56.2803 29.6052 56.2752C27.778 56.2701 26.0271 55.542 24.7351 54.25C23.4431 52.958 22.715 51.2071 22.7099 49.3799Z" fill="white" stroke="black" stroke-width="2.23055" stroke-miterlimit="22.926" stroke-linecap="round" stroke-linejoin="round"/>
<path fill-rule="evenodd" clip-rule="evenodd" d="M32.228 25.5024C32.221 28.0873 31.1912 30.5643 29.3637 32.3924C27.5362 34.2205 25.0595 35.251 22.4746 35.2589C25.059 35.2665 27.5354 36.2965 29.3629 38.124C31.1903 39.9515 32.2204 42.4279 32.228 45.0123C32.2357 42.4274 33.2662 39.9505 35.0943 38.123C36.9224 36.2954 39.3995 35.2657 41.9845 35.2589C39.3991 35.2518 36.9216 34.2216 35.0934 32.3935C33.2653 30.5653 32.2351 28.0878 32.228 25.5024Z" fill="white" stroke="black" stroke-width="2.23055" stroke-miterlimit="22.926" stroke-linecap="round" stroke-linejoin="round"/>
<path fill-rule="evenodd" clip-rule="evenodd" d="M48.4997 70.4619H48.5049H48.5101H48.5183H48.5227H48.5279H48.5361H48.5413H48.5547H48.5599H48.5651H48.5733H48.5785H48.5837H48.5971H48.6023H48.6075L48.6536 70.4485H48.6588C48.719 70.427 48.7793 70.4077 48.8387 70.3883V70.3965C48.7978 70.5355 48.7644 70.6723 48.7406 70.8002C48.809 70.7757 48.8774 70.7541 48.948 70.7318L48.8387 70.3876L48.4945 70.2865C48.47 70.3683 48.4484 70.4478 48.4291 70.5266L48.5034 70.5021L48.4997 70.4619ZM40.0623 83.3463C39.8397 83.4117 39.6241 83.4986 39.4184 83.6058C39.0655 83.7878 38.7662 84.0586 38.55 84.3917C38.3188 84.7719 38.2021 85.2108 38.2139 85.6557C38.2084 85.9872 38.2805 86.3153 38.4243 86.6141C38.5473 86.8632 38.7201 87.0844 38.9321 87.2639C38.7005 87.3756 38.4769 87.5033 38.263 87.6461C37.8983 87.8823 37.5877 88.193 37.3514 88.5576C37.1328 88.9063 37.0157 89.309 37.0131 89.7205V89.7398C37.0057 90.1844 37.0932 90.6254 37.2696 91.0335C37.5893 91.7089 38.1377 92.2494 38.8176 92.5592C40.1179 93.1129 41.5106 93.4175 42.9233 93.4574C44.4684 93.5749 46.232 93.58 48.1041 93.58H48.4811C51.1421 93.6677 53.8045 93.458 56.4189 92.9547C57.3343 92.7699 58.1975 92.385 58.9468 91.8276C59.2557 91.5777 59.5079 91.2649 59.6866 90.9101C59.8635 90.5453 59.9531 90.1444 59.9483 89.7391C59.9525 89.3205 59.8572 88.9069 59.6703 88.5323C59.3633 87.9792 58.8998 87.5291 58.3379 87.2386C58.1496 87.1331 57.9555 87.0383 57.7565 86.9546C57.9821 86.7479 58.168 86.5017 58.3052 86.2282C58.526 85.7684 58.6373 85.2637 58.6301 84.7538C58.6363 84.4455 58.5528 84.142 58.3899 83.8802C58.2442 83.658 58.0512 83.4706 57.8249 83.3314C57.6136 83.1984 57.3872 83.0911 57.1505 83.0117L57.1639 82.9626C57.2441 82.6972 57.2881 82.422 57.2947 82.1448C57.2983 81.6775 57.1446 81.2226 56.8583 80.8533C56.486 80.401 56.008 80.0476 55.4664 79.8243C55.5338 79.6135 55.5679 79.3935 55.5676 79.1722C55.5722 78.819 55.4818 78.471 55.3058 78.1647C55.0244 77.7166 54.6078 77.3696 54.1162 77.1736C54.0233 77.1328 53.9303 77.0948 53.8352 77.0562C53.8483 76.9292 53.8547 76.8016 53.8545 76.674C53.8614 76.2803 53.7793 75.8902 53.6143 75.5327C53.3341 74.9888 52.9016 74.5383 52.3697 74.236C51.6106 73.7661 50.734 73.4501 50.0901 73.0375C49.7911 72.8614 49.531 72.6264 49.3257 72.3467C49.1311 72.0589 49.0317 71.7171 49.0417 71.3698C49.0477 71.0567 49.0978 70.7461 49.1904 70.447C49.2091 70.3844 49.2104 70.318 49.1941 70.2547C49.1778 70.1914 49.1447 70.1337 49.0981 70.0879C49.0516 70.042 48.9934 70.0097 48.9299 69.9944C48.8664 69.9791 48.7999 69.9814 48.7376 70.001C47.0938 70.48 45.6113 71.3973 44.449 72.6546C43.5898 73.5582 43.0823 74.7395 43.0185 75.9848C43.0146 76.379 43.0905 76.77 43.2416 77.1342C43.0435 77.2063 42.8503 77.291 42.6631 77.3878C42.3104 77.5627 42.0001 77.8123 41.7538 78.1194C41.523 78.4212 41.3983 78.7908 41.3991 79.1707C41.3983 79.3454 41.4148 79.5197 41.4482 79.6912L41.3857 79.7209C40.8978 79.9323 40.4701 80.2616 40.1411 80.6793C39.8265 81.1026 39.6615 81.6183 39.6719 82.1455C39.6674 82.3957 39.7082 82.6445 39.7924 82.8801C39.8558 83.0509 39.9492 83.2091 40.0682 83.347L40.0623 83.3463Z" fill="black" stroke="black" stroke-width="2.23055" stroke-miterlimit="22.926" stroke-linecap="round" stroke-linejoin="round"/>
<path fill-rule="evenodd" clip-rule="evenodd" d="M53.4485 77.191C53.1452 79.1866 51.412 79.533 48.9005 79.533C46.3889 79.533 46.2744 79.1888 44.3197 77.9033C42.2378 76.53 43.5338 72.0295 48.8373 70.3477C47.58 74.6719 54.0634 73.17 53.4485 77.191Z" fill="white"/>
<path fill-rule="evenodd" clip-rule="evenodd" d="M53.4493 77.1911L53.0947 77.1368C53.0489 77.5139 52.906 77.8726 52.6798 78.1778C52.5241 78.3747 52.3301 78.5381 52.1095 78.6581C51.6913 78.8727 51.238 79.0104 50.7712 79.0648C50.1522 79.1443 49.5283 79.1798 48.9042 79.1711C48.4191 79.1775 47.9341 79.1527 47.4521 79.0968C46.9918 79.0461 46.5472 78.8991 46.1473 78.6655C45.7376 78.4335 45.2603 78.0841 44.5205 77.5978C44.2699 77.4313 44.069 77.2 43.939 76.9287C43.8005 76.6305 43.7314 76.3049 43.7368 75.9762C43.8022 74.9079 44.2455 73.8978 44.9874 73.1263C45.9118 72.1196 47.0668 71.3523 48.3533 70.8906C48.2328 71.3003 48.3206 71.0214 48.3206 71.3627C48.3158 71.7433 48.399 72.1199 48.5637 72.4631C48.8498 72.9888 49.2821 73.4203 49.8083 73.7055C50.5675 74.1583 51.4381 74.4751 52.082 74.9011C52.3834 75.0877 52.6435 75.3339 52.8463 75.6245C53.0439 75.9351 53.1446 76.2975 53.1356 76.6655C53.1341 76.8198 53.1215 76.9739 53.0976 77.1264L53.4523 77.1807L53.8099 77.235C53.8388 77.0463 53.8535 76.8556 53.8538 76.6647C53.8607 76.2711 53.7786 75.8809 53.6136 75.5234C53.3334 74.9796 52.9009 74.529 52.369 74.2267C51.6099 73.7576 50.7333 73.4408 50.0894 73.0282C49.7904 72.8522 49.5303 72.6172 49.3251 72.3375C49.1304 72.0496 49.031 71.7079 49.041 71.3605C49.0471 71.0475 49.0971 70.7368 49.1897 70.4378C49.2084 70.3752 49.2097 70.3087 49.1934 70.2454C49.1771 70.1821 49.144 70.1245 49.0974 70.0786C49.0509 70.0328 48.9927 70.0004 48.9292 69.9851C48.8657 69.9698 48.7993 69.9721 48.7369 69.9917C47.0931 70.4707 45.6106 71.388 44.4483 72.6453C43.5897 73.5481 43.0822 74.7282 43.0178 75.9725C43.0123 76.411 43.1066 76.845 43.2937 77.2417C43.4798 77.6282 43.7677 77.9567 44.1264 78.1919C44.6097 78.5116 44.9837 78.7704 45.316 78.9889C45.7598 79.3058 46.2547 79.544 46.7793 79.6931C47.4782 79.8457 48.1938 79.9089 48.9087 79.8812C50.0086 79.9403 51.1097 79.7873 52.1519 79.4306C52.5839 79.256 52.9637 78.9731 53.2545 78.609C53.5574 78.2069 53.7503 77.7328 53.8144 77.2335L53.4568 77.1792L53.4493 77.1911Z" fill="black"/>
<path fill-rule="evenodd" clip-rule="evenodd" d="M43.9277 76.9203C43.7951 76.6263 43.7288 76.3067 43.7336 75.9842C43.799 74.9159 44.2423 73.9057 44.9842 73.1343C45.8607 72.1749 46.9498 71.4344 48.1642 70.9722C47.2445 71.622 45.6802 72.5878 45.3582 73.8139C45.1158 74.7433 45.1385 75.722 45.4236 76.6392C44.9194 76.7003 44.4197 76.7942 43.9277 76.9203Z" fill="#CCCACB"/>
<path fill-rule="evenodd" clip-rule="evenodd" d="M43.5803 77.0192C42.7625 75.1523 44.3907 71.7588 48.8407 70.3477C48.7968 70.5031 48.5321 70.7135 48.1663 70.973C46.9519 71.4352 45.8627 72.1757 44.9863 73.1351C44.2444 73.9065 43.8011 74.9167 43.7357 75.985C43.7309 76.3075 43.7972 76.6271 43.9298 76.9211C43.8078 76.9508 43.6904 76.9873 43.5803 77.0192Z" fill="black"/>
<path fill-rule="evenodd" clip-rule="evenodd" d="M52.2399 77.0407C54.0244 77.3135 55.2043 77.9113 55.2043 79.1723C55.2043 81.1924 52.1931 81.5144 48.4807 81.5144C44.7683 81.5144 41.7549 81.5144 41.7549 79.1723C41.7549 77.9165 43.3274 77.2533 45.6011 76.9834L52.2399 77.0407Z" fill="white"/>
<path fill-rule="evenodd" clip-rule="evenodd" d="M52.1857 77.3962C52.8918 77.4698 53.5752 77.6883 54.1932 78.0379C54.3909 78.1608 54.5574 78.3281 54.6794 78.5264C54.7922 78.7229 54.8488 78.9467 54.843 79.1732C54.8459 79.3572 54.8097 79.5397 54.7367 79.7085C54.5895 80.0066 54.3487 80.2481 54.0512 80.3963C53.3397 80.7392 52.5703 80.9458 51.7827 81.0052C50.6855 81.1178 49.5828 81.1674 48.48 81.1539C46.9174 81.2232 45.3519 81.128 43.8092 80.8699C43.3384 80.7849 42.8985 80.5769 42.5341 80.2669C42.3903 80.1249 42.2784 79.9538 42.2059 79.765C42.1335 79.5763 42.1022 79.3743 42.114 79.1725C42.1122 78.9489 42.1864 78.7313 42.3244 78.5554C42.6407 78.198 43.0511 77.937 43.5089 77.8022C44.2005 77.5674 44.9167 77.4125 45.6435 77.3405C45.7382 77.3286 45.8244 77.2797 45.8832 77.2044C45.942 77.1292 45.9686 77.0337 45.9573 76.9389C45.9518 76.8921 45.9372 76.8468 45.9142 76.8057C45.8912 76.7645 45.8603 76.7284 45.8232 76.6992C45.7862 76.67 45.7438 76.6485 45.6984 76.6358C45.653 76.6231 45.6055 76.6195 45.5587 76.6252C44.5549 76.7082 43.5734 76.9669 42.659 77.3895C42.3063 77.5644 41.996 77.8141 41.7497 78.1211C41.519 78.4227 41.3944 78.792 41.395 79.1717C41.3839 79.4702 41.435 79.7678 41.5449 80.0455C41.6549 80.3233 41.8213 80.5751 42.0337 80.7852C42.3619 81.0847 42.7525 81.3076 43.1772 81.438C43.946 81.6683 44.7417 81.7968 45.5439 81.8201C46.442 81.8744 47.4354 81.8744 48.4807 81.8744C50.108 81.9304 51.7359 81.7873 53.3285 81.4484C53.9138 81.3121 54.4588 81.0401 54.9196 80.6543C55.1222 80.4717 55.2841 80.2485 55.3947 79.9993C55.5088 79.7387 55.5666 79.4569 55.5642 79.1725C55.5688 78.8193 55.4784 78.4713 55.3025 78.165C55.021 77.7169 54.6045 77.3698 54.1129 77.1739C53.5315 76.9297 52.9202 76.7644 52.295 76.6824C52.2473 76.6731 52.1982 76.6736 52.1507 76.6837C52.1032 76.6938 52.0582 76.7135 52.0185 76.7414C51.9788 76.7694 51.9451 76.8051 51.9195 76.8463C51.8939 76.8876 51.8769 76.9337 51.8695 76.9817C51.8622 77.0297 51.8646 77.0787 51.8766 77.1258C51.8887 77.1728 51.9101 77.217 51.9396 77.2555C51.9691 77.2941 52.0062 77.3263 52.0484 77.3503C52.0907 77.3742 52.1374 77.3893 52.1857 77.3947V77.3962Z" fill="black"/>
<path fill-rule="evenodd" clip-rule="evenodd" d="M54.8412 79.1234C53.1051 77.5426 50.3206 77.1389 50.3154 77.0244L51.8768 77.0378C51.876 77.1242 51.9066 77.208 51.9627 77.2738C52.0189 77.3395 52.0969 77.3827 52.1824 77.3954C52.8886 77.469 53.5719 77.6875 54.1899 78.0371C54.3876 78.16 54.5541 78.3273 54.6761 78.5256C54.7819 78.7072 54.8388 78.9132 54.8412 79.1234Z" fill="#CCCACB"/>
<path fill-rule="evenodd" clip-rule="evenodd" d="M55.1776 79.4567C55.0713 79.3392 54.959 79.2336 54.8415 79.1236C54.8398 78.9148 54.7842 78.7099 54.6802 78.5288C54.5582 78.3305 54.3917 78.1632 54.1939 78.0403C53.576 77.6907 52.8926 77.4723 52.1865 77.3987C52.101 77.3859 52.0229 77.3427 51.9668 77.277C51.9106 77.2113 51.8801 77.1275 51.8809 77.041H52.2415C54.0259 77.3139 55.2059 77.9117 55.2059 79.1727C55.2037 79.2679 55.1943 79.3629 55.1776 79.4567Z" fill="black"/>
<path fill-rule="evenodd" clip-rule="evenodd" d="M42.1316 79.4321C42.1234 79.3503 42.1182 79.2655 42.1153 79.1726C42.1134 78.949 42.1876 78.7314 42.3257 78.5555C42.6419 78.1981 43.0524 77.9371 43.5101 77.8023C43.9216 77.6577 44.3444 77.5473 44.7741 77.4722C44.5248 77.6607 44.3169 77.8986 44.1634 78.1709C44.0099 78.4432 43.9141 78.7442 43.8819 79.0551C43.289 79.1321 42.7036 79.2582 42.1316 79.4321Z" fill="#CCCACB"/>
<path fill-rule="evenodd" clip-rule="evenodd" d="M41.7683 79.5578C41.7601 79.473 41.7549 79.386 41.7549 79.2931C41.7549 78.1354 43.0977 77.4804 45.0933 77.1748C44.9758 77.2759 44.8702 77.377 44.7713 77.4722C44.3416 77.5473 43.9189 77.6577 43.5073 77.8023C43.0496 77.9371 42.6391 78.1982 42.3229 78.5555C42.1849 78.7314 42.1107 78.949 42.1125 79.1726C42.1125 79.2656 42.1207 79.3503 42.1289 79.4321C42.0084 79.4708 41.8857 79.5139 41.7683 79.5578Z" fill="black"/>
<path fill-rule="evenodd" clip-rule="evenodd" d="M45.4027 79.2603C42.2584 79.4833 40.0279 80.1777 40.0279 82.1458C40.0279 83.1064 40.5602 83.4046 41.4718 83.8522L41.4093 86.8411C38.9446 87.3683 37.375 88.288 37.375 89.7408C37.375 93.2212 42.3461 93.2212 48.4824 93.2212C54.6186 93.2212 59.5868 92.7431 59.5868 89.7408C59.5868 88.1906 58.2603 87.314 56.1339 86.8285C56.412 85.5727 56.699 83.2388 56.699 83.2388C56.8309 82.8884 56.9101 82.5203 56.9339 82.1466C56.9339 80.5279 54.8945 79.684 51.9628 79.3487L45.4035 79.2617L45.4027 79.2603Z" fill="white"/>
<path fill-rule="evenodd" clip-rule="evenodd" d="M45.3777 78.9025C44.0079 78.9384 42.6551 79.2153 41.3813 79.7203C40.8931 79.9323 40.4654 80.2624 40.1366 80.681C39.8221 81.1042 39.6571 81.6199 39.6675 82.1472C39.663 82.3973 39.7038 82.6462 39.7879 82.8818C39.9109 83.1942 40.1236 83.4632 40.3991 83.655C40.6882 83.8536 40.9942 84.0262 41.3136 84.171L41.472 83.8491L41.1114 83.8409L41.0489 86.8298L41.4095 86.838L41.3352 86.4856C40.2475 86.6767 39.2053 87.0704 38.263 87.6462C37.8983 87.8825 37.5877 88.1931 37.3514 88.5578C37.1328 88.9064 37.0157 89.3091 37.0131 89.7206V89.7399C37.0057 90.1845 37.0932 90.6256 37.2696 91.0337C37.5893 91.7091 38.1377 92.2495 38.8176 92.5594C40.118 93.113 41.5106 93.4177 42.9233 93.4575C44.4684 93.575 46.232 93.5802 48.1041 93.5802H48.4811C51.1421 93.6679 53.8045 93.4582 56.4189 92.9549C57.3343 92.7701 58.1975 92.3852 58.9468 91.8277C59.2557 91.5778 59.5079 91.2651 59.6866 90.9102C59.8635 90.5455 59.9531 90.1446 59.9483 89.7392C59.9525 89.3206 59.8572 88.907 59.6703 88.5325C59.3633 87.9794 58.8998 87.5293 58.3379 87.2388C57.6696 86.8852 56.9547 86.6278 56.2144 86.4744L56.1356 86.8269L56.488 86.9012C56.63 86.2573 56.772 85.3562 56.8784 84.6112C56.9847 83.8662 57.0583 83.2818 57.0583 83.2788L56.7007 83.2349L57.0367 83.3636C57.0864 83.232 57.1293 83.098 57.1654 82.9621C57.2456 82.6966 57.2896 82.4215 57.2962 82.1442C57.2998 81.6769 57.1461 81.222 56.8598 80.8527C56.3537 80.2663 55.6908 79.8363 54.9489 79.6133C53.9948 79.2944 53.0075 79.0846 52.0061 78.988C51.9113 78.9771 51.816 79.0044 51.7413 79.0638C51.6665 79.1232 51.6184 79.2099 51.6076 79.3047C51.5967 79.3996 51.624 79.4948 51.6834 79.5696C51.7428 79.6443 51.8295 79.6924 51.9243 79.7032C53.1198 79.7957 54.2906 80.093 55.3854 80.5821C55.7333 80.75 56.0407 80.9912 56.2865 81.2892C56.4779 81.5326 56.5809 81.8338 56.5787 82.1435C56.5684 82.3561 56.5327 82.5668 56.4724 82.771C56.4449 82.8691 56.4181 82.9539 56.3981 83.0141C56.3899 83.0439 56.3817 83.0684 56.3765 83.0885L56.3683 83.1048V83.11C56.357 83.1371 56.3497 83.1656 56.3468 83.1948C56.3468 83.1948 56.3274 83.3398 56.2977 83.5769C56.2047 84.287 55.9921 85.8343 55.7869 86.7488C55.7662 86.8414 55.783 86.9383 55.8335 87.0186C55.8841 87.0988 55.9644 87.1558 56.0568 87.1771C56.913 87.3327 57.7257 87.6708 58.4398 88.1682C58.6861 88.3543 58.889 88.5918 59.0346 88.8641C59.1639 89.1334 59.232 89.428 59.2339 89.7268C59.2358 90.0256 59.1716 90.321 59.0457 90.592C58.7701 91.0858 58.3406 91.4759 57.8226 91.7028C56.6049 92.2331 55.3047 92.549 53.9794 92.6367C52.1548 92.8066 50.3225 92.8811 48.49 92.8597C45.889 92.9617 43.2841 92.8183 40.7099 92.4315C39.9033 92.3002 39.1413 91.9732 38.4905 91.479C38.2533 91.2766 38.0641 91.0239 37.9366 90.7392C37.8014 90.423 37.7353 90.0816 37.7425 89.7377C37.7397 89.4545 37.8192 89.1765 37.9715 88.9377C38.2858 88.4932 38.7164 88.1438 39.2162 87.928C39.9425 87.5914 40.707 87.344 41.4928 87.1912C41.5721 87.1744 41.6434 87.1312 41.6949 87.0687C41.7465 87.0061 41.7754 86.928 41.7768 86.8469L41.8393 83.855C41.8402 83.7865 41.8217 83.7192 41.7859 83.6607C41.7501 83.6023 41.6985 83.5552 41.6371 83.5249C41.286 83.3801 40.9599 83.1811 40.6705 82.9353C40.5812 82.8474 40.5122 82.7411 40.4682 82.6238C40.414 82.4696 40.3888 82.3068 40.3939 82.1435C40.3834 81.7721 40.4978 81.4079 40.7188 81.1092C41.1691 80.6008 41.767 80.2457 42.4289 80.0936C43.41 79.8279 44.4168 79.6686 45.432 79.6185C45.4791 79.6153 45.5252 79.6028 45.5675 79.5818C45.6099 79.5607 45.6476 79.5316 45.6787 79.4959C45.7098 79.4603 45.7335 79.4189 45.7486 79.3741C45.7637 79.3293 45.7698 79.282 45.7665 79.2348C45.7633 79.1877 45.7508 79.1416 45.7298 79.0993C45.7088 79.0569 45.6796 79.0192 45.644 78.9881C45.6084 78.957 45.567 78.9333 45.5222 78.9182C45.4774 78.9031 45.43 78.897 45.3829 78.9003L45.3777 78.9025Z" fill="black"/>
<path fill-rule="evenodd" clip-rule="evenodd" d="M56.534 82.4921C56.3081 81.9642 55.9476 81.5047 55.4886 81.1597C54.4351 80.5485 53.3949 80.4392 52.748 79.8169C53.6601 79.9368 54.5485 80.1956 55.3823 80.5842C55.7302 80.7521 56.0376 80.9933 56.2835 81.2913C56.4748 81.5347 56.5779 81.836 56.5757 82.1456C56.5728 82.2621 56.5583 82.3781 56.534 82.4921Z" fill="#CCCACB"/>
<path fill-rule="evenodd" clip-rule="evenodd" d="M56.8038 82.9069C56.8038 82.9069 56.7986 82.9069 56.7927 82.9069C56.6994 82.774 56.6128 82.6366 56.5332 82.495C56.5575 82.381 56.5712 82.265 56.5741 82.1485C56.5763 81.8389 56.4733 81.5377 56.2819 81.2942C56.0361 80.9963 55.7286 80.7551 55.3807 80.5871C54.5469 80.1985 53.6586 79.9398 52.7465 79.8199C52.6197 79.7003 52.5119 79.5622 52.4268 79.4102C55.1034 79.7819 56.931 80.6169 56.931 82.1478C56.9218 82.4053 56.879 82.6605 56.8038 82.9069Z" fill="black"/>
<path fill-rule="evenodd" clip-rule="evenodd" d="M40.9696 83.175C40.8588 83.1082 40.7562 83.0286 40.664 82.9378C40.5748 82.8499 40.5057 82.7436 40.4617 82.6263C40.4075 82.4722 40.3823 82.3093 40.3874 82.146C40.3769 81.7746 40.4913 81.4104 40.7123 81.1118C41.1626 80.6033 41.7605 80.2483 42.4224 80.0961C42.5347 80.0634 42.6454 80.0307 42.7689 80.001C42.0894 80.5109 41.5533 81.1878 41.2127 81.9661C40.945 82.5936 41.287 82.8694 41.5324 83.1401C41.3488 83.1445 41.1577 83.1557 40.9696 83.175Z" fill="#CCCACB"/>
<path fill-rule="evenodd" clip-rule="evenodd" d="M40.4662 83.2499C40.3147 83.111 40.1965 82.9398 40.1204 82.7488C40.0443 82.5579 40.0123 82.3523 40.0268 82.1473C40.0268 80.6677 41.2908 79.9063 43.2537 79.5264C43.1043 79.6962 42.9428 79.855 42.7704 80.0015C42.65 80.0312 42.5355 80.0639 42.4239 80.0974C41.762 80.2495 41.1641 80.6046 40.7138 81.113C40.4929 81.4117 40.3785 81.7759 40.3889 82.1473C40.3838 82.3106 40.4091 82.4734 40.4633 82.6276C40.5073 82.7449 40.5763 82.8512 40.6655 82.9391C40.7578 83.0298 40.8603 83.1094 40.9711 83.1763C40.8016 83.1926 40.635 83.2172 40.4685 83.2506L40.4662 83.2499Z" fill="black"/>
<path fill-rule="evenodd" clip-rule="evenodd" d="M48.0852 92.8618C45.6159 92.9535 43.1434 92.81 40.7013 92.4336C39.8948 92.3023 39.1327 91.9753 38.4819 91.4811C38.2447 91.2787 38.0555 91.0259 37.928 90.7413C37.7928 90.4251 37.7267 90.0837 37.7339 89.7398C37.7311 89.4566 37.8107 89.1786 37.9629 88.9398C38.2772 88.4953 38.7078 88.1459 39.2076 87.9301C39.3526 87.8558 39.505 87.7881 39.6745 87.7227C40.1688 87.9306 40.6866 88.0771 41.2166 88.1591C41.1874 88.9803 41.4281 89.7884 41.9018 90.4598C42.3756 91.1312 43.0562 91.6289 43.8397 91.8767C44.6133 92.1118 45.4207 92.2161 46.2286 92.1852C46.4145 92.1852 46.6004 92.1852 46.7855 92.18C46.9706 92.1748 47.1572 92.18 47.3394 92.18C47.8424 92.1726 48.3453 92.2037 48.8435 92.273C49.7646 92.3947 50.6771 92.5735 51.576 92.8083C50.599 92.8492 49.5588 92.8656 48.4859 92.8656H48.0844L48.0852 92.8618Z" fill="#CCCACB"/>
<path fill-rule="evenodd" clip-rule="evenodd" d="M48.4814 93.2197C42.3452 93.2197 37.374 93.2197 37.374 89.7393C37.374 88.7728 38.07 88.0411 39.2633 87.5088C39.3924 87.5876 39.5265 87.6579 39.6648 87.7192C39.6679 87.722 39.6718 87.7238 39.6759 87.7244C39.5094 87.7898 39.354 87.8612 39.209 87.9318C38.7093 88.1477 38.2786 88.497 37.9644 88.9415C37.8121 89.1804 37.7326 89.4583 37.7354 89.7416C37.7281 90.0854 37.7943 90.4268 37.9294 90.7431C38.0569 91.0277 38.2461 91.2804 38.4834 91.4829C39.1341 91.9771 39.8962 92.3041 40.7027 92.4353C43.1449 92.8118 45.6173 92.9552 48.0866 92.8636H48.4881C49.561 92.8636 50.6012 92.8472 51.5781 92.8063C52.2376 93.0286 51.8391 93.2197 48.4814 93.2197Z" fill="black"/>
<path fill-rule="evenodd" clip-rule="evenodd" d="M48.4814 82.6558C54.1842 82.945 58.2676 82.6558 58.2676 84.7547C58.2676 85.8819 57.7271 87.3369 55.5054 87.3369L48.4814 82.6558Z" fill="white"/>
<path fill-rule="evenodd" clip-rule="evenodd" d="M48.4618 83.0106C51.3229 83.1593 53.7743 83.1593 55.4665 83.3824C56.1243 83.4333 56.7668 83.6065 57.361 83.8932C57.5286 83.9811 57.672 84.1087 57.7788 84.265C57.8684 84.4118 57.9139 84.5814 57.9097 84.7534C57.9276 85.2881 57.762 85.8128 57.4405 86.2405C57.2512 86.4695 57.0084 86.6483 56.7334 86.7609C56.3425 86.914 55.9249 86.9873 55.5051 86.9766C55.4565 86.9744 55.4078 86.982 55.3622 86.9991C55.3166 87.0162 55.2749 87.0424 55.2396 87.0761C55.2044 87.1098 55.1764 87.1502 55.1572 87.195C55.1381 87.2398 55.1282 87.2881 55.1282 87.3368C55.1282 87.3855 55.1381 87.4338 55.1572 87.4786C55.1764 87.5234 55.2044 87.5638 55.2396 87.5975C55.2749 87.6312 55.3166 87.6573 55.3622 87.6744C55.4078 87.6916 55.4565 87.6992 55.5051 87.697C56.0214 87.7078 56.5346 87.615 57.0145 87.4242C57.5745 87.1946 58.0323 86.7699 58.303 86.2286C58.5239 85.7689 58.6351 85.2642 58.6279 84.7542C58.6341 84.4459 58.5507 84.1424 58.3878 83.8806C58.242 83.6584 58.0491 83.471 57.8227 83.3318C57.3554 83.0588 56.8417 82.8745 56.3074 82.7883C55.1972 82.6023 54.0751 82.4955 52.9497 82.4686C51.6314 82.4114 50.1295 82.3757 48.4975 82.2939C48.4504 82.2916 48.4032 82.2985 48.3587 82.3144C48.3143 82.3303 48.2734 82.3548 48.2384 82.3865C48.2034 82.4181 48.1749 82.4564 48.1547 82.4991C48.1345 82.5418 48.1229 82.588 48.1206 82.6352C48.1182 82.6823 48.1252 82.7295 48.1411 82.774C48.1569 82.8184 48.1814 82.8593 48.2131 82.8943C48.2448 82.9293 48.2831 82.9578 48.3258 82.978C48.3684 82.9982 48.4147 83.0098 48.4618 83.0121V83.0106Z" fill="black"/>
<path fill-rule="evenodd" clip-rule="evenodd" d="M56.3407 86.89C56.7293 86.3816 56.9094 85.7443 56.8445 85.1077C56.7796 84.4712 56.4744 83.8833 55.9912 83.4639C56.4688 83.5304 56.9319 83.6761 57.3615 83.8951C57.5291 83.983 57.6726 84.1106 57.7794 84.2669C57.8692 84.4137 57.9146 84.5833 57.9102 84.7554C57.9279 85.2901 57.7621 85.8149 57.4403 86.2424C57.2511 86.4714 57.0082 86.6502 56.7332 86.7628C56.6059 86.8153 56.4746 86.8578 56.3407 86.89Z" fill="#CCCACB"/>
<path fill-rule="evenodd" clip-rule="evenodd" d="M55.9528 87.3116C56.0182 87.2513 56.0837 87.1911 56.1469 87.1235C56.2101 87.0558 56.2807 86.9681 56.3409 86.8885C56.4752 86.8559 56.6067 86.8129 56.7342 86.7599C57.0092 86.6472 57.252 86.4684 57.4413 86.2394C57.7628 85.8118 57.9284 85.2871 57.9105 84.7524C57.9147 84.5804 57.8692 84.4108 57.7796 84.2639C57.6728 84.1077 57.5294 83.98 57.3618 83.8921C56.9322 83.6731 56.469 83.5274 55.9915 83.4609C55.7674 83.2641 55.5131 83.1047 55.2383 82.9888C57.138 83.2044 58.2681 83.649 58.2681 84.7524C58.2924 85.0741 58.251 85.3975 58.1464 85.7027C58.0418 86.008 57.8763 86.2887 57.6598 86.528C57.4433 86.7672 57.1804 86.9599 56.887 87.0944C56.5937 87.2288 56.2761 87.3022 55.9535 87.3101L55.9528 87.3116Z" fill="black"/>
<path fill-rule="evenodd" clip-rule="evenodd" d="M47.2803 88.0769C42.3731 88.0605 38.5752 88.0768 38.5752 85.6552C38.5752 83.9161 40.2213 83.499 41.7552 83.499L47.2803 88.0769Z" fill="white"/>
<path fill-rule="evenodd" clip-rule="evenodd" d="M47.2799 87.7172C45.2332 87.7833 43.1844 87.6818 41.1541 87.4138C40.5498 87.3317 39.9725 87.1113 39.4671 86.7699C39.3009 86.6448 39.1656 86.4833 39.0715 86.2978C38.9767 86.0974 38.9299 85.8777 38.9347 85.6561C38.9224 85.3478 38.9999 85.0425 39.1578 84.7773C39.403 84.4252 39.7662 84.1725 40.1816 84.065C40.6909 83.9152 41.2204 83.8452 41.7512 83.8576C41.7998 83.8598 41.8485 83.8521 41.8941 83.835C41.9397 83.8179 41.9814 83.7917 42.0167 83.758C42.0519 83.7244 42.0799 83.6839 42.0991 83.6391C42.1183 83.5943 42.1281 83.5461 42.1281 83.4973C42.1281 83.4486 42.1183 83.4004 42.0991 83.3556C42.0799 83.3108 42.0519 83.2703 42.0167 83.2366C41.9814 83.203 41.9397 83.1768 41.8941 83.1597C41.8485 83.1426 41.7998 83.1349 41.7512 83.1371C40.9459 83.1038 40.1444 83.2647 39.4143 83.6063C39.0614 83.7882 38.7621 84.0591 38.5459 84.3921C38.3147 84.7724 38.198 85.2113 38.2098 85.6561C38.2048 85.9883 38.2776 86.317 38.4224 86.616C38.6918 87.1189 39.1311 87.5096 39.6619 87.7186C40.6908 88.1074 41.778 88.3196 42.8776 88.3462C44.1713 88.4309 45.6673 88.4332 47.2755 88.4391C47.3682 88.4349 47.4557 88.3951 47.5198 88.328C47.5839 88.2609 47.6197 88.1717 47.6197 88.0789C47.6197 87.9861 47.5839 87.8968 47.5198 87.8298C47.4557 87.7627 47.3682 87.7228 47.2755 87.7186L47.2799 87.7172Z" fill="black"/>
<path fill-rule="evenodd" clip-rule="evenodd" d="M47.1651 87.7162H46.8432L46.6357 87.5444C46.817 87.5857 46.9942 87.6431 47.1651 87.7162Z" fill="#CCCACB"/>
<path fill-rule="evenodd" clip-rule="evenodd" d="M46.8468 87.717C44.9455 87.7741 43.0427 87.6727 41.1582 87.4137C40.5538 87.3315 39.9765 87.1112 39.4711 86.7698C39.305 86.6446 39.1697 86.4831 39.0756 86.2976C38.9808 86.0973 38.9339 85.8776 38.9388 85.656C38.9264 85.3476 39.0039 85.0423 39.1618 84.7771C39.2919 84.572 39.4707 84.4021 39.6823 84.2827C39.5438 84.8302 39.5909 85.4081 39.8161 85.9259C40.4273 87.1899 44.6832 87.0642 46.6327 87.5445L46.8468 87.717Z" fill="#CCCACB"/>
<path fill-rule="evenodd" clip-rule="evenodd" d="M47.2803 87.7741C46.9338 87.7525 46.5435 87.7466 46.1286 87.7466C45.8557 87.7466 45.5717 87.7466 45.2825 87.7518C44.9933 87.757 44.6929 87.757 44.3903 87.757C41.7724 87.757 38.9173 87.5771 38.576 85.6551C38.526 85.2648 38.6159 84.8694 38.8297 84.539C39.0436 84.2087 39.3675 83.9648 39.744 83.8506C39.7451 83.9963 39.7259 84.1414 39.6868 84.2818C39.4752 84.4012 39.2964 84.5711 39.1663 84.7763C39.0084 85.0414 38.931 85.3467 38.9433 85.6551C38.9385 85.8767 38.9853 86.0964 39.0801 86.2967C39.1742 86.4822 39.3095 86.6437 39.4756 86.7689C39.981 87.1103 40.5583 87.3306 41.1627 87.4128C43.0472 87.6718 44.95 87.7732 46.8513 87.7161H47.1733C47.2089 87.7354 47.2446 87.7548 47.2803 87.7741Z" fill="black"/>
<path fill-rule="evenodd" clip-rule="evenodd" d="M54.67 82.1703C53.8269 82.1703 51.6699 81.8617 49.855 81.8617C47.5427 81.8617 44.666 81.8015 44.666 81.5286C44.666 81.2557 47.5434 80.8706 49.855 80.8706C52.1666 80.8706 55.0358 81.8126 55.0358 82.0855C55.0328 82.1457 54.899 82.1703 54.67 82.1703Z" fill="#CCCACB"/>
<path fill-rule="evenodd" clip-rule="evenodd" d="M55.0797 84.9925C54.5592 84.9925 53.5376 84.875 52.403 84.788C51.7012 84.7308 50.9591 84.6869 50.2632 84.6869C47.9509 84.6869 45.0742 84.6267 45.0742 84.3538C45.0742 84.0809 47.9516 83.6958 50.2632 83.6958C50.4379 83.6958 50.6127 83.701 50.7904 83.7092C52.9874 83.8318 55.4418 84.6594 55.4418 84.91C55.4396 84.9709 55.3087 84.9925 55.0797 84.9925Z" fill="#CCCACB"/>
<path fill-rule="evenodd" clip-rule="evenodd" d="M58.6958 89.538C57.7963 89.0034 56.7633 88.7355 55.7173 88.7655C53.405 88.7655 50.5283 88.7053 50.5283 88.4324C50.5283 88.1596 53.4057 87.7744 55.7173 87.7744C58.0289 87.7744 58.7285 89.2183 58.7285 89.4912C58.7285 89.5239 58.7174 89.538 58.6958 89.538Z" fill="#CCCACB"/>
<path fill-rule="evenodd" clip-rule="evenodd" d="M52.2022 78.3374C51.6342 78.3374 50.1791 78.0289 48.9568 78.0289C47.3954 78.0289 45.457 77.9686 45.457 77.6958C45.457 77.4608 46.8794 77.147 48.266 77.0601L49.4891 77.0712C50.9248 77.2407 52.4483 78.0132 52.4483 78.2556C52.4483 78.3129 52.3576 78.3374 52.2022 78.3374Z" fill="#CCCACB"/>
<path fill-rule="evenodd" clip-rule="evenodd" d="M52.6902 75.9759C52.3489 75.9759 50.7875 75.141 48.8388 74.532C46.8759 73.9179 47.9845 71.9111 48.0254 71.578C48.0306 71.8479 48.1153 73.306 49.0514 73.7506C51.1399 74.7387 52.7586 75.6532 52.7586 75.9261C52.7586 75.9618 52.737 75.9759 52.6902 75.9759ZM48.0254 71.578C48.0254 71.5483 48.0254 71.5342 48.0254 71.5342V71.5587C48.0269 71.5661 48.0269 71.5737 48.0254 71.581V71.578Z" fill="#CCCACB"/>
</svg>
