<svg xmlns:xlink="http://www.w3.org/1999/xlink"  xmlns="http://www.w3.org/2000/svg" width="68.478" height="75.349" viewBox="0 0 68.478 75.349"><g id="Eco-Friendly" transform="translate(-0.26 -0.275)"><path id="Path_2117" data-name="Path 2117" d="M39.684,78.438c33.34,4.1,39.336-51.908-3.815-47.491C14.973,32.7,5.119,74.184,39.684,78.438Z" transform="translate(-4.428 -8.455)" fill="#cccacb" fill-rule="evenodd"></path><path id="Path_2118" data-name="Path 2118" d="M35.473,72.488C68.806,76.594,74.8,20.58,31.65,25,10.761,26.746.9,68.241,35.473,72.488Z" transform="translate(-3.197 -6.717)" fill="#fff" stroke="#000" stroke-linecap="round" stroke-linejoin="round" stroke-miterlimit="22.926" stroke-width="3" fill-rule="evenodd"></path><path id="Path_2119" data-name="Path 2119" d="M17.814,17.94a32.743,32.743,0,1,0,34.225.531" transform="translate(0 -4.727)" fill="none" stroke="#000" stroke-linecap="round" stroke-linejoin="round" stroke-miterlimit="22.926" stroke-width="3" fill-rule="evenodd"></path><path id="Path_2120" data-name="Path 2120" d="M47.7,9.256c1.989-5.238,4.311-9.783,13.435-6.243C59.415,10.339,56,12.965,47.7,9.256Z" transform="translate(-13.421)" fill="#fff" stroke="#000" stroke-linecap="round" stroke-linejoin="round" stroke-miterlimit="22.926" stroke-width="3" fill-rule="evenodd"></path><path id="Path_2121" data-name="Path 2121" d="M28.25,3.936C33.424,1.784,38.323.354,42.018,9.421,35.506,13.2,31.244,12.515,28.25,3.936Z" transform="translate(-7.739 -0.166)" fill="#fff" stroke="#000" stroke-linecap="round" stroke-linejoin="round" stroke-miterlimit="22.926" stroke-width="3" fill-rule="evenodd"></path><path id="Path_2122" data-name="Path 2122" d="M28.975,27.395c1.288,4.9-3.178,5.72-1.005,11.821,1.26,3.539-.977,1.628,1.359,6.427.382.779,3.122,4.113,2.973.715-.156-3.709,4.063-5.174,6.626-6.725,3.207-1.94,8.629-3.122,5.4-6.9C41.7,29.646,39.3,35.974,38,30.665c-.46-1.89,2.966-2.676-2.322-3.752A2.149,2.149,0,0,1,34.27,25.42" transform="translate(-7.48 -6.913)" fill="none" stroke="#000" stroke-linecap="round" stroke-linejoin="round" stroke-miterlimit="22.926" stroke-width="3" fill-rule="evenodd"></path><path id="Path_2123" data-name="Path 2123" d="M34.34,55c.17,3.4,3.681,2.945,5.118,5.373,1.416,2.4,3.858-1.9,5.953-1.041,2.662,1.1,6.555.984,8.438,3.525.906,1.225,5.245,1.041,5.132,3.752-.17,4.028-4.976,4.191-6.916,7.319-1.5,2.4-5.776,5-7.072,7.617-.517-1.423-.722-1.118-.524-1.727,3.568-10.979-6.8-11.3-2.286-16.422,1-1.14.835-1.819.368-3.214" transform="translate(-9.518 -15.554)" fill="none" stroke="#000" stroke-linecap="round" stroke-linejoin="round" stroke-miterlimit="22.926" stroke-width="3" fill-rule="evenodd"></path><path id="Path_2124" data-name="Path 2124" d="M47.306,12.35c-1.543.835-.779,8.756-.658,8.777" transform="translate(-13.027 -3.094)" fill="none" stroke="#000" stroke-linecap="round" stroke-linejoin="round" stroke-miterlimit="22.926" stroke-width="3" fill-rule="evenodd"></path></g></svg>