<svg xmlns:xlink="http://www.w3.org/1999/xlink"  xmlns="http://www.w3.org/2000/svg" width="67.542" height="78.173" viewBox="0 0 67.542 78.173"><g id="Non-Hazardous" transform="translate(0.99 0.964)"><path id="Path_2099" data-name="Path 2099" d="M18.957,12.191C16.124,10.858,16.1,9.239,17.79,9.239L32.813,9.12c1.762,0,1.976,1.476-.452,2.619.5,6.309-.429,15.9,3.857,20.332C49.5,45.808,45.955,51.736,37.527,53.9c-6.071,1.571-17.975,1.547-23.9-.333C6.1,51.14,3.506,45.141,16.147,32.071c4.285-4.428,2.286-13.57,2.809-19.879Z" transform="translate(9.408 11.879)" fill="#cccacb" fill-rule="evenodd"></path><path id="Path_2100" data-name="Path 2100" d="M16.908,10.471C14.1,9.162,14.075,7.543,15.765,7.519L30.788,7.4c1.762,0,1.952,1.476-.452,2.619.5,6.333-.429,15.9,3.857,20.332C47.477,44.088,43.93,50.016,35.5,52.182c-6.071,1.571-17.975,1.571-23.9-.333-7.523-2.428-10.142-8.428,2.524-21.5,4.285-4.428,2.286-13.547,2.785-19.879Z" transform="translate(6.6 9.505)" fill="#fff" stroke="#000" stroke-linecap="round" stroke-linejoin="round" stroke-miterlimit="22.926" stroke-width="3" fill-rule="evenodd"></path><path id="Path_2101" data-name="Path 2101" d="M8.58,17.669c10.832-2.833,12.094,13.189,22.76.786" transform="translate(11.143 23.21)" fill="none" stroke="#000" stroke-linecap="round" stroke-linejoin="round" stroke-miterlimit="22.926" stroke-width="3" fill-rule="evenodd"></path><path id="Path_2102" data-name="Path 2102" d="M7.129,15.387A32.275,32.275,0,1,0,48.244,6.65" transform="translate(0 8.469)" fill="none" stroke="#000" stroke-linecap="round" stroke-linejoin="round" stroke-miterlimit="22.926" stroke-width="3" fill-rule="evenodd"></path><path id="Path_2103" data-name="Path 2103" d="M12.95,9.215c2.309-6.071,5-11.356,15.594-7.238C26.544,10.476,22.568,13.524,12.95,9.215Z" transform="translate(17.177 0)" fill="#fff" stroke="#000" stroke-linecap="round" stroke-linejoin="round" stroke-miterlimit="22.926" stroke-width="3" fill-rule="evenodd"></path><path id="Path_2104" data-name="Path 2104" d="M6.23,2.586c6.023-2.5,11.69-4.166,16,6.357C14.658,13.324,9.706,12.538,6.23,2.586Z" transform="translate(7.898 0.272)" fill="#fff" stroke="#000" stroke-linecap="round" stroke-linejoin="round" stroke-miterlimit="22.926" stroke-width="3" fill-rule="evenodd"></path><path id="Path_2105" data-name="Path 2105" d="M14.452,4.17c4.738,18.808-8.309,36.092.619,45.877" transform="translate(15.675 5.045)" fill="none" stroke="#000" stroke-linecap="round" stroke-linejoin="round" stroke-miterlimit="22.926" stroke-width="3" fill-rule="evenodd"></path></g></svg>