<svg xmlns:xlink="http://www.w3.org/1999/xlink"  xmlns="http://www.w3.org/2000/svg" width="75.693" height="67.2" viewBox="0 0 75.693 67.2"><g id="Irritation-Free" transform="translate(1.534 0.93)"><path id="Path_2095" data-name="Path 2095" d="M6.139,18.732c2.394-2.822,10.2-6.435,9.578-4.425-.235.748-.791,4.832.064,3.143,6.05-6.8,21.25-2.736,19.326-1.71-1.368.748-6.542,6.884-3.1,4.96,10.091-5.6,17.552-.171,23.3,3.271,3.763,2.245,9.428,2.1,1.518,6.392-4.9,2.651-16.782,12.87-33.5,5.387-.021-.021-5.067-5.794-5.751-6.563.192.321.492,4.682.556,5.366.15,1.668-13.319-5.6-11.993-15.82Z" transform="translate(6.232 14.825)" fill="#cccacb" fill-rule="evenodd"></path><path id="Path_2096" data-name="Path 2096" d="M6.25,48.672A32.1,32.1,0,1,0,7.939,14.039" transform="translate(6.463 0)" fill="none" stroke="#000" stroke-linecap="round" stroke-linejoin="round" stroke-miterlimit="22.926" stroke-width="3" fill-rule="evenodd"></path><path id="Path_2097" data-name="Path 2097" d="M5.11,15.943c2.394-2.822,10.2-6.435,9.578-4.425-.235.748-.812,4.832.043,3.121C20.781,7.84,36,11.9,34.078,12.95c-1.368.748-6.542,6.863-3.121,4.96,10.112-5.6,17.552-.171,23.324,3.271,3.763,2.245,9.428,2.074,1.518,6.392-4.9,2.651-16.782,12.87-33.5,5.387-.021-.021-5.088-5.794-5.751-6.563a51.722,51.722,0,0,1,.534,5.366c.15,1.668-13.319-5.6-11.972-15.82Z" transform="translate(5.059 11.629)" fill="#fff" stroke="#000" stroke-linecap="round" stroke-linejoin="round" stroke-miterlimit="22.926" stroke-width="3" fill-rule="evenodd"></path><path id="Path_2098" data-name="Path 2098" d="M.57,9.91C13.932,20.236,18.015,20.728,33.857,24.961c1.39.363,9.278,1.368,9.3,1.539" transform="translate(0 10.628)" fill="none" stroke="#000" stroke-linecap="round" stroke-linejoin="round" stroke-miterlimit="22.926" stroke-width="3" fill-rule="evenodd"></path></g></svg>