<?xml version="1.0" encoding="UTF-8"?>
<svg xmlns:xlink="http://www.w3.org/1999/xlink"  xmlns="http://www.w3.org/2000/svg" version="1.1" viewBox="0 0 150 150">
  <defs>
    <style>
      .cls-1 {
        fill: none;
        stroke-linejoin: round;
      }

      .cls-1, .cls-2, .cls-3 {
        stroke: #000;
        stroke-linecap: round;
        stroke-width: 3px;
      }

      .cls-4, .cls-2, .cls-5, .cls-3 {
        fill-rule: evenodd;
      }

      .cls-2 {
        fill: #fff;
      }

      .cls-2, .cls-3 {
        stroke-miterlimit: 22.9;
      }

      .cls-5 {
        fill: #cccacb;
      }

      .cls-3 {
        fill: #d11d1d;
      }
    </style>
  </defs>
  <!-- Generator: Adobe Illustrator 28.7.0, SVG Export Plug-In . SVG Version: 1.2.0 Build 65)  -->
  <g>
    <g id="Layer_1">
      <g id="_3._Formal_Recommendations_">
        <path id="Path_1829" class="cls-5" d="M117.3,73.8c-8.5,21.1-11.4,32.2-17.5,54.1-1.3,4.6-6,7-9.8,5.7l-51.9-18.4c-4-1.7-5.8-6.2-4.2-10.2,0-.1.1-.2.2-.4,9.7-21.4,13.8-31.4,20.5-53.9,5.8-19.8,3.5-23,21.3-16.7l33.4,11.8c20.3,7.2,16.8,6.4,8.1,28Z"/>
        <path id="Path_1830" class="cls-2" d="M111.2,64.7c-8.5,21.1-11.4,32.2-17.5,54.1-1.3,4.6-6,7-9.8,5.6l-51.9-18.4c-3.8-1.4-6-6.3-4-10.6,9.8-21.4,13.9-31.4,20.5-53.9,5.8-19.8,3.6-23,21.3-16.7l33.4,11.8c20.2,7.2,16.8,6.4,8.1,28h0Z"/>
        <path id="Path_1831" class="cls-1" d="M51.1,80.8c5.2-14.7.5-15.3,17.5-8.1,2.5,1.1,19.1,7.5,19.3,7.6-.7,3.9-1.8,7.7-3.4,11.3"/>
        <path id="Path_1832" class="cls-1" d="M77.1,62.3c-2.3,3.5-3.1,6.4-4.1,11.1"/>
        <path id="Path_1833" class="cls-3" d="M92.5,39.4c-6.8-2.7-12.2-4.3-19.2-6.4-1.5-.4-2.3-1.7-2-2.7l3-8.8c.3-.9,1.8-1.4,3.2-.8,1.6.7,3,1.3,4.5,1.9,7-10.4,17.5-2.6,15,5.3h0c6.1,1.9,7,1.4,5.5,5.8l-1.4,4.2c-1.7,5.1-1.5,4.2-8.5,1.5h0Z"/>
        <path id="Path_768" class="cls-4" d="M86.1,24.6c2.6-3.9,6.5-1,5.6,1.9-1.3,4-7.7,1.4-5.6-1.9Z"/>
        <path id="Path_1834" class="cls-2" d="M81.7,63.3c-4-1.7-8.1-3.1-12.2-4.2-.8-.3-1.3-1.1-1.1-2l3.9-10.5c.3-.8,1.2-1.2,2-.9,0,0,0,0,.1,0,3.9,1.9,8,3.5,12.2,4.8,4,1.2,4.7.8,3.4,4.4l-2.5,6.8c-1.5,4.1-1.4,3.4-5.7,1.6Z"/>
        <path id="Path_1835" class="cls-2" d="M51.9,95.5c-4-1.6-8.1-3.1-12.2-4.2-.8-.3-1.3-1.1-1.1-2l3.9-10.5c.3-.8,1.3-1.2,2.1-.8,0,0,0,0,0,0,3.9,1.9,8,3.6,12.2,4.9,4,1.2,4.7.8,3.3,4.4l-2.5,6.8c-1.5,4.1-1.4,3.4-5.7,1.5h0Z"/>
        <path id="Path_1836" class="cls-2" d="M83.3,107c-4-1.7-8-3.1-12.2-4.2-.8-.2-1.3-1.1-1.1-1.9,0,0,0,0,0-.1l3.9-10.5c.3-.8,1.3-1.2,2.1-.8,0,0,0,0,0,0,3.9,1.9,8,3.5,12.1,4.8,4,1.2,4.7.8,3.4,4.4l-2.5,6.8c-1.5,4.1-1.3,3.5-5.7,1.6Z"/>
      </g>
    </g>
  </g>
</svg>