<svg width="106" height="78" viewBox="0 0 106 78" fill="none" xmlns="http://www.w3.org/2000/svg">
<path d="M30.1499 76.0453C30.1499 74.5131 30.1497 71.3581 30.1564 67.306C28.1935 67.331 26.4335 67.3659 24.858 67.4016C24.858 78.6857 24.6678 76.6639 23.5363 76.6539C18.0318 76.6539 19.2965 79.3883 19.2707 69.6538L19.2654 67.5255C17.5426 67.6158 15.8151 67.5496 14.1043 67.3276C14.0985 74.3352 14.9301 76.5882 11.943 76.7828C9.50133 76.949 8.16779 77.1801 6.26313 76.7952C5.8541 76.7121 5.50294 74.0517 5.51458 71.1162L5.64285 36.5272C5.67029 28.6658 4.38084 29.0582 8.55264 29.4506L8.8851 29.4805C7.44569 29.2144 6.14383 28.4553 5.20322 27.3337C4.26261 26.2121 3.74181 24.798 3.73047 23.3342C3.7478 21.6561 4.43109 20.0536 5.62986 18.8791C6.82864 17.7047 8.44469 17.0545 10.1228 17.0716C11.8008 17.0547 13.4168 17.705 14.6154 18.8794C15.8139 20.0539 16.497 21.6563 16.5143 23.3342C16.4996 24.9455 15.8699 26.4903 14.7538 27.6526C13.6377 28.8149 12.1199 29.5069 10.5105 29.5869C11.016 29.6086 11.5703 29.6227 12.1797 29.6219C14.0262 29.6219 14.2357 27.3539 14.1891 41.0498V41.2111C15.5193 41.1238 17.2652 41.0448 19.1948 40.9949L19.1797 34.5768C19.1689 31.608 19.4019 29.9727 19.6588 29.8787C20.2316 29.7033 22.6618 29.1189 24.8134 28.4421C24.9073 30.0076 24.7669 35.1845 24.7777 38.9007L24.7825 40.9035L30.1763 40.8303C30.1829 34.4695 30.1872 28.8121 30.1872 25.4393C30.3626 25.766 34.3708 22.9726 35.4466 22.6126L35.4348 39.4627C36.858 37.0773 38.7198 34.9829 40.9219 33.2898C40.9269 27.4337 40.93 22.3383 40.93 19.0951C41.1055 19.4684 45.1027 15.0281 46.1768 14.6307L46.1711 30.3019C47.9318 29.6016 49.7765 29.1343 51.6582 28.9119C51.6665 19.9639 51.672 12.0268 51.672 7.54576C51.8383 7.9789 55.8447 7.52331 56.9188 7.06689L56.9115 28.9127C58.7807 29.1372 60.6129 29.6033 62.3621 30.2994L62.3535 15.1885C63.4285 15.5859 67.4374 20.1318 67.6003 19.761C67.6003 22.9019 67.6005 27.7338 67.6105 33.2907C69.8136 34.9869 71.6751 37.0851 73.0972 39.4744L73.0907 23.4997C74.1648 23.8497 78.1728 26.5949 78.3374 26.2681C78.3374 29.4082 78.3426 34.4554 78.35 40.1769L82.86 40.1154L83.8842 40.0996V38.8999C83.9083 35.1837 83.7563 30.0043 83.8619 28.4413C86.011 29.118 88.4428 29.7033 89.0023 29.8779C89.2725 29.9719 89.501 31.6072 89.4927 34.576L89.4801 39.9657C91.3547 39.8246 93.2369 39.8171 95.1125 39.9433L95.1251 36.5263C95.1534 28.665 93.8573 29.0574 98.0349 29.4498C98.2195 29.4669 98.4152 29.4841 98.6219 29.5013C97.1286 29.2872 95.7615 28.5449 94.7687 27.4092C93.7759 26.2734 93.2233 24.8194 93.2107 23.311C93.2186 22.4791 93.3901 21.657 93.7161 20.8916C94.042 20.1263 94.5158 19.4327 95.1101 18.8506C95.7044 18.2684 96.4077 17.8092 97.1796 17.4991C97.9515 17.1889 98.7769 17.0341 99.6087 17.0433C100.44 17.0351 101.264 17.1906 102.035 17.5011C102.806 17.8115 103.509 18.2708 104.102 18.8526C104.696 19.4345 105.168 20.1276 105.494 20.8922C105.82 21.6569 105.991 22.4782 105.999 23.3093C105.983 24.9672 105.316 26.5523 104.142 27.7236C102.969 28.8948 101.382 29.5585 99.7244 29.572C100.306 29.6011 100.951 29.6202 101.676 29.6202C103.523 29.6202 103.733 27.3522 103.686 41.0481L103.593 66.8612C103.545 74.2354 104.481 76.5832 101.42 76.7819C98.9887 76.9482 97.6441 77.1793 95.7519 76.7944C95.3429 76.7113 94.9913 74.0509 95.0037 71.1153L95.022 66.2319C94.0202 66.3233 92.3051 66.3932 89.4261 66.4613L89.4188 69.6546C89.3955 79.3891 90.6567 76.6547 85.1414 76.6547C83.9833 76.6655 83.8111 78.7855 83.8294 66.5686C82.2249 66.5952 80.4209 66.6226 78.389 66.6517C78.3948 71.0023 78.3987 74.4159 78.3987 76.0462C76.8449 77.6474 73.2339 76.7944 73.1175 76.678V66.7249L69.0893 66.7798C68.6298 67.2021 68.1522 67.6047 67.6567 67.9877C67.6567 71.62 67.6637 74.4366 67.6637 75.9298C66.1082 77.7288 62.4981 76.7611 62.3925 76.6423V70.9989C60.6322 71.7018 58.7879 72.1716 56.9058 72.3965V76.5841C56.7894 76.7354 53.1788 77.822 51.6249 75.7776C51.6249 74.9903 51.6249 73.8414 51.6249 72.394C49.7536 72.1685 47.9196 71.701 46.1687 71.0031V76.6431C46.0523 76.7603 42.4522 77.7189 40.8984 75.9306C40.8984 74.4491 40.8987 71.6349 40.9037 67.9969C40.5617 67.7331 40.229 67.4598 39.9059 67.1772L35.4373 67.2378L35.4316 76.6797C34.6884 76.9166 33.911 77.0289 33.1311 77.0122C32.0489 77.0943 30.9779 76.747 30.1499 76.0453ZM14.1201 62.7518C15.353 62.6495 17.174 62.5564 19.254 62.4916L19.2155 46.0305C17.5375 46.0942 15.8576 46.0725 14.1818 45.9657L14.1201 62.7518ZM24.8446 62.3877L30.158 62.3153C30.1638 57.2382 30.1705 51.4244 30.1763 45.816L29.4338 45.826C27.7436 45.8476 26.2033 45.8759 24.8008 45.9091L24.8446 62.3877ZM35.4247 62.2447H35.68C35.5969 62.1067 35.5078 61.9662 35.4247 61.829V62.2447ZM78.378 61.6627L83.6646 61.5912H83.8367L83.8737 45.0711C82.2625 45.0977 80.4316 45.1252 78.3557 45.1543C78.3674 50.6995 78.3746 56.5265 78.3821 61.6627H78.378ZM89.4355 61.4673C92.2538 61.3842 93.9903 61.3119 95.0386 61.341L95.1004 44.6305C93.2342 44.8649 91.3544 44.9738 89.4736 44.9564L89.4355 61.4673Z" fill="#CDCDCD"/>
<path fill-rule="evenodd" clip-rule="evenodd" d="M10.1157 60.4918C9.76485 59.0784 9.3209 58.3069 9.96355 57.1846C10.104 56.951 14.7855 56.6708 19.9898 56.6026L81.1784 55.7713C98.1457 55.5376 93.3163 54.486 93.5657 59.3935C93.6239 60.4685 97.6319 60.5267 73.3968 60.8659L27.7548 61.4852C14.7023 61.6515 10.5655 62.2567 10.1215 60.4918H10.1157Z" fill="white" stroke="black" stroke-width="2.4941" stroke-miterlimit="22.926" stroke-linecap="round"/>
<path fill-rule="evenodd" clip-rule="evenodd" d="M9.31002 39.0026C8.95919 37.5893 8.51524 36.8294 9.15788 35.707C9.29838 35.4734 13.9798 35.1933 19.1842 35.1251L80.3727 34.2937C97.3401 34.0601 92.5106 33.0084 92.7601 37.916C92.8066 38.9909 96.8263 39.0491 72.5911 39.3767L26.9491 40.0077C13.8967 40.174 9.75979 40.7792 9.31584 39.0026H9.31002Z" fill="white" stroke="black" stroke-width="2.4941" stroke-miterlimit="22.926" stroke-linecap="round"/>
<path fill-rule="evenodd" clip-rule="evenodd" d="M54.4037 70.7634C54.2865 70.9155 50.6759 72.0021 49.1221 69.957C49.1221 61.8711 49.1803 15.4801 49.1803 1.72594C49.3465 2.15825 53.3521 1.70266 54.427 1.24707L54.4037 70.7634Z" fill="white" stroke="black" stroke-width="2.4941" stroke-miterlimit="22.926" stroke-linecap="round" stroke-linejoin="round"/>
<path fill-rule="evenodd" clip-rule="evenodd" d="M59.8962 70.8225C60.0018 70.9397 63.6125 71.909 65.1663 70.11C65.1663 63.0168 65.1081 25.9977 65.1081 13.9387C64.9418 14.3128 60.9363 9.76693 59.8613 9.36621L59.8962 70.8225Z" fill="white" stroke="black" stroke-width="2.4941" stroke-miterlimit="22.926" stroke-linecap="round" stroke-linejoin="round"/>
<path fill-rule="evenodd" clip-rule="evenodd" d="M70.6229 70.8567C70.7401 70.974 74.3507 71.8269 75.9046 70.2257C75.9046 63.9389 75.8464 31.1382 75.8464 20.446C75.6801 20.7736 71.6746 18.0268 70.5996 17.6768L70.6229 70.8567Z" fill="white" stroke="black" stroke-width="2.4941" stroke-miterlimit="22.926" stroke-linecap="round" stroke-linejoin="round"/>
<path fill-rule="evenodd" clip-rule="evenodd" d="M43.6646 70.8217C43.5473 70.9389 39.9484 71.8967 38.3945 70.1092C38.3945 63.016 38.4411 25.331 38.4411 13.2712C38.6165 13.6453 42.6129 9.20501 43.6878 8.80762L43.6646 70.8217Z" fill="white" stroke="black" stroke-width="2.4941" stroke-miterlimit="22.926" stroke-linecap="round" stroke-linejoin="round"/>
<path fill-rule="evenodd" clip-rule="evenodd" d="M32.9263 70.8566C32.8091 70.9738 29.2101 71.8268 27.6562 70.2256C27.6562 63.9388 27.7028 30.3084 27.7028 19.6162C27.8782 19.9438 31.8862 17.1504 32.9612 16.7896L32.9263 70.8566Z" fill="white" stroke="black" stroke-width="2.4941" stroke-miterlimit="22.926" stroke-linecap="round" stroke-linejoin="round"/>
<path fill-rule="evenodd" clip-rule="evenodd" d="M86.5153 24.0574C86.7839 24.1505 87.0142 25.7866 87.0058 28.7546L86.9227 63.8341C86.8994 73.5677 88.1614 70.8334 82.6462 70.8334C81.4423 70.845 81.3027 73.1354 81.3376 59.2416L81.3958 33.0777C81.4191 29.3615 81.2669 24.1821 81.3725 22.6191C83.5224 23.2967 85.9533 23.8812 86.5137 24.0566L86.5153 24.0574Z" fill="white" stroke="black" stroke-width="2.4941" stroke-miterlimit="22.926" stroke-linecap="round"/>
<path d="M97.1132 23.7536C100.643 23.7536 103.505 20.9493 103.505 17.4901C103.505 14.0308 100.643 11.2266 97.1132 11.2266C93.5833 11.2266 90.7217 14.0308 90.7217 17.4901C90.7217 20.9493 93.5833 23.7536 97.1132 23.7536Z" fill="#D11D1D" stroke="black" stroke-width="2.4941" stroke-miterlimit="22.926"/>
<path d="M51.7742 66.7314C63.8682 66.7314 73.6723 56.9273 73.6723 44.8332C73.6723 32.7392 63.8682 22.9351 51.7742 22.9351C39.6801 22.9351 29.876 32.7392 29.876 44.8332C29.876 56.9273 39.6801 66.7314 51.7742 66.7314Z" fill="white" stroke="black" stroke-width="2.4941" stroke-miterlimit="22.926" stroke-linecap="round" stroke-linejoin="round"/>
<path fill-rule="evenodd" clip-rule="evenodd" d="M58.5755 56.6234C52.5689 56.4363 47.8717 56.6234 41.8892 56.951C40.6621 57.0208 39.6104 56.2734 39.5755 55.4204L39.1191 43.8279C39.0841 42.9749 40.0776 42.1917 41.3155 42.274C46.945 42.7099 52.5962 42.7957 58.2363 42.5309C63.6469 42.2815 64.2313 41.5965 64.3826 45.5571L64.6744 53.0119C64.8498 57.5462 64.7326 56.798 58.5747 56.6226L58.5755 56.6234Z" fill="white" stroke="black" stroke-width="2.4941" stroke-miterlimit="22.926" stroke-linecap="round"/>
<path fill-rule="evenodd" clip-rule="evenodd" d="M59.6508 42.4611C60.3283 24.7347 40.5452 23.846 42.7416 42.274C48.3689 42.6808 54.0159 42.7433 59.6508 42.4611Z" stroke="black" stroke-width="2.4941" stroke-miterlimit="22.926" stroke-linecap="round" stroke-linejoin="round"/>
<path fill-rule="evenodd" clip-rule="evenodd" d="M51.809 46.6215C47.4967 48.6317 52.6736 57.1965 54.111 51.4434C54.6373 49.3559 53.1416 45.9905 51.809 46.6215Z" fill="black"/>
<path fill-rule="evenodd" clip-rule="evenodd" d="M98.925 70.9623C96.4941 71.1285 95.1506 71.3597 93.2576 70.9739C92.8485 70.8908 92.4977 68.2304 92.5094 65.2948L92.6382 30.71C92.6731 21.1161 90.7336 23.8155 99.1819 23.8039C101.028 23.8039 101.239 21.5367 101.192 35.2318L101.099 61.0449C101.052 68.4183 101.987 70.7669 98.9258 70.9656L98.925 70.9623Z" fill="white" stroke="black" stroke-width="2.4941" stroke-miterlimit="22.926" stroke-linecap="round"/>
<path d="M7.63861 23.777C11.1686 23.777 14.0302 20.9728 14.0302 17.5135C14.0302 14.0543 11.1686 11.25 7.63861 11.25C4.10866 11.25 1.24707 14.0543 1.24707 17.5135C1.24707 20.9728 4.10866 23.777 7.63861 23.777Z" fill="#D11D1D" stroke="black" stroke-width="2.4941" stroke-miterlimit="22.926"/>
<path fill-rule="evenodd" clip-rule="evenodd" d="M9.44995 70.9619C7.0074 71.1282 5.67555 71.3593 3.77089 70.9735C3.36186 70.8904 3.01102 68.23 3.02266 65.2945L3.15152 30.7097C3.18644 21.1157 1.2585 23.8118 9.69521 23.7993C11.5417 23.7993 11.752 21.5322 11.7054 35.2273L11.6123 61.0404C11.5658 68.4138 12.5002 70.7624 9.45078 70.9611L9.44995 70.9619Z" fill="white" stroke="black" stroke-width="2.4941" stroke-miterlimit="22.926" stroke-linecap="round"/>
<path fill-rule="evenodd" clip-rule="evenodd" d="M17.1747 24.0571C16.9178 24.1502 16.6842 25.7863 16.6958 28.7543L16.779 63.8338C16.8023 73.5674 15.5402 70.833 21.0439 70.833C22.2477 70.8447 22.3874 73.1351 22.3641 59.2413L22.2926 33.0782C22.281 29.362 22.4215 24.1826 22.3275 22.6196C20.1776 23.2972 17.7467 23.8816 17.173 24.0571H17.1747Z" fill="white" stroke="black" stroke-width="2.4941" stroke-miterlimit="22.926" stroke-linecap="round" stroke-linejoin="round"/>
</svg>
