<svg width="71" height="71" viewBox="0 0 71 71" fill="none" xmlns="http://www.w3.org/2000/svg">
<g clip-path="url(#clip0_665_1125)">
<path fill-rule="evenodd" clip-rule="evenodd" d="M67.3356 47.2689C68.7356 40.5159 62.6936 28.1789 58.5236 22.3689C52.5906 14.0979 38.5786 11.8819 28.5236 16.9069C16.1576 23.1009 13.0026 41.7549 12.4026 42.5569C11.5646 43.7259 28.2466 57.8249 28.1766 49.5369C28.0546 34.5649 27.5656 27.1669 32.1026 29.0169C54.5426 38.1779 46.2886 21.3739 46.7256 21.6529C53.4436 25.7879 55.9256 39.7829 48.7496 47.3209C49.7296 51.2639 64.4216 48.2629 67.3356 47.2689Z" fill="#3E6C02"/>
<path d="M35.5 69.5C54.2777 69.5 69.5 54.2777 69.5 35.5C69.5 16.7223 54.2777 1.5 35.5 1.5C16.7223 1.5 1.5 16.7223 1.5 35.5C1.5 54.2777 16.7223 69.5 35.5 69.5Z" stroke="black" stroke-width="3" stroke-miterlimit="22.926" stroke-linecap="round" stroke-linejoin="round"/>
<path fill-rule="evenodd" clip-rule="evenodd" d="M40.2723 17.3608C47.4093 17.3608 53.2023 24.9858 53.2023 34.3738C53.2023 42.3128 48.6833 46.1518 43.6023 49.7818C40.0603 52.3468 39.1873 51.8408 35.5933 49.0488C31.7933 46.0828 27.3223 41.6488 27.3223 34.3738C27.3253 24.9858 33.1183 17.3608 40.2723 17.3608Z" fill="#3E6C02"/>
<path fill-rule="evenodd" clip-rule="evenodd" d="M35.9623 13.8711C43.1163 13.8711 48.9093 21.4791 48.9093 30.8711C48.9093 38.8101 44.3903 42.6491 39.3093 46.2961C35.7493 48.8441 34.8773 48.3381 31.2823 45.5461C27.4823 42.5971 23.0283 38.1651 23.0283 30.8711C23.0283 21.4831 28.8213 13.8711 35.9583 13.8711H35.9623Z" fill="white" stroke="black" stroke-width="3" stroke-miterlimit="22.926"/>
<path d="M22.4391 61.5249C22.2873 61.6914 22.1033 61.8254 21.8982 61.9187C21.6931 62.0121 21.4712 62.0629 21.2459 62.068C21.0206 62.0731 20.7966 62.0325 20.5875 61.9486C20.3784 61.8646 20.1884 61.7392 20.0292 61.5797C19.87 61.4203 19.7447 61.2302 19.6611 61.0209C19.5774 60.8117 19.5371 60.5877 19.5425 60.3624C19.5479 60.1371 19.599 59.9153 19.6926 59.7103C19.7862 59.5053 19.9204 59.3215 20.0871 59.1699C24.0606 55.2341 29.4136 53.0052 35.0061 52.9579C40.7489 52.9273 46.3124 54.9564 50.6871 58.6769C51.0246 58.9594 51.2362 59.3643 51.2754 59.8026C51.3145 60.241 51.1782 60.677 50.8961 61.0149C50.7594 61.1838 50.5902 61.3236 50.3984 61.426C50.2067 61.5283 49.9963 61.5911 49.7799 61.6106C49.5634 61.6301 49.3452 61.6059 49.1383 61.5394C48.9313 61.473 48.7398 61.3657 48.5751 61.2239C44.7941 58.0185 39.995 56.2647 35.0381 56.2769C30.3138 56.3112 25.7909 58.1952 22.4391 61.5249Z" fill="#3E6C02"/>
<path d="M19.4551 59.1698C28.4411 50.1698 42.2441 50.8818 51.4401 59.8848" stroke="black" stroke-width="3" stroke-miterlimit="22.926" stroke-linecap="round" stroke-linejoin="round"/>
<path fill-rule="evenodd" clip-rule="evenodd" d="M63.1488 44.442C64.5488 37.689 58.5248 25.352 54.3368 19.542C48.4038 11.271 34.4098 9.05499 24.3588 14.081C11.9698 20.275 8.81085 38.942 8.23585 39.731C7.38085 40.9 24.0798 54.999 24.0098 46.711C23.8698 31.757 23.3818 24.341 27.9358 26.211C50.3758 35.372 42.1048 18.568 42.5588 18.83C49.2768 22.983 51.7368 36.977 44.5828 44.498C45.5428 48.442 60.2518 45.458 63.1488 44.446V44.442Z" fill="white" stroke="black" stroke-width="3" stroke-miterlimit="22.926"/>
<path fill-rule="evenodd" clip-rule="evenodd" d="M30.8496 38.7192C32.9786 45.1052 36.5906 44.5472 40.0106 39.4192L30.8496 38.7192Z" stroke="black" stroke-width="3" stroke-miterlimit="22.926" stroke-linecap="round" stroke-linejoin="round"/>
<path d="M38.9111 33.2921C38.9281 31.9481 41.9111 30.5521 42.8551 33.5921" stroke="black" stroke-width="3" stroke-miterlimit="22.926" stroke-linecap="round"/>
<path d="M28.4072 32.525C28.4242 31.199 31.4072 29.785 32.3512 32.839" stroke="black" stroke-width="3" stroke-miterlimit="22.926" stroke-linecap="round"/>
</g>
<defs>
<clipPath id="clip0_665_1125">
<rect width="71" height="71" fill="white"/>
</clipPath>
</defs>
</svg>
