<?xml version="1.0" encoding="UTF-8"?>
<svg xmlns:xlink="http://www.w3.org/1999/xlink"  xmlns="http://www.w3.org/2000/svg" version="1.1" viewBox="0 0 150 150">
  <defs>
    <style>
      .cls-1 {
        fill: none;
      }

      .cls-1, .cls-2, .cls-3, .cls-4 {
        stroke: #000;
        stroke-linecap: round;
        stroke-linejoin: round;
        stroke-width: 3px;
      }

      .cls-2 {
        fill: #d11d1d;
      }

      .cls-2, .cls-5, .cls-4 {
        fill-rule: evenodd;
      }

      .cls-3, .cls-4 {
        fill: #fff;
      }

      .cls-6 {
        fill: #cccacb;
      }
    </style>
  </defs>
  <!-- Generator: Adobe Illustrator 28.7.0, SVG Export Plug-In . SVG Version: 1.2.0 Build 65)  -->
  <g>
    <g id="Layer_1">
      <g id="_5._Ongoing_Service">
        <path id="Path_1837" class="cls-6" d="M80.2,128.4c0,1-.8,1.8-1.8,1.8s-1.8-.8-1.8-1.8v-8.9s0-2.5,0-2.5c-.7-.1-1.5-.3-2.4-.5-1-.2-2.3-.5-4.1-.8-4.1-.7-3.8-9.4-3.6-18.4,0-1.5,0-3,.1-4.5-2.4.8-3.8.1-4.6-1.5-1.2-2.7,1.2-8.7,2.6-11.9l.4-.9c.2-1.9,1.8-3.6,4.2-4.7,2.3-1,4.8-1.5,7.3-1.6,0-2.8,0-5.5-.1-8.2-4.3.2-8.7.2-13,0-.6-.2-1.1-.7-1.2-1.3-1.5-6.6-1-14.5-.5-22.2.4-4.5.5-9,.4-13.5,0-1,.7-1.8,1.7-1.9,0,0,0,0,0,0h.8c11,0,20.5,0,25.7-1.6.9-.3,2,.2,2.3,1.2v.2c1.2,6.4,1.5,12.8,1.1,19.3-.2,5.7-.4,11,1.2,16.8.3,1-.3,1.9-1.3,2.2-.1,0-.2,0-.4,0-3.9.3-8.7.5-13.3.7,0,2.8,0,5.6.1,8.4,2,.2,4,.7,5.9,1.5,2.3,1.1,3.9,2.6,4.2,4.4,1.1,1.5,2,3.1,2.8,4.7h0c.7,1.6,1.2,3.2,1.4,4.8.2,1.3,0,2.7-.5,4h0c-.4.9-1.1,1.6-2,1.9-.5.2-1.1.3-1.6.3v4c-.2,6.2-.3,12.2,0,14.8h0c0,1-.6,1.8-1.6,1.9h-.8c-2.4,1.1-4.9,1.9-7.5,2.4v2.4c0,2.2,0,4.2,0,8.9h0Z"/>
        <path id="Path_1838" class="cls-1" d="M74.9,124.4c0-16.2.4-66.4-1.2-93.2"/>
        <path id="Path_1839" class="cls-4" d="M87.4,21.3c2.8,14.9-1,24.4,2.3,36.2-10.9.7-28.4,1.1-29.2.9-2.3-10.4.4-24.4,0-35.4,11.5,0,21.4.1,27-1.7Z"/>
        <path id="Path_1840" class="cls-4" d="M84.8,108.9c-.5-6.1.7-30.3-.3-33.4,1.7,4.1-13.4,5.8-18,1.7-.8-.6-1.8-.9-2.8-.9,3.1,6.9-1.6,32.8,3.1,33.6,9,1.5,7.5,2.5,16.8-1h1Z"/>
        <ellipse id="Ellipse_110" class="cls-3" cx="74.1" cy="74.9" rx="10.8" ry="4.8"/>
        <path id="Path_1841" class="cls-4" d="M63.3,74.9c-1.2,3.1-6.7,15,0,12,4.4-2,3.8-3.2,7,1.6,1.3,2,3.2.2,5.3-1.4.7-.5,3.6,3.1,4.4,2.9,1.6-.4,2.2-5.2,4.7-2.7,1.2,1.2,4.9,2,4.4-3.4-.2-2.3-1.5-5.3-4.2-9-6.5,7-15.5,6.1-21.6,0h0Z"/>
        <path id="Rectangle_982" class="cls-3" d="M67.3,45.8h12.4c1.7,0,3,1.3,3,3h0c0,1.7-1.3,3-3,3h-12.4c-1.7,0-3-1.3-3-3h0c0-1.7,1.3-3,3-3Z"/>
        <path id="Path_1842" class="cls-5" d="M68.7,38.6c1.2-5,8.4-5.7,9.6-1,1.6,6.3-2,1.7-5.6,3.1-2,.7-5.5,4.6-4-2Z"/>
        <path id="Path_1843" class="cls-5" d="M81.3,34.5c1-.6,1.4-1.8.9-2.9-.2-.4-.6-.8-1.1-1-2-.8-5,6.3.2,3.8Z"/>
        <path id="Path_1844" class="cls-5" d="M76.7,31.2c.7-.9.6-2.2-.3-3-.4-.3-.9-.5-1.4-.5-2.2.1-2.2,7.7,1.7,3.4Z"/>
        <path id="Path_1845" class="cls-5" d="M71.8,31.4c0-1.2-.8-2.2-1.9-2.3-.5,0-1,0-1.4.4-1.7,1.3,2.5,7.6,3.3,1.9Z"/>
        <path id="Path_1846" class="cls-5" d="M68.2,35.8c0-1.2-.8-2.2-1.9-2.3-.5,0-1,0-1.4.4-1.7,1.3,2.5,7.6,3.3,1.9Z"/>
        <path id="Path_768" class="cls-2" d="M115,57.5c-9.1-19.7,21.8-12.4,19.3.9-2,10.7-7.1,23.2-15.7,6.6-3.1,2.7-13.9,18.6-20.5,9-8.4-12.1-2.9-5.7,16.9-16.5Z"/>
        <path id="Path_768-2" class="cls-2" d="M34.5,115.8c9.1,19.7-21.8,12.4-19.3-.9,2-10.7,7.1-23.2,15.7-6.6,3.1-2.7,13.9-18.6,20.5-9,8.4,12.1,2.9,5.7-16.9,16.5h0Z"/>
        <path id="Path_768-3" class="cls-2" d="M35.6,58.3c9.1-19.7-21.8-12.4-19.3.9,2,10.7,7.1,23.2,15.7,6.6,3.1,2.7,13.9,18.6,20.5,9,8.4-12.1,2.9-5.7-16.9-16.5h0Z"/>
        <path id="Path_768-4" class="cls-2" d="M115.5,116.6c-9.1,19.7,21.8,12.4,19.3-.9-2-10.7-7.1-23.2-15.7-6.6-3.1-2.7-13.9-18.6-20.5-9-8.4,12.1-2.9,5.7,16.9,16.5Z"/>
      </g>
    </g>
  </g>
</svg>