<svg xmlns:xlink="http://www.w3.org/1999/xlink"  xmlns="http://www.w3.org/2000/svg" width="68.07" height="73.419" viewBox="0 0 68.07 73.419"><g id="Satisfaction_Guaranteed" data-name="Satisfaction Guaranteed" transform="translate(1.5 1.448)"><path id="Path_782" data-name="Path 782" d="M30.957,50.47,17.08,29.126,31.274,19.12,45.152,40.465l-9.5.952Z" transform="translate(17.719 20)" fill="#fff" stroke="#000" stroke-linecap="round" stroke-linejoin="round" stroke-miterlimit="22.926" stroke-width="3" fill-rule="evenodd"></path><path id="Path_783" data-name="Path 783" d="M15.864,50.47,29.742,29.126,15.526,19.12,1.67,40.465l9.477.952Z" transform="translate(0.53 20)" fill="#fff" stroke="#000" stroke-linecap="round" stroke-linejoin="round" stroke-miterlimit="22.926" stroke-width="3" fill-rule="evenodd"></path><path id="Path_784" data-name="Path 784" d="M65.7,31.772c0-3.321-4.019-5.965-4.971-8.948-1.015-3.11.635-7.594-1.248-10.175-1.9-2.6-6.685-2.412-9.287-4.315-2.581-1.883-3.871-6.494-6.981-7.51C40.231-.15,36.486,2.812,33.165,2.812S26.1-.15,23.117.823c-3.11,1.015-4.4,5.627-6.981,7.51-2.6,1.9-7.383,1.713-9.287,4.315C4.967,15.229,6.617,19.714,5.6,22.824,4.628,25.807.63,28.451.63,31.772s4,5.965,4.971,8.969C6.617,43.83,4.967,48.315,6.849,50.9c1.9,2.6,6.685,2.412,9.287,4.315,2.581,1.883,3.871,6.494,6.981,7.51,2.983.973,6.727-1.967,10.048-1.967s7.065,2.94,10.048,1.967c3.11-1.015,4.4-5.627,6.981-7.51,2.6-1.9,7.383-1.713,9.287-4.315,1.883-2.581.233-7.065,1.248-10.154C61.681,37.738,65.7,35.093,65.7,31.772Z" transform="translate(-0.63 -0.627)" fill="#fff" stroke="#000" stroke-linecap="round" stroke-linejoin="round" stroke-miterlimit="22.926" stroke-width="3" fill-rule="evenodd"></path><path id="Path_785" data-name="Path 785" d="M10.811,34.347a5.487,5.487,0,0,1,3.575-3.575c.338-.148.7-.233,1.037-.36a7.925,7.925,0,0,0,3.787-2.56l.888-1.015a8.478,8.478,0,0,1,3.258-2.263,5.173,5.173,0,0,1,5.712,1.015,7.617,7.617,0,0,1,2.75,5.9,10.927,10.927,0,0,0,.508,3.787c.254.677.529,1.333.8,1.988a5.515,5.515,0,0,1,.381,3.808,6.333,6.333,0,0,1-3.427,4.167,4.582,4.582,0,0,1-2.39.317,4.909,4.909,0,0,1-2.9-1.375c-.465-.423-.973-.846-1.46-1.248a6.206,6.206,0,0,0-4.167-1.5,9.611,9.611,0,0,0-2.687.3,4.712,4.712,0,0,1-5.923-3.744,7.075,7.075,0,0,1,.254-3.639ZM45.99,32.57a5.6,5.6,0,0,1-1.269,1.862,9.476,9.476,0,0,1-3.089,2.158,3.04,3.04,0,0,1-4-1.375,3.722,3.722,0,0,1-.021-4.062A9.01,9.01,0,0,1,40.786,27.9a6.537,6.537,0,0,1,1.819-.677,2.991,2.991,0,0,1,3.6,2.5,5.689,5.689,0,0,1-.212,2.856ZM27.65,15.626a4.7,4.7,0,0,1-.846,2.01,3.99,3.99,0,0,1-1.4,1.248,3.784,3.784,0,0,1-5.415-2.433,7.914,7.914,0,0,1,1.375-6.664,3.5,3.5,0,0,1,3.681-1.375A3.284,3.284,0,0,1,27.8,10.7a5.829,5.829,0,0,1,.233,2.263C27.967,13.849,27.8,14.738,27.65,15.626ZM32.9,16.853a8.381,8.381,0,0,1,2.665-3.765,3.934,3.934,0,0,1,4.7-.063,3.319,3.319,0,0,1,1.354,2.517,5.019,5.019,0,0,1-.529,2.919,10.634,10.634,0,0,1-2.327,3.385,3.472,3.472,0,0,1-4.167.677,3.809,3.809,0,0,1-2.073-3.956c.085-.571.254-1.142.381-1.713ZM8.822,18.186a16.614,16.614,0,0,1,.825-1.5,3.383,3.383,0,0,1,5.521-.317,4.612,4.612,0,0,1,.888,1.4,8.891,8.891,0,0,1,.444,5.775c-.867,2.9-2.919,3.66-5.331,3a3.135,3.135,0,0,1-2.031-1.9A8.777,8.777,0,0,1,8.822,18.186Z" transform="translate(7.995 7.967)" fill="#cccacb" fill-rule="evenodd"></path><path id="Path_786" data-name="Path 786" d="M9.711,31.936a5.518,5.518,0,0,1,3.6-3.575c.338-.127.677-.233,1.037-.338a8.182,8.182,0,0,0,3.787-2.56,10.175,10.175,0,0,1,.888-1.015,8.6,8.6,0,0,1,3.258-2.285,5.225,5.225,0,0,1,5.712,1.015,7.7,7.7,0,0,1,2.729,5.9,11.046,11.046,0,0,0,.508,3.808c.254.677.529,1.312.825,1.967a5.654,5.654,0,0,1,.36,3.808,6.239,6.239,0,0,1-3.427,4.167,4.167,4.167,0,0,1-2.39.317,4.728,4.728,0,0,1-2.9-1.375c-.465-.423-.973-.825-1.46-1.248a6.385,6.385,0,0,0-4.167-1.5,9.63,9.63,0,0,0-2.687.317,4.724,4.724,0,0,1-5.923-3.765,7.327,7.327,0,0,1,.254-3.639ZM44.89,30.159a5.122,5.122,0,0,1-1.269,1.862A9.318,9.318,0,0,1,40.532,34.2a3.04,3.04,0,0,1-4-1.375,3.722,3.722,0,0,1-.021-4.062,8.691,8.691,0,0,1,3.173-3.258,6.6,6.6,0,0,1,1.819-.7,3,3,0,0,1,3.6,2.517A5.607,5.607,0,0,1,44.89,30.159ZM26.55,13.215a4.677,4.677,0,0,1-.846,2.031,4.054,4.054,0,0,1-1.375,1.227,3.789,3.789,0,0,1-5.437-2.412A7.914,7.914,0,0,1,20.267,7.4a3.5,3.5,0,0,1,3.681-1.375,3.316,3.316,0,0,1,2.771,2.263,6.3,6.3,0,0,1,.212,2.263C26.867,11.459,26.7,12.326,26.55,13.215ZM31.8,14.463A8.381,8.381,0,0,1,34.461,10.7a3.967,3.967,0,0,1,4.7-.085,3.319,3.319,0,0,1,1.354,2.517,5.058,5.058,0,0,1-.529,2.94,10.873,10.873,0,0,1-2.327,3.385,3.5,3.5,0,0,1-4.167.677,3.822,3.822,0,0,1-2.073-3.977c.085-.571.254-1.121.381-1.692ZM7.722,15.775a14.092,14.092,0,0,1,.825-1.481,3.384,3.384,0,0,1,5.521-.338,5.194,5.194,0,0,1,.888,1.4,8.776,8.776,0,0,1,.444,5.775c-.867,2.919-2.919,3.66-5.331,3.025a3.29,3.29,0,0,1-2.031-1.9,8.826,8.826,0,0,1-.317-6.473Z" transform="translate(6.768 5.301)" fill="#fff" stroke="#000" stroke-miterlimit="22.926" stroke-width="3" fill-rule="evenodd"></path></g></svg>