<?xml version="1.0" encoding="UTF-8"?>
<svg xmlns:xlink="http://www.w3.org/1999/xlink"  xmlns="http://www.w3.org/2000/svg" version="1.1" viewBox="0 0 150 150">
  <defs>
    <style>
      .cls-1 {
        fill: #d11d1d;
        stroke-linejoin: round;
      }

      .cls-1, .cls-2 {
        fill-rule: evenodd;
      }

      .cls-1, .cls-3 {
        stroke: #000;
        stroke-linecap: round;
        stroke-width: 3px;
      }

      .cls-2 {
        fill: #cdcdcd;
      }

      .cls-3 {
        fill: none;
        stroke-miterlimit: 22.9;
      }
    </style>
  </defs>
  <!-- Generator: Adobe Illustrator 28.7.0, SVG Export Plug-In . SVG Version: 1.2.0 Build 65)  -->
  <g>
    <g id="Layer_1">
      <g id="_4._Starting_Services">
        <path id="Path_766" class="cls-3" d="M117.3,77.8c-1.6,25.6-23.6,45.2-49.3,43.6-25.6-1.6-45.2-23.6-43.6-49.3,1.6-25.6,23.6-45.2,49.3-43.6,5.8.4,11.4,1.8,16.7,4.2"/>
        <path id="Path_769" class="cls-2" d="M73.4,108.5c-30.2,4.8-28.9-74.3,0-17.9,11.6-9.3,35-54.5,49.6-48.8,18.5,7.3-29.9,61.8-49.6,66.7Z"/>
        <path id="Path_768" class="cls-1" d="M67.5,101.5c-30.2,4.8-29-74.3,0-17.9,11.6-9.3,35-54.5,49.6-48.8,18.5,7.3-29.9,61.8-49.6,66.7Z"/>
      </g>
    </g>
  </g>
</svg>