<svg width="71" height="71" viewBox="0 0 71 71" fill="none" xmlns="http://www.w3.org/2000/svg">
<g clip-path="url(#clip0_665_1137)">
<path d="M30.0029 1.72314C23.5989 2.77292 17.6291 5.63351 12.7985 9.96705C7.96798 14.3006 4.47854 19.9261 2.74234 26.179C1.00614 32.4319 1.09571 39.0512 3.00047 45.2548C4.90523 51.4585 8.54561 56.9875 13.4916 61.1887C18.4377 65.39 24.4827 68.088 30.9128 68.9641C37.3429 69.8402 43.8894 68.8578 49.7792 66.1329C55.6689 63.408 60.6557 59.0545 64.1508 53.5866C67.6458 48.1186 69.503 41.7647 69.5029 35.2751" stroke="black" stroke-width="3" stroke-miterlimit="22.926" stroke-linecap="round" stroke-linejoin="round"/>
<path fill-rule="evenodd" clip-rule="evenodd" d="M49.6068 54.8302C47.1781 53.2716 44.7355 51.7382 42.2788 50.2302C41.677 49.7614 40.9514 49.4786 40.191 49.4164C39.4307 49.3542 38.6688 49.5154 37.9988 49.8802C36.9808 50.4552 35.8908 50.9002 34.8728 51.4722C31.7628 53.2242 28.6948 55.0522 25.5598 56.7582C24.3788 57.3415 23.1545 57.8326 21.8978 58.2272C17.3178 59.8672 24.8668 41.8842 25.7368 40.1402C23.9368 38.3612 22.1018 36.5512 20.2708 34.7402C18.5598 33.0402 13.2518 25.6252 18.2378 25.1842C23.1468 24.7522 27.7078 24.6912 32.6128 24.6912C33.5738 22.7282 34.4628 20.8332 35.4218 18.9732C36.4518 16.9732 37.4708 14.9642 38.6408 13.0482C41.6698 8.08022 44.1878 7.71222 47.1058 13.3482C48.0708 15.2142 48.8668 17.1662 49.7558 19.0712C50.3558 20.3562 50.9858 21.6252 51.6128 22.8972C51.7743 23.222 52.021 23.4968 52.3266 23.6922C52.6322 23.8875 52.9852 23.9961 53.3478 24.0062C60.6778 25.0592 70.9738 23.9722 63.3418 32.3632C61.3028 34.6052 59.0478 36.6492 56.9838 38.8712C54.4358 41.6172 54.9368 40.3882 55.4958 44.0042C55.9958 47.2392 56.8098 50.4242 57.2708 53.6642C58.5638 62.7242 53.9278 57.6022 49.6068 54.8302Z" fill="#3E6C02"/>
<path fill-rule="evenodd" clip-rule="evenodd" d="M44.9872 49.1239C42.5592 47.5649 40.1122 46.0369 37.6592 44.5239C37.0573 44.055 36.3316 43.772 35.5711 43.7097C34.8106 43.6473 34.0485 43.8083 33.3782 44.1729C32.3612 44.7489 31.2712 45.1929 30.2532 45.7649C27.1432 47.5169 24.0752 49.3449 20.9402 51.0519C19.7594 51.6356 18.5351 52.1267 17.2782 52.5209C12.6982 54.1599 20.2472 36.1779 21.1172 34.4329C19.3172 32.6549 17.4822 30.8439 15.6512 29.0329C13.9402 27.3389 8.63323 19.9179 13.6182 19.4769C18.5282 19.0459 23.0882 18.9849 27.9932 18.9849C28.9542 17.0219 29.8442 15.1269 30.8022 13.2669C31.8322 11.2669 32.8502 9.25693 34.0212 7.34093C37.0502 2.37393 39.5682 2.00593 42.4862 7.64093C43.4512 9.50693 44.2472 11.4579 45.1362 13.3639C45.7362 14.6489 46.3662 15.9179 46.9932 17.1889C47.1547 17.5137 47.4014 17.7885 47.707 17.9839C48.0127 18.1792 48.3657 18.2878 48.7282 18.2979C56.0582 19.3519 66.3542 18.2649 58.7282 26.6559C56.6882 28.8969 54.4282 30.9409 52.3702 33.1629C49.8212 35.9099 50.3222 34.6799 50.8812 38.2969C51.3812 41.5309 52.1952 44.7169 52.6562 47.9559C53.9442 57.0169 49.3092 51.8949 44.9872 49.1239Z" fill="white" stroke="black" stroke-width="3" stroke-miterlimit="22.926" stroke-linejoin="round"/>
<path d="M31.3506 31.9424C31.4906 38.7424 41.4876 37.8424 43.9636 31.9424" stroke="black" stroke-width="3" stroke-miterlimit="22.926" stroke-linecap="round" stroke-linejoin="round"/>
</g>
<defs>
<clipPath id="clip0_665_1137">
<rect width="71" height="70.775" fill="white"/>
</clipPath>
</defs>
</svg>
