<svg width="69" height="83" viewBox="0 0 69 83" fill="none" xmlns="http://www.w3.org/2000/svg">
<g clip-path="url(#clip0_660_1050)">
<path d="M37.8433 75.126C37.8433 75.4559 37.7123 75.7723 37.479 76.0056C37.2457 76.2389 36.9292 76.37 36.5993 76.37C36.2694 76.37 35.953 76.2389 35.7197 76.0056C35.4864 75.7723 35.3553 75.4559 35.3553 75.126L35.3763 68.996L35.3873 67.277C34.9063 67.192 34.3873 67.085 33.7533 66.957C33.0273 66.818 32.1623 66.637 30.9233 66.423C28.1143 65.953 28.2743 59.994 28.4563 53.789C28.4773 52.753 28.5093 51.706 28.5313 50.689C26.8653 51.266 25.8933 50.789 25.3803 49.653C24.5473 47.795 26.2343 43.683 27.1423 41.472L27.4093 40.831C27.5263 39.496 28.6163 38.364 30.3033 37.606C31.8892 36.9411 33.5844 36.5753 35.3033 36.527C35.2713 34.627 35.2503 32.736 35.2183 30.867C32.2409 31.0263 29.2571 31.0299 26.2793 30.878C26.074 30.8112 25.8894 30.6925 25.7435 30.5335C25.5975 30.3744 25.4952 30.1803 25.4463 29.97C24.4213 25.41 24.7623 20.006 25.1043 14.73C25.3551 11.6384 25.4468 8.53599 25.3793 5.43499C25.3725 5.27289 25.3978 5.11105 25.4537 4.95875C25.5096 4.80646 25.5951 4.66673 25.7053 4.54759C25.8154 4.42845 25.948 4.33226 26.0954 4.26454C26.2428 4.19682 26.4022 4.15891 26.5643 4.15299H27.1203C34.7133 4.17399 41.2393 4.19599 44.8203 3.05299C45.1347 2.95668 45.4744 2.98784 45.7661 3.13975C46.0578 3.29166 46.278 3.55214 46.3793 3.86499L46.4113 4.00399C47.1736 8.37442 47.4086 12.8205 47.1113 17.247C46.9833 21.188 46.8653 24.83 47.9553 28.781C48.0389 29.0995 47.9938 29.4382 47.83 29.7238C47.6661 30.0095 47.3965 30.2193 47.0793 30.308C47.0028 30.3291 46.9237 30.3399 46.8443 30.34C44.1633 30.532 40.8533 30.682 37.6913 30.799C37.7233 32.711 37.7443 34.654 37.7663 36.609C39.1565 36.7259 40.5193 37.0635 41.8033 37.609C43.4263 38.335 44.4843 39.393 44.6873 40.653C45.4256 41.6724 46.0724 42.7549 46.6203 43.888L46.6523 43.952C47.1561 44.9706 47.4776 46.0695 47.6023 47.199C47.7315 48.1238 47.602 49.0663 47.2283 49.922C46.9507 50.5305 46.4493 51.0086 45.8283 51.257C45.4696 51.4033 45.0832 51.4688 44.6963 51.449L44.6533 54.194C44.5893 58.434 44.5253 62.546 44.6533 64.361C44.6798 64.6773 44.5819 64.9916 44.3804 65.2369C44.179 65.4822 43.8898 65.6394 43.5743 65.675L43.0193 65.75C41.3542 66.4528 39.6224 66.9859 37.8503 67.341V68.996C37.8393 70.513 37.8393 71.88 37.8393 75.126H37.8433Z" fill="#3E6C02"/>
<path d="M53.692 21.834C59.1801 25.9071 63.2541 31.5974 65.3415 38.1053C67.4288 44.6132 67.4246 51.6116 65.3294 58.117C63.2343 64.6223 59.1534 70.3078 53.6604 74.3743C48.1674 78.4408 41.5382 80.6839 34.7046 80.7886C27.8709 80.8932 21.1762 78.8541 15.5613 74.9577C9.94629 71.0612 5.69329 65.5034 3.39991 59.0653C1.10653 52.6271 0.888044 45.6321 2.77516 39.0634C4.66227 32.4946 8.56013 26.6822 13.921 22.443" stroke="black" stroke-width="3" stroke-miterlimit="22.926" stroke-linecap="round" stroke-linejoin="round"/>
<path d="M34.2124 72.4032C34.2124 61.2432 34.5004 26.7152 33.4004 8.30322" stroke="black" stroke-width="3" stroke-miterlimit="22.926" stroke-linecap="round" stroke-linejoin="round"/>
<path fill-rule="evenodd" clip-rule="evenodd" d="M42.7983 1.5C44.7523 11.731 42.1363 18.288 44.3683 26.384C36.8823 26.884 24.8353 27.164 24.2583 26.984C22.6583 19.818 24.5683 10.184 24.2263 2.656C32.1263 2.688 38.9433 2.731 42.7983 1.503V1.5Z" fill="white" stroke="black" stroke-width="3" stroke-miterlimit="22.926" stroke-linecap="round" stroke-linejoin="round"/>
<path fill-rule="evenodd" clip-rule="evenodd" d="M41.0247 61.7222C40.7147 57.4932 41.4837 40.8862 40.8537 38.7612C41.9857 41.6022 31.6047 42.7612 28.4977 39.9612C27.9564 39.5405 27.2824 39.3276 26.5977 39.3612C28.7127 44.1242 25.5187 61.9382 28.7337 62.4832C34.8957 63.5192 33.9027 64.2022 40.3107 61.8212L41.0267 61.7212L41.0247 61.7222Z" fill="white" stroke="black" stroke-width="3" stroke-miterlimit="22.926" stroke-linecap="round" stroke-linejoin="round"/>
<path d="M33.6671 41.6982C37.7662 41.6982 41.0891 40.2064 41.0891 38.3662C41.0891 36.526 37.7662 35.0342 33.6671 35.0342C29.5681 35.0342 26.2451 36.526 26.2451 38.3662C26.2451 40.2064 29.5681 41.6982 33.6671 41.6982Z" fill="white" stroke="black" stroke-width="3" stroke-miterlimit="22.926" stroke-linecap="round" stroke-linejoin="round"/>
<path fill-rule="evenodd" clip-rule="evenodd" d="M26.2444 38.3662C25.4224 40.4812 21.6094 48.6722 26.1914 46.6002C29.2034 45.2442 28.8294 44.4002 31.0084 47.7212C31.9164 49.0992 33.1974 47.8492 34.6824 46.7712C35.1524 46.4292 37.1494 48.9182 37.7264 48.7712C38.8474 48.4832 39.2644 45.2252 40.9194 46.8812C41.7634 47.7252 44.2944 48.2592 43.9734 44.5742C43.8344 43.0042 42.9734 40.9542 41.0894 38.3742C36.6044 43.1802 30.4314 42.5602 26.2444 38.3742V38.3662Z" fill="white" stroke="black" stroke-width="3" stroke-miterlimit="22.926" stroke-linecap="round" stroke-linejoin="round"/>
<path d="M37.4692 18.353H28.9682C27.83 18.353 26.9072 19.2758 26.9072 20.414C26.9072 21.5523 27.83 22.475 28.9682 22.475H37.4692C38.6075 22.475 39.5302 21.5523 39.5302 20.414C39.5302 19.2758 38.6075 18.353 37.4692 18.353Z" fill="white" stroke="black" stroke-width="3" stroke-miterlimit="22.926" stroke-linecap="round" stroke-linejoin="round"/>
<path fill-rule="evenodd" clip-rule="evenodd" d="M29.9833 13.3982C30.7953 9.93819 35.7833 9.48919 36.5833 12.6982C37.6513 16.9912 35.1953 13.8982 32.7063 14.8132C31.3393 15.3132 28.9063 17.9852 29.9833 13.4032V13.3982Z" fill="black"/>
<path fill-rule="evenodd" clip-rule="evenodd" d="M38.6332 10.6098C38.8757 10.4794 39.0759 10.2825 39.2103 10.0423C39.3447 9.80201 39.4078 9.52838 39.392 9.25352C39.3763 8.97867 39.2824 8.71403 39.1214 8.4907C38.9604 8.26737 38.739 8.09464 38.4832 7.99281C37.0752 7.46981 35.0342 12.3188 38.6332 10.6098Z" fill="black"/>
<path fill-rule="evenodd" clip-rule="evenodd" d="M35.4508 8.30312C35.6228 8.08733 35.7298 7.82704 35.7594 7.55267C35.789 7.27831 35.7399 7.00119 35.6178 6.7537C35.4957 6.50622 35.3057 6.29857 35.0701 6.15504C34.8344 6.0115 34.5627 5.938 34.2868 5.94312C32.7918 6.01812 32.8018 11.2721 35.4508 8.30312Z" fill="black"/>
<path fill-rule="evenodd" clip-rule="evenodd" d="M32.0553 8.47386C32.0795 8.19896 32.0248 7.92284 31.8975 7.67799C31.7702 7.43314 31.5756 7.22974 31.3366 7.09172C31.0976 6.95369 30.8242 6.88678 30.5485 6.89885C30.2728 6.91092 30.0063 7.00147 29.7803 7.15986C28.5743 8.05786 31.5103 12.4149 32.0553 8.47386Z" fill="black"/>
<path fill-rule="evenodd" clip-rule="evenodd" d="M29.5772 11.4529C29.6015 11.178 29.5467 10.9018 29.4194 10.657C29.2921 10.4121 29.0975 10.2087 28.8585 10.0707C28.6195 9.93269 28.3461 9.86578 28.0704 9.87785C27.7947 9.88992 27.5282 9.98048 27.3022 10.1389C26.1062 11.0369 29.0322 15.3939 29.5772 11.4529Z" fill="black"/>
</g>
<defs>
<clipPath id="clip0_660_1050">
<rect width="68.402" height="82.286" fill="white"/>
</clipPath>
</defs>
</svg>
