<svg xmlns:xlink="http://www.w3.org/1999/xlink"  xmlns="http://www.w3.org/2000/svg" version="1.1" viewBox="0 0 150 150">
  <defs>
    <style>
      .cls-1 {
        fill: #cccacb;
      }

      .cls-1, .cls-2, .cls-3 {
        fill-rule: evenodd;
      }

      .cls-2 {
        fill: #fff;
        stroke: #000;
        stroke-linecap: round;
        stroke-linejoin: round;
        stroke-width: 3px;
      }

      .cls-3 {
        fill: #d11d1d;
      }
    </style>
  </defs>
  <!-- Generator: Adobe Illustrator 28.7.0, SVG Export Plug-In . SVG Version: 1.2.0 Build 65)  -->
  <g>
    <g id="Layer_1">
      <g id="_2._Site_Visits_Fact_Finding">
        <path id="Path_1825" class="cls-1" d="M110.7,32.9c-5.7-6.9-13.7-10.5-22.6-11.2-8.8-.6-18,0-25.7,4.5-7.2,4.2-13.2,10.3-17.3,17.6-4.9,8.5-4.3,17.8-2.2,27,4.4,18.7,15.4,35.2,31,46.4,3.3,2.3,6.4,4,10.2,2.3,4.2-1.8,7.6-5.2,10.7-8.5,7.1-7.5,12.6-16.3,17.1-25.5,7.9-16.5,11.3-37.4-1.2-52.6h0ZM74.7,28.5l9.2,2.7c15.2,4.4,26.3,15.3,26.3,31.1,0,15.8-12.9,28.7-28.7,28.7h-1.8c-21,0-37-10-37.5-28.7-.5-16,14.5-39,32.4-33.8h0Z"/>
        <path id="Path_1826" class="cls-1" d="M71.3,37.1c6.9,0,12.6,6.1,12.6,13.6s-4.4,9.4-9.3,12.3h0c7.7,1.1,14.7,4.7,20.2,10.1,1.1,1.1,1.1,2.8,0,3.9,0,0,0,0,0,0-.6.6-1.4.9-2.2.9l-42.7-.9c-1.6,0-2.8-1.3-2.8-2.9,0-.7.3-1.4.9-1.9h0c5.2-5.4,12.2-8.6,19.6-9.3l-.8-.5c-3.7-2.3-8-5.9-8-11.7,0-7.5,5.6-13.6,12.6-13.6Z"/>
        <path id="Path_1827" class="cls-3" d="M70.1,116.7h2.3c20.2,0,36.8,3.4,36.8,7.5h0c0,4.1-16.6,7.5-36.8,7.5h-2.3c-20.2,0-36.8-3.4-36.8-7.5h0c0-4.1,16.6-7.5,36.8-7.5Z"/>
        <path id="Path_1828" class="cls-2" d="M101.8,31.1c-5.7-6.9-13.7-10.5-22.6-11.2-8.8-.6-18,0-25.7,4.5-7.2,4.3-13.2,10.3-17.3,17.6-4.9,8.4-4.3,17.8-2.2,27,4.4,18.7,15.4,35.2,31,46.4,3.3,2.3,6.4,4,10.3,2.3,4.1-1.8,7.6-5.3,10.7-8.5,6.9-7.6,12.7-16.2,17.1-25.5,7.9-16.5,11.3-37.4-1.2-52.6h0ZM70.9,31.7h1.8c15.8,0,28.8,12.7,28.9,28.5,0,15.8-12.7,28.8-28.5,28.9-.1,0-.2,0-.3,0h-1.8c-15.8,0-28.8-12.7-28.9-28.5s12.7-28.8,28.5-28.9c.1,0,.2,0,.3,0h0Z"/>
      </g>
    </g>
  </g>
</svg>