<svg width="69" height="74" viewBox="0 0 69 74" fill="none" xmlns="http://www.w3.org/2000/svg">
<g clip-path="url(#clip0_660_1011)">
<path fill-rule="evenodd" clip-rule="evenodd" d="M62.1599 34.7839C57.1449 47.2429 55.4509 53.8029 51.8059 66.7489C51.6536 67.3512 51.3819 67.9167 51.0068 68.4119C50.6317 68.907 50.161 69.3218 49.6225 69.6315C49.084 69.9412 48.4887 70.1395 47.8721 70.2146C47.2554 70.2898 46.63 70.2402 46.0329 70.0689L15.3759 59.1849C14.8013 58.9449 14.2813 58.5909 13.8474 58.1443C13.4134 57.6977 13.0746 57.1677 12.8513 56.5864C12.628 56.0051 12.5248 55.3845 12.5482 54.7623C12.5715 54.14 12.7207 53.5289 12.9869 52.9659C18.7549 40.3249 21.1789 34.4169 25.0869 21.1159C28.5199 9.44193 27.1869 7.51592 37.6499 11.2359L57.3679 18.2359C69.3439 22.4869 67.3129 21.9779 62.1599 34.7839Z" fill="#3E6C02"/>
<path fill-rule="evenodd" clip-rule="evenodd" d="M58.5645 29.4283C53.5495 41.8873 51.8565 48.4473 48.2105 61.3923C48.0585 61.9947 47.7871 62.5604 47.4122 63.0558C47.0373 63.5512 46.5666 63.9662 46.0282 64.2761C45.4898 64.586 44.8945 64.7845 44.2778 64.8598C43.6612 64.9351 43.0356 64.8856 42.4385 64.7143L11.7835 53.8293C11.2088 53.5894 10.6887 53.2355 10.2546 52.7889C9.82054 52.3424 9.48152 51.8124 9.25804 51.2311C9.03456 50.6499 8.93124 50.0293 8.95434 49.407C8.97745 48.7846 9.12649 48.1734 9.39245 47.6103C15.1625 34.9693 17.5845 29.0613 21.4925 15.7603C24.9255 4.08434 23.5925 2.16034 34.0575 5.88034L53.7755 12.8803C65.7475 17.1313 63.7155 16.6223 58.5615 29.4283H58.5645Z" fill="white" stroke="black" stroke-width="3" stroke-miterlimit="22.926" stroke-linecap="round"/>
<path d="M23.0557 38.9392C26.1037 30.2392 23.3687 29.9032 33.3907 34.1572C34.8707 34.7852 44.6767 38.5882 44.7667 38.6662C44.3558 40.9513 43.6876 43.1825 42.7747 45.3172" stroke="black" stroke-width="3" stroke-miterlimit="22.926" stroke-linecap="round" stroke-linejoin="round"/>
<path d="M38.3683 28.0112C37.1305 30.0221 36.3203 32.2664 35.9883 34.6042" stroke="black" stroke-width="3" stroke-miterlimit="22.926" stroke-linecap="round" stroke-linejoin="round"/>
<path fill-rule="evenodd" clip-rule="evenodd" d="M47.4741 14.4821C43.4591 12.9371 40.2271 11.9331 36.0971 10.7311C35.2431 10.4821 34.7221 9.73913 34.9121 9.17713L36.6791 3.97713C36.8656 3.66579 37.1669 3.44018 37.5182 3.3489C37.8695 3.25762 38.2426 3.30798 38.5571 3.48913C39.4891 3.88913 40.3681 4.25413 41.2181 4.60013C45.3401 -1.56287 51.5861 3.06013 50.0961 7.69413L50.0841 7.72813C53.6841 8.80113 54.2271 8.53813 53.3491 11.1221L52.5101 13.5871C51.4941 16.5831 51.6011 16.0711 47.4741 14.4821Z" fill="white" stroke="black" stroke-width="3" stroke-miterlimit="22.926" stroke-linecap="round"/>
<path fill-rule="evenodd" clip-rule="evenodd" d="M43.7055 5.7049C45.2225 3.3959 47.5415 5.10489 46.9915 6.81889C46.2365 9.16489 42.4395 7.6329 43.7055 5.7049Z" fill="black"/>
<path fill-rule="evenodd" clip-rule="evenodd" d="M41.1234 28.6132C38.7742 27.6402 36.3701 26.8055 33.9234 26.1132C33.8012 26.0803 33.6869 26.0232 33.5872 25.9453C33.4875 25.8674 33.4045 25.7702 33.3431 25.6596C33.2818 25.5489 33.2432 25.4271 33.2299 25.3013C33.2165 25.1755 33.2286 25.0482 33.2654 24.9272L35.5744 18.7172C35.6251 18.6009 35.699 18.4961 35.7914 18.4091C35.8838 18.3221 35.9929 18.2547 36.112 18.2111C36.2312 18.1674 36.358 18.1484 36.4847 18.1551C36.6114 18.1618 36.7355 18.1942 36.8494 18.2502C39.1603 19.3881 41.5566 20.3437 44.0164 21.1082C46.3844 21.8422 46.7784 21.5752 45.9894 23.6972L44.5044 27.6912C43.6054 30.1132 43.7154 29.7012 41.1234 28.6132Z" fill="white" stroke="black" stroke-width="3" stroke-miterlimit="22.926" stroke-linecap="round"/>
<path fill-rule="evenodd" clip-rule="evenodd" d="M23.4677 47.6041C21.1202 46.6311 18.7177 45.7964 16.2727 45.1041C16.1505 45.0713 16.0361 45.0142 15.9364 44.9363C15.8367 44.8583 15.7537 44.7612 15.6922 44.6506C15.6307 44.54 15.5921 44.4182 15.5786 44.2923C15.5651 44.1665 15.5771 44.0393 15.6137 43.9181L17.9237 37.7091C17.9742 37.5928 18.0477 37.4879 18.1399 37.4008C18.232 37.3137 18.3409 37.2462 18.4599 37.2024C18.5789 37.1585 18.7055 37.1393 18.8321 37.1458C18.9588 37.1522 19.0828 37.1844 19.1967 37.2401C21.5078 38.3784 23.9044 39.334 26.3647 40.0981C28.7307 40.8321 29.1267 40.5671 28.3377 42.6871L26.8527 46.6821C25.9527 49.1071 26.0597 48.6961 23.4677 47.6071V47.6041Z" fill="white" stroke="black" stroke-width="3" stroke-miterlimit="22.926" stroke-linecap="round"/>
<path fill-rule="evenodd" clip-rule="evenodd" d="M42.0451 54.4371C39.6975 53.4645 37.295 52.6297 34.8501 51.9371C34.7278 51.9044 34.6134 51.8474 34.5136 51.7695C34.4138 51.6916 34.3307 51.5945 34.2692 51.4838C34.2077 51.3732 34.1691 51.2513 34.1557 51.1254C34.1423 50.9995 34.1543 50.8723 34.1911 50.7511L36.5011 44.5421C36.5516 44.4258 36.6251 44.3209 36.7173 44.2338C36.8094 44.1467 36.9183 44.0792 37.0373 44.0354C37.1563 43.9915 37.2829 43.9723 37.4096 43.9788C37.5362 43.9853 37.6602 44.0174 37.7741 44.0731C40.0848 45.2116 42.4811 46.1672 44.9411 46.9311C47.3091 47.6651 47.7031 47.4001 46.9151 49.5201L45.4291 53.5141C44.5281 55.9381 44.6381 55.5251 42.0451 54.4371Z" fill="white" stroke="black" stroke-width="3" stroke-miterlimit="22.926" stroke-linecap="round"/>
<path d="M16.854 11.8252C12.0332 14.8363 8.08193 19.0537 5.39084 24.0602C2.69974 29.0667 1.36207 34.6889 1.5101 40.3709C1.65814 46.0529 3.28675 51.5979 6.23488 56.4574C9.18302 61.317 13.3486 65.3229 18.3196 68.0789C23.2906 70.835 28.895 72.2458 34.5784 72.1717C40.2619 72.0977 45.8275 70.5414 50.7251 67.6568C55.6226 64.7721 59.6824 60.6591 62.5029 55.7243C65.3235 50.7896 66.8071 45.2041 66.807 39.5202" stroke="black" stroke-width="3" stroke-miterlimit="22.926" stroke-linecap="round" stroke-linejoin="round"/>
</g>
<defs>
<clipPath id="clip0_660_1011">
<rect width="68.307" height="73.673" fill="white"/>
</clipPath>
</defs>
</svg>
