<svg width="74" height="77" viewBox="0 0 74 77" fill="none" xmlns="http://www.w3.org/2000/svg">
<g clip-path="url(#clip0_660_1065)">
<path fill-rule="evenodd" clip-rule="evenodd" d="M43.1545 35.2979C47.8295 26.5579 53.4145 16.1099 58.1855 7.91887C60.3445 3.31887 66.2915 5.84487 64.0005 10.8689C59.4775 19.3159 54.0005 29.7209 49.0795 38.3329C55.5505 41.8109 60.9725 45.4399 60.1795 47.8329C53.1905 62.6129 46.6115 69.1329 26.4545 69.5799C16.5265 51.1079 19.3335 45.0129 29.8655 28.4579C29.8025 29.0669 36.2065 31.8739 43.1535 35.2969L43.1545 35.2979Z" fill="#3E6C02"/>
<path fill-rule="evenodd" clip-rule="evenodd" d="M38.5101 31.3089C43.1881 22.5709 48.7731 12.1229 53.5441 3.92885C55.7031 -0.671149 61.6441 1.85785 59.3591 6.87885C54.8361 15.3279 49.3591 25.7338 44.4381 34.3428C50.9071 37.8238 56.3281 41.4528 55.5381 43.8428C48.5451 58.6228 41.9661 65.1388 21.8091 65.5928C11.8821 47.1188 14.6921 41.0259 25.2221 24.4729C25.1591 25.0789 31.5651 27.8879 38.5101 31.3089Z" fill="white" stroke="black" stroke-width="3" stroke-miterlimit="22.926" stroke-linecap="round" stroke-linejoin="round"/>
<path d="M28.7595 75.2257C24.5179 74.5325 20.4558 73.0051 16.8082 70.7321C13.1606 68.459 9.99988 65.4853 7.50879 61.983C5.01769 58.4807 3.24568 54.5192 2.29524 50.3278C1.34479 46.1363 1.23477 41.798 1.97155 37.5637C2.70832 33.3295 4.27727 29.2833 6.58764 25.6592C8.89802 22.0352 11.904 18.9051 15.4317 16.4501C18.9594 13.9951 22.9388 12.2638 27.1398 11.3564C31.3408 10.449 35.68 10.3835 39.9065 11.1637" stroke="black" stroke-width="3" stroke-miterlimit="22.926" stroke-linecap="round" stroke-linejoin="round"/>
<path fill-rule="evenodd" clip-rule="evenodd" d="M25.6493 36.921C26.9763 39.666 24.5803 38.521 23.5653 42.716C22.9923 45.216 23.7253 46.079 23.2653 47.542C22.7343 49.23 21.9753 49.398 20.9493 47.85C19.2343 45.268 21.1093 39.894 23.6693 37.124C24.8753 35.819 24.9733 35.521 25.6493 36.921Z" fill="black"/>
<path d="M60.6191 24.4468C63.1539 28.0545 64.9283 32.14 65.8344 36.455C66.7406 40.77 66.7595 45.2242 65.8901 49.5468" stroke="black" stroke-width="3" stroke-miterlimit="22.926" stroke-linecap="round" stroke-linejoin="round"/>
<path fill-rule="evenodd" clip-rule="evenodd" d="M41.1452 73C36.2072 68.918 41.6362 63.759 45.3602 63.759C42.5752 59.685 47.5602 56.111 51.5932 56.059C52.6932 56.044 55.7202 51.223 52.6202 47.607C50.8652 45.559 52.8802 47.271 54.5762 47.717C56.2342 48.153 61.1302 50.362 61.7562 53.261C62.6152 57.238 60.0962 54.323 65.0342 56.269C67.4112 57.203 67.6842 60.193 67.6842 62.427C69.9842 62.227 74.0302 65.244 73.8922 68.487C73.4502 78.85 45.8432 76.884 41.1452 73Z" fill="#3E6C02"/>
<path fill-rule="evenodd" clip-rule="evenodd" d="M34.9241 70.1996C29.9861 66.1176 35.4171 60.9616 39.1391 60.9616C36.3541 56.8846 41.3391 53.3136 45.3721 53.2616C46.4721 53.2466 49.5021 48.4256 46.3991 44.8096C44.6441 42.7606 46.6591 44.4736 48.3551 44.9196C50.0131 45.3556 54.9111 47.5666 55.5371 50.4636C56.3931 54.4406 53.8741 51.5276 58.8131 53.4716C61.1901 54.4086 61.4631 57.3956 61.4631 59.6296C63.7631 59.4296 67.8111 62.4466 67.6711 65.6926C67.2301 76.0496 39.6221 74.0836 34.9241 70.1996Z" fill="white" stroke="black" stroke-width="3" stroke-miterlimit="22.926" stroke-linecap="round" stroke-linejoin="round"/>
<path fill-rule="evenodd" clip-rule="evenodd" d="M45.0027 66.6747C47.2267 64.5907 46.8507 67.2177 51.1557 66.9377C53.7097 66.7377 54.3157 65.7807 55.8557 65.7837C57.6237 65.7887 58.0117 66.4627 56.8397 67.9047C54.8867 70.3117 49.1987 70.1237 45.7907 68.5047C44.1767 67.7407 43.8637 67.7387 45.0027 66.6747Z" fill="black"/>
</g>
<defs>
<clipPath id="clip0_660_1065">
<rect width="73.895" height="76.949" fill="white"/>
</clipPath>
</defs>
</svg>
