<svg width="82" height="69" viewBox="0 0 82 69" fill="none" xmlns="http://www.w3.org/2000/svg">
<g clip-path="url(#clip0_660_1023)">
<path d="M39.3161 22.716C39.3763 22.377 39.5042 22.0535 39.6921 21.765C40.4081 20.673 41.9921 20.11 43.9421 19.945C45.8138 19.8138 47.6945 19.9125 49.5421 20.239C51.4768 20.4972 53.3453 21.1188 55.0491 22.071C55.8831 22.623 57.5491 23.891 59.3931 25.276C62.3871 27.542 65.8391 30.16 66.0151 30.176C66.9781 30.27 68.6331 30.563 70.4301 30.876C72.5522 31.32 74.7017 31.6207 76.8641 31.776C78.1863 31.624 79.5159 31.9899 80.5741 32.797C81.0548 33.2663 81.426 33.8358 81.6615 34.465C81.8969 35.0941 81.9907 35.7674 81.9361 36.437V37.335C81.9711 40.223 82.0651 47.503 80.7361 48.289C80.6507 48.3378 80.5601 48.377 80.4661 48.406C80.3738 48.4387 80.2796 48.4661 80.1841 48.488L80.1251 48.5C79.5159 48.6289 78.8972 48.7075 78.2751 48.735C77.8156 48.7471 77.3567 48.6918 76.9131 48.571C76.6997 50.0048 76.0283 51.3311 74.9991 52.352L74.9291 52.422C73.6489 53.6689 71.9288 54.3608 70.1418 54.3477C68.3547 54.3346 66.6449 53.6175 65.3831 52.352L65.3131 52.282C64.3334 51.2772 63.6894 49.9932 63.4701 48.607H27.2361C27.0145 50.0277 26.3437 51.3401 25.3221 52.352L25.2521 52.422C23.9719 53.6689 22.2518 54.3608 20.4648 54.3477C18.6777 54.3346 16.9679 53.6175 15.7061 52.352L15.6361 52.282C14.6607 51.2741 14.0175 49.9915 13.7931 48.607H6.54913C6.21935 48.6071 5.89283 48.5417 5.58849 48.4146C5.28414 48.2876 5.00803 48.1015 4.77613 47.867L4.69413 47.773C4.27251 47.3197 4.03751 46.724 4.03613 46.105V44.005C4.03722 43.9496 4.04494 43.8945 4.05913 43.841C4.09389 43.2424 4.34894 42.6778 4.77513 42.256C4.91423 42.1185 5.06779 41.9965 5.23313 41.892V41.481C5.24513 40.741 5.29213 39.896 5.36213 39.039C5.62526 36.4443 6.2215 33.8943 7.13613 31.452C7.34713 31.405 9.07313 31.346 11.6211 31.299C11.045 30.7297 10.6246 30.0222 10.4001 29.244C10.1251 28.2468 10.2339 27.1828 10.7051 26.262C11.1326 25.4118 11.7515 24.6724 12.5131 24.102C13.0532 23.694 13.6507 23.3681 14.2861 23.135C14.2266 22.8768 14.1951 22.6129 14.1921 22.348C14.1845 21.5411 14.422 20.751 14.8731 20.082C15.2951 19.4478 15.839 18.9039 16.4731 18.482C17.6025 17.7201 18.9138 17.2715 20.2731 17.182C20.4774 16.9444 20.6401 16.6739 20.7541 16.382C20.9726 15.8984 21.0884 15.3747 21.0941 14.844C21.0874 14.1729 20.8389 13.5267 20.3941 13.024C19.4081 11.873 19.3611 11.145 20.0421 10.558C20.7231 9.97099 21.2511 10.253 21.9911 10.628C22.3407 10.8162 22.7061 10.9735 23.0831 11.098C24.5362 11.5343 25.8999 12.2261 27.1101 13.141C28.142 13.8438 28.8942 14.8869 29.2351 16.088C29.2982 16.359 29.3452 16.6335 29.3761 16.91C29.8847 17.0469 30.3855 17.2115 30.8761 17.403C31.4487 17.636 31.959 17.9993 32.3666 18.464C32.7742 18.9286 33.0678 19.482 33.2241 20.08C33.4165 20.6966 33.5307 21.3349 33.5641 21.98C34.5127 22.257 35.3873 22.7425 36.1241 23.401C37.229 24.3165 37.9499 25.6134 38.1441 27.035C38.1559 27.2108 38.1559 27.3872 38.1441 27.563V27.586C38.0976 28.7102 37.6806 29.7874 36.9581 30.65C36.8664 30.7651 36.7682 30.8749 36.6641 30.979C37.6031 30.979 38.3901 30.967 39.0001 30.967L39.2941 22.877C39.3061 22.818 39.3061 22.771 39.3171 22.713L39.3161 22.716Z" fill="#3E6C02"/>
<path d="M62.9654 56.237C59.8001 59.7026 55.9253 62.4455 51.6047 64.2789C47.284 66.1124 42.6191 66.9934 37.9274 66.8619C33.2357 66.7305 28.6274 65.5898 24.4162 63.5173C20.205 61.4448 16.4898 58.4894 13.5234 54.8521" stroke="black" stroke-width="3" stroke-miterlimit="22.926" stroke-linecap="round" stroke-linejoin="round"/>
<path fill-rule="evenodd" clip-rule="evenodd" d="M36.7466 20.3333C37.2396 17.4453 47.4466 18.4433 50.5896 20.5213C52.6086 21.8483 61.2896 28.7523 62.1316 28.8213C64.3746 29.0213 71.0896 30.5123 73.1216 30.4303C75.6696 30.3363 76.9136 31.2873 76.9136 33.8583C76.9136 35.3143 77.1486 44.1433 76.3266 44.6363C76.1856 44.7063 73.1916 45.3643 72.9456 44.3313C71.7836 39.3883 66.8406 36.7703 62.3786 39.8313C60.2886 41.2753 62.9426 41.5573 59.0556 41.0643L36.0186 40.1763L36.7466 20.3343V20.3333Z" fill="white" stroke="black" stroke-width="3" stroke-miterlimit="22.926" stroke-linecap="round" stroke-linejoin="round"/>
<path fill-rule="evenodd" clip-rule="evenodd" d="M2.75601 40.1753L49.58 40.7033C50.273 40.7033 60.851 40.7383 60.851 41.4313V43.5093C60.8479 43.8444 60.7132 44.1649 60.476 44.4017C60.2389 44.6385 59.9182 44.7727 59.583 44.7753H2.75601C2.42215 44.7721 2.103 44.6374 1.86785 44.4004C1.6327 44.1634 1.50053 43.8432 1.50001 43.5093V41.4313C1.49922 41.2661 1.53116 41.1025 1.594 40.9497C1.65684 40.797 1.74933 40.6582 1.86612 40.5414C1.98291 40.4246 2.12168 40.3321 2.27443 40.2693C2.42717 40.2065 2.59085 40.1745 2.75601 40.1753Z" fill="white" stroke="black" stroke-width="3" stroke-miterlimit="22.926" stroke-linecap="round" stroke-linejoin="round"/>
<path d="M16.7281 50.5192C19.8016 50.5192 22.2931 48.0276 22.2931 44.9542C22.2931 41.8807 19.8016 39.3892 16.7281 39.3892C13.6546 39.3892 11.1631 41.8807 11.1631 44.9542C11.1631 48.0276 13.6546 50.5192 16.7281 50.5192Z" fill="white" stroke="black" stroke-width="3" stroke-miterlimit="22.926" stroke-linecap="round" stroke-linejoin="round"/>
<path d="M16.7281 47.1851C17.9602 47.1851 18.9591 46.1863 18.9591 44.9541C18.9591 43.722 17.9602 42.7231 16.7281 42.7231C15.4959 42.7231 14.4971 43.722 14.4971 44.9541C14.4971 46.1863 15.4959 47.1851 16.7281 47.1851Z" fill="white" stroke="black" stroke-width="3" stroke-miterlimit="22.926" stroke-linecap="round" stroke-linejoin="round"/>
<path d="M66.4048 50.5192C69.4783 50.5192 71.9698 48.0276 71.9698 44.9542C71.9698 41.8807 69.4783 39.3892 66.4048 39.3892C63.3314 39.3892 60.8398 41.8807 60.8398 44.9542C60.8398 48.0276 63.3314 50.5192 66.4048 50.5192Z" fill="white" stroke="black" stroke-width="3" stroke-miterlimit="22.926" stroke-linecap="round" stroke-linejoin="round"/>
<path d="M66.4048 47.1851C67.637 47.1851 68.6358 46.1863 68.6358 44.9541C68.6358 43.722 67.637 42.7231 66.4048 42.7231C65.1727 42.7231 64.1738 43.722 64.1738 44.9541C64.1738 46.1863 65.1727 47.1851 66.4048 47.1851Z" fill="white" stroke="black" stroke-width="3" stroke-miterlimit="22.926" stroke-linecap="round" stroke-linejoin="round"/>
<path fill-rule="evenodd" clip-rule="evenodd" d="M41.3137 29.9841C41.2437 29.1501 40.5627 23.2841 41.7837 23.3151C47.4777 23.4791 51.8107 25.2991 55.3677 29.8081L41.3137 29.9841Z" fill="white" stroke="black" stroke-width="3" stroke-miterlimit="22.926" stroke-linecap="round" stroke-linejoin="round"/>
<path d="M73.1203 30.4302L71.8643 35.3032L76.9243 35.2442" stroke="black" stroke-width="3" stroke-miterlimit="22.926" stroke-linecap="round" stroke-linejoin="round"/>
<path fill-rule="evenodd" clip-rule="evenodd" d="M9.14291 28.2223C5.52691 25.2403 9.50691 21.4593 12.2309 21.4593C10.1879 18.4773 13.8399 15.8593 16.7979 15.8233C17.5979 15.8113 19.8149 12.2773 17.5489 9.63527C16.2569 8.13527 17.7369 9.38827 18.9809 9.71727C20.1899 10.0343 23.7809 11.6543 24.2409 13.7683C24.8629 16.6803 23.0199 14.5553 26.6409 15.9753C28.3789 16.6563 28.5779 18.8523 28.5779 20.4843C30.2689 20.3433 33.2269 22.5503 33.1339 24.9223C32.8019 32.5083 12.5839 31.0753 9.14291 28.2223Z" fill="white" stroke="black" stroke-width="3" stroke-miterlimit="22.926" stroke-linecap="round" stroke-linejoin="round"/>
<path fill-rule="evenodd" clip-rule="evenodd" d="M3.61479 30.0781C4.36579 29.9141 36.0438 29.5381 36.1378 29.5611L36.0148 40.1751L21.5968 40.3861C18.6268 36.9111 13.9068 38.1861 12.0868 40.1751L2.97579 40.5271C2.05179 40.5631 3.56679 30.0901 3.61479 30.0781Z" fill="white" stroke="black" stroke-width="3" stroke-miterlimit="22.926" stroke-linecap="round" stroke-linejoin="round"/>
<path d="M23.2803 5.4331C27.4319 3.18865 32.0201 1.86946 36.7298 1.56614C41.4395 1.26282 46.1591 1.98256 50.5643 3.67592C54.9695 5.36927 58.956 7.99611 62.2499 11.376C65.5437 14.7559 68.067 18.8087 69.6463 23.2561" stroke="black" stroke-width="3" stroke-miterlimit="22.926" stroke-linecap="round" stroke-linejoin="round"/>
</g>
<defs>
<clipPath id="clip0_660_1023">
<rect width="81.955" height="68.374" fill="white"/>
</clipPath>
</defs>
</svg>
