<svg width="68" height="75" viewBox="0 0 68 75" fill="none" xmlns="http://www.w3.org/2000/svg">
<g clip-path="url(#clip0_660_1038)">
<path d="M12.3601 55.1132C12.3663 55.4404 12.2425 55.7566 12.0158 55.9926C11.7892 56.2286 11.4782 56.3651 11.1511 56.3722C10.8286 56.3784 10.5168 56.2563 10.2841 56.0329C10.0514 55.8094 9.91693 55.5027 9.91011 55.1802C9.89311 54.5422 9.8431 53.9712 9.7931 53.4682C9.73494 52.9218 9.7069 52.3727 9.70911 51.8232C9.79311 49.9772 10.4981 49.1232 13.4351 48.8522V48.7682C13.4351 48.1972 13.3511 45.9682 13.2501 43.9172C13.2001 43.2172 13.1661 42.5242 13.1331 41.9532V41.9202C13.0831 41.1812 13.0331 40.6442 12.9991 40.4932C12.965 40.3367 12.962 40.1749 12.9903 40.0173C13.0187 39.8596 13.0778 39.709 13.1644 39.5742C13.2509 39.4394 13.3632 39.3229 13.4947 39.2314C13.6263 39.14 13.7746 39.0754 13.9311 39.0412C14.0876 39.0071 14.2494 39.0041 14.4071 39.0324C14.5647 39.0608 14.7153 39.1199 14.8501 39.2065C14.985 39.293 15.1014 39.4053 15.1929 39.5368C15.2843 39.6684 15.349 39.8167 15.3831 39.9732C15.4319 40.1943 15.4653 40.4185 15.4831 40.6442C17.1831 40.6782 18.9581 40.6612 20.7701 40.6442C24.0931 40.6272 27.5341 40.6102 30.6701 40.7782C30.7364 40.5514 30.8667 40.3485 31.0452 40.1936C31.2238 40.0388 31.4432 39.9387 31.6771 39.9052C31.8363 39.8798 31.9989 39.8862 32.1555 39.9241C32.3122 39.962 32.4597 40.0306 32.5897 40.126C32.7196 40.2213 32.8293 40.3415 32.9125 40.4795C32.9957 40.6176 33.0506 40.7708 33.0741 40.9302C33.0911 41.0982 33.1081 41.4672 33.1241 41.9712V44.7712C33.0901 46.4832 33.0571 48.3292 33.0071 49.2862C33.8206 49.2924 34.6331 49.3428 35.4411 49.4372C35.6359 49.5128 35.8079 49.6375 35.9402 49.7992C36.0725 49.961 36.1607 50.1543 36.1961 50.3602C36.3141 50.9982 36.4141 51.7362 36.4961 52.4922C36.5801 53.2642 36.6471 54.0872 36.6811 54.9092C36.6966 55.232 36.5833 55.5477 36.366 55.7869C36.1488 56.0261 35.8454 56.1692 35.5226 56.1847C35.1998 56.2002 34.8841 56.0869 34.6449 55.8696C34.4057 55.6524 34.2626 55.349 34.2471 55.0262C34.2131 54.2712 34.1471 53.4992 34.0621 52.7602C34.0281 52.3742 33.9781 52.0212 33.9281 51.6862C32.8711 51.6692 30.6051 51.6522 28.1371 51.5862C24.8971 51.4862 21.5371 51.4012 20.6681 51.3512C13.4501 50.9992 12.1911 51.0992 12.1581 51.9382C12.1517 52.3699 12.1744 52.8016 12.2261 53.2302C12.2761 53.7842 12.3261 54.3882 12.3601 55.1102V55.1132ZM30.6871 43.2302C27.5151 43.0452 24.0871 43.0622 20.7671 43.0962C19.0211 43.0962 17.2921 43.1132 15.6471 43.0962L15.6811 43.7962L15.7151 44.5352C17.4611 44.5692 19.2401 44.5522 21.0361 44.5182C24.2591 44.5012 27.5151 44.4682 30.6711 44.6522C30.6711 44.1522 30.6881 43.6622 30.6881 43.2252L30.6871 43.2302ZM30.6371 47.1072C27.4651 46.9072 24.2371 46.9392 21.0531 46.9732C19.2911 46.9902 17.5451 47.0072 15.8331 46.9902C15.8671 47.7962 15.8671 48.4502 15.8671 48.7692C17.2101 48.7692 18.8211 48.8192 20.7851 48.9202C21.7081 48.9542 25.0151 49.0542 28.2041 49.1382L30.5711 49.2052C30.5881 48.7352 30.6051 47.9632 30.6381 47.1052L30.6371 47.1072Z" fill="#3E6C02"/>
<path fill-rule="evenodd" clip-rule="evenodd" d="M51.4374 43.0441C46.2174 42.4441 41.4164 42.5911 38.8984 42.3891C43.3464 37.0181 48.1804 30.7741 49.1204 28.8261L42.3724 27.5841L51.0164 14.7431L45.0244 13.5851C44.4244 13.4851 52.6784 2.92613 53.9714 0.828125C56.7714 4.84013 61.2564 11.6881 62.6994 13.9711C62.8994 14.2711 56.4384 14.5921 56.3374 14.5921C56.3374 15.2131 63.3874 27.7351 64.0754 27.9871L57.5624 28.8771C57.1264 30.5221 65.6364 41.1971 66.0724 42.9261L54.7924 42.9761C55.0104 46.8871 55.6314 53.7691 56.3704 55.4811L49.9084 55.1451C49.5084 55.1281 51.2684 46.4001 51.4354 43.0451L51.4374 43.0441Z" fill="#3E6C02"/>
<path d="M8.95246 54.9449C9.05246 49.5449 6.23346 48.5999 18.5365 49.2039C20.4165 49.2879 32.6865 49.5899 32.8045 49.6399C33.0923 51.3258 33.2594 53.0302 33.3045 54.7399" stroke="black" stroke-width="3" stroke-miterlimit="22.926" stroke-linecap="round" stroke-linejoin="round"/>
<path d="M12.4608 47.8623C12.4948 46.7543 12.1758 40.0403 12.0078 39.3013" stroke="black" stroke-width="3" stroke-miterlimit="22.926" stroke-linecap="round" stroke-linejoin="round"/>
<path d="M29.582 48.7683C29.666 47.6603 29.782 40.9293 29.666 40.1743" stroke="black" stroke-width="3" stroke-miterlimit="22.926" stroke-linecap="round" stroke-linejoin="round"/>
<path d="M12.1592 40.9121C17.6142 41.0461 24.1592 40.7271 29.7162 41.1471" stroke="black" stroke-width="3" stroke-miterlimit="22.926" stroke-linecap="round" stroke-linejoin="round"/>
<path d="M12.5283 44.8073C17.9833 44.9413 23.8583 44.5893 29.3973 45.0073" stroke="black" stroke-width="3" stroke-miterlimit="22.926" stroke-linecap="round" stroke-linejoin="round"/>
<path d="M5.46094 55.9691C19.3089 53.4181 46.7699 56.4891 61.8429 56.4891" stroke="black" stroke-width="3" stroke-miterlimit="22.926" stroke-linecap="round" stroke-linejoin="round"/>
<path fill-rule="evenodd" clip-rule="evenodd" d="M47.0048 43.715C41.7848 43.115 36.9668 43.262 34.4658 43.06C38.8968 37.689 43.7478 31.445 44.6708 29.497L37.9398 28.255L46.5678 15.414L40.5758 14.257C39.9878 14.139 48.2468 3.598 49.5218 1.5C52.3218 5.512 56.8068 12.36 58.2668 14.643C58.4518 14.943 52.0058 15.264 51.8888 15.264C51.8888 15.885 58.9558 28.407 59.6268 28.659L53.1138 29.549C52.6778 31.194 61.1878 41.869 61.6238 43.598L50.3438 43.648C50.5618 47.559 51.1828 54.441 51.9218 56.153L45.4598 55.817C45.0738 55.8 46.8198 47.072 47.0038 43.717L47.0048 43.715Z" fill="white" stroke="black" stroke-width="3" stroke-miterlimit="22.926" stroke-linecap="round" stroke-linejoin="round"/>
<path d="M32.2702 8.19824C25.9535 8.49583 19.8631 10.6411 14.7543 14.368C9.64546 18.0949 5.74302 23.2394 3.53092 29.1636C1.31882 35.0878 0.89438 41.5311 2.31024 47.6943C3.72609 53.8575 6.91996 59.4695 11.4957 63.8343C16.0715 68.1992 21.8279 71.1248 28.051 72.2485C34.2741 73.3721 40.6902 72.6443 46.5035 70.1553C52.3168 67.6663 57.2716 63.5256 60.7534 58.2467C64.2352 52.9678 66.0909 46.783 66.0902 40.4592" stroke="black" stroke-width="3" stroke-miterlimit="22.926" stroke-linecap="round" stroke-linejoin="round"/>
</g>
<defs>
<clipPath id="clip0_660_1038">
<rect width="67.59" height="74.254" fill="white"/>
</clipPath>
</defs>
</svg>
