<svg width="84" height="79" viewBox="0 0 84 79" fill="none" xmlns="http://www.w3.org/2000/svg">
<g clip-path="url(#clip0_660_1075)">
<path d="M17.1996 54.2772C17.3276 52.4542 18.8526 50.8772 21.2456 49.8042C23.9347 48.688 26.8256 48.1399 29.7366 48.1942L29.9076 48.2082C29.8226 46.7692 29.7226 45.4162 29.5946 44.1622L28.8946 44.1902C21.8996 44.3902 16.0736 44.4182 15.4746 44.2332C15.2677 44.1666 15.0815 44.0477 14.9341 43.8879C14.7867 43.7281 14.6832 43.5328 14.6336 43.3212C13.0966 36.4772 13.6096 28.2962 14.1226 20.3042C14.5123 15.5759 14.6548 10.8304 14.5496 6.08719C14.5418 5.92421 14.5662 5.76128 14.6214 5.60773C14.6766 5.45418 14.7615 5.313 14.8713 5.19228C14.981 5.07155 15.1135 4.97364 15.2611 4.90413C15.4088 4.83462 15.5686 4.79489 15.7316 4.78719H16.5726C28.1726 4.83019 38.1406 4.85819 43.6966 3.08719C43.8519 3.03685 44.0156 3.01797 44.1782 3.03168C44.3408 3.04538 44.4991 3.09139 44.6437 3.167C44.7883 3.24262 44.9164 3.34632 45.0204 3.47205C45.1245 3.59777 45.2024 3.74298 45.2496 3.89919L45.2926 4.04119C46.7746 11.7772 46.5606 18.1302 46.3606 24.0572C46.1606 30.0972 45.9756 35.6962 47.6606 41.8072C47.7449 42.1264 47.6993 42.4659 47.5338 42.7515C47.3684 43.0372 47.0964 43.2456 46.7776 43.3312C46.7003 43.3604 46.6183 43.375 46.5356 43.3742C42.3046 43.6742 37.0616 43.9012 32.1046 44.0862C32.2326 45.3972 32.3326 46.8212 32.4176 48.3312C34.4247 48.5123 36.391 49.0073 38.2446 49.7982C40.5526 50.8382 42.0446 52.3342 42.2616 54.0862C43.4289 55.6733 44.4447 57.3664 45.2956 59.1432C46.0294 60.6269 46.4972 62.2278 46.6776 63.8732C46.8585 65.1618 46.6857 66.4753 46.1776 67.6732C45.824 68.4578 45.1809 69.0755 44.3826 69.3972C43.7209 69.6549 42.9995 69.7191 42.3026 69.5822C42.2746 71.6192 42.2456 73.6712 42.2176 75.6222C34.3472 77.5291 26.05 76.4693 18.9116 72.6452C18.9396 71.1632 18.9546 69.6532 18.9546 68.1722L18.8976 68.1862C16.2476 69.3862 14.7806 68.8412 14.0826 67.2862C12.9146 64.6932 15.4216 58.6102 16.7746 55.3342C16.9453 54.9209 17.0876 54.5649 17.2016 54.2662L17.1996 54.2772ZM63.3426 74.7952C62.5958 75.8382 61.6022 76.6799 60.4506 77.2452L60.3796 77.2732C59.9128 77.4767 59.4076 77.577 58.8985 77.5674C58.3894 77.5577 57.8883 77.4383 57.4296 77.2172C56.5429 76.7623 55.817 76.0464 55.3496 75.1662C54.2245 72.9955 53.6737 70.573 53.7496 68.1292C53.7496 65.2512 56.4986 62.9012 59.5196 61.8472C60.8702 61.3458 62.3155 61.1511 63.7506 61.2772C64.4517 61.3086 65.1343 61.5122 65.738 61.8699C66.3418 62.2276 66.8482 62.7284 67.2126 63.3282C67.8826 64.5282 67.9396 66.1912 67.0416 68.4282C70.7886 68.5562 72.5836 64.7812 73.6946 60.7352C74.1506 59.0682 74.5066 57.3442 74.8056 55.7922C75.0476 54.6102 75.2616 53.5132 75.4756 52.6862C75.6176 52.1194 75.8799 51.5897 76.2446 51.1332C76.7156 50.5307 77.3338 50.0596 78.0396 49.7652C78.6181 49.4823 79.2706 49.3876 79.9056 49.4942C79.9646 49.5067 80.022 49.5258 80.0766 49.5512C80.2272 49.6011 80.3672 49.6784 80.4896 49.7792H80.5036C83.8086 52.2862 84.5496 56.5602 83.5526 60.9342C82.9971 63.26 82.0532 65.4754 80.7606 67.4872C79.4639 69.5492 77.8093 71.3631 75.8746 72.8432C72.2846 75.5352 67.8546 76.7042 63.3386 74.7952H63.3426ZM67.9016 39.8642C68.6418 38.8151 69.6371 37.9719 70.7936 37.4142C71.2655 37.1976 71.779 37.0867 72.2982 37.0891C72.8174 37.0915 73.3298 37.2072 73.7996 37.4282C74.6882 37.8925 75.4174 38.612 75.8936 39.4942C77.004 41.6652 77.554 44.0794 77.4936 46.5172C77.4936 49.4092 74.7296 51.7602 71.7236 52.8172C70.3664 53.3117 68.9182 53.5062 67.4786 53.3872C66.7773 53.3493 66.0957 53.1415 65.4926 52.7816C64.8895 52.4217 64.3829 51.9205 64.0166 51.3212C63.3616 50.1392 63.2896 48.4582 64.2016 46.2212C60.4546 46.0932 58.6456 49.8682 57.5346 53.9142C57.1076 55.5242 56.7506 57.2902 56.4236 58.8722L56.4096 58.9722C56.1816 60.1122 55.9676 61.1662 55.7546 61.9782C55.6204 62.5409 55.3625 63.0666 54.9996 63.5172C54.5219 64.1163 53.906 64.5905 53.2046 64.8992C52.6191 65.1752 51.9643 65.2696 51.3246 65.1702C51.2709 65.1553 51.2184 65.1362 51.1676 65.1132C51.0257 65.0593 50.8913 64.9873 50.7676 64.8992C47.4336 62.3922 46.6786 58.1182 47.6906 53.7162C48.2451 51.3951 49.1877 49.1843 50.4786 47.1772C51.7703 45.1156 53.4203 43.3017 55.3506 41.8212C58.9506 39.1142 63.3706 37.9602 67.9016 39.8692V39.8642Z" fill="#3E6C02"/>
<path d="M29.2085 72.1601C29.2085 66.5331 29.5085 49.1391 28.3965 39.8501" stroke="black" stroke-width="3" stroke-miterlimit="22.926" stroke-linecap="round" stroke-linejoin="round"/>
<path fill-rule="evenodd" clip-rule="evenodd" d="M41.773 1.5C44.736 17.057 40.762 27.043 44.152 39.351C32.769 40.135 14.435 40.551 13.566 40.263C11.119 29.379 14.019 14.706 13.495 3.252C25.533 3.295 35.904 3.366 41.773 1.5Z" fill="white" stroke="black" stroke-width="3" stroke-miterlimit="22.926" stroke-linecap="round" stroke-linejoin="round"/>
<path d="M27.4425 56.8178C33.6817 56.8178 38.7395 54.547 38.7395 51.7458C38.7395 48.9446 33.6817 46.6738 27.4425 46.6738C21.2033 46.6738 16.1455 48.9446 16.1455 51.7458C16.1455 54.547 21.2033 56.8178 27.4425 56.8178Z" fill="white" stroke="black" stroke-width="3" stroke-miterlimit="22.926" stroke-linecap="round" stroke-linejoin="round"/>
<path d="M34.422 27.1431H19.964C18.6495 27.1431 17.584 28.2086 17.584 29.5231V31.0311C17.584 32.3455 18.6495 33.4111 19.964 33.4111H34.422C35.7364 33.4111 36.802 32.3455 36.802 31.0311V29.5231C36.802 28.2086 35.7364 27.1431 34.422 27.1431Z" fill="white" stroke="black" stroke-width="3" stroke-miterlimit="22.926" stroke-linecap="round" stroke-linejoin="round"/>
<path fill-rule="evenodd" clip-rule="evenodd" d="M22.2707 19.6068C23.5097 14.3358 31.0887 13.6518 32.3137 18.5238C33.9377 25.0628 30.1907 20.3468 26.4137 21.7438C24.3337 22.5128 20.6137 26.5728 22.2677 19.6068H22.2707Z" fill="black"/>
<path fill-rule="evenodd" clip-rule="evenodd" d="M35.4336 15.3611C35.8026 15.1619 36.1071 14.8616 36.3115 14.4956C36.516 14.1295 36.6118 13.7127 36.5879 13.2941C36.564 12.8755 36.4212 12.4724 36.1764 12.132C35.9316 11.7916 35.5949 11.528 35.2056 11.3721C33.0696 10.5891 29.9496 17.9541 35.4336 15.3611Z" fill="black"/>
<path fill-rule="evenodd" clip-rule="evenodd" d="M30.5902 11.8428C30.8519 11.5149 31.0149 11.1194 31.0602 10.7023C31.1056 10.2853 31.0313 9.86392 30.8461 9.48749C30.661 9.11107 30.3725 8.79509 30.0145 8.57646C29.6565 8.35782 29.2436 8.24556 28.8242 8.25277C26.5442 8.36677 26.5442 16.3588 30.5902 11.8428Z" fill="black"/>
<path fill-rule="evenodd" clip-rule="evenodd" d="M25.4188 12.0989C25.4567 11.6804 25.3738 11.2597 25.1801 10.8867C24.9864 10.5137 24.6899 10.2041 24.3258 9.99429C23.9616 9.78452 23.5449 9.68347 23.1251 9.70308C22.7053 9.72269 22.2998 9.86215 21.9568 10.1049C20.1188 11.4719 24.5918 18.0969 25.4188 12.0989Z" fill="black"/>
<path fill-rule="evenodd" clip-rule="evenodd" d="M21.6628 16.6289C21.697 16.21 21.6112 15.79 21.4156 15.4181C21.2199 15.0461 20.9224 14.7375 20.5578 14.5284C20.1933 14.3193 19.7767 14.2182 19.3569 14.2371C18.937 14.2559 18.5312 14.3939 18.1868 14.6349C16.3638 16.0029 20.8218 22.6409 21.6628 16.6289Z" fill="black"/>
<path d="M45.9621 74.4818C39.248 76.9791 31.9031 77.2216 25.0388 75.1725C18.1746 73.1235 12.1645 68.8944 7.91798 63.1251C3.67148 57.3559 1.41965 50.3605 1.50322 43.1974C1.58679 36.0344 4.0012 29.0934 8.38114 23.4248" stroke="black" stroke-width="3" stroke-miterlimit="22.926" stroke-linecap="round" stroke-linejoin="round"/>
<path fill-rule="evenodd" clip-rule="evenodd" d="M66.0064 38.6392C70.5064 31.9862 73.9274 37.2002 73.9414 43.7392C73.9504 49.6942 57.9004 53.2132 63.7414 42.4692C54.6414 39.9762 53.7124 53.0822 52.2414 58.8802C51.7574 60.7892 49.6064 61.4162 49.2074 61.1022C40.2754 54.3782 53.0074 31.8692 66.0074 38.6362L66.0064 38.6392Z" fill="white" stroke="black" stroke-width="3" stroke-miterlimit="22.926" stroke-linecap="round" stroke-linejoin="round"/>
<path fill-rule="evenodd" clip-rule="evenodd" d="M60.6492 70.4358C56.1492 77.0888 52.7142 71.8888 52.7002 65.3498C52.7002 59.3948 68.7412 55.8758 62.9002 66.6038C72.0172 69.0968 72.9292 56.0038 74.4002 50.1928C74.8842 48.2978 77.0502 47.6708 77.4342 47.9708C86.3802 54.7088 73.6272 77.2028 60.6492 70.4358Z" fill="white" stroke="black" stroke-width="3" stroke-miterlimit="22.926" stroke-linecap="round" stroke-linejoin="round"/>
<path fill-rule="evenodd" clip-rule="evenodd" d="M38.6251 76.2912C38.7531 67.6912 38.9951 54.3812 38.3971 52.3442C40.1211 56.6752 24.3221 59.6662 19.5971 55.3932C18.8561 54.7232 17.6451 53.2132 16.7051 53.2562C18.0051 56.1912 17.9871 64.7952 17.8301 72.0462C22.8747 75.008 28.6193 76.5671 34.4691 76.5622C35.8587 76.5583 37.2467 76.4678 38.6251 76.2912Z" fill="white" stroke="black" stroke-width="3" stroke-miterlimit="22.926" stroke-linecap="round" stroke-linejoin="round"/>
<path fill-rule="evenodd" clip-rule="evenodd" d="M16.1612 51.7451C14.9072 54.9651 9.10924 67.4301 16.0902 64.2811C20.6632 62.2151 20.0902 60.9191 23.4122 65.9811C24.7802 68.0751 26.7462 66.1811 28.9962 64.5281C29.7082 64.0151 32.7572 67.8051 33.6262 67.5771C35.3362 67.1351 35.9772 62.1921 38.4982 64.6991C39.7662 65.9811 43.6272 66.7931 43.1422 61.1991C42.9282 58.7911 41.6032 55.6861 38.7422 51.7541C31.9322 59.0761 22.5302 58.1361 16.1622 51.7541L16.1612 51.7451Z" fill="white" stroke="black" stroke-width="3" stroke-miterlimit="22.926" stroke-linecap="round" stroke-linejoin="round"/>
<path d="M48.583 13.7939C55.9454 17.2841 61.7558 23.3752 64.895 30.8939" stroke="black" stroke-width="3" stroke-miterlimit="22.926" stroke-linecap="round" stroke-linejoin="round"/>
</g>
<defs>
<clipPath id="clip0_660_1075">
<rect width="83.968" height="78.062" fill="white"/>
</clipPath>
</defs>
</svg>
