<svg width="78" height="88" viewBox="0 0 78 88" fill="none" xmlns="http://www.w3.org/2000/svg">
<g clip-path="url(#clip0_660_1093)">
<path d="M34.8391 75.4091C34.8299 75.7336 34.6945 76.0417 34.4617 76.2679C34.229 76.4942 33.9172 76.6208 33.5926 76.6208C33.268 76.6208 32.9561 76.4942 32.7234 76.2679C32.4906 76.0417 32.3553 75.7336 32.3461 75.4091L32.3691 69.2461V67.5201C31.8971 67.4431 31.3621 67.3341 30.7281 67.2101C30.0081 67.0631 29.1411 66.8851 27.8941 66.6761C25.0681 66.1961 25.2381 60.2111 25.4091 53.9941C25.4401 52.9491 25.4711 51.9041 25.4861 50.8741C23.8211 51.4551 22.8461 50.9671 22.3351 49.8371C21.4911 47.9711 23.1871 43.8441 24.1001 41.6301L24.3631 40.9871C24.4871 39.6401 25.5791 38.5091 27.2741 37.7431C28.8634 37.0797 30.5615 36.715 32.2831 36.6671C32.2601 34.7671 32.2371 32.8581 32.2061 30.9841C29.2169 31.1438 26.2215 31.1465 23.2321 30.9921C23.0262 30.9264 22.8409 30.8083 22.6944 30.6495C22.5478 30.4907 22.445 30.2966 22.3961 30.0861C21.3661 25.5021 21.7151 20.0751 22.0481 14.7861C22.3052 11.6822 22.3987 8.56685 22.3281 5.45309C22.3192 5.2897 22.3429 5.12617 22.3978 4.97203C22.4527 4.81789 22.5377 4.67621 22.6479 4.55523C22.7581 4.43426 22.8912 4.3364 23.0396 4.26736C23.188 4.19832 23.3486 4.15948 23.5121 4.15309H24.0851C31.6961 4.17609 38.2461 4.19909 41.8461 3.05309C42.1592 2.95384 42.4988 2.98286 42.7906 3.13378C43.0823 3.2847 43.3022 3.54519 43.4021 3.85809L43.4411 4.00509C44.2038 8.39261 44.4428 12.8552 44.1531 17.2991C44.0211 21.2481 43.8971 24.9101 44.9891 28.8821C45.074 29.1992 45.0306 29.537 44.8684 29.8224C44.7061 30.1078 44.438 30.3179 44.1221 30.4071C44.0371 30.4221 43.9591 30.4381 43.8741 30.4461C41.1871 30.6321 37.8661 30.7871 34.6841 30.8951C34.7151 32.8231 34.7461 34.7741 34.7691 36.7331C36.1634 36.8528 37.53 37.1927 38.8181 37.7401C40.4441 38.4681 41.5051 39.5401 41.7061 40.8061C42.4521 41.8281 43.1054 42.9148 43.6581 44.0531L43.6891 44.1151C44.1921 45.1387 44.5142 46.2416 44.6411 47.3751C44.7623 48.303 44.6339 49.2464 44.2691 50.1081H44.2611C43.9811 50.7172 43.4809 51.1977 42.8611 51.4531C42.499 51.5942 42.1112 51.6576 41.7231 51.6391L41.6841 54.3881C41.6141 58.6541 41.5521 62.7811 41.6841 64.6001C41.7058 64.9179 41.6054 65.2319 41.4034 65.4782C41.2014 65.7245 40.913 65.8843 40.5971 65.9251L40.0401 65.9951C38.367 66.6953 36.6298 67.2312 34.8531 67.5951L34.8451 69.2441C34.8451 70.7691 34.8371 72.1441 34.8371 75.4071L34.8391 75.4091Z" fill="#3E6C02"/>
<path d="M40.9904 80.412C33.7521 81.9138 26.2188 80.9282 19.6104 77.6151C13.002 74.3019 7.70548 68.855 4.57845 62.1566C1.45142 55.4581 0.677027 47.9001 2.38067 40.7067C4.08431 33.5133 8.16623 27.1055 13.9654 22.521" stroke="black" stroke-width="3" stroke-miterlimit="22.926" stroke-linecap="round" stroke-linejoin="round"/>
<path d="M31.1939 72.6691C31.1939 61.4691 31.4879 26.8101 30.3809 8.3291" stroke="black" stroke-width="3" stroke-miterlimit="22.926" stroke-linecap="round" stroke-linejoin="round"/>
<path fill-rule="evenodd" clip-rule="evenodd" d="M39.8183 1.50007C41.7693 11.7671 39.1523 18.3481 41.3903 26.4701C33.8803 26.9891 21.7783 27.2601 21.2053 27.0701C19.5953 19.8851 21.5153 10.2071 21.1663 2.65807C29.1023 2.68107 35.9543 2.72807 39.8183 1.49707V1.50007Z" fill="white" stroke="black" stroke-width="3" stroke-miterlimit="22.926" stroke-linecap="round" stroke-linejoin="round"/>
<path fill-rule="evenodd" clip-rule="evenodd" d="M38.0444 61.9533C37.7194 57.7103 38.4934 41.0403 37.8664 38.9043C39.0044 41.7613 28.5834 42.9223 25.4664 40.1043C24.9275 39.6792 24.2517 39.4658 23.5664 39.5043C25.6804 44.2893 22.4824 62.1593 25.7034 62.7043C31.8894 63.7493 30.9034 64.4313 37.3254 62.0383L38.0444 61.9533Z" fill="white" stroke="black" stroke-width="3" stroke-miterlimit="22.926" stroke-linecap="round" stroke-linejoin="round"/>
<path d="M30.6433 41.8632C34.7567 41.8632 38.0913 40.362 38.0913 38.5102C38.0913 36.6584 34.7567 35.1572 30.6433 35.1572C26.5299 35.1572 23.1953 36.6584 23.1953 38.5102C23.1953 40.362 26.5299 41.8632 30.6433 41.8632Z" fill="white" stroke="black" stroke-width="3" stroke-miterlimit="22.926" stroke-linecap="round" stroke-linejoin="round"/>
<path fill-rule="evenodd" clip-rule="evenodd" d="M23.1955 38.5089C22.3745 40.6299 18.5495 48.8529 23.1495 46.7779C26.1765 45.4149 25.7975 44.5559 27.9805 47.8929C28.8865 49.2789 30.1805 48.0319 31.6655 46.9409C32.1375 46.5929 34.1505 49.1009 34.7235 48.9539C35.8465 48.6599 36.2725 45.3919 37.9285 47.0539C38.7725 47.8899 41.3115 48.4239 40.9945 44.7389C40.8625 43.1519 39.9805 41.0999 38.0945 38.5059C33.5945 43.3299 27.3945 42.7059 23.1945 38.5059L23.1955 38.5089Z" fill="white" stroke="black" stroke-width="3" stroke-miterlimit="22.926" stroke-linecap="round" stroke-linejoin="round"/>
<path d="M34.4634 18.417H25.9314C24.7876 18.417 23.8604 19.3442 23.8604 20.488C23.8604 21.6318 24.7876 22.559 25.9314 22.559H34.4634C35.6071 22.559 36.5344 21.6318 36.5344 20.488C36.5344 19.3442 35.6071 18.417 34.4634 18.417Z" fill="white" stroke="black" stroke-width="3" stroke-miterlimit="22.926" stroke-linecap="round" stroke-linejoin="round"/>
<path fill-rule="evenodd" clip-rule="evenodd" d="M26.9481 13.4389C27.7691 9.96994 32.7701 9.51394 33.5761 12.7269C34.6521 17.0469 32.1761 13.9269 29.6821 14.8559C28.3121 15.3559 25.8641 18.0459 26.9481 13.4389Z" fill="black"/>
<path fill-rule="evenodd" clip-rule="evenodd" d="M35.6378 10.6441C35.8812 10.5125 36.0821 10.3141 36.2168 10.0722C36.3514 9.83038 36.4143 9.55514 36.398 9.27881C36.3818 9.00248 36.287 8.73653 36.1249 8.51217C35.9628 8.28781 35.74 8.11435 35.4828 8.01215C34.0738 7.49315 32.0218 12.3551 35.6378 10.6441Z" fill="black"/>
<path fill-rule="evenodd" clip-rule="evenodd" d="M32.4392 8.32921C32.6129 8.11351 32.7215 7.85272 32.7522 7.57747C32.7829 7.30222 32.7345 7.02392 32.6126 6.77521C32.4907 6.52651 32.3005 6.31773 32.0641 6.17338C31.8277 6.02902 31.5551 5.95507 31.2782 5.96021C29.7682 6.03021 29.7762 11.3102 32.4392 8.32921Z" fill="black"/>
<path fill-rule="evenodd" clip-rule="evenodd" d="M29.0324 8.49197C29.0556 8.21642 28.9998 7.93997 28.8716 7.69497C28.7434 7.44997 28.548 7.24654 28.3084 7.10849C28.0688 6.97044 27.7949 6.90347 27.5186 6.91542C27.2424 6.92737 26.9752 7.01775 26.7484 7.17597C25.5404 8.07397 28.4824 12.448 29.0324 8.49197Z" fill="black"/>
<path fill-rule="evenodd" clip-rule="evenodd" d="M26.5471 11.4882C26.5711 11.2124 26.5158 10.9354 26.3878 10.6899C26.2598 10.4444 26.0643 10.2406 25.8244 10.1024C25.5845 9.96414 25.3102 9.89728 25.0336 9.90966C24.757 9.92203 24.4897 10.0131 24.2631 10.1722C23.0551 11.0702 25.9971 15.4442 26.5471 11.4882Z" fill="black"/>
<path d="M50.7422 19.8423C56.517 23.1781 61.1388 28.1938 63.9923 34.2216C66.8457 40.2494 67.7955 47.0033 66.7152 53.5843" stroke="black" stroke-width="3" stroke-miterlimit="22.926" stroke-linecap="round" stroke-linejoin="round"/>
<path d="M68.121 55.6282C69.5087 55.586 70.8659 56.0399 71.949 56.9082C72.1945 57.1169 72.3493 57.4127 72.381 57.7334C72.4128 58.054 72.3188 58.3744 72.119 58.6272C72.08 58.6732 72.042 58.7122 72.003 58.7512L71.988 58.7662C71.7969 58.9486 71.5508 59.0629 71.288 59.0912C71.164 59.1062 71.203 59.3472 70.754 59.7412C70.1458 60.2683 69.5741 60.8363 69.043 61.4412C68.88 61.6272 68.726 61.3332 68.743 61.5112C68.975 63.3462 69.143 63.3922 69.719 63.5322C70.3051 63.6747 70.8797 63.8609 71.438 64.0892C71.701 64.1972 71.338 63.7482 71.655 63.5012C72.5096 62.8272 73.3119 62.0894 74.055 61.2942C74.2153 61.061 74.4469 60.8862 74.7151 60.796C74.9833 60.7059 75.2735 60.7052 75.542 60.7942C75.8123 60.8914 76.056 61.0506 76.2536 61.259C76.4513 61.4674 76.5973 61.7192 76.68 61.9942V62.0022C76.8262 62.4157 76.9248 62.8444 76.974 63.2802C77.214 65.1802 76.881 68.1662 74.791 69.6802C73.3432 70.8675 71.6471 71.7143 69.828 72.1582C68.2957 72.3752 66.735 72.2731 65.244 71.8582C65.0766 72.1861 64.8597 72.4862 64.601 72.7482L63.201 74.2422L63.023 74.4362C63.766 75.0362 64.432 75.5742 64.959 76.0542C64.9755 76.0359 64.9886 76.0149 64.998 75.9922C64.9848 75.8295 65.0037 75.6658 65.0537 75.5105C65.1037 75.3552 65.1839 75.2112 65.2895 75.0868C65.3952 74.9625 65.5244 74.8602 65.6696 74.7858C65.8149 74.7114 65.9734 74.6663 66.136 74.6532C66.4298 74.6296 66.7226 74.7092 66.964 74.8782L67.158 75.0172C68.858 76.2402 73.05 79.2372 74.444 81.9622C75.412 83.8362 75.28 85.5622 73.027 86.7162C70.364 88.0792 66.593 84.6022 64.286 81.9782C63.744 81.3512 63.272 80.7782 62.939 80.3442C62.682 80.0338 62.4515 79.7023 62.25 79.3532C62.2148 79.2703 62.1863 79.1847 62.165 79.0972C62.1164 78.8533 62.142 78.6005 62.2387 78.3714C62.3353 78.1423 62.4985 77.9475 62.707 77.8122L62.839 77.7122L62.978 77.6122C62.513 77.2122 61.948 76.7532 61.306 76.2492C58.606 79.0982 55.36 82.4662 54.818 82.9492C54.338 83.3752 53.897 83.8242 53.471 84.2572C51.571 86.2002 49.84 87.9812 47.153 86.6032C44.877 85.4342 44.815 83.6922 45.753 81.8722C46.729 79.9722 48.974 78.0632 50.236 76.9942L50.736 76.5682L55.691 71.9612C53.8031 70.5983 51.9998 69.1219 50.291 67.5402C49.7457 67.4785 49.2052 67.3803 48.673 67.2462L47.473 66.9902C47.2969 66.9532 47.1305 66.8792 46.985 66.7732C46.2511 66.2839 45.5549 65.7404 44.902 65.1472C44.577 64.8612 44.585 64.7292 44.453 64.6752L44.407 64.6602C44.1019 64.5456 43.8535 64.3165 43.7148 64.0216C43.576 63.7267 43.5578 63.3893 43.664 63.0812C44.1533 62.1171 44.8055 61.2449 45.592 60.5032C45.8859 60.2211 46.2075 59.9695 46.552 59.7522C46.7855 59.5914 47.0528 59.4862 47.3332 59.4446C47.6137 59.403 47.8999 59.4261 48.17 59.5122C48.232 59.5313 48.2917 59.5571 48.348 59.5892C48.5023 59.667 48.6412 59.772 48.758 59.8992L48.766 59.9072C48.9805 60.1184 49.2054 60.3186 49.44 60.5072C50.278 61.0888 50.9183 61.9126 51.275 62.8682C51.438 63.3792 51.585 63.8052 51.701 64.1682C51.9393 64.7481 52.0981 65.3577 52.173 65.9802C52.909 66.7082 55.123 68.4032 57.539 70.2312L60.226 67.7382C59.7871 66.4878 59.5747 65.1691 59.599 63.8442C59.5768 61.9692 60.2372 60.1502 61.457 58.7262C62.2903 57.7687 63.3161 56.9978 64.4675 56.4636C65.6188 55.9295 66.8699 55.6441 68.139 55.6262L68.121 55.6282Z" fill="#3E6C02"/>
<path fill-rule="evenodd" clip-rule="evenodd" d="M68.1179 57.3622C65.1679 54.8622 57.7969 57.2923 57.7969 63.3553C57.7969 66.4063 58.7649 69.2782 61.9699 70.0372C65.8179 70.9432 67.3589 70.8372 71.0289 68.1792C73.7289 66.2202 72.6389 60.7622 71.9969 61.5792C71.6409 62.0202 68.5749 65.0092 67.9319 64.7462C65.4319 63.7092 64.9199 64.7612 64.4789 61.1692C64.3789 60.3792 68.0249 57.2903 68.1179 57.3693V57.3622Z" fill="white" stroke="black" stroke-width="3" stroke-miterlimit="22.926" stroke-linecap="round" stroke-linejoin="round"/>
<path fill-rule="evenodd" clip-rule="evenodd" d="M41.792 62.999C42.055 62.24 44.246 59.67 44.804 60.258C45.578 61.071 46.704 61.652 47.042 62.743C48.196 66.436 48.691 66.096 44.673 65.275C44.278 65.198 41.815 62.921 41.792 62.999Z" fill="white" stroke="black" stroke-width="3" stroke-miterlimit="22.926" stroke-linecap="round" stroke-linejoin="round"/>
<path d="M47.7617 65.7402C48.4617 67.2112 60.3817 75.3102 62.0467 77.4312" stroke="black" stroke-width="3" stroke-miterlimit="22.926" stroke-linecap="round" stroke-linejoin="round"/>
<path fill-rule="evenodd" clip-rule="evenodd" d="M48.5125 77.0133C46.9635 78.3683 40.8475 83.0373 44.6795 85.0033C47.0955 86.2423 48.7795 83.4393 50.9585 81.5193C51.8955 80.6983 61.2325 70.8583 61.1865 70.8273C60.5205 70.3393 58.2595 68.7833 58.3375 67.8623L48.5125 77.0133Z" fill="white" stroke="black" stroke-width="3" stroke-miterlimit="22.926" stroke-linecap="round" stroke-linejoin="round"/>
<path fill-rule="evenodd" clip-rule="evenodd" d="M69.4258 85.1189C66.4368 86.6519 60.3048 78.3909 60.3518 78.3599C61.0098 77.8719 63.2708 76.3159 63.2008 75.4019C65.4078 76.9809 73.8308 82.8579 69.4258 85.1189Z" fill="white" stroke="black" stroke-width="3" stroke-miterlimit="22.926" stroke-linecap="round" stroke-linejoin="round"/>
</g>
<defs>
<clipPath id="clip0_660_1093">
<rect width="77.041" height="87.086" fill="white"/>
</clipPath>
</defs>
</svg>
