<svg width="83" height="106" viewBox="0 0 83 106" fill="none" xmlns="http://www.w3.org/2000/svg">
<path fill-rule="evenodd" clip-rule="evenodd" d="M16.3259 47.8613C17.8513 65.4688 17.8513 83.1753 16.3259 100.783C16.3084 101.47 16.4305 102.154 16.6848 102.793C16.939 103.432 17.3201 104.013 17.8051 104.501C18.2901 104.989 18.8688 105.373 19.5065 105.631C20.1441 105.889 20.8274 106.015 21.515 106.001H60.6645C63.5442 106.001 66.168 103.634 65.8829 100.783C64.058 83.1895 64.058 65.4546 65.8829 47.8613H16.3259Z" fill="#CCCACB"/>
<path fill-rule="evenodd" clip-rule="evenodd" d="M9.73796 43.1558C11.2634 60.7633 11.2634 78.4697 9.73796 96.0772C9.72054 96.7647 9.84263 97.4487 10.0969 98.0878C10.3511 98.7269 10.7322 99.3078 11.2172 99.7955C11.7022 100.283 12.2809 100.668 12.9186 100.925C13.5562 101.183 14.2395 101.309 14.9271 101.296H54.0766C56.9564 101.296 59.5801 98.9287 59.295 96.0772C57.4701 78.4839 57.4701 60.749 59.295 43.1558H9.73796Z" fill="white" stroke="black" stroke-width="2.82328" stroke-miterlimit="22.926" stroke-linecap="round"/>
<path d="M62.6875 43.1558H6.77246" stroke="black" stroke-width="2.82328" stroke-miterlimit="22.926" stroke-linecap="round" stroke-linejoin="round"/>
<path d="M47.1764 41.8439C47.2338 40.0756 49.372 36.6255 47.8352 35.5998C44.5846 33.4898 28.0722 32.7482 21.4319 34.6304C18.9794 35.3428 22.9997 38.9933 22.7437 41.4449" stroke="black" stroke-width="2.82328" stroke-miterlimit="22.926"/>
<path d="M47.8036 56.7562C47.7695 56.3025 47.5566 55.8808 47.2116 55.584C46.8667 55.2873 46.418 55.1397 45.9642 55.1738C45.5105 55.2078 45.0888 55.4208 44.7921 55.7657C44.4953 56.1107 44.3477 56.5594 44.3818 57.0131C44.7526 62.2315 45.0095 67.3068 45.0659 72.2108C45.0942 77.144 44.9521 81.9907 44.5531 86.81C44.5282 87.2658 44.681 87.7135 44.9794 88.0591C45.2777 88.4046 45.6983 88.6211 46.1529 88.663C46.6098 88.6924 47.06 88.5413 47.4066 88.242C47.7532 87.9428 47.9684 87.5195 48.0059 87.0632C48.4049 82.2448 48.548 77.2833 48.5188 72.1788C48.4614 67.0753 48.2054 61.9426 47.8064 56.7534L47.8036 56.7562Z" fill="#D11D1D"/>
<path fill-rule="evenodd" clip-rule="evenodd" d="M49.2293 53.2489C50.1819 54.0891 50.7741 55.2641 50.8828 56.5296C51.0823 59.0385 51.2254 61.6331 51.3392 64.3708C51.4531 66.9371 51.5387 69.5317 51.567 72.1546C51.5952 74.7774 51.567 77.3155 51.4813 79.8245C51.3957 82.4473 51.2818 84.9572 51.0823 87.2949C51.0323 87.9254 50.8579 88.5398 50.5691 89.1026C50.2802 89.6654 49.8828 90.1653 49.3996 90.5736C48.9243 90.9858 48.3715 91.2989 47.7736 91.4948C47.1757 91.6907 46.5447 91.7652 45.9176 91.7142C44.6509 91.6115 43.4744 91.0182 42.6388 90.0607C42.2271 89.5796 41.9147 89.0217 41.7196 88.4192C41.5245 87.8167 41.4505 87.1816 41.502 86.5505C41.7015 84.0697 41.8445 81.7321 41.901 79.4508C41.9867 77.0275 42.0149 74.6324 41.9867 72.2364C41.9584 69.8696 41.901 67.418 41.7871 64.8517C41.6733 62.514 41.5048 59.9476 41.3025 57.2382C41.2537 56.6113 41.3293 55.9809 41.5251 55.3833C41.7208 54.7857 42.0328 54.2327 42.4431 53.7562C43.2785 52.7938 44.46 52.2001 45.7307 52.1041C47.0014 52.0081 48.2587 52.4174 49.2293 53.2433V53.2489ZM47.8035 56.7564C47.7867 56.5317 47.7257 56.3126 47.6242 56.1114C47.5226 55.9103 47.3824 55.7312 47.2116 55.5842C47.0408 55.4373 46.8427 55.3254 46.6287 55.255C46.4147 55.1846 46.1889 55.1571 45.9642 55.1739C45.7395 55.1908 45.5203 55.2518 45.3192 55.3533C45.1181 55.4549 44.939 55.5951 44.792 55.7659C44.6451 55.9367 44.5332 56.1348 44.4628 56.3488C44.3924 56.5628 44.3649 56.7886 44.3817 57.0133C44.7525 62.2317 45.0094 67.307 45.0659 72.211C45.0941 77.1442 44.952 81.9909 44.553 86.8102C44.5282 87.266 44.681 87.7137 44.9793 88.0593C45.2777 88.4048 45.6983 88.6213 46.1529 88.6632C46.6098 88.6926 47.06 88.5415 47.4066 88.2422C47.7531 87.943 47.9683 87.5197 48.0059 87.0633C48.4049 82.245 48.548 77.2835 48.5188 72.179C48.4614 67.0755 48.2054 61.9428 47.8064 56.7536L47.8035 56.7564Z" fill="black"/>
<path d="M24.1673 55.9868C24.117 55.54 23.8937 55.1307 23.5451 54.8467C23.1966 54.5627 22.7506 54.4266 22.3029 54.4676C21.8552 54.5086 21.4414 54.7235 21.1502 55.066C20.8591 55.4086 20.7138 55.8517 20.7455 56.3001C21.1728 61.0621 21.4297 66.7651 21.4579 72.2677C21.5235 77.1874 21.3426 82.1073 20.9158 87.0089C20.8933 87.2355 20.9157 87.4642 20.9816 87.6821C21.0475 87.9 21.1557 88.1028 21.3 88.2789C21.5914 88.6345 22.0121 88.8598 22.4696 88.9053C22.9271 88.9507 23.3839 88.8125 23.7395 88.5211C24.0951 88.2297 24.3205 87.809 24.3659 87.3515C24.7649 83.3886 24.9362 77.9406 24.908 72.2677C24.8797 66.6503 24.6256 60.8334 24.1664 55.9868H24.1673Z" fill="#D11D1D"/>
<path fill-rule="evenodd" clip-rule="evenodd" d="M25.5356 52.4799C26.016 52.8845 26.4119 53.3799 26.7007 53.9376C26.9894 54.4954 27.1653 55.1046 27.2183 55.7305C27.4461 58.1538 27.6173 60.834 27.7604 63.5415C27.8743 66.3356 27.9599 69.301 27.9599 72.2382C27.9881 75.2036 27.9599 78.0551 27.846 80.6779C27.7604 83.2725 27.6183 85.6393 27.4188 87.6354C27.29 88.9057 26.665 90.0739 25.6796 90.8859C25.1946 91.2855 24.635 91.5847 24.0334 91.7661C23.4317 91.9476 22.8 92.0076 22.175 91.9428C21.5508 91.8874 20.9441 91.7074 20.3906 91.4135C19.8372 91.1197 19.3482 90.7179 18.9527 90.2319C18.5487 89.7426 18.2452 89.1785 18.0593 88.5718C17.8734 87.9651 17.8089 87.3278 17.8695 86.6962C18.069 84.8714 18.2121 82.6758 18.2967 80.2808C18.3824 77.7718 18.4106 75.0342 18.3824 72.2965C18.3824 69.5881 18.2967 66.7648 18.1829 63.9989C18.069 61.3469 17.9005 58.838 17.6982 56.585C17.6283 55.9612 17.6884 55.3297 17.8748 54.7304C18.0613 54.1311 18.37 53.5769 18.7814 53.1029V53.0747C19.1818 52.5896 19.6762 52.1904 20.2348 51.9013C20.7934 51.6121 21.4047 51.4389 22.0319 51.392C22.6556 51.3242 23.2865 51.3854 23.8855 51.5718C24.4846 51.7581 25.0388 52.0656 25.514 52.4752L25.5356 52.4799ZM24.1673 55.9874C24.117 55.5406 23.8937 55.1313 23.5451 54.8473C23.1966 54.5633 22.7506 54.4272 22.3029 54.4682C21.8552 54.5092 21.4414 54.7241 21.1502 55.0667C20.859 55.4092 20.7137 55.8523 20.7455 56.3008C21.1727 61.0627 21.4296 66.7657 21.4579 72.2683C21.5237 77.1874 21.3431 82.1067 20.9168 87.0077C20.8943 87.2342 20.9166 87.463 20.9825 87.6809C21.0484 87.8988 21.1566 88.1015 21.3009 88.2776C21.5923 88.6333 22.013 88.8586 22.4705 88.904C22.928 88.9494 23.3848 88.8112 23.7404 88.5199C24.0961 88.2285 24.3214 87.8077 24.3668 87.3502C24.7658 83.3873 24.9371 77.9393 24.9089 72.2664C24.8806 66.649 24.6265 60.8321 24.1673 55.9855V55.9874Z" fill="black"/>
<path fill-rule="evenodd" clip-rule="evenodd" d="M14.6994 6.37305C14.7125 9.89301 16.1167 13.2651 18.6057 15.7541C21.0947 18.2431 24.4667 19.6472 27.9867 19.6603C24.4667 19.6735 21.0947 21.0776 18.6057 23.5666C16.1167 26.0556 14.7125 29.4277 14.6994 32.9476C14.6863 29.4277 13.2821 26.0556 10.7931 23.5666C8.30412 21.0776 4.93207 19.6735 1.41211 19.6603C4.93207 19.6472 8.30412 18.2431 10.7931 15.7541C13.2821 13.2651 14.6863 9.89301 14.6994 6.37305Z" fill="white" stroke="black" stroke-width="2.82328" stroke-miterlimit="22.926" stroke-linecap="round" stroke-linejoin="round"/>
<path fill-rule="evenodd" clip-rule="evenodd" d="M44.4412 1.41162C44.4492 3.90233 45.4442 6.28831 47.2082 8.04669C48.9723 9.80508 51.3614 10.7924 53.8521 10.7924C51.3583 10.7994 48.9687 11.7931 47.2053 13.5565C45.4419 15.3199 44.4482 17.7096 44.4412 20.2034C44.4342 17.7096 43.4405 15.3199 41.6771 13.5565C39.9137 11.7931 37.5241 10.7994 35.0303 10.7924C37.521 10.7924 39.9102 9.80508 41.6742 8.04669C43.4382 6.28831 44.4332 3.90233 44.4412 1.41162Z" fill="white" stroke="black" stroke-width="2.82328" stroke-miterlimit="22.926" stroke-linecap="round" stroke-linejoin="round"/>
<path fill-rule="evenodd" clip-rule="evenodd" d="M67.6212 16.1821C67.6237 19.708 69.0235 23.0891 71.514 25.5849C74.0045 28.0807 77.3826 29.4877 80.9085 29.4977C77.3855 29.5011 74.0079 30.9022 71.5168 33.3933C69.0257 35.8844 67.6247 39.262 67.6212 42.7849C67.6112 39.2591 66.2042 35.8809 63.7085 33.3904C61.2127 30.8999 57.8315 29.5001 54.3057 29.4977C57.8344 29.4887 61.2161 28.083 63.7113 25.5877C66.2065 23.0925 67.6122 19.7109 67.6212 16.1821Z" fill="white" stroke="black" stroke-width="2.82328" stroke-miterlimit="22.926" stroke-linecap="round" stroke-linejoin="round"/>
<path d="M35.9417 55.9863C35.8915 55.5395 35.6681 55.1302 35.3196 54.8462C34.971 54.5622 34.5251 54.4261 34.0773 54.4671C33.6296 54.5081 33.2158 54.723 32.9246 55.0656C32.6335 55.4081 32.4882 55.8512 32.5199 56.2997C32.9472 61.0616 33.2041 66.7646 33.2323 72.2672C33.2979 77.1869 33.117 82.1068 32.6903 87.0085C32.6678 87.235 32.6901 87.4637 32.756 87.6816C32.8219 87.8995 32.9301 88.1023 33.0744 88.2784C33.3658 88.634 33.7865 88.8593 34.244 88.9048C34.7015 88.9502 35.1583 88.812 35.5139 88.5206C35.8696 88.2292 36.0949 87.8085 36.1403 87.351C36.5393 83.3881 36.7106 77.9401 36.6824 72.2672C36.6541 66.6507 36.3982 60.832 35.9417 55.9863Z" fill="#D11D1D"/>
<path fill-rule="evenodd" clip-rule="evenodd" d="M37.3103 52.4799C37.7902 52.8847 38.1856 53.3802 38.4738 53.9379C38.7621 54.4957 38.9375 55.1048 38.9902 55.7304C39.2179 58.1537 39.3892 60.8339 39.5323 63.5415C39.6461 66.3356 39.7318 69.301 39.7318 72.2381C39.76 75.2035 39.7318 78.055 39.6179 80.6778C39.5323 83.2724 39.3901 85.6393 39.1906 87.6353C39.0618 88.9057 38.4368 90.0738 37.4515 90.8859C36.966 91.2855 36.4059 91.5845 35.8037 91.7656C35.2016 91.9468 34.5694 92.0063 33.944 91.9408C33.3199 91.8854 32.7131 91.7054 32.1597 91.4116C31.6062 91.1177 31.1173 90.7159 30.7217 90.2299C30.3178 89.7406 30.0142 89.1765 29.8284 88.5699C29.6425 87.9632 29.578 87.3258 29.6385 86.6942C29.8381 84.8695 29.9811 82.6739 30.0376 80.2788C30.1514 77.7699 30.1797 75.0322 30.1514 72.2946C30.1514 69.5861 30.0658 66.7628 29.9519 63.997C29.8381 61.345 29.6696 58.836 29.439 56.583C29.3809 55.9577 29.4494 55.327 29.6405 54.7287C29.8316 54.1304 30.1414 53.5768 30.5514 53.101V53.0728C30.9518 52.5876 31.4461 52.1885 32.0047 51.8993C32.5634 51.6101 33.1747 51.4369 33.8019 51.3901C34.4256 51.3223 35.0565 51.3835 35.6555 51.5698C36.2545 51.7561 36.8088 52.0637 37.284 52.4733H37.3122L37.3103 52.4799ZM35.942 55.9873C35.8917 55.5405 35.6684 55.1313 35.3198 54.8473C34.9713 54.5633 34.5253 54.4272 34.0776 54.4682C33.6299 54.5092 33.2161 54.724 32.9249 55.0666C32.6337 55.4092 32.4884 55.8522 32.5202 56.3007C32.9474 61.0626 33.2043 66.7657 33.2326 72.2682C33.2984 77.1873 33.1178 82.1066 32.6914 87.0076C32.669 87.2342 32.6913 87.4629 32.7572 87.6808C32.8231 87.8987 32.9313 88.1015 33.0756 88.2776C33.367 88.6332 33.7877 88.8585 34.2452 88.9039C34.7027 88.9493 35.1595 88.8112 35.5151 88.5198C35.8708 88.2284 36.0961 87.8077 36.1415 87.3502C36.5405 83.3872 36.7118 77.9392 36.6836 72.2663C36.6544 66.6508 36.3984 60.8349 35.942 55.9873Z" fill="black"/>
</svg>
