<svg width="17" height="16" viewBox="0 0 17 16" fill="none" xmlns="http://www.w3.org/2000/svg">
<g clip-path="url(#clip0_1_2)">
<path fill-rule="evenodd" clip-rule="evenodd" d="M4.02269 0.55835C3.51569 -0.11865 2.57169 -0.172649 2.03969 0.356351L0.469686 1.91635C0.139686 2.24435 -0.0183135 2.60635 0.00168646 2.95235C0.0816865 4.35735 0.721687 7.59435 4.59369 11.4444C8.65569 15.4824 12.4067 15.6034 13.8567 15.4674C14.1527 15.4404 14.4467 15.2864 14.7217 15.0134L16.1417 13.6004C16.7197 13.0264 16.5927 11.9804 15.7747 11.5364L13.8647 10.4974C13.3367 10.2114 12.7187 10.3054 12.3347 10.6874L11.8797 11.1404L11.3497 10.6084C11.8797 11.1404 11.8777 11.1414 11.8777 11.1414L11.8767 11.1434L11.8737 11.1464L11.8667 11.1524L11.8517 11.1664C11.8095 11.2055 11.764 11.241 11.7157 11.2724C11.6357 11.3254 11.5297 11.3844 11.3967 11.4334C11.1267 11.5344 10.7687 11.5884 10.3267 11.5204C9.45969 11.3874 8.31069 10.7964 6.78369 9.27835C5.25769 7.76035 4.66169 6.61835 4.52769 5.75235C4.45869 5.31035 4.51369 4.95235 4.61569 4.68235C4.67182 4.53042 4.7522 4.38858 4.85369 4.26235L4.88569 4.22735L4.89969 4.21235L4.90569 4.20635L4.90869 4.20335L4.91069 4.20135L5.19869 3.91535C5.62669 3.48835 5.68669 2.78135 5.28369 2.24235L4.02269 0.55835Z" fill="#CDCDCD"/>
</g>
<defs>
<clipPath id="clip0_1_2">
<rect width="16.4981" height="15.4994" fill="white"/>
</clipPath>
</defs>
</svg>
