<svg xmlns="http://www.w3.org/2000/svg" width="71.42" height="68.392" viewBox="0 0 71.42 68.392"><g id="Years_experience" data-name="Years experience" transform="translate(-1.6 -1.648)"><path id="Path_1565" data-name="Path 1565" d="M71.52,35.844c0-3.49-4.208-6.27-5.231-9.418-1.059-3.261.674-7.978-1.3-10.69-1.994-2.744-7.028-2.543-9.771-4.541C52.5,9.218,51.147,4.36,47.881,3.3,44.737,2.278,40.8,5.383,37.308,5.383S29.883,2.278,26.734,3.3C23.473,4.36,22.117,9.218,19.4,11.2c-2.74,2-7.774,1.8-9.771,4.537-1.974,2.716-.241,7.433-1.3,10.694C7.308,29.575,3.1,32.355,3.1,35.844s4.208,6.27,5.231,9.414c1.059,3.265-.674,7.978,1.3,10.694,2,2.744,7.032,2.543,9.771,4.537,2.716,1.978,4.071,6.839,7.333,7.9,3.149,1.023,7.088-2.082,10.574-2.082s7.429,3.1,10.574,2.082c3.265-1.059,4.617-5.921,7.333-7.9,2.744-1.994,7.778-1.793,9.771-4.537,1.978-2.716.245-7.429,1.3-10.694,1.023-3.145,5.231-5.929,5.231-9.414Z" transform="translate(0 0)" fill="none" stroke="#000" stroke-linecap="round" stroke-linejoin="round" stroke-miterlimit="22.926" stroke-width="3" fill-rule="evenodd"></path><path id="Path_769" data-name="Path 769" d="M56.9,84.125c-16.045,2.551-15.383-39.479.008-9.527C63.073,69.681,75.5,45.629,83.246,48.674,93.085,52.533,67.357,81.534,56.9,84.125Z" transform="translate(-25.164 -27.137)" fill="#38868b" fill-rule="evenodd"></path><path id="Path_768" data-name="Path 768" d="M49.1,74.85c-16.045,2.551-15.383-39.479.008-9.531C55.273,60.4,67.7,36.354,75.446,39.395,85.285,43.253,59.557,72.255,49.1,74.85Z" transform="translate(-20.492 -21.581)" fill="#fff" stroke="#000" stroke-linecap="round" stroke-linejoin="round" stroke-miterlimit="22.926" stroke-width="3" fill-rule="evenodd"></path></g></svg>