<svg width="71" height="71" viewBox="0 0 71 71" fill="none" xmlns="http://www.w3.org/2000/svg">
<path d="M64.0408 36.9676C63.6369 43.5888 61.1233 49.9066 56.8683 54.9956C52.6132 60.0846 46.8403 63.6772 40.3953 65.2472C33.9503 66.8172 27.1719 66.282 21.0531 63.7201C14.9343 61.1582 9.79673 56.7042 6.39296 51.0105C2.98919 45.3169 1.49815 38.6829 2.13825 32.0804C2.77836 25.4779 5.51597 19.2539 9.95005 14.3201C14.3841 9.38635 20.2816 6.00218 26.7786 4.66335C33.2756 3.32453 40.0305 4.10141 46.0539 6.8802" stroke="black" stroke-width="2.90111" stroke-miterlimit="22.926" stroke-linecap="round"/>
<path fill-rule="evenodd" clip-rule="evenodd" d="M34.7115 57.4292C14.5556 60.6359 15.3892 7.84244 34.7212 45.4631C42.4575 39.2847 58.0713 9.08025 67.7939 12.8991C80.1555 17.7459 47.8391 54.1723 34.7115 57.4292Z" fill="#CDCDCD"/>
<path fill-rule="evenodd" clip-rule="evenodd" d="M30.7825 52.7565C10.6265 55.9632 11.4601 3.16971 30.7921 40.7904C38.5284 34.612 54.1422 4.40752 63.8648 8.22635C76.2265 13.0731 43.91 49.4995 30.7825 52.7565Z" fill="white" stroke="black" stroke-width="2.90111" stroke-miterlimit="22.926" stroke-linecap="round" stroke-linejoin="round"/>
</svg>
