<svg width="355" height="170" viewBox="0 0 355 170" fill="none" xmlns="http://www.w3.org/2000/svg">
<g clip-path="url(#clip0_462_39)">
<g clip-path="url(#clip1_462_39)">
<g clip-path="url(#clip2_462_39)">
<path d="M177.5 169.331C275.531 169.331 355 155.087 355 137.515C355 119.944 275.531 105.699 177.5 105.699C79.4695 105.699 0 119.944 0 137.515C0 155.087 79.4695 169.331 177.5 169.331Z" fill="#43A4AA"/>
<path fill-rule="evenodd" clip-rule="evenodd" d="M322.842 125.625C322.918 127.597 322.54 129.56 321.736 131.363C320.767 133.522 319.333 135.44 317.537 136.981C315.341 138.892 312.74 140.277 309.929 141.031L308.954 141.286C303.206 142.912 297.361 144.177 291.455 145.071C289.512 145.359 287.34 145.786 285.152 146.215C282.227 146.79 279.277 147.368 276.348 147.733C271.945 148.281 268.533 148.893 265.088 149.51C261.976 150.068 258.836 150.626 256.943 150.919C245.685 152.641 242.897 151.642 237.1 149.565C234.223 148.502 231.278 147.63 228.287 146.956C225.238 146.186 222.232 145.258 219.28 144.176C216.446 143.114 213.543 142.248 210.591 141.586C209.616 141.404 207.996 141.077 206.327 140.739C201.34 139.734 195.869 138.618 191.526 138.71C189.399 138.793 187.292 138.28 185.442 137.228C184.229 136.532 183.169 135.598 182.325 134.483C181.481 133.368 180.872 132.095 180.531 130.739C180 128.588 180.001 126.341 180.533 124.191C181.066 122.041 182.114 120.053 183.587 118.4C184.755 117.209 186.283 116.435 187.933 116.196C192.489 114.3 197.204 112.813 202.023 111.752C210.758 109.661 221.515 107.389 229.317 105.817C229.395 104.549 229.615 103.293 229.971 102.073C231.781 95.7097 234.101 89.3823 236.418 83.0459C239.346 75.5488 241.818 67.8813 243.82 60.0857C248.745 38.7065 258.229 38.9799 269.173 39.2969C270.844 39.3801 272.518 39.3645 274.187 39.2501C274.781 39.1954 287.327 39.0447 298.762 38.9475C307.671 38.8716 315.996 38.8194 317.552 38.8562C318.892 38.8886 320.766 38.8004 322.723 38.7077C328.209 38.4498 334.233 38.1651 339.159 40.035C346.889 42.971 350.943 48.8007 346.513 60.4643C341.795 72.8848 338.379 84.8586 334.868 97.1608C332.978 103.784 331.058 110.505 328.756 117.876C327.777 121.084 325.677 123.834 322.84 125.622L322.842 125.625ZM313.72 122.511C317.731 127.088 312.854 132.369 308.01 133.633C302.21 135.291 296.312 136.581 290.349 137.494C285.522 138.207 280.33 139.513 275.42 140.125C268.46 140.992 262.581 142.305 255.807 143.341C241.709 145.498 243.83 142.671 229.995 139.499C224.287 138.187 217.749 135.145 211.969 134.069C205.624 132.886 197.915 130.943 191.377 131.074C186.476 131.174 187.514 125.312 189.041 123.76C190.128 121.365 234.65 112.42 240.437 111.46L240.757 111.44C237.976 110.371 236.137 108.394 237.34 104.168C241.342 90.1023 248.03 75.8856 251.278 61.7916C255.686 42.6651 264.897 47.796 274.877 46.856C275.658 46.7835 313.928 46.4093 317.374 46.4919C326.974 46.7219 345.081 42.6875 339.354 57.7672C331.851 77.5266 327.737 95.4676 321.448 115.594C320.418 118.889 316.595 121.198 307.997 120.362C301.488 119.73 273.301 116.171 266.98 115.411L313.72 122.511Z" fill="black"/>
<path fill-rule="evenodd" clip-rule="evenodd" d="M313.722 122.511C317.732 127.088 312.854 132.368 308.011 133.634C302.211 135.291 296.312 136.58 290.349 137.493C285.523 138.209 280.33 139.512 275.42 140.124C268.459 140.991 262.582 142.305 255.808 143.343C241.709 145.5 243.829 142.673 229.993 139.498C224.286 138.187 217.75 135.144 211.969 134.07C205.625 132.887 197.914 130.945 191.377 131.074C185.294 131.198 188.273 122.215 190.234 123.006L313.722 122.511Z" fill="#CCCACB"/>
<path fill-rule="evenodd" clip-rule="evenodd" d="M317.374 46.4948C326.974 46.7259 345.084 42.6915 339.356 57.7701C331.853 77.5295 327.737 95.4702 321.449 115.597C320.419 118.89 315.491 121.277 306.912 120.255C285.893 117.75 268.455 116.224 248.219 112.953C242.896 112.093 235.172 111.786 237.339 104.164C241.342 90.0976 248.029 75.8808 251.278 61.7869C255.686 42.6604 264.897 47.7924 274.878 46.8524C275.658 46.7832 313.929 46.4089 317.374 46.4948Z" fill="#E6E6E6"/>
<path fill-rule="evenodd" clip-rule="evenodd" d="M313.625 51.0432C322.023 51.2442 337.868 47.7169 332.858 60.9111C326.292 78.1967 324.027 92.0569 318.528 109.674C317.627 112.554 313.011 115.967 305.488 115.237C287.557 113.496 271.104 112.195 253.392 109.336C248.739 108.585 242.493 106.545 244.391 99.8793C247.891 87.5726 252.016 79.0315 255.082 66.755C259.776 47.9434 264.032 52.3964 276.441 51.3616C277.123 51.3057 310.612 50.9718 313.625 51.0432Z" fill="#57BBBD"/>
<path fill-rule="evenodd" clip-rule="evenodd" d="M313.719 122.509C308.87 127.045 276.85 132.251 268.658 134.677C265.543 135.731 262.367 136.595 259.147 137.266C252.834 138.468 248.185 139.204 242.105 137.474C238.587 136.469 235.965 136.012 232.151 134.814C227.239 133.27 222.361 132.168 217.304 130.447C209.361 128.149 201.233 126.548 193.012 125.661C191.104 125.529 186.123 125.262 190.315 122.846C192.478 121.599 233.06 112.687 240.44 111.459L240.759 111.44L313.719 122.509Z" fill="white"/>
<path fill-rule="evenodd" clip-rule="evenodd" d="M243.514 129.057C249.431 130.246 257.931 134.377 263.511 131.09C266.155 129.527 278.024 126.16 280.653 126.078C284.249 125.967 286.45 122.992 279.072 122.506C276.213 122.32 249.316 117.376 246.72 116.477C243.087 115.222 237.015 115.098 233.435 117.165C232.737 117.567 227.039 119.142 222.26 120.544C213.253 123.19 213.951 122.554 221.813 124.373C229.117 126.072 241.458 128.642 243.514 129.057Z" fill="#CCCACB"/>
<path fill-rule="evenodd" clip-rule="evenodd" d="M89.6376 110.968C80.8999 106.799 77.3807 100.251 82.3518 89.833C90.4097 72.9448 103.604 66.79 118.299 66.9139C126.717 66.9843 135.447 69.2329 143.777 72.6914C151.699 76.0573 159.238 80.2615 166.266 85.2324C174.854 91.2506 181.83 98.2165 186.074 104.335C192.376 102.902 197.593 104.069 201.353 106.506C203.195 107.677 204.764 109.23 205.956 111.059C207.147 112.889 207.932 114.953 208.259 117.111C208.578 119.284 208.414 121.501 207.777 123.603C207.141 125.705 206.047 127.64 204.575 129.27C200.65 133.706 193.634 136.601 183.523 134.728L182.631 134.599C173.975 133.361 167.958 132.498 166.023 125.524L142.968 115.935C137.536 115.476 131.265 115.377 125.008 115.265C111.335 115.044 97.7077 114.822 89.6376 110.968ZM89.8485 93.4017C81.6322 110.621 121.145 105.476 145.024 107.803L173.66 119.712C173.66 125.225 178.014 125.539 184.872 126.537C207.575 130.879 203.419 103.916 182.402 114.431C181.131 104.379 112.468 45.9969 89.8518 93.4017H89.8485Z" fill="black"/>
<path fill-rule="evenodd" clip-rule="evenodd" d="M208.132 53.5511C206.018 51.6008 201.308 50.626 198.383 49.4885C195.133 48.2694 190.826 45.5068 188.224 45.1016C188.143 51.0327 187.981 58.3447 193.749 58.9944C199.029 59.6452 205.205 55.5814 208.049 53.4693L208.132 53.5511Z" fill="black"/>
<path fill-rule="evenodd" clip-rule="evenodd" d="M130.324 89.0514C110.609 90.775 80.6899 77.2757 73.2695 97.7173C66.759 115.651 77.8357 116.37 76.6535 117.553L80.2255 130.717C80.9567 136.648 84.3693 135.915 91.438 137.543C111.421 142.092 103.615 119.097 88.3403 126.898C89.4778 122.917 85.6512 112.865 88.0056 109.94C98.8934 95.2347 107.362 102.116 125.155 102.116L130.324 89.0514Z" fill="#CCCACB"/>
<path fill-rule="evenodd" clip-rule="evenodd" d="M111.133 79.5286C117.71 80.3882 124.282 81.2457 129.61 80.7801L142.984 79.6104L138.046 92.1034L132.883 105.164L130.805 110.421H125.161C120.647 110.37 116.141 110.034 111.67 109.417C104.531 108.556 99.7593 107.981 94.6621 114.866L94.4667 115.126C93.6785 116.104 94.9959 116.024 95.707 116.979C99.1797 117.181 102.514 118.41 105.288 120.51C108.416 122.861 110.592 126.261 111.416 130.087C111.906 132.251 111.829 134.504 111.194 136.629C110.56 138.755 109.387 140.681 107.791 142.222C104.243 145.683 98.2601 147.581 89.624 145.616H89.5916C88.223 145.301 87.2117 145.113 86.3063 144.946C82.2339 144.193 79.1092 143.617 76.8062 142.07L75.1316 142.925L75.6429 141.139C73.8478 139.418 72.6877 136.763 72.0704 132.365L69.273 122.066C65.0755 118.799 59.3375 111.796 65.4775 94.891C72.8733 74.5332 92.0276 77.0347 111.133 79.5286ZM88.3436 126.899C89.4812 122.917 85.6543 112.866 88.0087 109.942C98.8964 95.2359 107.365 102.117 125.159 102.117L130.322 89.0558C110.607 90.7794 80.6878 77.2802 73.2685 97.7206C66.7579 115.655 77.8341 116.374 76.6519 117.556L80.2244 130.719C80.9557 136.65 84.3683 135.919 91.437 137.545C111.429 142.093 103.619 119.099 88.3436 126.899Z" fill="black"/>
<path fill-rule="evenodd" clip-rule="evenodd" d="M192.57 77.7644C192.666 73.3526 200.32 74.7123 204.15 75.9782C212.274 75.8152 217.719 70.5338 222.188 64.8471C224.706 61.6778 227.712 62.1678 230.638 58.6714C232.755 56.106 234.683 53.3906 236.408 50.5466C248.676 30.9647 237.708 23.7329 220.32 18.6189C214.068 16.7502 216.419 15.2062 212.357 11.8751C205.369 6.26203 192.044 0.655712 181.562 0.0863727C161.656 -0.969696 151.743 7.56593 144.187 19.176L137.6 27.3008C132.4 34.2077 130.044 37.214 126.388 45.3388C121.269 56.47 126.306 52.4891 121.676 54.2763C113.794 57.3642 79.2621 57.0382 67.8061 57.3642C51.965 57.6946 34.4964 65.5761 26.2889 72.7263C19.9514 78.2511 18.6509 96.2891 41.3206 91.7389L49.6084 89.6267C46.9292 100.567 50.6265 120.872 54.143 129.785C60.6056 146.166 64.1601 152.748 83.2084 152.643C94.8776 152.579 104.171 146.417 96.8156 134.315C95.0846 131.806 92.4754 130.038 89.5035 129.359C91.2305 125.111 98.3562 117.311 100.241 117.302C113.725 117.204 123.717 123.375 139.149 123.189L139.474 129.775C141.181 135.951 137.93 143.263 155.074 147.325C166.53 150.087 175.224 147.732 179.612 144.076C186.681 138.063 182.863 124.951 172.625 122.026C174.909 122.02 192.389 86.1292 192.57 77.7644ZM165.635 116.439C164.276 120.644 163.19 124.932 162.386 129.277H168.317C167.586 130.984 167.179 130.821 164.986 132.04C163.279 133.015 163.605 136.184 162.061 137.24C159.382 139.272 156.616 137.809 154.911 140.571C146.948 136.184 150.035 130.333 147.354 112.62C141.341 112.945 136.06 114.326 129.559 113.433C124.278 112.702 114.78 108.269 108.441 107.862C100.275 107.321 96.8145 106.867 91.2651 113.061L85.5472 119.796C83.272 122.721 81.1331 124.889 79.9955 128.788L64.7205 125.376C63.9078 122.938 63.9893 112.294 62.2835 111.482L58.7893 100.594C63.3396 80.6111 67.3205 81.3367 69.5152 75.324C51.1523 76.4616 41.9703 84.1812 31.5704 82.8806C32.871 77.1113 45.8709 72.1558 51.1523 70.2056C63.6655 65.6553 93.1596 66.9548 108.756 66.0617C119.725 65.4935 125.332 62.2426 134.188 60.7802C144.507 71.0998 152.307 85.2372 168.801 74.8373C186.758 63.5432 165.064 44.3676 168.314 34.537C173.595 18.1266 162.382 19.1805 152.144 24.6238C158.482 11.4609 174.248 5.93606 192.526 12.0302C197.158 13.6556 198.539 15.0366 202.113 17.0672C208.044 20.3984 205.932 19.3423 209.507 24.2989C211.457 26.8989 225.595 29.9053 229.825 32.7486C224.38 33.3983 214.874 34.6989 214.468 41.3613C222.919 45.0173 227.874 43.8798 231.45 35.5116C231.693 41.8491 225.519 50.0554 222.349 52.7369C219.911 54.8501 219.911 53.956 217.474 55.2554C213.98 57.1242 216.581 55.4987 214.386 58.6681C203.742 74.594 196.918 58.5866 187.573 65.0056C190.069 65.9478 171.162 115.717 165.635 116.439Z" fill="black"/>
<path fill-rule="evenodd" clip-rule="evenodd" d="M160.067 111.085L173.662 119.718C173.662 125.23 178.016 125.546 184.875 126.543C207.578 130.885 203.423 103.921 182.402 114.437C180.406 107.28 177.647 99.0636 169.899 93.5879C167.133 100.017 162.656 106.562 160.067 111.085Z" fill="#CCCACB"/>
<path fill-rule="evenodd" clip-rule="evenodd" d="M193.587 58.7491C187.818 58.0994 187.899 50.7862 188.062 44.855C190.741 45.2614 194.969 47.9428 198.221 49.2423C201.145 50.2983 205.859 51.3545 207.971 53.3047C205.045 55.418 198.952 59.4803 193.67 58.8306L193.587 58.7491ZM185.214 27.4667C188.22 27.4667 189.115 30.0667 187.652 33.3979C183.755 33.0741 182.537 29.9863 185.217 27.4678L185.214 27.4667ZM198.783 22.6731C202.602 21.6985 203.74 24.7852 201.708 28.0316C197.892 27.4678 197.649 25.8424 198.787 22.6742L198.783 22.6731ZM66.5904 138.295C67.6341 143.495 70.7343 143.495 77.803 145.12C97.7857 149.67 93.3203 126.676 78.0475 134.476C79.185 130.494 83.8157 123.263 86.1723 120.337C100.717 100.689 110.015 110.574 129.48 113.268C135.981 114.081 141.262 112.782 147.274 112.456C149.953 130.169 146.786 136.019 154.83 140.406C180.425 147.638 179.449 124.075 162.387 129.112C163.192 124.767 164.278 120.478 165.638 116.274C171.511 113.471 191.015 65.8927 187.576 65.003C196.92 58.584 203.745 74.5913 214.389 58.6654C216.582 55.4961 214.064 57.04 217.476 55.2527C219.915 54.0337 219.915 54.8463 222.352 52.7342C225.601 50.055 231.696 41.9279 231.452 35.5089C227.88 43.8815 222.921 45.0961 214.47 41.3586C214.958 34.6147 224.383 33.3957 229.827 32.746C225.521 29.9026 211.464 26.8951 209.509 24.2952C205.937 19.3386 207.965 20.4761 202.115 17.0646C198.543 15.0328 197.159 13.6519 192.528 12.0265C174.247 5.93342 158.564 11.4582 152.146 24.6211C162.465 19.1767 173.679 18.0347 168.316 34.5343C165.066 44.3661 186.679 63.4601 168.804 74.8346C152.393 85.2346 144.509 71.0971 134.191 60.7775C125.254 62.24 119.728 65.4897 108.759 66.059C93.1584 66.8717 63.6644 65.6526 51.1557 70.2029C45.9557 72.1532 32.8743 77.1098 31.5737 82.878C41.9737 84.2589 51.1557 76.5405 69.5185 75.3214C53.0401 91.7318 57.1159 107.026 62.5 124.403C63.8832 128.88 65.3534 133.491 66.5904 138.295Z" fill="white"/>
<path fill-rule="evenodd" clip-rule="evenodd" d="M185.463 27.793C182.784 30.3115 183.919 33.3993 187.901 33.7241C189.444 30.3929 188.469 27.793 185.463 27.793Z" fill="black"/>
<path fill-rule="evenodd" clip-rule="evenodd" d="M199.031 22.9992C197.893 26.1674 198.138 27.7926 201.957 28.3574C204.071 25.1122 202.851 22.0246 199.031 22.9992Z" fill="black"/>
<path fill-rule="evenodd" clip-rule="evenodd" d="M268.159 90.8471C267.354 88.7818 269.557 85.8878 271.534 85.5139C274.753 84.9077 274.483 85.2463 277.434 85.2419C277.611 85.2419 273.338 83.323 275.149 79.2137C275.694 78.3059 276.565 77.6414 277.585 77.3571L295.346 96.788C285.531 97.7537 270.089 95.8115 268.159 90.8471ZM280.93 76.7809C281.272 76.7848 281.613 76.8223 281.948 76.8927C283.901 77.3225 283.343 76.6123 283.21 74.5738C283.253 73.4028 283.724 72.288 284.534 71.4412L303.965 92.6966C303.765 93.4943 303.332 94.2142 302.72 94.7641C301.529 95.5576 300.178 96.0798 298.763 96.2936L280.93 76.7809ZM286.858 69.7367C287.193 69.6116 287.547 69.5504 287.905 69.5568C289.662 69.616 293.738 70.6019 293.807 65.873C296.127 69.2522 298.97 70.5405 297.4 75.0137C297.099 75.8655 295.614 76.8336 295.034 77.4699C298.551 77.4699 302.343 77.5343 301.868 82.1583C301.791 82.6322 301.587 83.0759 301.275 83.4403C300.962 83.8047 300.554 84.0758 300.097 84.2236L286.858 69.7367Z" fill="white"/>
<path fill-rule="evenodd" clip-rule="evenodd" d="M302.987 55.8541C315.505 62.8023 322.948 77.9581 319.7 92.1726C317.563 101.514 306.438 110.42 297.475 111.913C282.903 114.341 256.363 108.899 256.569 89.5469C256.855 62.8494 284.417 45.5435 302.987 55.8541ZM278 64.2884L308.203 97.3325C310.558 95.2597 312.287 92.569 313.193 89.5649C315.761 79.2442 309.873 68.2424 299.97 63.1987C293.221 59.7581 284.973 60.5508 278 64.2884ZM303.146 101.084L272.776 67.8582C269.856 70.2781 267.49 73.2992 265.842 76.7154C264.195 80.1316 263.305 83.8625 263.23 87.6544C263.068 101.7 284.075 105.655 295.604 103.892C298.27 103.424 300.827 102.472 303.151 101.084H303.146Z" fill="white"/>
</g>
</g>
</g>
<defs>
<clipPath id="clip0_462_39">
<rect width="355" height="169.33" fill="white"/>
</clipPath>
<clipPath id="clip1_462_39">
<rect width="355" height="169.33" fill="white"/>
</clipPath>
<clipPath id="clip2_462_39">
<rect width="355" height="169.334" fill="white" transform="translate(0 -0.00195312)"/>
</clipPath>
</defs>
</svg>
