<svg width="512.5" height="90" viewBox="0 0 512.5 90" fill="none" xmlns="http://www.w3.org/2000/svg">
<path fill-rule="evenodd" clip-rule="evenodd" d="M512.5 89.3999H0V49.4999C2.8 35.8999 7.6 22.8999 13.4 9.39993C13.6 9.29993 14.6 9.09993 14.6 9.39993C10 24.2999 12.4 39.8999 13 55.0999C13.6 53.5999 14.2 52.2999 14.8 50.7999C15.8 49.0999 17.8 40.2999 20 39.4999V39.1999H20.6C24.8 43.1999 23.3 51.2999 23 56.0999V58.1999C23.2 60.1999 23.8 62.3999 24.2 64.4999C25.7 49.8999 26.9 35.1999 24.2 20.7999C24.2 20.6999 25.1 20.2999 25.1 20.6999C29.7 30.5999 34.5 40.2999 37.2 50.1999C40.2 37.4999 45.1 25.0999 50.9 12.2999C51.2 12.2999 51.8 11.9999 51.8 12.2999C49.4 26.3999 49.4 40.2999 49.4 54.2999C49.8 52.6999 50.4 51.0999 51 49.4999C53.1 43.1999 58.8 37.4999 60.7 31.1999C60.7 31.1999 61.3 30.9999 61.3 31.1999V56.8999C65.5 46.4999 71.9 36.2999 77.6 25.6999C78 25.6999 78.6 25.3999 78.6 25.6999C77.8 28.2999 77.2 30.8999 76.8 33.4999C83.1 34.7999 90.4 40.2999 93.8 43.4999C98.8 48.2999 102.7 54.2999 105 60.8999C105.6 53.0999 105.6 45.1999 102.6 37.9999C102.3 37.5999 103.5 37.2999 103.5 37.5999C107.3 42.2999 110.5 47.4999 112.9 52.9999V52.1999C114.1 45.7999 117.2 37.9999 114.4 31.6999C114.1 31.4999 115 31.3999 115 31.4999C121 37.8999 124.7 44.2999 126.5 51.1999C128.3 51.4999 130.1 52.0999 131.7 52.7999C134.4 47.7999 137.2 42.8999 139.6 37.4999C139.6 37.4999 140.5 37.0999 140.5 37.4999C139.6 43.6999 138.7 49.8999 138.4 56.0999C140.5 57.2999 142.3 58.3999 144.1 59.4999C145.3 58.3999 146.9 57.2999 148.1 56.0999C145.3 45.0999 140.4 34.6999 133.6 25.5999C133.2 25.2999 134.2 25.0999 134.2 25.2999C142.1 33.0999 148.6 42.0999 153.6 51.8999C156.9 49.4999 160.6 47.2999 164.2 45.0999C165.1 38.1999 166.3 31.1999 164.5 24.8999C164.2 24.7999 165.1 24.5999 165.1 24.7999C171.7 32.9999 176 42.6999 177.8 53.0999C178.5 49.4999 178.9 45.6999 179 41.9999C179 41.7999 180.2 41.4999 180.2 41.7999C181.2 49.4999 183.2 57.1999 185.4 64.9999C188.2 51.3999 193 38.2999 199.6 26.0999C199.9 25.9999 200.8 25.7999 200.8 26.0999C197.7 36.2999 198.1 47.0999 198.7 57.7999C201.1 54.0999 203.8 50.6999 206.2 47.0999C206.6 46.8999 207.2 46.6999 207.2 47.0999V50.3999C207.8 57.2999 209.7 64.5999 208.7 71.7999L210.5 81.2999C212.1 66.6999 213.3 51.9999 210.5 37.5999C210.5 37.4999 211.5 37.0999 211.5 37.4999C216 47.3999 220.8 57.0999 223.6 66.9999C226.6 54.2999 231.5 41.8999 237.2 29.0999C237.5 29.0999 238.1 28.7999 238.1 29.0999C235.7 42.8999 235.7 56.7999 235.7 70.8999C236.2 69.2999 236.7 67.5999 237.3 66.0999C239.4 59.6999 245.2 53.9999 247 47.6999C247 47.6999 247.6 47.5999 247.6 47.6999V73.4999C250.9 66.2999 254.9 59.1999 258.8 51.9999V51.8999C258.8 51.6999 259.4 51.4999 259.4 51.4999C261.2 48.4999 263 45.3999 264.6 42.3999C264.9 42.3999 265.5 42.0999 265.5 42.3999C264.6 46.6999 263.7 50.6999 263.1 54.9999C265.9 57.7999 268.6 60.3999 271 63.1999C271.3 62.9999 271.6 62.7999 271.6 62.6999C271 59.3999 270.3 56.1999 269.5 53.0999C268.3 48.0999 268 37.6999 260.7 33.9999C260.4 33.8999 261 33.6999 261 33.6999C267.7 34.9999 274.9 40.4999 278.3 43.8999C282.7 48.1999 286.2 53.1999 288.6 58.8999L287.6 54.3999C286.8 49.5999 285.4 44.8999 283.7 40.3999C282.8 37.7999 281.5 35.2999 280.1 32.9999C279.1 31.6999 277.9 30.4999 276.7 29.4999H276.4C276.1 29.0999 276.7 29.0999 277 29.0999C285.4 30.2999 292.4 35.6999 296.6 40.5999C294.5 33.4999 290.6 27.0999 285.4 21.7999C285.4 21.3999 286 21.2999 286.4 21.2999C291 22.4999 295.4 24.2999 299.7 26.6999C306.5 29.0999 312.9 32.6999 318.7 36.9999C319.5 37.5999 320.2 38.1999 320.8 38.8999C318.1 25.9999 313.5 13.2999 304.2 0.699933C303.9 0.299933 304.8 0.199933 304.8 0.299933C320.6 16.0999 327.5 31.7999 332.1 49.3999C332.9 41.7999 333.5 33.9999 333.9 26.4999C334.5 18.1999 337.5 8.59993 335.1 0.299933C334.7 0.0999326 335.7 -0.100067 335.7 0.0999326C342.2 8.29993 346.6 17.9999 348.4 28.3999C349.1 24.7999 349.5 20.9999 349.6 17.2999C349.6 17.0999 350.8 16.7999 350.8 17.0999C351.7 24.7999 353.8 32.4999 355.9 40.2999C358.8 26.6999 363.6 13.5999 370.2 1.49993C370.4 1.29993 371.4 1.09993 371.4 1.49993C365.9 18.9999 370.4 37.6999 369.8 55.4999V63.8999C370.3 61.8999 370.7 59.6999 371.4 57.6999C373.3 51.3999 375.9 45.2999 376.9 38.7999C376.9 38.6999 378.4 38.0999 378.4 38.6999C379 44.7999 380.2 50.8999 381.4 56.9999C382.9 42.3999 384.1 27.7999 381.4 13.3999C381.4 13.1999 382.3 12.8999 382.3 13.1999C386.9 23.0999 391.7 32.7999 394.4 42.7999C397.4 29.9999 402.3 17.6999 408.1 4.89993C408.4 4.89993 409 4.49993 409 4.89993C406.6 18.8999 406.6 32.7999 406.6 46.8999C407.1 45.2999 407.6 43.5999 408.2 42.0999C410.3 35.6999 416.1 29.9999 417.9 23.6999C417.9 23.6999 418.5 23.5999 418.5 23.6999V49.4999C422.8 38.9999 429.1 28.7999 434.8 18.2999C435.2 18.2999 435.8 17.8999 435.8 18.2999C434.9 21.0999 434.6 23.6999 434 26.1999C440.3 27.4999 447.6 32.9999 451 36.1999C456 41.0999 459.9 46.9999 462.2 53.5999C462.8 45.8999 462.8 37.8999 459.8 30.6999C459.6 30.2999 460.8 29.9999 460.8 30.2999C464.5 34.9999 467.7 40.1999 470.1 45.6999V44.8999C471.3 38.4999 474.4 30.6999 471.7 24.3999C471.3 24.2999 472.3 24.0999 472.3 24.2999C478.3 30.5999 481.9 36.9999 483.7 43.8999C485.5 44.1999 487.3 44.7999 488.9 45.4999C491.6 40.4999 494.4 35.5999 496.8 30.1999C496.8 30.1999 497.7 29.7999 497.7 30.1999C496.8 36.4999 495.9 42.5999 495.6 48.8999C497.7 49.9999 499.5 51.0999 501.3 52.1999C502.5 51.0999 504.1 49.9999 505.3 48.8999C502.5 37.7999 497.6 27.3999 490.8 18.2999C490.4 17.9999 491.4 17.7999 491.4 17.9999C505.3 26.3999 511.1 41.9999 512.5 49.4999V89.3999ZM83.9 48.8999C83 44.2999 81.2 38.9999 77 36.4999C75.4 44.9999 74.8 53.6999 74.2 62.3999C75.1 60.8999 76.3 59.3999 77.2 57.8999L75.4 53.9999C75.1 53.6999 76 53.4999 76 53.6999C76.9 54.5999 77.5 55.2999 78.4 56.2999C80.3 53.8999 82.1 51.4999 83.9 48.8999ZM84 61.9999C85.2 63.2999 86.4 64.5999 87.6 65.9999C87 62.3999 86.1 58.6999 85.2 54.9999V53.8999C84.8 56.5999 84.2 59.2999 84.2 61.9999H84ZM164.7 53.8999C165 52.6999 165 51.3999 165 50.1999C162.4 53.3999 159.8 56.6999 157.5 60.0999C160 65.3999 161.4 70.9999 163 76.7999C163.8 69.1999 164.4 61.3999 164.8 53.8999H164.7ZM265.9 72.8999C265.3 68.9999 264.3 65.1999 263.1 61.3999C262.5 65.1999 262 68.9999 261.9 72.6999C262.8 73.3999 263.6 73.9999 264.3 74.7999V74.9999C265 74.1999 265.3 73.6999 265.9 72.8999ZM440.6 39.8999C439.8 35.2999 437.9 29.9999 433.7 27.4999C432.1 35.9999 431.5 44.6999 430.9 53.3999C431.8 51.8999 433 50.3999 433.9 48.8999L432.1 44.9999C431.8 44.6999 432.7 44.4999 432.7 44.6999C433.6 45.5999 434.2 46.2999 435.1 47.2999C437 44.8999 438.8 42.4999 440.6 39.8999ZM440.6 52.8999C441.8 54.1999 443 55.4999 444.2 56.9999C443.6 53.2999 442.8 49.5999 441.8 45.8999V44.7999C441.5 47.5999 440.9 50.1999 440.9 52.8999H440.6Z" fill="#3E6C02"/>
<path d="M183.3 55.5V55.9L183.8 56.1L183.2 55.5H183.3Z" fill="black"/>
<path fill-rule="evenodd" clip-rule="evenodd" d="M512.5 89.3999H0V61.3999C1.5 72.0999 5.2 73.5999 11.3 75.2999C11 66.7999 10 58.1999 8.4 49.7999C8.4 49.4999 9.4 49.5999 9.4 49.7999C13 56.6999 17.8 63.0999 21.8 69.5999C22.7 60.7999 26.7 52.3999 35.8 44.3999C35.8 44.1999 36.5 44.5999 36.5 44.5999C33.5 50.2999 36.8 57.1999 38.1 63.0999V63.6999C40.8 58.5999 44.2 53.8999 48.2 49.7999C48.5 49.3999 49.2 49.7999 49.2 49.9999C45.6 56.3999 45.9 63.6999 46.6 70.4999C49.2 64.4999 53.4 59.0999 58.7 54.8999C62.3 51.8999 70.4 46.8999 77.3 45.7999C77.6 45.5999 77.6 45.8999 77.6 45.8999C70.2 49.1999 69.8 58.6999 68.2 63.0999C67.3 65.8999 66.5 68.6999 65.9 71.6999C66.1 71.7999 66.4 71.9999 66.6 72.2999C69.2 69.7999 72.1 67.4999 75.1 64.9999C74.5 61.1999 73.7 57.3999 72.5 53.6999C72.5 53.3999 73.4 53.6999 73.4 53.6999C75.4 56.6999 77 59.2999 79 61.9999C79.7 61.9999 79.7 62.2999 79.7 62.2999V62.4999C84.2 68.6999 88.3 75.1999 91.8 81.8999V58.6999C91.8 58.4999 92.5 58.6999 92.5 58.6999C94.5 64.1999 100.4 69.2999 102.9 75.0999C103.6 76.5999 103.9 77.8999 104.6 79.4999C104.9 66.8999 104.9 54.2999 102 41.6999C102 41.3999 102.9 41.5999 102.9 41.6999C109.1 53.0999 114.4 64.1999 117.6 75.8999C120.9 66.8999 125.8 58.1999 130.7 49.1999C130.9 48.8999 131.6 48.9999 131.6 49.1999C128.9 60.2999 129.6 71.4999 130.9 82.4999H133.2C134.3 79.0999 134.9 75.5999 135.2 72.0999C135.2 71.4999 136.8 71.8999 136.8 72.2999C137.2 75.8999 138.8 79.3999 140.1 82.9999C141.5 83.0999 142.7 83.0999 144 83.0999C144.4 68.4999 148 53.0999 142.7 38.6999C142.7 38.3999 144 38.5999 144 38.6999C151 49.4999 156.1 61.4 159.4 73.7999C162 66.6999 164.3 59.7999 165 52.7999C165 52.3999 166.3 52.7999 166.3 52.9999C166.6 56.3999 167.2 59.6999 167.5 63.0999C169.5 53.3999 174.2 44.5999 181.3 37.4999C181.3 37.3999 182 37.6999 182 37.6999C180 43.3999 181.4 49.6999 182.3 55.7999L183.3 56.2999C183.6 57.2999 183.6 58.3999 183.6 59.3999C183.9 66.3999 184.6 73.2999 185.6 80.0999C187.2 74.9999 189.2 69.8999 191.4 65.0999C189.1 61.9999 186.6 59.0999 183.8 56.4999C187.4 58.2999 190.5 59.9999 193.6 61.7999C198.2 53.6999 205 45.5999 214.5 37.7999C214.5 37.5999 215.2 37.9999 215.2 37.9999C208 45.8999 202.7 55.2999 199.5 65.3999C200.7 66.2999 202.4 67.2999 203.7 68.1999C205.633 66.9999 207.667 65.9666 209.8 65.0999C209.3 59.4999 208.6 53.8999 207.5 48.2999C207.5 47.9999 208.5 48.1999 208.5 48.2999C210.8 53.0999 214 57.6999 217 62.1999C218.9 61.5999 220.6 60.9999 222.5 60.6999C225.1 53.7999 229.4 47.6999 235 42.8999C235 42.7999 235.7 43.0999 235.7 43.0999C232.7 48.8999 236 55.6999 237.3 61.5999V62.1999C240 57.1999 243.4 52.4999 247.4 48.2999C247.7 47.8999 248.4 48.2999 248.4 48.4999C244.8 54.8999 245.1 62.1999 245.8 69.0999C248.4 62.9999 252.6 57.5999 257.9 53.4999C261.5 50.3999 269.3 45.6999 276.1 44.2999C275.5 42.0999 274.9 39.5999 274.2 37.2999C274.2 36.8999 275.1 37.2999 275.1 37.2999C280.9 46.7999 287.8 55.9999 292.7 65.4999V42.2999C292.7 42.0999 293.4 42.2999 293.4 42.2999C295.4 47.6999 301.3 52.8999 303.9 58.5999C304.5 60.1999 304.8 61.4999 305.5 62.9999C305.8 50.3999 305.8 37.8999 302.9 25.2999C302.9 24.8999 303.9 25.0999 303.9 25.2999C310 36.6999 315.3 47.6999 318.5 59.3999C321.8 50.4999 326.7 41.6999 331.6 32.6999C331.8 32.3999 332.5 32.5999 332.5 32.6999C329.6 45.6999 330.9 58.8999 332.5 71.9999C334 66.5999 335 61.0999 335.8 55.5999C335.8 54.9999 337.4 55.4999 337.4 55.7999C338.3 61.4999 341.3 66.9999 343.2 72.7999C343.9 74.6999 344.4 76.4999 344.9 78.4999V70.8999C344.2 54.9999 349.1 37.8999 343.2 22.2999C343.2 21.8999 344.5 22.0999 344.5 22.2999C351.5 33.0999 356.6 44.8999 359.9 57.2999C362.5 50.1999 364.8 43.3999 365.4 36.2999C365.4 35.8999 366.7 36.2999 366.7 36.4999C367.1 39.8999 367.7 43.1999 368 46.5999C370 36.8999 374.7 28.0999 381.7 21.0999C381.7 20.8999 382.4 21.2999 382.4 21.2999C380.1 28.6999 383 37.4999 383.7 44.8999C384.1 51.8999 384.8 58.7999 385.7 65.6999C390.2 49.9999 398 35.6999 415 21.5999C415 21.3999 415.7 21.7999 415.7 21.7999C405.6 32.9999 400.7 44.5999 397.8 56.1999C398.6 55.6999 399.4 55.1999 400.1 54.4999C403.7 51.6999 412.5 47.4999 420.7 45.1999C425.2 42.9999 430 41.3999 435 40.1999C435.6 39.8999 436 40.3999 436 40.4999C430.5 45.0999 426.4 50.8999 423.9 57.4999C429.6 51.8999 437.1 48.2999 445.1 47.0999C445.7 47.0999 445.7 47.3999 445.7 47.3999H445.4C444 48.2999 442.8 49.4999 441.8 50.6999C440.3 52.6999 438.9 54.9999 437.9 57.2999C436.1 61.3999 434.6 65.5999 433.6 69.8999C433 71.1999 432.7 72.5999 432.7 73.9999C435.4 68.6999 439.1 64.1999 443.8 60.5999C447.4 57.4999 455.5 52.4999 462.4 51.3999C462.7 51.2999 462.7 51.5999 462.7 51.5999C455.3 54.8999 454.9 64.3999 453.3 68.6999C452.3 71.5999 451.6 74.3999 451 77.2999C451.2 77.4999 451.5 77.6999 451.7 77.8999C454.3 75.3999 457.2 73.0999 460.2 70.5999C459.6 66.8999 458.8 63.0999 457.6 59.3999C457.6 59.0999 458.5 59.3999 458.5 59.3999C460.5 62.2999 462.1 64.9999 464.1 67.5999C464.8 67.5999 464.8 67.9999 464.8 67.9999V68.0999C469.3 74.2999 473.4 80.7999 476.9 87.5999V64.3999C476.9 64.1999 477.6 64.3999 477.6 64.3999C479.5 69.8999 485.5 74.9999 488 80.6999C488.7 82.2999 489 83.5999 489.7 85.0999C490 72.4999 490 59.9999 487.1 47.3999C487.1 47.0999 488 47.1999 488 47.3999C494.2 58.7999 499.4 69.8999 502.7 81.4999C505.3 74.2999 508.6 67.5999 512.5 60.3999V89.3999ZM78.9 76.1999C78.6 72.7999 78.3 69.3999 77.6 65.8999C76.4 69.3999 75.4 72.7999 74.7 76.3999C75.4 76.9999 75.7 77.4999 76.3 78.0999C77.3 77.5999 78 76.7999 78.9 76.1999ZM265.9 70.0999C265.9 70.0333 265.9 69.9666 265.9 69.8999C265.833 69.9666 265.8 70.0333 265.8 70.0999H265.9ZM265.9 69.8999C267.1 68.6999 268.4 67.4999 269.7 66.4999C269.5 63.9999 269.1 61.6999 268.8 59.1999V60.0999H268.4C267.5 63.2999 266.6 66.6999 265.9 69.8999ZM280.9 66.8999C280.3 59.0999 279.6 51.2999 278 43.4999V43.6999C273.4 45.8999 271.4 50.6999 270.5 54.8999C272.4 57.1999 274.4 59.2999 276.3 61.5999C277.233 60.8666 278.1 60.0999 278.9 59.2999C278.9 58.7999 279.6 59.3999 279.6 59.3999L277.6 62.8999C278.6 64.1999 279.9 65.4999 280.9 66.8999ZM462.9 84.3999C462.6 80.8999 462.3 77.4999 461.6 74.0999C460.4 77.4999 459.4 80.8999 458.7 84.4999C459.4 85.0999 459.7 85.6999 460.3 86.2999C461.3 85.6999 462 84.9999 462.9 84.3999Z" fill="black"/>
</svg>
