<svg width="670.5" height="117.063" viewBox="0 0 670.5 117.063" fill="none" xmlns="http://www.w3.org/2000/svg">
<g clip-path="url(#clip0_462_4)">
<path d="M670.5 64.7606C668.704 54.9961 661.072 34.5691 642.89 23.5699C642.89 23.3454 641.655 23.5699 642.104 24.0189C651.083 35.9159 657.481 49.4965 661.072 63.975C659.501 65.4341 657.481 66.8931 655.909 68.3522C653.552 66.8931 651.195 65.4341 648.389 63.975C648.838 55.7817 649.961 47.813 651.195 39.5075C651.195 39.0585 649.961 39.5075 649.961 39.5075C646.818 46.5784 643.227 53.0881 639.635 59.5978C637.503 58.6999 635.258 57.9142 632.901 57.4653C630.544 48.4864 625.718 40.0686 617.861 31.7632C617.861 31.5387 616.627 31.7632 617.075 31.9876C620.667 40.1809 616.627 50.3944 615.055 58.8121V59.8222C611.913 52.6391 607.76 45.7927 602.821 39.7319C602.821 39.283 601.25 39.7319 601.587 40.1809C605.515 49.6087 605.515 60.0467 604.729 70.148C601.699 61.5058 596.648 53.7615 590.027 47.364C585.649 43.2113 576.109 36.0281 567.804 34.3446C568.589 30.9775 569.038 27.6104 570.161 23.9066C570.161 23.4577 569.375 23.9066 568.926 23.9066C561.406 37.7117 553.101 51.0678 547.489 64.7606V31.0897C547.489 30.8653 546.703 31.0897 546.703 31.0897C544.346 39.283 536.826 46.8028 534.021 55.1083C533.235 57.1286 532.562 59.2611 532 61.3936C532 42.9868 532 24.8045 535.143 6.39775C535.143 5.9488 534.357 6.39775 533.908 6.39775C526.389 23.121 519.991 39.283 516.063 56.0062C512.471 42.9868 506.186 30.3041 500.237 17.2847C500.237 16.8357 499.003 17.2847 499.003 17.5091C502.594 36.3648 501.023 55.5573 499.003 74.6374C497.432 66.6687 495.86 58.6999 495.075 50.6189C495.075 49.9454 493.054 50.6189 493.054 50.8433C491.82 59.2611 488.34 67.3421 485.871 75.5353C484.973 78.229 484.412 81.0349 483.851 83.7286V72.6172C484.637 49.3843 478.688 24.9167 485.871 1.90829C485.871 1.45935 484.637 1.68382 484.3 1.90829C475.658 17.8459 469.372 35.018 465.669 52.7514C462.863 42.5378 460.169 32.4366 458.934 22.4475C458.934 21.9986 457.363 22.4475 457.363 22.672C457.251 27.4982 456.69 32.4366 455.792 37.1505C453.435 23.5699 447.711 10.8872 439.181 0.112511C439.181 -0.111962 437.946 0.112511 438.395 0.336984C441.538 11.2239 437.61 23.7944 436.824 34.6813C436.375 44.5581 435.589 54.7716 434.467 64.6484C428.518 41.64 419.427 21.1007 398.776 0.44922C398.776 0.224747 397.541 0.44922 397.99 0.898165C410.224 17.3969 416.172 34.0079 419.764 50.9556C418.978 50.0577 417.968 49.272 416.958 48.4864C409.438 42.7623 401.02 38.1606 392.042 34.9058C386.542 31.8754 380.706 29.5184 374.645 27.8349C374.196 27.8349 373.41 28.0594 373.41 28.5083C380.257 35.467 385.307 43.8847 388.113 53.2003C382.614 46.6906 373.41 39.6197 362.411 38.1606C361.962 38.1606 361.177 38.1606 361.626 38.6096H362.074C363.646 39.9564 365.105 41.5277 366.452 43.2113C368.36 46.2416 370.043 49.4965 371.166 52.8636C373.41 58.8121 375.206 64.9851 376.328 71.2704L377.563 77.1066C374.42 69.699 369.819 63.0771 364.095 57.4653C359.718 53.0881 350.177 45.7927 341.535 44.1092C341.535 44.1092 340.75 44.3336 341.086 44.5581C350.626 49.3843 350.963 62.9649 352.534 69.4746C353.657 73.6273 354.555 77.7801 355.34 82.045C355.34 82.2695 354.891 82.494 354.555 82.7185C351.412 79.1269 347.82 75.6476 344.229 72.056C345.015 66.4442 346.249 61.1691 347.372 55.5573C347.372 55.1083 346.586 55.5573 346.137 55.5573C344.117 59.4855 341.76 63.526 339.403 67.4543C339.403 67.4543 338.617 67.6788 338.617 67.9033V68.1277C333.454 77.5556 328.291 86.759 323.914 96.1868V62.5159C323.914 62.2914 323.128 62.5159 323.128 62.5159C320.772 70.7092 313.252 78.229 310.446 86.5345C309.66 88.5547 308.987 90.6872 308.425 92.8197C308.425 74.413 308.426 56.2307 311.568 38.1606C311.568 37.7117 310.782 38.1606 310.334 38.1606C302.814 54.8838 296.416 71.0459 292.488 87.7691C288.896 74.7497 282.611 62.067 276.663 49.0476C276.663 48.5986 275.428 49.0476 275.428 49.272C279.02 68.1277 277.448 87.3202 275.428 106.4L273.071 94.0543C274.306 84.6265 271.836 74.9742 271.051 65.9952V61.618C271.051 61.1691 270.265 61.3936 269.816 61.618C266.674 66.4442 263.082 70.8214 259.939 75.6476C259.154 61.618 258.705 47.5885 262.745 34.2324C262.745 33.7834 261.511 34.0079 261.174 34.2324C252.532 50.1699 246.247 67.3421 242.543 85.0754C239.737 74.8619 237.043 64.7606 235.809 54.7716C235.809 54.3227 234.237 54.7716 234.237 54.9961C234.125 59.8222 233.564 64.7606 232.666 69.4746C230.309 55.894 224.585 43.2113 216.055 32.4366C216.055 32.2121 214.82 32.4366 215.269 32.6611C217.626 40.8543 216.055 50.0577 214.82 59.0366C210.106 61.9547 205.28 64.8729 200.903 68.0155C194.393 55.1083 185.863 43.3235 175.538 33.11C175.538 32.8855 174.303 33.11 174.752 33.5589C183.731 45.456 190.128 59.0366 193.72 73.5151C192.149 74.9742 190.128 76.4332 188.557 77.8923C186.2 76.4332 183.843 74.9742 181.037 73.5151C181.486 65.3218 182.609 57.2408 183.843 49.0476C183.843 48.5986 182.609 49.0476 182.609 49.0476C179.466 56.1184 175.874 62.6282 172.283 69.1379C170.15 68.24 167.906 67.4543 165.549 67.0054C163.192 58.0265 158.366 49.6087 150.509 41.3032C150.509 41.0788 149.274 41.3032 149.723 41.5277C153.315 49.721 149.274 59.9345 147.703 68.3522V69.3623C144.56 62.1792 140.408 55.3328 135.469 49.272C135.469 48.8231 133.898 49.272 134.235 49.721C138.163 59.1488 138.163 69.5868 137.377 79.6881C134.347 71.0459 129.296 63.3016 122.674 56.9041C118.297 52.7514 108.757 45.5682 100.452 43.8847C101.013 40.4054 101.798 37.0383 102.809 33.6712C102.809 33.2222 102.023 33.6712 101.574 33.6712C94.0541 47.4762 85.7486 60.8324 80.1368 74.5252V40.8543C80.1368 40.6298 79.3511 40.8543 79.3511 40.8543C76.9941 49.0476 69.4743 56.5674 66.6684 64.8729C65.8827 66.8931 65.2093 69.0256 64.6481 71.1581C64.6481 52.7514 64.6481 34.5691 67.7908 16.1623C67.7908 15.7134 67.0051 16.1623 66.5562 16.1623C59.0363 32.8855 52.6389 49.0476 48.7106 65.7708C45.119 52.7514 38.8338 40.0687 32.8853 27.0492C32.8853 26.6003 31.6507 27.0492 31.6507 27.2737C35.2422 46.1294 33.6709 65.3218 31.6507 84.402C31.2017 81.7083 30.4161 78.7902 30.0793 76.2088V73.5151C30.5283 67.2298 32.4363 56.5674 26.9367 51.2923H26.1511V51.7412C23.3452 52.7514 20.6515 64.3117 19.4169 66.5564C18.6312 68.4644 17.8456 70.148 17.0599 72.1682C16.2743 52.3024 13.1317 31.7632 19.0802 12.3463C19.0802 11.8973 17.8456 12.1218 17.5089 12.3463C9.98904 29.9674 3.7038 47.0273 0 64.7606V117.063H670.5V64.7606ZM102.584 73.7395C101.349 72.5049 100.564 71.6071 99.4414 70.3725C99.4414 70.148 98.2068 70.3725 98.6558 70.8214L101.013 75.872C99.7781 77.7801 98.2068 79.8003 97.0844 81.7083C97.8701 70.3725 98.6558 58.9244 100.676 47.813C106.176 51.18 108.645 58.0265 109.767 64.0872C107.41 67.4543 105.053 70.5969 102.584 73.7395ZM109.767 81.2594H110.216C110.216 77.6678 111.002 74.1885 111.451 70.5969V72.056C112.685 76.8822 113.808 81.7083 114.593 86.5345C113.022 84.6265 111.451 82.9429 109.879 81.2594C109.879 81.2594 109.879 81.2594 109.767 81.2594ZM215.494 70.5969C215.045 80.4737 214.259 90.6872 213.137 100.564C211.117 93.0442 209.209 85.7488 205.954 78.7902C208.984 74.3007 212.351 69.9235 215.831 65.7708C215.831 67.3421 215.831 69.0256 215.382 70.5969H215.494ZM345.8 98.2071V97.9826C344.79 96.9725 343.78 96.1868 342.658 95.2889C342.77 90.3505 343.331 85.4121 344.229 80.4737C345.8 85.4121 347.035 90.3505 347.82 95.5134C347.035 96.5235 346.586 97.1969 345.8 98.2071ZM569.263 61.9547C568.028 60.7201 567.243 59.8222 566.12 58.5876C566.12 58.3632 564.886 58.5876 565.335 59.0366L567.691 64.0872C566.457 65.9952 564.886 68.0155 563.763 69.9235C564.549 58.5876 565.335 47.1395 567.355 36.0281C572.854 39.3952 575.324 46.2416 576.446 52.3024C574.089 55.6695 571.732 58.8121 569.263 61.9547ZM576.334 69.3623H576.783C576.783 65.7708 577.568 62.4037 578.017 58.6999V60.159C579.252 64.9851 580.374 69.8113 581.16 74.6374C579.589 72.7294 578.017 71.0459 576.446 69.3623H576.334Z" fill="#CDCDCD"/>
<path d="M239.849 72.7295V73.1784L240.523 73.5151L239.737 72.7295H239.849Z" fill="black"/>
<path d="M670.5 79.1272C665.449 88.555 661.072 97.3095 657.705 106.737C653.44 91.4732 646.594 76.9947 638.513 62.0673C638.513 61.8428 637.278 61.6183 637.278 62.0673C641.094 78.566 641.094 94.9525 640.645 111.451C639.747 109.431 639.411 107.747 638.513 105.727C635.146 98.2074 627.401 91.4732 624.82 84.2901C624.82 84.2901 623.922 84.0656 623.922 84.2901V114.706C619.32 105.839 614.045 97.3095 608.097 89.2285V89.004C608.097 89.004 608.097 88.555 607.199 88.555C604.617 85.0757 602.485 81.5964 599.903 77.7804C599.903 77.7804 598.669 77.3314 598.669 77.7804C600.24 82.6065 601.362 87.5449 602.036 92.4833C598.22 95.7382 594.404 98.7685 590.924 102.023C590.7 101.687 590.363 101.462 590.027 101.238C590.812 97.4217 591.822 93.7179 593.057 90.0141C595.189 84.2901 595.638 71.8318 605.403 67.5668C605.403 67.5668 605.403 67.1179 604.954 67.3424C595.975 68.8014 585.313 75.3111 580.599 79.3517C574.538 84.0656 569.6 90.0141 566.12 96.8605C566.12 95.0648 566.569 93.269 567.355 91.5854C568.589 85.8614 570.497 80.3618 572.854 75.0867C574.201 72.0563 575.997 69.0259 578.017 66.3322C579.364 64.7609 580.935 63.3019 582.731 62.0673H583.18C583.18 62.0673 583.18 61.6183 582.282 61.6183C571.844 63.1896 562.08 68.0158 554.56 75.3112C557.815 66.669 563.202 59.0369 570.385 53.0884C570.385 52.8639 569.936 52.3027 569.151 52.6394C562.641 54.2107 556.356 56.3432 550.407 59.1491C539.745 62.1795 528.184 67.6791 523.47 71.3829C522.572 72.2808 521.562 72.9542 520.44 73.6276C524.256 58.3635 530.654 43.2116 543.897 28.5086C543.897 28.5086 542.999 28.0596 542.999 28.2841C520.777 46.6909 510.563 65.4344 504.615 85.9736C503.38 76.9947 502.482 68.0158 502.033 58.8124C501.135 49.0478 497.319 37.5997 500.35 27.8352C500.35 27.8352 499.452 27.3862 499.452 27.6107C490.248 36.8141 484.075 48.3744 481.494 61.0571C481.045 56.5677 480.259 52.3027 479.81 47.8132C479.81 47.5888 478.127 47.0276 478.127 47.5888C477.229 56.7922 474.311 65.7711 470.832 75.0867C466.567 58.8124 459.832 43.3238 450.741 29.182C450.741 28.9575 449.058 28.7331 449.058 29.182C456.69 49.609 450.292 72.0563 451.19 92.82V102.809C450.629 100.228 449.956 97.7584 449.058 95.2892C446.476 87.7694 442.66 80.5863 441.426 73.0664C441.426 72.6175 439.293 72.0563 439.293 72.842C438.283 80.0251 436.936 87.2082 435.028 94.2791C432.896 77.1069 431.212 59.8225 435.028 42.8748C435.028 42.6504 434.13 42.4259 433.794 42.8748C427.396 54.5474 420.999 66.1078 416.734 77.7804C412.469 62.5162 405.622 48.0377 397.541 33.1103C397.541 32.8858 396.307 32.6613 396.307 33.1103C400.123 49.609 400.123 65.9955 399.674 82.4943C398.776 80.474 398.439 78.7905 397.541 76.7702C394.174 69.2504 386.43 62.5162 383.848 55.3331C383.848 55.3331 382.95 55.1086 382.95 55.3331V85.7491C376.553 73.2909 367.574 61.2816 359.942 48.8234C359.942 48.8234 358.707 48.3744 358.707 48.8234C359.605 51.8538 360.391 55.1086 361.289 58.0268C352.31 59.8225 342.096 65.9955 337.382 70.036C330.424 75.4234 325.036 82.4943 321.557 90.4631C320.659 81.4841 320.323 71.9441 324.924 63.5263C324.924 63.3019 324.026 62.7407 323.69 63.3019C318.415 68.6892 314.037 74.8622 310.446 81.4841V80.6985C308.762 72.9542 304.497 63.9753 308.313 56.4554C308.313 56.4554 307.415 56.0065 307.415 56.231C300.12 62.5162 294.508 70.485 291.141 79.4639C288.56 79.9128 286.427 80.6985 283.846 81.4841C280.03 75.5356 275.765 69.4749 272.734 63.3019C272.734 63.0774 271.5 62.8529 271.5 63.3019C272.959 70.5972 273.857 77.8926 274.53 85.3002C271.724 86.4226 269.031 87.7694 266.449 89.3407C264.766 88.1061 262.633 86.8715 260.95 85.6369C265.215 72.393 272.173 60.1592 281.489 49.7213C281.489 49.7213 280.591 49.2723 280.591 49.4968C268.245 59.7103 259.266 70.2605 253.317 80.923C249.277 78.566 245.124 76.3213 240.523 73.9643C244.114 77.4436 247.369 81.1474 250.399 85.188C247.481 91.5854 244.9 98.2074 242.767 104.942C241.533 95.9626 240.635 86.9837 240.186 77.7804C240.186 76.4335 240.186 75.0867 239.849 73.7398L238.502 73.0664C237.268 65.0976 235.472 56.7922 238.053 49.3846C238.053 49.3846 237.155 48.9356 237.155 49.1601C227.952 58.3635 221.779 69.9238 219.198 82.6065C218.749 78.1171 217.963 73.8521 217.514 69.3626C217.514 69.1382 215.831 68.577 215.831 69.1382C214.933 78.3415 212.014 87.3204 208.535 96.6361C204.27 80.3618 197.536 64.8732 188.445 50.7314C188.445 50.5069 186.761 50.2824 186.761 50.7314C193.608 69.4749 188.894 89.6774 188.445 108.87C186.761 108.87 185.078 108.87 183.282 108.645C181.598 103.931 179.466 99.442 179.017 94.6158C179.017 94.1669 176.885 93.6057 176.885 94.3913C176.436 98.993 175.65 103.595 174.303 108.084H171.273C169.589 93.6057 168.691 78.9027 172.171 64.4242C172.171 64.1998 171.273 63.9753 170.936 64.4242C164.539 76.209 158.141 87.6572 153.876 99.3297C149.611 84.0656 142.765 69.5871 134.684 54.6597C134.684 54.4352 133.449 54.2107 133.449 54.6597C137.265 71.1584 137.265 87.5449 136.816 104.044C135.918 102.023 135.582 100.34 134.684 98.3196C131.317 90.7998 123.572 84.0656 120.991 76.8825C120.991 76.8825 120.093 76.658 120.093 76.8825V107.299C115.491 98.4318 110.216 89.9019 104.268 81.8209V81.5964C104.268 81.5964 104.268 81.1474 103.37 81.1474C100.788 77.6681 98.6558 74.1888 96.0743 70.3728C96.0743 70.3728 94.8397 69.9238 94.8397 70.3728C96.411 75.1989 97.5334 80.1373 98.2068 85.0757C94.3908 88.3306 90.5747 91.361 87.0954 94.6158C86.8709 94.2791 86.5342 94.0546 86.1975 93.8301C86.9832 90.0141 87.9933 86.3103 89.2279 82.6065C91.3604 76.8825 91.8093 64.4242 101.574 60.1592C101.574 60.1592 101.574 59.7103 101.125 59.9348C92.146 61.3938 81.4836 67.9036 76.7697 71.9441C69.811 77.3314 64.4237 84.4023 60.9443 92.3711C60.0464 83.3922 59.7097 73.8521 64.3114 65.4344C64.3114 65.2099 63.4135 64.6487 63.0768 65.2099C57.8017 70.5972 53.4245 76.7702 49.8329 83.3922V82.6065C48.1494 74.8622 43.8844 65.8833 47.7005 58.3635C47.7005 58.3635 46.8026 57.9145 46.8026 58.139C34.9055 68.577 29.7426 79.5761 28.508 91.1365C23.3452 82.6065 16.9477 74.1888 12.2338 65.2099C12.2338 64.9854 10.9992 64.7609 10.9992 65.2099C13.1317 76.209 14.3663 87.4327 14.8152 98.6563C6.84642 96.4116 2.02025 94.3913 0 80.3618V117.063H670.5V79.1272ZM99.8904 102.248C98.9925 101.462 98.6558 100.789 97.7579 100.003C98.6558 95.2892 100.003 90.7998 101.574 86.3103C102.472 90.7998 102.809 95.2892 103.257 99.7787C102.023 100.564 101.125 101.574 99.8904 102.248ZM347.82 91.6977C348.718 87.4327 349.953 82.9432 351.188 78.6782H351.636V77.4436C352.085 80.6985 352.534 83.7289 352.871 86.9837C351.075 88.4428 349.392 90.0141 347.708 91.6977H347.82ZM363.197 82.2698L365.778 77.7804C365.778 77.7804 364.88 76.9947 364.88 77.5559C363.87 78.6782 362.748 79.6884 361.513 80.5863C358.932 77.5559 356.35 74.8622 353.881 71.8318C355.116 66.3322 357.697 60.047 363.646 57.1289V56.9044C365.778 67.1179 366.676 77.3314 367.462 87.5449C366.227 85.7491 364.431 84.0656 363.197 82.2698ZM602.26 112.91C601.362 112.125 601.026 111.451 600.128 110.666C601.026 105.952 602.372 101.462 603.944 96.9728C604.842 101.462 605.178 105.952 605.627 110.441C604.393 111.227 603.495 112.237 602.26 112.91Z" fill="black"/>
</g>
<defs>
<clipPath id="clip0_462_4">
<rect width="670.5" height="117.063" fill="white"/>
</clipPath>
</defs>
</svg>
