<svg width="542" height="490" viewBox="0 0 542 490" fill="none" xmlns="http://www.w3.org/2000/svg">
<mask id="path-1-inside-1_872_1752" fill="white">
<path d="M110.236 442.506L112.943 448.684L116.424 453.704L113.717 454.09L111.783 451.387L110.236 442.506ZM117.198 423.585L122.613 428.219L123.774 432.08L117.972 430.922L117.198 423.585V423.585ZM68.849 385.359L69.2358 389.606L64.5943 390.378L62.6603 388.834L62.2735 384.2L68.849 385.359ZM76.5849 385.745L83.5471 389.992L79.6792 391.537L75.0377 389.992L76.5849 385.745ZM274.623 389.22L273.849 395.012L275.783 400.418L277.33 401.576L280.038 412.388L279.264 415.091L287 422.813L286.226 425.13L281.198 427.833L275.783 430.15L273.849 433.239L268.821 437.1L267.66 445.595L264.953 453.704L260.311 458.337L256.83 458.724L255.67 463.743L256.443 468.377L254.509 473.396L256.83 476.099L259.925 476.871L261.858 479.574L261.472 484.594L258.377 487.297L257.217 490L251.802 488.455L250.255 489.614L209.641 484.594L158.972 478.03V471.466L155.877 469.149L156.264 462.971L157.811 461.04V450.615L153.17 439.031L145.434 428.219L139.245 421.655L136.151 416.635L130.736 413.546L128.415 415.863L124.547 413.16L126.481 409.299L125.708 403.893L123 399.259L114.104 397.715L109.075 395.398L99.7924 388.061L99.4056 383.042L93.9905 376.091L88.5755 372.23H84.3207L79.2925 370.299L75.0377 366.824L70.783 365.28L58.4056 362.577L58.0189 359.488L53.7641 355.24L56.8584 350.607L56.0849 347.904L58.0189 343.656L56.8584 340.954L60.3395 334.003V331.3L55.6981 327.825L52.9905 323.964L55.6981 317.4L51.4434 313.538L47.9623 304.271L44.8678 302.341L44.0943 296.162L40.6132 290.757L40.9999 286.123L38.6793 283.806L37.9056 279.173L35.198 274.539L32.4905 271.064L30.9434 267.975L31.3301 259.48L33.6509 253.302L35.5848 255.233L38.6793 252.53L40.9999 247.51L39.8396 241.718L37.9056 238.629H33.2641L30.5566 236.698L24.7547 224.728L27.0755 217.392L26.6887 211.214L25.1415 208.897L27.849 203.491L28.6226 198.085H32.1037L31.3301 208.125L38.2924 210.828L39.066 206.966L37.132 202.333L34.8113 191.521L41.7735 189.204L44.0943 191.521L50.6697 191.135L48.7358 187.66L45.6415 190.363L40.6132 188.046L37.132 183.412L33.6509 184.571L30.5566 192.293L32.4905 194.61L28.6226 196.541L24.7547 191.135L22.8207 190.749L20.8868 185.729L18.1792 183.026L19.3396 172.6L16.632 163.333L13.1509 159.472L9.283 149.819L4.25462 140.552L3.09429 135.146L5.41507 132.443L5.02826 117.384L6.96222 113.523L9.66981 109.661L10.8301 103.097V96.5327L5.80189 81.8598L0 72.5928L1.16033 70.2758V64.4839L8.89618 54.8306L10.8301 55.6029L18.566 43.2467V37.4547L20.5 35.9103L25.915 25.4848L26.6887 18.1482L27.0755 11.5839L23.9811 8.8812L26.6887 6.17823L28.6226 0L54.5377 8.10889L79.6792 15.8315L121.84 28.1877L164 39.7717L128.802 169.898L146.981 197.699L159.358 215.847L177.925 243.262L197.651 273.767L217.377 303.885L230.915 324.35L258.377 366.052L274.623 389.22V389.22Z"/>
</mask>
<path d="M110.236 442.506L112.943 448.684L116.424 453.704L113.717 454.09L111.783 451.387L110.236 442.506ZM117.198 423.585L122.613 428.219L123.774 432.08L117.972 430.922L117.198 423.585V423.585ZM68.849 385.359L69.2358 389.606L64.5943 390.378L62.6603 388.834L62.2735 384.2L68.849 385.359ZM76.5849 385.745L83.5471 389.992L79.6792 391.537L75.0377 389.992L76.5849 385.745ZM274.623 389.22L273.849 395.012L275.783 400.418L277.33 401.576L280.038 412.388L279.264 415.091L287 422.813L286.226 425.13L281.198 427.833L275.783 430.15L273.849 433.239L268.821 437.1L267.66 445.595L264.953 453.704L260.311 458.337L256.83 458.724L255.67 463.743L256.443 468.377L254.509 473.396L256.83 476.099L259.925 476.871L261.858 479.574L261.472 484.594L258.377 487.297L257.217 490L251.802 488.455L250.255 489.614L209.641 484.594L158.972 478.03V471.466L155.877 469.149L156.264 462.971L157.811 461.04V450.615L153.17 439.031L145.434 428.219L139.245 421.655L136.151 416.635L130.736 413.546L128.415 415.863L124.547 413.16L126.481 409.299L125.708 403.893L123 399.259L114.104 397.715L109.075 395.398L99.7924 388.061L99.4056 383.042L93.9905 376.091L88.5755 372.23H84.3207L79.2925 370.299L75.0377 366.824L70.783 365.28L58.4056 362.577L58.0189 359.488L53.7641 355.24L56.8584 350.607L56.0849 347.904L58.0189 343.656L56.8584 340.954L60.3395 334.003V331.3L55.6981 327.825L52.9905 323.964L55.6981 317.4L51.4434 313.538L47.9623 304.271L44.8678 302.341L44.0943 296.162L40.6132 290.757L40.9999 286.123L38.6793 283.806L37.9056 279.173L35.198 274.539L32.4905 271.064L30.9434 267.975L31.3301 259.48L33.6509 253.302L35.5848 255.233L38.6793 252.53L40.9999 247.51L39.8396 241.718L37.9056 238.629H33.2641L30.5566 236.698L24.7547 224.728L27.0755 217.392L26.6887 211.214L25.1415 208.897L27.849 203.491L28.6226 198.085H32.1037L31.3301 208.125L38.2924 210.828L39.066 206.966L37.132 202.333L34.8113 191.521L41.7735 189.204L44.0943 191.521L50.6697 191.135L48.7358 187.66L45.6415 190.363L40.6132 188.046L37.132 183.412L33.6509 184.571L30.5566 192.293L32.4905 194.61L28.6226 196.541L24.7547 191.135L22.8207 190.749L20.8868 185.729L18.1792 183.026L19.3396 172.6L16.632 163.333L13.1509 159.472L9.283 149.819L4.25462 140.552L3.09429 135.146L5.41507 132.443L5.02826 117.384L6.96222 113.523L9.66981 109.661L10.8301 103.097V96.5327L5.80189 81.8598L0 72.5928L1.16033 70.2758V64.4839L8.89618 54.8306L10.8301 55.6029L18.566 43.2467V37.4547L20.5 35.9103L25.915 25.4848L26.6887 18.1482L27.0755 11.5839L23.9811 8.8812L26.6887 6.17823L28.6226 0L54.5377 8.10889L79.6792 15.8315L121.84 28.1877L164 39.7717L128.802 169.898L146.981 197.699L159.358 215.847L177.925 243.262L197.651 273.767L217.377 303.885L230.915 324.35L258.377 366.052L274.623 389.22V389.22Z" fill="white"/>
<path d="M110.236 442.506L112.943 448.684L116.424 453.704L113.717 454.09L111.783 451.387L110.236 442.506ZM117.198 423.585L122.613 428.219L123.774 432.08L117.972 430.922L117.198 423.585V423.585ZM68.849 385.359L69.2358 389.606L64.5943 390.378L62.6603 388.834L62.2735 384.2L68.849 385.359ZM76.5849 385.745L83.5471 389.992L79.6792 391.537L75.0377 389.992L76.5849 385.745ZM274.623 389.22L273.849 395.012L275.783 400.418L277.33 401.576L280.038 412.388L279.264 415.091L287 422.813L286.226 425.13L281.198 427.833L275.783 430.15L273.849 433.239L268.821 437.1L267.66 445.595L264.953 453.704L260.311 458.337L256.83 458.724L255.67 463.743L256.443 468.377L254.509 473.396L256.83 476.099L259.925 476.871L261.858 479.574L261.472 484.594L258.377 487.297L257.217 490L251.802 488.455L250.255 489.614L209.641 484.594L158.972 478.03V471.466L155.877 469.149L156.264 462.971L157.811 461.04V450.615L153.17 439.031L145.434 428.219L139.245 421.655L136.151 416.635L130.736 413.546L128.415 415.863L124.547 413.16L126.481 409.299L125.708 403.893L123 399.259L114.104 397.715L109.075 395.398L99.7924 388.061L99.4056 383.042L93.9905 376.091L88.5755 372.23H84.3207L79.2925 370.299L75.0377 366.824L70.783 365.28L58.4056 362.577L58.0189 359.488L53.7641 355.24L56.8584 350.607L56.0849 347.904L58.0189 343.656L56.8584 340.954L60.3395 334.003V331.3L55.6981 327.825L52.9905 323.964L55.6981 317.4L51.4434 313.538L47.9623 304.271L44.8678 302.341L44.0943 296.162L40.6132 290.757L40.9999 286.123L38.6793 283.806L37.9056 279.173L35.198 274.539L32.4905 271.064L30.9434 267.975L31.3301 259.48L33.6509 253.302L35.5848 255.233L38.6793 252.53L40.9999 247.51L39.8396 241.718L37.9056 238.629H33.2641L30.5566 236.698L24.7547 224.728L27.0755 217.392L26.6887 211.214L25.1415 208.897L27.849 203.491L28.6226 198.085H32.1037L31.3301 208.125L38.2924 210.828L39.066 206.966L37.132 202.333L34.8113 191.521L41.7735 189.204L44.0943 191.521L50.6697 191.135L48.7358 187.66L45.6415 190.363L40.6132 188.046L37.132 183.412L33.6509 184.571L30.5566 192.293L32.4905 194.61L28.6226 196.541L24.7547 191.135L22.8207 190.749L20.8868 185.729L18.1792 183.026L19.3396 172.6L16.632 163.333L13.1509 159.472L9.283 149.819L4.25462 140.552L3.09429 135.146L5.41507 132.443L5.02826 117.384L6.96222 113.523L9.66981 109.661L10.8301 103.097V96.5327L5.80189 81.8598L0 72.5928L1.16033 70.2758V64.4839L8.89618 54.8306L10.8301 55.6029L18.566 43.2467V37.4547L20.5 35.9103L25.915 25.4848L26.6887 18.1482L27.0755 11.5839L23.9811 8.8812L26.6887 6.17823L28.6226 0L54.5377 8.10889L79.6792 15.8315L121.84 28.1877L164 39.7717L128.802 169.898L146.981 197.699L159.358 215.847L177.925 243.262L197.651 273.767L217.377 303.885L230.915 324.35L258.377 366.052L274.623 389.22V389.22Z" fill="url(#paint0_linear_872_1752)"/>
<path d="M110.236 442.506L112.943 448.684L116.424 453.704L113.717 454.09L111.783 451.387L110.236 442.506ZM117.198 423.585L122.613 428.219L123.774 432.08L117.972 430.922L117.198 423.585V423.585ZM68.849 385.359L69.2358 389.606L64.5943 390.378L62.6603 388.834L62.2735 384.2L68.849 385.359ZM76.5849 385.745L83.5471 389.992L79.6792 391.537L75.0377 389.992L76.5849 385.745ZM274.623 389.22L273.849 395.012L275.783 400.418L277.33 401.576L280.038 412.388L279.264 415.091L287 422.813L286.226 425.13L281.198 427.833L275.783 430.15L273.849 433.239L268.821 437.1L267.66 445.595L264.953 453.704L260.311 458.337L256.83 458.724L255.67 463.743L256.443 468.377L254.509 473.396L256.83 476.099L259.925 476.871L261.858 479.574L261.472 484.594L258.377 487.297L257.217 490L251.802 488.455L250.255 489.614L209.641 484.594L158.972 478.03V471.466L155.877 469.149L156.264 462.971L157.811 461.04V450.615L153.17 439.031L145.434 428.219L139.245 421.655L136.151 416.635L130.736 413.546L128.415 415.863L124.547 413.16L126.481 409.299L125.708 403.893L123 399.259L114.104 397.715L109.075 395.398L99.7924 388.061L99.4056 383.042L93.9905 376.091L88.5755 372.23H84.3207L79.2925 370.299L75.0377 366.824L70.783 365.28L58.4056 362.577L58.0189 359.488L53.7641 355.24L56.8584 350.607L56.0849 347.904L58.0189 343.656L56.8584 340.954L60.3395 334.003V331.3L55.6981 327.825L52.9905 323.964L55.6981 317.4L51.4434 313.538L47.9623 304.271L44.8678 302.341L44.0943 296.162L40.6132 290.757L40.9999 286.123L38.6793 283.806L37.9056 279.173L35.198 274.539L32.4905 271.064L30.9434 267.975L31.3301 259.48L33.6509 253.302L35.5848 255.233L38.6793 252.53L40.9999 247.51L39.8396 241.718L37.9056 238.629H33.2641L30.5566 236.698L24.7547 224.728L27.0755 217.392L26.6887 211.214L25.1415 208.897L27.849 203.491L28.6226 198.085H32.1037L31.3301 208.125L38.2924 210.828L39.066 206.966L37.132 202.333L34.8113 191.521L41.7735 189.204L44.0943 191.521L50.6697 191.135L48.7358 187.66L45.6415 190.363L40.6132 188.046L37.132 183.412L33.6509 184.571L30.5566 192.293L32.4905 194.61L28.6226 196.541L24.7547 191.135L22.8207 190.749L20.8868 185.729L18.1792 183.026L19.3396 172.6L16.632 163.333L13.1509 159.472L9.283 149.819L4.25462 140.552L3.09429 135.146L5.41507 132.443L5.02826 117.384L6.96222 113.523L9.66981 109.661L10.8301 103.097V96.5327L5.80189 81.8598L0 72.5928L1.16033 70.2758V64.4839L8.89618 54.8306L10.8301 55.6029L18.566 43.2467V37.4547L20.5 35.9103L25.915 25.4848L26.6887 18.1482L27.0755 11.5839L23.9811 8.8812L26.6887 6.17823L28.6226 0L54.5377 8.10889L79.6792 15.8315L121.84 28.1877L164 39.7717L128.802 169.898L146.981 197.699L159.358 215.847L177.925 243.262L197.651 273.767L217.377 303.885L230.915 324.35L258.377 366.052L274.623 389.22V389.22Z" stroke="black" stroke-width="0.8832" stroke-linecap="round" stroke-linejoin="round" mask="url(#path-1-inside-1_872_1752)"/>
<path fill-rule="evenodd" clip-rule="evenodd" d="M147.415 336.474C145.581 341.701 144.664 359.674 150.899 364.901C155.76 355.731 155.668 348.67 155.576 335.74C155.576 335.006 147.415 336.29 147.415 336.382V336.474Z" fill="white"/>
<path d="M150.9 366.277C150.533 366.277 150.258 366.277 149.983 365.91C143.013 359.949 144.389 341.059 146.039 336.015C146.315 335.098 147.048 334.915 150.349 334.456C151.633 334.273 153.926 333.998 155.118 334.09C156.677 334.09 156.86 335.19 156.952 335.557V335.924C156.952 348.945 157.044 356.098 152.092 365.452C151.908 365.818 151.542 366.093 151.175 366.185H150.9V366.277ZM148.515 337.574C146.956 343.076 146.59 356.832 150.625 362.517C154.293 354.722 154.384 348.12 154.293 336.932C152.734 336.932 149.891 337.391 148.515 337.574Z" fill="black"/>
<path fill-rule="evenodd" clip-rule="evenodd" d="M134.851 329.688C140.903 304.378 166.855 312.173 167.405 329.046C168.231 352.246 129.808 350.779 134.851 329.688Z" fill="white"/>
<path d="M149.797 347.295C145.396 347.295 141.086 346.011 137.968 343.535C133.75 340.142 132.099 335.19 133.474 329.321C136.776 315.474 145.671 311.347 153.007 312.081C161.719 312.906 168.505 320.151 168.78 328.863C169.055 336.107 165.754 341.792 159.609 344.91C156.583 346.469 153.19 347.203 149.797 347.203V347.295ZM136.226 329.963C134.758 336.015 137.326 339.5 139.71 341.334C144.387 345.002 152.457 345.552 158.417 342.526C163.644 339.867 166.304 335.098 166.12 329.046C165.845 320.701 159.059 315.474 152.824 314.832C144.937 314.007 138.701 319.692 136.317 329.963H136.226Z" fill="black"/>
<path d="M141.636 336.657C141.086 336.657 140.628 336.382 140.352 335.832C138.152 330.972 141.269 324.736 144.112 322.168C144.662 321.618 145.579 321.71 146.038 322.168C146.496 322.627 146.496 323.636 146.038 324.094C143.745 326.203 141.361 331.155 142.92 334.64C143.195 335.373 142.92 336.107 142.278 336.474C142.095 336.474 141.911 336.474 141.728 336.474H141.636V336.657Z" fill="black"/>
<path d="M185.848 100.788C189.157 100.788 192.059 101.264 194.552 102.216C197.091 103.123 198.36 104.369 198.36 105.956C198.36 107.543 197.748 109.515 196.524 111.872C195.345 114.184 194.348 115.34 193.532 115.34C193.305 115.34 193.033 115.227 192.716 115C192.444 114.728 191.764 114.456 190.676 114.184C189.633 113.867 188.727 113.708 187.956 113.708C185.327 113.708 183.196 114.637 181.564 116.496C179.977 118.355 179.184 121.211 179.184 125.064C179.184 128.872 180 131.705 181.632 133.564C183.309 135.423 185.417 136.352 187.956 136.352C188.999 136.352 190.155 136.216 191.424 135.944C192.739 135.627 193.668 135.196 194.212 134.652C194.303 134.561 194.484 134.516 194.756 134.516C195.028 134.516 195.527 135.037 196.252 136.08C197.023 137.077 197.725 138.415 198.36 140.092C198.995 141.724 199.312 142.993 199.312 143.9C199.312 145.668 197.952 147.073 195.232 148.116C192.512 149.159 189.293 149.68 185.576 149.68C179.592 149.68 174.673 147.572 170.82 143.356C166.967 139.14 165.04 133.201 165.04 125.54C165.04 117.833 167.012 111.781 170.956 107.384C174.945 102.987 179.909 100.788 185.848 100.788ZM236.477 149.136C232.533 149.136 230.403 148.501 230.085 147.232L227.841 138.46H217.029L215.057 146.892C214.785 148.297 212.609 149 208.529 149C206.353 149 204.744 148.887 203.701 148.66C202.659 148.388 202.137 148.184 202.137 148.048L214.173 102.012C214.173 101.649 217.279 101.468 223.489 101.468C229.7 101.468 232.805 101.649 232.805 102.012L244.569 148.116C244.569 148.433 243.527 148.683 241.441 148.864C239.356 149.045 237.701 149.136 236.477 149.136ZM218.729 129.824H225.869L222.809 115.748H222.401L218.729 129.824ZM248.396 144.988V102.692C248.396 101.74 250.685 101.264 255.264 101.264C259.888 101.264 262.2 101.74 262.2 102.692V136.012H272.672C273.488 136.012 274.054 137.077 274.372 139.208C274.508 140.251 274.576 141.316 274.576 142.404C274.576 143.492 274.508 144.603 274.372 145.736C274.009 147.912 273.42 149 272.604 149H251.66C250.662 149 249.869 148.592 249.28 147.776C248.69 146.96 248.396 146.031 248.396 144.988ZM283.115 137.304V113.096H278.287C277.516 113.096 276.972 112.121 276.655 110.172C276.519 109.22 276.451 108.245 276.451 107.248C276.451 106.251 276.519 105.276 276.655 104.324C276.972 102.375 277.516 101.4 278.287 101.4H301.135C301.905 101.4 302.427 102.375 302.699 104.324C302.88 105.276 302.971 106.251 302.971 107.248C302.971 108.245 302.88 109.22 302.699 110.172C302.427 112.121 301.905 113.096 301.135 113.096H296.579V137.304H301.339C302.109 137.304 302.653 138.279 302.971 140.228C303.152 141.18 303.243 142.155 303.243 143.152C303.243 144.149 303.152 145.124 302.971 146.076C302.653 148.025 302.109 149 301.339 149H278.423C277.652 149 277.131 148.025 276.859 146.076C276.677 145.124 276.587 144.149 276.587 143.152C276.587 142.155 276.677 141.18 276.859 140.228C277.131 138.279 277.652 137.304 278.423 137.304H283.115ZM333.211 101.4C333.982 101.4 334.367 103.417 334.367 107.452C334.367 111.441 333.982 113.436 333.211 113.436H320.767V121.188H329.063C329.834 121.188 330.219 122.956 330.219 126.492C330.219 129.983 329.856 131.728 329.131 131.728H320.767V148.116C320.767 148.751 319.906 149.159 318.183 149.34C316.506 149.567 315.1 149.68 313.967 149.68L310.771 149.544C308.55 149.272 307.439 148.819 307.439 148.184V103.168C307.439 102.443 307.575 101.967 307.847 101.74C308.164 101.513 308.618 101.4 309.207 101.4H333.211ZM360.049 149.68C353.702 149.68 348.512 147.595 344.477 143.424C340.488 139.253 338.493 133.179 338.493 125.2C338.493 117.176 340.51 111.101 344.545 106.976C348.625 102.851 353.861 100.788 360.253 100.788C366.69 100.788 371.881 102.828 375.825 106.908C379.769 110.943 381.741 117.085 381.741 125.336C381.741 133.541 379.724 139.661 375.689 143.696C371.654 147.685 366.441 149.68 360.049 149.68ZM360.117 113.844C357.941 113.844 356.105 114.841 354.609 116.836C353.158 118.831 352.433 121.641 352.433 125.268C352.433 128.849 353.136 131.615 354.541 133.564C355.946 135.468 357.782 136.42 360.049 136.42C362.361 136.42 364.22 135.445 365.625 133.496C367.076 131.547 367.801 128.759 367.801 125.132C367.801 121.505 367.053 118.717 365.557 116.768C364.106 114.819 362.293 113.844 360.117 113.844ZM400.189 148.048C400.189 148.773 398.035 149.136 393.729 149.136C389.377 149.136 387.201 148.796 387.201 148.116V103.78C387.201 102.193 388.039 101.4 389.717 101.4H402.705C414.627 101.4 420.589 106.047 420.589 115.34C420.589 118.151 420.045 120.712 418.957 123.024C417.869 125.291 416.327 127.104 414.333 128.464L422.901 142.744C422.538 143.832 421.359 145.079 419.365 146.484C416.645 148.433 414.401 149.408 412.633 149.408C410.865 149.408 409.55 148.773 408.689 147.504L402.297 132.612H400.189V148.048ZM400.189 113.436V123.636H400.529C404.835 123.636 406.989 121.845 406.989 118.264C406.989 116.632 406.558 115.431 405.697 114.66C404.881 113.844 403.521 113.436 401.617 113.436H400.189ZM464.574 147.504C464.574 148.456 462.443 148.932 458.182 148.932C453.921 148.932 451.609 148.592 451.246 147.912L439.89 126.696V147.844C439.89 148.66 437.782 149.068 433.566 149.068C429.395 149.068 427.31 148.66 427.31 147.844V102.352C427.31 101.672 429.101 101.332 432.682 101.332C434.087 101.332 435.719 101.468 437.578 101.74C439.482 101.967 440.638 102.42 441.046 103.1L451.926 124.044V102.692C451.926 101.831 454.034 101.4 458.25 101.4C462.466 101.4 464.574 101.831 464.574 102.692V147.504ZM475.892 137.304V113.096H471.064C470.293 113.096 469.749 112.121 469.432 110.172C469.296 109.22 469.228 108.245 469.228 107.248C469.228 106.251 469.296 105.276 469.432 104.324C469.749 102.375 470.293 101.4 471.064 101.4H493.912C494.683 101.4 495.204 102.375 495.476 104.324C495.657 105.276 495.748 106.251 495.748 107.248C495.748 108.245 495.657 109.22 495.476 110.172C495.204 112.121 494.683 113.096 493.912 113.096H489.356V137.304H494.116C494.887 137.304 495.431 138.279 495.748 140.228C495.929 141.18 496.02 142.155 496.02 143.152C496.02 144.149 495.929 145.124 495.748 146.076C495.431 148.025 494.887 149 494.116 149H471.2C470.429 149 469.908 148.025 469.636 146.076C469.455 145.124 469.364 144.149 469.364 143.152C469.364 142.155 469.455 141.18 469.636 140.228C469.908 138.279 470.429 137.304 471.2 137.304H475.892ZM532.516 149.136C528.572 149.136 526.442 148.501 526.124 147.232L523.88 138.46H513.068L511.096 146.892C510.824 148.297 508.648 149 504.568 149C502.392 149 500.783 148.887 499.74 148.66C498.698 148.388 498.176 148.184 498.176 148.048L510.212 102.012C510.212 101.649 513.318 101.468 519.528 101.468C525.739 101.468 528.844 101.649 528.844 102.012L540.608 148.116C540.608 148.433 539.566 148.683 537.48 148.864C535.395 149.045 533.74 149.136 532.516 149.136ZM514.768 129.824H521.908L518.848 115.748H518.44L514.768 129.824Z" fill="black"/>
<path d="M168.168 185.408C169.029 186.088 170.503 187.017 172.588 188.196C174.719 189.375 176.736 189.964 178.64 189.964C180.589 189.964 181.564 189.216 181.564 187.72C181.564 187.04 181.292 186.451 180.748 185.952C180.204 185.408 179.207 184.796 177.756 184.116C176.305 183.436 175.217 182.915 174.492 182.552C173.767 182.144 172.792 181.509 171.568 180.648C170.389 179.741 169.483 178.812 168.848 177.86C167.035 175.276 166.128 171.989 166.128 168C166.128 164.011 167.601 160.656 170.548 157.936C173.54 155.171 177.439 153.788 182.244 153.788C185.508 153.788 188.523 154.151 191.288 154.876C194.053 155.556 195.481 156.463 195.572 157.596C195.572 157.732 195.572 157.868 195.572 158.004C195.572 159.591 195.073 161.608 194.076 164.056C193.079 166.459 192.376 167.796 191.968 168.068C189.067 166.572 186.46 165.824 184.148 165.824C181.881 165.824 180.748 166.64 180.748 168.272C180.748 169.269 181.587 170.153 183.264 170.924C183.627 171.105 184.148 171.355 184.828 171.672C185.508 171.989 186.279 172.375 187.14 172.828C188.047 173.236 188.999 173.78 189.996 174.46C191.039 175.095 192.149 175.956 193.328 177.044C195.731 179.311 196.932 182.303 196.932 186.02C196.932 190.871 195.595 194.837 192.92 197.92C190.245 201.003 186.12 202.589 180.544 202.68C177.824 202.68 175.353 202.453 173.132 202C170.956 201.547 169.052 200.663 167.42 199.348C165.788 198.033 164.972 196.447 164.972 194.588C164.972 192.729 165.312 190.893 165.992 189.08C166.672 187.221 167.397 185.997 168.168 185.408ZM222.721 202.68C216.374 202.68 211.184 200.595 207.149 196.424C203.16 192.253 201.165 186.179 201.165 178.2C201.165 170.176 203.182 164.101 207.217 159.976C211.297 155.851 216.533 153.788 222.925 153.788C229.362 153.788 234.553 155.828 238.497 159.908C242.441 163.943 244.413 170.085 244.413 178.336C244.413 186.541 242.396 192.661 238.361 196.696C234.326 200.685 229.113 202.68 222.721 202.68ZM222.789 166.844C220.613 166.844 218.777 167.841 217.281 169.836C215.83 171.831 215.105 174.641 215.105 178.268C215.105 181.849 215.808 184.615 217.213 186.564C218.618 188.468 220.454 189.42 222.721 189.42C225.033 189.42 226.892 188.445 228.297 186.496C229.748 184.547 230.473 181.759 230.473 178.132C230.473 174.505 229.725 171.717 228.229 169.768C226.778 167.819 224.965 166.844 222.789 166.844ZM269.321 153.788C272.63 153.788 275.531 154.264 278.025 155.216C280.563 156.123 281.833 157.369 281.833 158.956C281.833 160.543 281.221 162.515 279.997 164.872C278.818 167.184 277.821 168.34 277.005 168.34C276.778 168.34 276.506 168.227 276.189 168C275.917 167.728 275.237 167.456 274.149 167.184C273.106 166.867 272.199 166.708 271.429 166.708C268.799 166.708 266.669 167.637 265.037 169.496C263.45 171.355 262.657 174.211 262.657 178.064C262.657 181.872 263.473 184.705 265.105 186.564C266.782 188.423 268.89 189.352 271.429 189.352C272.471 189.352 273.627 189.216 274.897 188.944C276.211 188.627 277.141 188.196 277.685 187.652C277.775 187.561 277.957 187.516 278.229 187.516C278.501 187.516 278.999 188.037 279.725 189.08C280.495 190.077 281.198 191.415 281.833 193.092C282.467 194.724 282.785 195.993 282.785 196.9C282.785 198.668 281.425 200.073 278.705 201.116C275.985 202.159 272.766 202.68 269.049 202.68C263.065 202.68 258.146 200.572 254.293 196.356C250.439 192.14 248.513 186.201 248.513 178.54C248.513 170.833 250.485 164.781 254.429 160.384C258.418 155.987 263.382 153.788 269.321 153.788ZM319.95 202.136C316.006 202.136 313.875 201.501 313.558 200.232L311.314 191.46H300.502L298.53 199.892C298.258 201.297 296.082 202 292.002 202C289.826 202 288.217 201.887 287.174 201.66C286.131 201.388 285.61 201.184 285.61 201.048L297.646 155.012C297.646 154.649 300.751 154.468 306.962 154.468C313.173 154.468 316.278 154.649 316.278 155.012L328.042 201.116C328.042 201.433 326.999 201.683 324.914 201.864C322.829 202.045 321.174 202.136 319.95 202.136ZM302.202 182.824H309.342L306.282 168.748H305.874L302.202 182.824ZM331.868 197.988V155.692C331.868 154.74 334.158 154.264 338.736 154.264C343.36 154.264 345.672 154.74 345.672 155.692V189.012H356.144C356.96 189.012 357.527 190.077 357.844 192.208C357.98 193.251 358.048 194.316 358.048 195.404C358.048 196.492 357.98 197.603 357.844 198.736C357.482 200.912 356.892 202 356.076 202H335.132C334.135 202 333.342 201.592 332.752 200.776C332.163 199.96 331.868 199.031 331.868 197.988Z" fill="black"/>
<path d="M128.76 378.026C128.006 378.026 127.599 377.905 127.538 377.662L127.109 375.985H125.042L124.665 377.597C124.613 377.866 124.197 378 123.417 378C123.001 378 122.693 377.978 122.494 377.935C122.295 377.883 122.195 377.844 122.195 377.818L124.496 369.017C124.496 368.948 125.09 368.913 126.277 368.913C127.464 368.913 128.058 368.948 128.058 369.017L130.307 377.831C130.307 377.892 130.108 377.939 129.709 377.974C129.31 378.009 128.994 378.026 128.76 378.026ZM125.367 374.334H126.732L126.147 371.643H126.069L125.367 374.334ZM138.293 377.714C138.293 377.896 137.885 377.987 137.071 377.987C136.256 377.987 135.814 377.922 135.745 377.792L133.574 373.736V377.779C133.574 377.935 133.171 378.013 132.365 378.013C131.567 378.013 131.169 377.935 131.169 377.779V369.082C131.169 368.952 131.511 368.887 132.196 368.887C132.464 368.887 132.776 368.913 133.132 368.965C133.496 369.008 133.717 369.095 133.795 369.225L135.875 373.229V369.147C135.875 368.982 136.278 368.9 137.084 368.9C137.89 368.9 138.293 368.982 138.293 369.147V377.714ZM145.708 378.026C144.954 378.026 144.547 377.905 144.486 377.662L144.057 375.985H141.99L141.613 377.597C141.561 377.866 141.145 378 140.365 378C139.949 378 139.642 377.978 139.442 377.935C139.243 377.883 139.143 377.844 139.143 377.818L141.444 369.017C141.444 368.948 142.038 368.913 143.225 368.913C144.413 368.913 145.006 368.948 145.006 369.017L147.255 377.831C147.255 377.892 147.056 377.939 146.657 377.974C146.259 378.009 145.942 378.026 145.708 378.026ZM142.315 374.334H143.68L143.095 371.643H143.017L142.315 374.334ZM155.189 377.779C155.189 377.926 154.751 378 153.876 378C153 378 152.563 377.926 152.563 377.779V374.789H150.743V377.779C150.743 377.926 150.305 378 149.43 378C148.554 378 148.117 377.926 148.117 377.779V369.16C148.117 368.978 148.554 368.887 149.43 368.887C150.305 368.887 150.743 368.978 150.743 369.16V372.215H152.563V369.186C152.563 369.065 152.779 368.978 153.213 368.926C153.438 368.909 153.659 368.9 153.876 368.9L154.539 368.926C154.972 368.978 155.189 369.065 155.189 369.186V377.779ZM160.708 372.514C160.873 372.514 160.955 372.817 160.955 373.424C160.955 373.606 160.933 373.823 160.89 374.074C160.855 374.317 160.786 374.438 160.682 374.438H159.031V375.738H161.423C161.57 375.738 161.67 375.929 161.722 376.31C161.748 376.475 161.761 376.652 161.761 376.843C161.761 377.025 161.735 377.263 161.683 377.558C161.631 377.853 161.544 378 161.423 378H156.977C156.648 378 156.483 377.866 156.483 377.597V369.238C156.483 369.013 156.583 368.9 156.782 368.9H161.436C161.618 368.9 161.709 369.286 161.709 370.057C161.709 370.82 161.618 371.201 161.436 371.201H159.031V372.514H160.708ZM163.752 375.764V371.136H162.829C162.682 371.136 162.578 370.95 162.517 370.577C162.491 370.395 162.478 370.209 162.478 370.018C162.478 369.827 162.491 369.641 162.517 369.459C162.578 369.086 162.682 368.9 162.829 368.9H167.197C167.344 368.9 167.444 369.086 167.496 369.459C167.531 369.641 167.548 369.827 167.548 370.018C167.548 370.209 167.531 370.395 167.496 370.577C167.444 370.95 167.344 371.136 167.197 371.136H166.326V375.764H167.236C167.383 375.764 167.487 375.95 167.548 376.323C167.583 376.505 167.6 376.691 167.6 376.882C167.6 377.073 167.583 377.259 167.548 377.441C167.487 377.814 167.383 378 167.236 378H162.855C162.708 378 162.608 377.814 162.556 377.441C162.521 377.259 162.504 377.073 162.504 376.882C162.504 376.691 162.521 376.505 162.556 376.323C162.608 375.95 162.708 375.764 162.855 375.764H163.752ZM177.567 378.013C176.796 378.013 176.41 377.926 176.41 377.753L176.137 372.54L174.551 377.818C174.517 377.922 174.222 377.974 173.667 377.974C173.113 377.974 172.827 377.926 172.809 377.831L171.171 372.488L170.989 377.675C170.981 377.805 170.816 377.896 170.495 377.948C170.175 377.991 169.906 378.013 169.689 378.013C169.481 378.013 169.278 378 169.078 377.974C168.662 377.913 168.459 377.805 168.467 377.649L168.766 369.199C168.766 368.991 169.295 368.887 170.352 368.887C170.664 368.887 171.046 368.913 171.496 368.965C171.947 369.008 172.198 369.099 172.25 369.238L173.706 373.333L174.98 369.225C175.058 369 175.656 368.887 176.774 368.887C177.095 368.887 177.476 368.913 177.918 368.965C178.369 369.008 178.594 369.091 178.594 369.212L178.971 377.74C178.971 377.835 178.802 377.905 178.464 377.948C178.126 377.991 177.827 378.013 177.567 378.013Z" fill="white"/>
<defs>
<linearGradient id="paint0_linear_872_1752" x1="0" y1="245" x2="287" y2="245" gradientUnits="userSpaceOnUse">
<stop stop-color="#59636C"/>
<stop offset="0.4" stop-color="#9BA6AF"/>
<stop offset="1" stop-color="#C7CDD5"/>
</linearGradient>
</defs>
</svg>
