<svg width="71" height="71" viewBox="0 0 71 71" fill="none" xmlns="http://www.w3.org/2000/svg">
<path fill-rule="evenodd" clip-rule="evenodd" d="M50.9518 68.6373L37.7211 48.2872L51.2541 38.7472L64.4858 59.0982L55.4282 60.0059L50.9518 68.6373Z" fill="white" stroke="black" stroke-width="2.8603" stroke-miterlimit="22.926" stroke-linecap="round" stroke-linejoin="round"/>
<path fill-rule="evenodd" clip-rule="evenodd" d="M20.1731 68.6373L33.4049 48.2872L19.8509 38.7472L6.64014 59.0982L15.6758 60.0059L20.1731 68.6373Z" fill="white" stroke="black" stroke-width="2.8603" stroke-miterlimit="22.926" stroke-linecap="round" stroke-linejoin="round"/>
<path fill-rule="evenodd" clip-rule="evenodd" d="M66.5824 31.1436C66.5824 27.9772 62.7506 25.4563 61.8429 22.6123C60.8752 19.6471 62.4483 15.3719 60.653 12.9111C58.8415 10.4322 54.2793 10.6114 51.7985 8.79704C49.3377 7.00172 48.1078 2.60545 45.1426 1.63676C42.2994 0.708122 38.7288 3.53219 35.5625 3.53219C32.3962 3.53219 28.8265 0.708122 25.9824 1.63581C23.0173 2.60354 21.7873 7.00077 19.3265 8.79608C16.8476 10.6076 12.2873 10.4293 10.472 12.9101C8.67764 15.3709 10.2508 19.6471 9.28116 22.6123C8.35442 25.4563 4.5426 27.9772 4.5426 31.1436C4.5426 34.3099 8.35633 36.8308 9.28211 39.6949C10.2508 42.64 8.67764 46.9162 10.472 49.3808C12.2835 51.8597 16.8457 51.6805 19.3265 53.4949C21.7873 55.2902 23.0173 59.6865 25.9824 60.6551C28.8265 61.5828 32.3962 58.7797 35.5625 58.7797C38.7288 58.7797 42.2985 61.5828 45.1426 60.6551C48.1078 59.6874 49.3377 55.2902 51.7985 53.4949C54.2774 51.6833 58.8377 51.8616 60.653 49.3808C62.4483 46.92 60.8752 42.6448 61.8429 39.6997C62.7506 36.8317 66.5824 34.3099 66.5824 31.1436Z" fill="white" stroke="black" stroke-width="2.8603" stroke-miterlimit="22.926" stroke-linecap="round" stroke-linejoin="round"/>
<path fill-rule="evenodd" clip-rule="evenodd" d="M22.4728 41.7924C22.726 40.9926 23.1679 40.2654 23.7611 39.6722C24.3543 39.079 25.0815 38.6371 25.8813 38.3839C26.2036 38.2428 26.5488 38.1618 26.8701 38.0407C28.2872 37.5994 29.543 36.7505 30.4807 35.5999L31.3274 34.6322C32.1776 33.6774 33.2422 32.938 34.4336 32.4745C35.3341 32.073 36.3343 31.9506 37.3051 32.1231C38.2758 32.2956 39.1726 32.7551 39.8796 33.4423C40.7051 34.128 41.3684 34.9881 41.8218 35.9607C42.2751 36.9334 42.5073 37.9944 42.5016 39.0675C42.4497 40.2902 42.6137 41.5124 42.9859 42.6782C43.2281 43.3236 43.4903 43.9491 43.7487 44.5736C44.2992 45.7017 44.4281 46.9895 44.1119 48.2043C43.8934 49.0662 43.4873 49.8693 42.9224 50.5561C42.3576 51.2429 41.6481 51.7964 40.8445 52.1772C40.1255 52.4796 39.3387 52.5839 38.5658 52.4794C37.5233 52.3646 36.5496 51.9029 35.8009 51.1685C35.3575 50.7652 34.8732 50.3619 34.4088 49.9786C33.3055 49.0295 31.891 48.5203 30.4359 48.5484C29.5727 48.5226 28.7102 48.6189 27.874 48.8345C27.2676 49.0053 26.632 49.0468 26.0086 48.956C25.3851 48.8653 24.7877 48.6444 24.2552 48.3078C23.7226 47.9712 23.2668 47.5263 22.9174 47.002C22.5679 46.4778 22.3327 45.8859 22.2268 45.2648C22.0029 44.107 22.0864 42.9108 22.469 41.7953L22.4728 41.7924ZM56.0136 40.0982C55.7348 40.7658 55.3231 41.3698 54.8037 41.8735C53.9696 42.7495 52.9681 43.4492 51.8585 43.931C51.1771 44.2504 50.3981 44.2922 49.6863 44.0475C48.9746 43.8028 48.3859 43.2909 48.0448 42.62C47.6667 42.0458 47.4635 41.3741 47.4599 40.6866C47.4564 39.999 47.6526 39.3253 48.0248 38.7472C48.7522 37.4716 49.7944 36.4038 51.0519 35.6457C51.5947 35.3454 52.1792 35.1278 52.7862 35.0002C53.1694 34.9164 53.5657 34.9126 53.9504 34.9889C54.3351 35.0652 54.6999 35.2201 55.022 35.4438C55.3441 35.6675 55.6167 35.9552 55.8225 36.289C56.0284 36.6228 56.1633 36.9955 56.2186 37.3838C56.3845 38.2938 56.3149 39.2312 56.0165 40.1068L56.0136 40.0982ZM38.5277 23.9432C38.4128 24.6364 38.1365 25.2929 37.7211 25.8596C37.377 26.3567 36.9194 26.7646 36.3863 27.0495C35.9031 27.3007 35.3694 27.4393 34.8251 27.4549C34.2808 27.4704 33.74 27.3626 33.2433 27.1394C32.7466 26.9163 32.3069 26.5836 31.9571 26.1662C31.6073 25.7489 31.3564 25.2579 31.2234 24.7298C30.9557 23.6399 30.9344 22.504 31.1612 21.4049C31.388 20.3058 31.8571 19.271 32.5344 18.3761C32.921 17.8315 33.4622 17.4154 34.0879 17.1817C34.7135 16.948 35.395 16.9074 36.044 17.0652C36.646 17.1356 37.2146 17.3791 37.6809 17.7664C38.1471 18.1536 38.491 18.6678 38.6707 19.2466C38.8857 19.9443 38.9612 20.6774 38.8928 21.4042C38.8299 22.249 38.6707 23.0966 38.5277 23.9432ZM43.5332 25.1131C44.0277 23.7024 44.908 22.4588 46.0741 21.5234C46.715 21.0324 47.4973 20.7614 48.3047 20.7506C49.112 20.7397 49.9013 20.9897 50.5552 21.4634C50.9356 21.7419 51.2489 22.102 51.4722 22.5172C51.6956 22.9324 51.8233 23.3922 51.8462 23.8631C51.9623 24.8205 51.7865 25.7905 51.3418 26.6462C50.819 27.856 50.0654 28.9522 49.1232 29.8736C48.6239 30.4028 47.9642 30.7528 47.246 30.8695C46.5279 30.9862 45.7913 30.863 45.1502 30.5191C44.4656 30.1785 43.906 29.6305 43.5512 28.9532C43.1963 28.276 43.0642 27.504 43.1737 26.7473C43.2548 26.2029 43.4159 25.6585 43.537 25.1141L43.5332 25.1131ZM20.5765 26.384C20.8139 25.8941 21.0764 25.4168 21.363 24.9539C21.6361 24.5151 22.0106 24.1484 22.455 23.8845C22.8994 23.6207 23.4007 23.4676 23.9166 23.4379C24.4326 23.4083 24.9481 23.5031 25.4198 23.7143C25.8914 23.9255 26.3054 24.247 26.6269 24.6516C26.9875 25.0418 27.2743 25.494 27.4736 25.9864C28.2253 27.7231 28.3743 29.6614 27.8969 31.4925C27.0703 34.2575 25.1138 34.9821 22.8142 34.3528C22.3738 34.2202 21.9699 33.9877 21.6341 33.6735C21.2982 33.3593 21.0394 32.9719 20.8777 32.5413C19.9975 30.602 19.8897 28.4 20.5765 26.384Z" fill="#CCCACB"/>
<path fill-rule="evenodd" clip-rule="evenodd" d="M20.2542 36.9519C20.5119 36.1506 20.9581 35.4229 21.5554 34.8298C22.1526 34.2367 22.8835 33.7955 23.6865 33.5434C24.0088 33.4223 24.332 33.3213 24.6753 33.2211C26.0862 32.7671 27.3387 31.9205 28.2859 30.7804C28.5464 30.4394 28.8292 30.1161 29.1325 29.8126C29.9834 28.8536 31.0473 28.1074 32.2388 27.634C33.1406 27.2392 34.1392 27.1204 35.1085 27.2926C36.0778 27.4648 36.9743 27.9204 37.6848 28.6018C38.5025 29.293 39.159 30.1546 39.6085 31.1264C40.058 32.0981 40.2895 33.1564 40.2867 34.227C40.2349 35.4562 40.3988 36.685 40.7711 37.8577C41.0133 38.5032 41.2755 39.1086 41.5577 39.7331C42.0904 40.8667 42.2118 42.1504 41.9009 43.3638C41.6883 44.2283 41.2844 45.0341 40.7188 45.7217C40.1533 46.4093 39.4407 46.9612 38.6335 47.3367C37.9203 47.6598 37.1275 47.7649 36.3548 47.6389C35.3085 47.5377 34.3304 47.074 33.5898 46.328C33.1465 45.9247 32.6621 45.5414 32.1978 45.1381C31.0865 44.2026 29.6774 43.6954 28.2249 43.7079C27.361 43.6876 26.4985 43.7894 25.663 44.0102C25.0552 44.1791 24.4187 44.2184 23.7947 44.1257C23.1707 44.0329 22.5732 43.8101 22.0408 43.4717C21.5084 43.1333 21.0531 42.6868 20.7042 42.1612C20.3554 41.6356 20.1209 41.0425 20.0158 40.4205C19.8028 39.2621 19.8861 38.0686 20.258 36.951L20.2542 36.9519ZM53.795 35.2577C53.5284 35.9319 53.1151 36.5383 52.5851 37.033C51.7556 37.9194 50.7533 38.6265 49.6399 39.1105C48.9584 39.4299 48.1794 39.4717 47.4677 39.227C46.7559 38.9823 46.1673 38.4704 45.8262 37.7995C45.448 37.2253 45.2448 36.5536 45.2413 35.8661C45.2377 35.1785 45.434 34.5048 45.8062 33.9267C46.521 32.6411 47.5651 31.569 48.8314 30.8204C49.3733 30.5133 49.9577 30.2884 50.5657 30.153C50.9499 30.0706 51.347 30.0683 51.7322 30.1461C52.1173 30.224 52.4823 30.3804 52.8044 30.6056C53.1264 30.8307 53.3986 31.1198 53.604 31.4549C53.8094 31.7899 53.9435 32.1636 53.998 32.5528C54.164 33.4569 54.0941 34.3885 53.795 35.2577ZM36.309 19.1027C36.198 19.8032 35.9214 20.467 35.5024 21.0391C35.161 21.5246 34.7125 21.9249 34.1915 22.209C33.7087 22.4634 33.1745 22.6052 32.6291 22.6236C32.0837 22.642 31.5412 22.5366 31.0423 22.3153C30.5435 22.094 30.1012 21.7625 29.7488 21.3458C29.3964 20.9291 29.143 20.438 29.0076 19.9093C28.7403 18.8199 28.7193 17.6845 28.9461 16.5859C29.1729 15.4873 29.6418 14.4531 30.3186 13.5585C30.7052 13.0139 31.2464 12.5978 31.8721 12.364C32.4978 12.1303 33.1792 12.0897 33.8282 12.2476C34.4288 12.3169 34.9969 12.5571 35.4651 12.9395C35.9334 13.3219 36.2822 13.8306 36.4702 14.4052C36.6678 15.1062 36.7363 15.8373 36.6723 16.5628C36.6113 17.4285 36.452 18.2551 36.309 19.1027ZM41.3145 20.2926C41.8083 18.8831 42.6873 17.6402 43.8516 16.7048C44.4924 16.2155 45.2728 15.9437 46.0789 15.9291C46.885 15.9145 47.6747 16.1579 48.3328 16.6238C48.7131 16.9024 49.0264 17.2624 49.2498 17.6776C49.4731 18.0928 49.6009 18.5527 49.6237 19.0236C49.7416 19.9874 49.5658 20.9644 49.1193 21.8267C48.5916 23.0337 47.8386 24.129 46.9007 25.054C46.399 25.5794 45.7395 25.9267 45.0225 26.0432C44.3054 26.1597 43.57 26.039 42.9277 25.6995C42.2408 25.3563 41.6798 24.8049 41.3249 24.124C40.9699 23.4431 40.8392 22.6674 40.9513 21.9077C41.0323 21.3633 41.1935 20.8389 41.3145 20.2945V20.2926ZM18.3578 21.5435C18.5914 21.0575 18.8541 20.5859 19.1444 20.1315C19.4159 19.6916 19.7891 19.3234 20.2326 19.0579C20.6761 18.7924 21.1769 18.6373 21.6928 18.6057C22.2087 18.5741 22.7247 18.6669 23.1973 18.8764C23.6698 19.0858 24.0852 19.4058 24.4083 19.8092C24.7602 20.206 25.046 20.6566 25.2549 21.144C26.0151 22.8786 26.1643 24.8197 25.6783 26.6501C24.8516 29.4332 22.8952 30.1397 20.5955 29.5342C20.16 29.392 19.761 29.1561 19.4265 28.8431C19.0919 28.5302 18.83 28.1477 18.6591 27.7227C17.7794 25.7783 17.6714 23.5722 18.3569 21.5511L18.3578 21.5435Z" fill="white" stroke="black" stroke-width="2.8603" stroke-miterlimit="22.926"/>
</svg>
