<svg width="50" height="50" viewBox="0 0 50 50" fill="none" xmlns="http://www.w3.org/2000/svg">
<path d="M23.8 31.3003C18.3 30.3003 13.9 26.3003 15.5 19.6003C20 0.900331 39.1 6.60033 39.6 19.1003C39.8 25.7003 35.7 29.6003 30.8 31.0003C30.7 36.6003 30 40.7003 27.3 45.6003C24.3 43.1003 23.5 36.6003 23.8 31.3003Z" fill="#CDCDCD"/>
<path fill-rule="evenodd" clip-rule="evenodd" d="M20 21.4002C18.7 25.3002 18 38.5002 22.6 42.4002C26.2 35.7002 26.1 30.4002 26.1 20.9002C26.1 20.4002 20.1 21.3002 20 21.4002Z" fill="white" stroke="black" stroke-width="3" stroke-linecap="round" stroke-linejoin="round"/>
<path fill-rule="evenodd" clip-rule="evenodd" d="M10.7 16.4001C15.2 -2.29986 34.3 3.40014 34.8 15.9001C35.4 33.0001 7 31.9001 10.7 16.4001Z" fill="white" stroke="black" stroke-width="3" stroke-linecap="round" stroke-linejoin="round"/>
<path d="M18.2 11.6001C16.4 13.3001 14.2 17.4001 15.7 20.5001" stroke="black" stroke-width="3" stroke-miterlimit="22.9" stroke-linecap="round"/>
</svg>
