<svg width="413" height="173" viewBox="0 0 413 173" fill="none" xmlns="http://www.w3.org/2000/svg">
<g clip-path="url(#clip0_462_12)">
<g clip-path="url(#clip1_462_12)">
<g clip-path="url(#clip2_462_12)">
<path fill-rule="evenodd" clip-rule="evenodd" d="M293.132 133.043C292.148 135.6 291.263 138.058 290.378 140.615C289.198 144.056 288.313 147.596 287.133 150.94C285.953 154.381 284.675 157.725 283.495 161.068C283.495 161.166 283.397 161.363 283.298 161.461C282.413 163.33 281.627 163.821 279.562 163.526C276.612 163.231 273.662 162.936 270.81 162.543C269.04 162.346 267.27 162.051 265.5 161.658C264.517 161.461 263.632 160.97 262.747 160.478C261.468 159.691 261.075 158.511 261.37 157.036C261.763 155.463 262.55 154.283 263.632 153.201C264.32 152.513 265.107 151.923 265.893 151.235C266.483 150.743 266.975 150.35 267.565 149.76C268.155 149.17 268.548 148.383 268.745 147.498C269.827 141.893 270.712 136.386 271.4 130.683C271.892 126.16 272.285 121.636 272.678 117.113C273.072 112.786 272.678 108.656 271.203 104.526C269.138 98.6262 267.073 92.8246 264.615 87.0229C263.828 85.0562 262.747 83.3846 261.567 81.6146C260.682 80.2379 259.502 79.1562 257.928 78.5662C256.257 77.8779 254.585 77.0912 252.815 76.5012C247.702 74.6329 242.588 72.8629 237.573 70.9946C235.312 70.1096 233.05 69.1262 230.985 67.7496C227.248 65.0946 224.79 61.5546 224.102 57.0312C223.807 55.2612 224.003 53.4912 224.692 51.8196C225.183 50.6396 226.068 49.7546 227.15 49.1646C228.035 48.7712 229.018 48.3779 229.903 48.0829C230.887 47.6896 231.87 47.3946 232.853 47.0996C234.525 46.6079 235.705 45.5262 236.787 44.3462C238.95 42.0846 240.425 39.4296 241.802 36.6762C242.982 34.2179 244.358 31.9562 246.03 29.7929C248.292 26.9412 251.143 25.2696 254.782 24.7779C257.142 24.4829 259.403 24.5812 261.763 24.9746C265.107 25.6629 268.45 26.1546 271.695 27.0396C274.35 27.7279 277.005 28.6129 279.07 30.4812C279.267 30.4812 279.463 30.4812 279.66 30.5796C284.773 31.7596 289.69 33.6279 293.918 36.8729C295.787 38.3479 297.458 40.0196 298.737 42.0846C300.408 44.6412 300.703 47.4929 299.425 50.3446C299.032 51.2296 298.54 52.1146 298.048 52.9012C300.408 54.5729 302.67 56.4412 305.227 57.8179C307.488 58.8996 309.75 59.9812 312.208 60.3746C312.503 60.3746 312.798 60.3746 313.192 60.3746C317.518 60.2762 321.845 60.2762 326.172 60.0796C332.17 59.7846 338.267 59.0962 344.167 58.2112C351.64 57.1296 359.113 57.6212 366.39 59.5879C366.587 59.5879 366.882 59.5879 367.078 59.7846C369.438 60.6696 371.7 60.3746 373.962 59.3912C376.715 58.3096 379.173 56.7362 381.435 54.6712C386.45 49.9512 390.187 44.3462 392.743 37.8562C393.628 35.6929 394.415 33.5296 395.005 31.2679C395.3 30.1862 395.792 29.3012 396.873 28.8096C398.053 28.3179 399.233 28.4162 400.02 29.4979C400.512 30.0879 401.003 30.7762 401.298 31.4646C403.462 35.8896 404.248 40.6096 403.855 45.6246C403.462 52.1146 401.298 58.2112 398.447 64.0129C396.873 67.1596 395.398 70.3062 393.923 73.4529C393.235 74.9279 392.645 76.4029 392.645 78.0746C392.645 79.4512 392.645 80.7296 393.235 82.0079C394.513 84.9579 395.89 87.9079 397.168 90.9562C399.233 96.0696 400.217 101.38 400.413 106.788C400.512 109.738 400.61 112.688 400.118 115.638C399.725 117.506 399.332 119.375 398.742 121.243C397.66 124.881 396.873 128.618 396.185 132.355C396.185 132.551 396.185 132.748 396.185 132.846C396.185 135.403 396.185 137.861 396.185 140.418C396.185 145.531 396.087 150.546 395.89 155.66C395.89 156.741 395.595 157.823 395.398 158.806C395.103 159.888 394.415 160.675 393.235 160.871C392.448 160.97 391.76 161.166 390.973 161.265C386.45 161.658 381.927 162.051 377.403 162.445C376.813 162.445 376.322 162.445 375.732 162.445C374.65 162.445 373.863 161.658 373.667 160.576C373.175 158.118 373.667 155.955 375.043 153.89C375.633 152.906 376.42 152.021 377.207 151.136C377.797 150.448 377.895 149.858 377.6 149.071C375.535 143.86 373.765 138.55 372.192 133.141C371.208 136.386 370.225 139.73 369.242 142.975C367.767 147.695 366.095 152.415 364.522 157.135C364.227 157.921 363.932 158.61 363.637 159.298C363.047 160.576 362.063 161.363 360.588 161.265C359.703 161.265 358.72 161.265 357.737 161.265C353.705 161.265 349.772 160.97 345.74 160.38C345.543 160.38 345.347 160.38 345.15 160.281C343.872 159.986 343.478 159.396 343.577 158.216C343.872 156.053 344.56 154.086 346.133 152.611C347.215 151.628 348.395 150.841 349.772 150.448C350.853 150.153 351.345 149.465 351.542 148.383C352.427 140.811 353.41 133.24 353.803 125.57C353.902 123.505 354.098 121.538 354.295 119.571C350.853 121.243 347.313 122.718 343.675 123.898C340.725 124.783 337.677 125.176 334.628 125.471C330.793 125.766 327.057 125.865 323.222 125.766C318.993 125.766 314.863 125.275 310.832 124.39C311.028 129.208 311.323 134.026 311.52 138.845C311.618 142.286 311.717 145.728 311.815 149.17C311.815 151.431 312.012 153.693 312.11 155.955C312.11 156.938 312.11 157.921 312.11 158.806C312.11 159.593 311.422 160.183 310.438 160.38C309.16 160.675 307.783 160.871 306.505 161.068C302.965 161.56 299.327 162.15 295.787 162.641C295.787 162.641 295.59 162.641 295.492 162.641C293.427 162.74 292.05 161.56 291.853 159.495C291.755 158.02 292.05 156.643 292.935 155.463C294.017 153.89 295.295 152.71 296.77 151.53C297.753 150.743 297.852 150.546 297.458 149.366C295.688 143.958 294.213 138.55 293.033 133.043H293.132ZM320.468 134.42C320.468 135.698 320.567 136.976 320.665 138.353C320.665 140.221 320.763 142.581 320.862 144.843C320.862 146.023 320.862 147.203 320.96 148.776C320.96 149.366 320.96 150.546 321.058 151.825C321.058 152.906 321.058 154.086 321.157 155.66C321.157 156.348 321.157 157.036 321.157 157.626C321.157 158.61 321.157 159.101 321.157 159.396C320.96 162.051 319.78 164.411 317.912 166.181C316.437 167.656 314.47 168.64 312.307 169.033H311.618C310.34 169.426 309.062 169.623 308.078 169.82C306.898 170.016 303.457 170.508 300.015 171L297.36 171.393C297.065 171.393 296.672 171.393 296.377 171.393C293.525 171.59 290.87 170.901 288.707 169.426C288.018 170.016 287.232 170.606 286.347 171.098C283.888 172.475 281.627 172.77 278.775 172.376C277.103 172.18 276.218 172.081 275.432 171.983C274.153 171.885 272.875 171.688 269.925 171.295C268.843 171.196 267.86 171 266.975 170.901C265.795 170.705 264.713 170.508 263.73 170.311C262.648 170.016 261.567 169.721 260.682 169.23C259.993 168.935 259.207 168.443 258.42 168.05C256.06 166.673 254.388 164.706 253.503 162.346C252.618 160.085 252.422 157.626 253.012 155.07C253.405 153.3 254.093 151.726 254.978 150.251C255.765 148.973 256.65 147.891 257.732 146.81C258.322 146.22 259.108 145.531 259.895 144.941C260.092 144.745 260.288 144.646 260.485 144.45L260.682 144.253C261.075 142.09 261.468 139.828 261.862 137.665C262.255 135.206 262.55 132.551 262.943 129.601C263.238 126.651 263.435 124.586 263.632 123.013C263.73 121.735 263.828 120.653 264.222 116.228C264.32 114.556 264.32 113.081 264.222 111.606C264.025 110.131 263.73 108.656 263.238 107.28C262.255 104.526 261.272 101.675 260.19 98.7246C259.305 96.3646 258.223 93.6112 256.847 90.3662C256.552 89.6779 256.257 88.9896 255.962 88.4979C255.568 87.8096 255.175 87.1212 254.683 86.4329C254.29 86.2362 253.602 85.9412 252.52 85.5479C251.537 85.1546 250.75 84.8596 250.258 84.6629C249.472 84.3679 246.817 83.3846 244.26 82.4996C241.31 81.4179 238.36 80.4346 234.918 79.0579C233.64 78.5662 232.362 78.0746 230.887 77.2879C229.313 76.5012 227.838 75.7146 226.363 74.6329C223.61 72.6662 221.25 70.3062 219.578 67.6512C217.71 64.8979 216.53 61.6529 215.94 58.1129C215.645 56.4412 215.645 54.6712 215.842 52.9996C216.038 51.3279 216.432 49.7546 217.12 48.0829C217.808 46.4112 218.693 45.0346 219.873 43.7562C221.053 42.4779 222.43 41.4946 224.003 40.8062C225.183 40.2162 226.167 39.8229 227.15 39.5279H227.445C227.445 39.4296 227.74 39.3312 229.018 38.8396C229.412 38.7412 229.903 38.5446 230.395 38.3479C230.592 38.2496 230.788 38.0529 230.985 37.7579C231.673 37.0696 232.263 36.2829 232.755 35.4962C233.345 34.6112 233.935 33.5296 234.525 32.3496C235.312 30.8746 236 29.3996 236.787 28.1212C237.672 26.6462 238.655 25.2696 239.737 23.8929C241.507 21.6312 243.67 19.7629 246.03 18.3862C248.488 16.9112 251.242 16.0262 254.192 15.6329C255.863 15.4362 257.535 15.3379 259.108 15.3379C260.878 15.3379 262.452 15.5346 264.025 15.9279C265.795 16.3212 265.992 16.3212 266.287 16.3212C268.942 16.8129 271.597 17.3046 274.645 18.1896C276.317 18.6812 278.087 19.1729 279.66 19.8612C281.037 20.4512 282.315 21.1396 283.593 21.9262C286.15 22.6146 288.707 23.4012 291.165 24.4829C294.213 25.7612 297.163 27.4329 299.818 29.4979C301.097 30.4812 302.375 31.6612 303.555 32.9396C304.735 34.2179 305.817 35.5946 306.702 36.9712C308.373 39.5279 309.357 42.2812 309.553 45.1329C309.652 46.5096 309.553 47.8862 309.357 49.3612C309.553 49.3612 309.652 49.5579 309.848 49.5579C310.733 50.0496 311.618 50.4429 312.405 50.7379C312.995 50.9346 313.585 51.1312 314.077 51.2296C315.158 51.2296 316.24 51.2296 317.42 51.2296C320.272 51.2296 323.123 51.2296 326.368 50.9346C329.22 50.7379 332.072 50.5412 334.923 50.2462C337.677 49.9512 340.528 49.5579 343.577 49.1646C347.903 48.5746 352.23 48.3779 356.557 48.6729C360.883 48.9679 365.112 49.6562 369.34 50.8362C369.635 50.8362 370.028 51.0329 370.618 51.2296C370.815 51.2296 371.012 51.1312 371.307 51.0329C372.192 50.6396 373.077 50.2462 373.765 49.7546C374.453 49.2629 375.24 48.6729 375.928 47.9846C377.993 46.1162 379.763 44.0512 381.238 41.7896C382.713 39.5279 383.992 37.0696 385.073 34.4146C385.467 33.4312 385.86 32.4479 386.253 31.4646C386.548 30.4812 386.942 29.5962 387.138 28.7112C387.532 27.3346 388.122 25.8596 389.105 24.5812C390.285 22.9096 391.858 21.5329 394.12 20.5496C396.48 19.5662 398.84 19.2712 401.298 19.7629C403.855 20.2546 406.018 21.6312 407.788 23.7946C408.28 24.3846 408.673 24.9746 409.067 25.5646C409.46 26.0562 409.755 26.7446 410.148 27.5312C411.623 30.5796 412.607 33.6279 413.098 36.6762C413.59 39.7246 413.787 42.8712 413.59 46.0179C413.295 49.9512 412.508 53.7862 411.427 57.5229C410.345 60.9646 408.968 64.4062 407.297 67.7496C407.002 68.3396 406.215 70.0112 405.133 72.3712L402.97 77.0912C402.773 77.4846 402.675 77.7796 402.577 78.1729C402.577 78.2712 402.577 78.3696 402.577 78.3696C402.577 78.3696 402.577 78.3696 402.577 78.5662L403.757 81.1229C404.642 83.0896 405.527 85.1546 406.51 87.5146C407.69 90.5629 408.673 93.6112 409.263 96.8562C409.853 100.003 410.247 103.15 410.443 106.296C410.443 107.87 410.542 109.443 410.443 111.311C410.443 113.278 410.247 115.146 409.853 117.113C409.558 118.49 409.362 119.571 409.165 120.358C408.968 121.046 408.673 122.226 408.28 123.603C407.788 125.176 407.395 126.848 407.002 128.618C406.608 130.191 406.313 131.765 406.018 133.338V135.206C406.018 136.878 406.018 138.648 406.018 140.418C406.018 143.073 406.018 145.63 405.92 148.088C405.92 150.743 405.92 153.3 405.723 155.758C405.723 156.84 405.527 157.823 405.428 158.708C405.33 159.495 405.133 160.085 404.937 160.773C404.445 162.936 403.363 164.903 401.692 166.476C400.02 168.05 398.053 169.131 395.693 169.525H395.202C394.612 169.721 394.022 169.82 392.743 170.016C385.073 170.705 388.712 170.41 385.958 170.606C384.385 170.705 382.025 170.901 379.173 171.196C378.682 171.196 378.092 171.196 377.403 171.196C376.518 171.196 376.223 171.196 376.125 171.196C373.667 171 371.405 170.016 369.635 168.443C369.438 168.246 369.143 168.05 368.947 167.755C368.75 167.853 368.553 168.05 368.455 168.148C366.292 169.623 363.932 170.311 361.08 170.115C360.588 170.115 360.195 170.115 359.802 170.115C358.327 170.115 360.588 170.115 358.818 170.115C356.36 170.115 354.197 170.115 352.132 169.918C349.968 169.721 347.805 169.525 345.543 169.23C345.248 169.23 344.757 169.033 344.363 168.935H344.167C341.413 168.246 339.348 167.066 337.677 164.805C336.005 162.445 335.415 159.986 335.808 157.135C336.005 155.365 336.497 153.496 337.283 151.726C338.168 149.76 339.348 147.891 340.922 146.318C341.905 145.335 342.987 144.45 344.167 143.761C344.56 140.123 345.052 136.386 345.347 132.846C344.068 133.141 342.79 133.436 341.512 133.633C339.742 133.928 338.07 134.125 336.398 134.223C334.333 134.42 332.17 134.518 330.105 134.616C328.04 134.616 326.073 134.616 324.008 134.616C323.025 134.616 322.042 134.616 321.157 134.518L320.468 134.42Z" fill="black"/>
<path fill-rule="evenodd" clip-rule="evenodd" d="M311.028 121.636C311.323 127.34 311.618 133.043 311.815 138.746C311.913 142.188 312.012 145.63 312.11 149.071C312.11 151.333 312.307 153.595 312.405 155.856C312.405 156.84 312.405 157.823 312.405 158.708C312.405 159.495 311.717 160.085 310.733 160.281C309.455 160.576 308.078 160.773 306.8 160.97C303.26 161.461 299.622 162.051 296.082 162.543C296.082 162.543 295.885 162.543 295.787 162.543C293.722 162.641 292.345 161.461 292.148 159.396C292.05 157.921 292.345 156.545 293.23 155.365C294.312 153.791 295.59 152.611 297.065 151.431C298.048 150.645 298.147 150.448 297.753 149.268C295.295 141.598 293.328 133.731 291.853 125.766C291.46 123.898 291.165 122.03 290.772 120.161C290.772 119.866 290.772 119.67 290.673 119.375C290.673 118.49 290.673 118.195 291.558 117.998C293.623 117.506 295.688 116.916 297.753 116.523C301.293 115.835 304.833 115.245 308.373 114.655C308.963 114.655 309.455 114.556 310.045 114.458C310.832 114.458 311.323 114.753 311.422 115.54C311.422 115.933 311.422 116.326 311.422 116.72C311.422 118.293 311.323 119.866 311.225 121.44L311.028 121.636Z" fill="#CCCACB"/>
<path fill-rule="evenodd" clip-rule="evenodd" d="M358.032 161.363C354 161.363 350.067 161.068 346.035 160.478C345.838 160.478 345.642 160.478 345.445 160.38C344.167 160.085 343.773 159.495 343.872 158.315C344.167 156.151 344.855 154.185 346.428 152.71C347.51 151.726 348.69 150.94 350.067 150.546C351.148 150.251 351.64 149.563 351.837 148.481C352.722 140.91 353.705 133.338 354.098 125.668C354.295 122.915 354.59 120.161 354.787 117.506C354.787 116.916 354.787 116.326 354.787 115.736C354.787 115.343 354.787 115.048 354.885 114.655C355.082 113.573 355.672 113.18 356.753 113.475C358.13 113.77 359.507 114.261 360.883 114.556C365.013 115.638 369.143 116.621 373.273 117.703C373.962 117.9 374.748 117.9 375.437 118.096C376.42 118.293 376.617 118.588 376.42 119.473C376.027 121.046 375.535 122.521 375.043 124.095C373.175 130.486 371.307 136.78 369.34 143.171C367.865 147.891 366.193 152.611 364.62 157.331C364.325 158.118 364.03 158.806 363.735 159.495C363.145 160.773 362.162 161.56 360.687 161.461C359.802 161.461 358.818 161.461 357.835 161.461L358.032 161.363Z" fill="#CCCACB"/>
<path fill-rule="evenodd" clip-rule="evenodd" d="M370.225 125.176C368.16 124.881 366.095 124.488 364.128 123.701C361.375 122.62 358.72 121.44 356.458 119.571C355.77 119.08 355.278 119.08 354.59 119.473C351.148 121.145 347.608 122.62 343.97 123.701C341.02 124.586 337.972 124.98 334.923 125.275C331.088 125.57 327.352 125.668 323.517 125.57C315.748 125.373 308.275 123.996 300.998 121.44C300.31 121.145 299.622 120.85 298.737 120.555C297.458 123.111 296.082 125.668 295 128.323C293.328 132.453 291.853 136.583 290.378 140.713C289.198 144.155 288.313 147.695 287.133 151.038C285.953 154.48 284.675 157.823 283.495 161.166C283.495 161.265 283.397 161.461 283.298 161.56C282.413 163.428 281.627 163.92 279.562 163.625C276.612 163.33 273.662 163.035 270.81 162.641C269.04 162.445 267.27 162.15 265.5 161.756C264.517 161.56 263.632 161.068 262.747 160.576C261.468 159.79 261.075 158.61 261.37 157.135C261.763 155.561 262.55 154.381 263.632 153.3C264.32 152.611 265.107 152.021 265.893 151.333C266.483 150.841 266.975 150.448 267.565 149.858C268.155 149.268 268.548 148.481 268.745 147.596C269.827 141.991 270.712 136.485 271.4 130.781C271.892 126.258 272.285 121.735 272.678 117.211C273.072 112.885 272.678 108.755 271.203 104.625C269.138 98.7246 267.073 92.923 264.615 87.1213C263.828 85.253 262.747 83.483 261.567 81.713C260.682 80.3363 259.502 79.2546 257.928 78.6646C256.257 77.9763 254.585 77.1896 252.815 76.5996C247.702 74.7313 242.588 72.9613 237.573 71.093C235.312 70.208 233.05 69.2246 230.985 67.848C227.248 65.193 224.79 61.653 224.102 57.1296C223.807 55.3596 224.003 53.5896 224.692 51.918C225.183 50.738 226.068 49.853 227.15 49.263C228.035 48.8696 229.018 48.4763 229.903 48.1813C230.887 47.788 231.87 47.493 232.853 47.0996C234.525 46.608 235.705 45.5263 236.787 44.3463C238.95 42.0846 240.425 39.4296 241.802 36.6763C242.982 34.218 244.358 31.9563 246.03 29.793C248.292 26.9413 251.143 25.2696 254.782 24.778C257.142 24.483 259.403 24.5813 261.763 24.9746C265.107 25.663 268.45 26.1546 271.695 27.0396C274.547 27.8263 277.497 28.8096 279.66 30.973C281.135 32.5463 282.413 34.3163 283.593 36.0863C285.363 38.8396 287.133 41.6913 289.198 44.248C291.755 47.493 294.508 50.443 297.852 52.7046C300.31 54.3763 302.572 56.343 305.227 57.7196C307.488 58.8013 309.75 59.883 312.208 60.2763C312.503 60.2763 312.798 60.2763 313.192 60.2763C317.518 60.178 321.845 60.178 326.172 59.9813C332.17 59.6863 338.267 58.998 344.167 58.113C351.64 57.0313 359.113 57.523 366.39 59.4896C366.587 59.4896 366.882 59.588 367.078 59.6863C369.438 60.5713 371.7 60.2763 373.962 59.293C376.715 58.2113 379.173 56.638 381.435 54.573C386.548 49.853 390.187 44.248 392.743 37.758C393.628 35.5946 394.415 33.4313 395.005 31.1696C395.3 30.088 395.792 29.203 396.873 28.7113C398.053 28.2196 399.233 28.318 400.02 29.3996C400.512 29.9896 401.003 30.678 401.298 31.3663C403.462 35.7913 404.248 40.5113 403.855 45.5263C403.462 52.0163 401.298 58.113 398.447 63.9146C396.873 67.0613 395.398 70.208 393.923 73.3546C393.235 74.8296 392.645 76.3046 392.645 77.9763C392.645 79.353 392.645 80.6313 393.333 81.9096C394.612 84.8596 395.988 87.8096 397.267 90.858C399.332 95.9713 400.315 101.281 400.512 106.69C400.61 109.64 400.708 112.59 400.217 115.54C399.823 117.408 399.43 119.276 398.84 121.145C397.758 124.783 396.972 128.52 396.283 132.256C396.283 132.453 396.283 132.65 396.283 132.748C396.283 135.305 396.283 137.763 396.283 140.32C396.283 145.433 396.185 150.448 395.988 155.561C395.988 156.643 395.693 157.725 395.497 158.708C395.202 159.79 394.513 160.576 393.333 160.773C392.547 160.871 391.858 161.068 391.072 161.166C386.548 161.56 382.025 161.953 377.502 162.346C376.912 162.346 376.42 162.346 375.83 162.346C374.748 162.346 373.962 161.56 373.765 160.478C373.273 158.02 373.765 155.856 375.142 153.791C375.732 152.808 376.518 151.923 377.305 151.038C377.895 150.35 377.993 149.76 377.698 148.973C374.748 141.598 372.388 133.928 370.323 126.258C370.225 125.865 370.127 125.471 369.93 125.078L370.225 125.176Z" fill="white"/>
<path fill-rule="evenodd" clip-rule="evenodd" d="M293.033 60.6699C289.198 64.7016 285.658 67.6516 281.627 69.8149C278.283 71.5849 274.743 72.1749 271.007 71.4866C268.155 70.8966 266.188 69.1266 264.91 66.6683C263.337 63.4233 263.042 59.9816 263.238 56.5399C263.533 52.0166 264.812 47.6899 266.385 43.5599C267.565 40.6099 268.647 37.5616 270.318 34.8083C271.4 32.9399 272.875 31.4649 274.842 30.4816C276.808 29.4983 278.873 29.4983 280.938 29.9899C286.052 31.1699 290.968 33.0383 295.197 36.2833C297.065 37.7583 298.737 39.4299 300.015 41.4949C301.687 44.0516 301.982 46.9033 300.703 49.7549C299.622 52.3116 297.95 54.5733 296.377 56.7366C295.197 58.4083 293.82 59.8833 293.132 60.7683L293.033 60.6699Z" fill="black"/>
<path fill-rule="evenodd" clip-rule="evenodd" d="M241.802 65.1929C243.473 65.1929 245.145 64.5045 246.62 63.3245C246.915 63.1279 247.21 62.8329 247.505 62.6362C247.8 62.6362 248.193 62.6362 248.39 62.7345C248.587 62.9312 248.587 63.3245 248.488 63.6195C248.488 63.9145 248.095 64.1112 247.898 64.4062C245.145 66.8645 241.998 67.4545 238.557 66.5695C235.803 65.8812 233.837 64.2095 232.165 62.0462C231.673 61.4562 231.378 60.6695 231.182 59.8829C230.985 59.0962 230.493 58.5062 229.805 58.2112C228.428 57.5229 227.445 56.5395 226.363 55.4579C225.675 54.7695 225.282 53.7862 225.183 52.8029C225.085 51.2295 225.675 49.9512 227.052 49.1645C228.723 48.2795 230.493 47.9845 232.362 48.5745C234.623 49.1645 236.492 50.3445 237.967 52.1145C238.95 53.2945 239.442 54.5729 238.95 56.1462C238.458 57.8179 237.18 58.8012 235.312 58.9979C234.918 58.9979 234.525 58.9979 234.132 58.9979C233.05 58.9979 232.558 59.7845 233.148 60.7679C233.64 61.4562 234.132 62.0462 234.722 62.6362C236.492 64.4062 238.753 65.2912 241.605 65.2912L241.802 65.1929Z" fill="black"/>
<path fill-rule="evenodd" clip-rule="evenodd" d="M33.8266 133.633C34.4166 131.961 33.925 128.814 33.7283 125.569C33.63 124.389 33.5316 122.914 33.63 121.636C20.5516 119.669 10.4233 137.861 26.0583 136.779C27.435 136.779 29.3033 136.288 30.4833 135.796L33.8266 133.633Z" fill="#CCCACB"/>
<path fill-rule="evenodd" clip-rule="evenodd" d="M136.585 140.91C137.568 137.37 142.583 134.42 147.697 131.666C150.45 136.485 157.137 140.221 162.643 139.14C176.607 136.583 176.312 120.85 178.18 118.981C179.163 118.096 191.062 111.705 193.422 110.426C195.88 109.05 198.633 107.476 200.993 106.1C204.042 104.526 206.5 103.641 205.812 99.118C202.173 97.053 201.583 97.938 197.748 100.003C192.143 103.051 179.655 110.721 175.623 112C173.558 105.215 170.313 103.051 166.282 99.0196C173.657 98.823 178.672 94.0047 182.802 88.793C185.162 85.843 187.915 86.3347 190.472 83.0897C192.34 80.828 194.11 78.3697 195.782 75.6163C206.992 57.7197 196.962 51.033 181.13 46.4113C175.427 44.7397 177.492 43.2647 173.853 40.3147C167.363 35.103 155.268 30.088 145.632 29.498C127.44 28.5147 118.393 36.283 111.51 47.0013L105.512 54.4747C100.792 60.768 98.6283 63.5213 95.285 70.9947C90.6633 81.2213 95.1866 77.4847 90.9583 79.1563C83.78 82.008 52.1166 81.713 41.6933 82.008C27.2383 82.303 11.21 89.4813 3.73664 96.0696C-2.06503 101.085 -3.24503 117.605 17.5033 113.475L25.075 111.606C26.6483 111.41 26.0583 111.41 26.845 111.803C25.665 114.065 24.485 113.77 22.0266 115.146C13.865 118.981 4.81831 129.405 11.1116 138.648C18.1916 148.776 35.4983 144.351 33.2366 145.433C29.1066 153.3 32.9416 163.723 44.7416 166.87C57.9183 170.41 77.4866 167.755 68.3416 152.513C65.8833 149.268 64.015 148.776 61.655 147.99C74.2416 149.17 85.55 144.253 87.8116 140.025C98.3333 141.696 94.695 142.483 107.085 142.286L107.38 148.285C108.953 153.988 106.003 160.675 121.638 164.313C132.062 166.87 140.027 164.706 144.058 161.363C150.548 155.856 145.927 143.565 136.683 140.91H136.585ZM145.533 107.083C145.73 106.886 145.927 106.788 146.123 106.69L147.795 105.805C151.04 104.723 158.022 105.411 161.07 106.69C165.298 108.46 167.56 112.688 167.855 118.588C168.642 132.06 154.875 136.386 150.745 122.423C146.615 124.291 143.468 127.34 137.863 128.323C132.652 128.815 132.455 131.371 131.078 136.091C129.898 140.025 128.817 143.565 128.128 147.793H133.537C132.947 149.366 132.455 149.17 130.488 150.35C128.915 151.235 129.21 154.086 127.833 155.07C125.375 156.938 122.818 155.561 121.245 158.118C113.968 154.086 116.82 148.776 114.362 132.551C108.855 132.846 104.037 134.125 98.0383 133.338C93.22 132.65 89.385 130.781 83.5833 130.388L82.4033 132.06C80.83 135.698 77.1916 139.631 73.3566 141.5C70.0133 143.073 65.2933 142.68 61.7533 141.5L58.6066 139.73C56.5416 142.385 53.985 143.761 52.9033 147.301L38.94 144.155C38.1533 141.893 38.35 132.158 36.6783 131.47L30.385 135.6C29.205 136.091 27.3366 136.485 25.96 136.583C10.325 137.763 20.4533 119.473 33.5316 121.44C37.6616 103.15 41.3983 103.838 43.365 98.3313C26.55 99.413 18.1916 106.493 8.65331 105.215C9.83331 99.9047 21.7316 95.3813 26.55 93.6113C37.9566 89.4813 64.9 90.6613 79.1583 89.8747C89.1883 89.383 94.3016 86.3347 102.365 85.0563C111.805 94.4963 118.983 107.476 133.93 97.938C150.352 87.613 130.587 70.1097 133.537 61.1613C138.355 46.1163 128.128 47.0997 118.688 52.1147C124.49 40.118 138.847 35.0047 155.563 40.6097C159.792 42.0847 161.07 43.363 164.315 45.2313C169.723 48.2797 167.757 47.2963 171.1 51.8197C172.87 54.1797 185.752 56.933 189.685 59.588C184.67 60.178 176.017 61.358 175.623 67.4547C183.293 70.798 187.915 69.7163 191.16 62.0463C191.357 67.848 185.752 75.3213 182.802 77.7797C180.54 79.648 180.54 78.9597 178.377 80.0413C175.23 81.713 177.492 80.238 175.525 83.188C165.79 97.7413 159.595 83.188 151.04 88.9897C146.91 91.8413 142.78 100.495 145.337 106.788L145.533 107.083Z" fill="black"/>
<path fill-rule="evenodd" clip-rule="evenodd" d="M156.94 83.6793C151.63 83.0893 151.728 76.4026 151.827 70.9943C154.285 71.3876 158.218 73.846 161.168 75.026C163.823 76.0093 168.15 76.8943 170.018 78.6643C167.363 80.5326 161.758 84.3676 156.94 83.6793ZM149.27 55.0643C152.023 55.0643 152.908 57.4243 151.532 60.4726C147.893 60.1776 146.91 57.326 149.27 55.0643ZM161.66 50.7376C165.102 49.8526 166.183 52.606 164.315 55.6543C160.873 55.1626 160.578 53.6876 161.66 50.7376ZM37.5633 144.154L40.8083 156.446C41.3983 161.854 44.6433 161.166 51.035 162.641C69.325 166.771 65.195 145.728 51.2316 152.906C52.3133 149.268 56.5416 142.679 58.6066 139.926C68.5383 126.553 65.49 130.191 81.715 130.191C84.2716 135.108 80.4366 129.896 82.5016 132.256L83.6816 130.584C89.4833 130.978 93.3183 132.846 98.1366 133.534C104.037 134.321 108.953 133.043 114.46 132.748C116.918 148.973 114.067 154.283 121.343 158.314C144.747 164.903 143.862 143.368 128.227 147.989C129.013 143.663 129.997 140.123 131.177 136.288C132.553 131.568 132.75 129.011 137.962 128.519C136.683 125.569 139.043 125.864 141.993 118.096C145.14 109.738 143.075 107.869 146.812 107.279H145.533C142.977 100.888 147.107 92.2343 151.237 89.3826C159.792 83.4826 166.085 98.1343 175.722 83.581C177.688 80.631 175.427 82.106 178.573 80.4343C180.835 79.2543 180.835 80.041 182.998 78.1726C185.948 75.7143 191.553 68.241 191.357 62.4393C188.112 70.1093 183.49 71.191 175.82 67.8476C176.213 61.751 184.867 60.571 189.882 59.981C185.948 57.326 173.067 54.5726 171.297 52.2126C168.052 47.6893 169.92 48.6726 164.512 45.6243C161.267 43.756 159.988 42.4776 155.76 41.0026C139.043 35.3976 124.687 40.511 118.885 52.5076C128.325 47.4926 138.552 46.5093 133.635 61.5543C130.685 70.5026 150.45 88.006 134.028 98.331C118.983 107.869 111.805 94.8893 102.463 85.4493C94.3016 86.7276 89.2866 89.776 79.2566 90.2676C64.9983 91.0543 38.055 89.8743 26.6483 94.0043C21.9283 95.7743 9.93165 100.298 8.75165 105.608C18.29 106.788 26.6483 99.806 43.4633 98.7243C34.22 107.869 27.3366 117.703 37.5633 144.253V144.154Z" fill="white"/>
<path fill-rule="evenodd" clip-rule="evenodd" d="M214.662 109.738C214.465 104.821 216.137 107.968 219.48 104.133C221.84 101.478 220.66 100.298 223.61 98.7248C227.052 102.56 219.283 109.443 214.662 109.738ZM200.108 110.426C201.092 114.261 204.14 121.44 209.057 118.981C224.692 111.41 232.165 105.706 232.558 84.2698C212.793 73.8464 206.303 76.8948 188.8 88.3014C188.603 91.8414 191.357 96.9548 194.012 99.3148C198.043 97.0531 205.418 92.1364 208.27 98.5281C211.712 106.001 203.55 107.575 200.108 110.525V110.426Z" fill="black"/>
<path fill-rule="evenodd" clip-rule="evenodd" d="M145.533 107.083H146.812C142.977 107.771 145.14 109.64 141.993 117.998C139.043 125.865 136.683 125.471 137.962 128.421C143.567 127.438 146.713 124.39 150.843 122.521C154.973 136.485 168.74 132.158 167.953 118.686C167.658 112.786 165.397 108.558 161.168 106.788C158.12 105.51 151.138 104.821 147.893 105.903L146.222 106.788C146.025 106.788 145.828 106.985 145.632 107.181L145.533 107.083Z" fill="#CCCACB"/>
<path fill-rule="evenodd" clip-rule="evenodd" d="M58.6066 139.828L61.7533 141.598C65.3916 142.778 70.0133 143.172 73.3566 141.598C78.5683 139.14 82.01 134.125 83.5833 130.487C83.0916 130.29 82.5016 130.29 81.715 130.093C65.3916 130.093 68.5383 126.455 58.6066 139.828Z" fill="#CCCACB"/>
<path fill-rule="evenodd" clip-rule="evenodd" d="M169.92 78.5665C168.052 76.7965 163.725 75.9115 161.07 74.9281C158.12 73.7481 154.187 71.2898 151.728 70.8965C151.63 76.3048 151.532 82.9915 156.842 83.5815C161.66 84.1715 167.265 80.4348 169.92 78.5665Z" fill="black"/>
<path fill-rule="evenodd" clip-rule="evenodd" d="M214.662 109.738C219.283 109.443 227.15 102.56 223.61 98.7246C220.66 100.298 221.84 101.478 219.48 104.133C216.137 107.968 214.367 104.821 214.662 109.738Z" fill="white"/>
<path fill-rule="evenodd" clip-rule="evenodd" d="M149.27 55.0645C146.812 57.3261 147.893 60.1778 151.532 60.4728C152.908 57.4245 152.023 55.0645 149.27 55.0645Z" fill="black"/>
<path fill-rule="evenodd" clip-rule="evenodd" d="M161.562 50.7381C160.48 53.6881 160.677 55.0647 164.217 55.6547C166.085 52.7047 165.102 49.8531 161.562 50.7381Z" fill="black"/>
<path fill-rule="evenodd" clip-rule="evenodd" d="M194.503 12.093C153.892 -6.49203 158.218 48.083 208.565 42.8713C238.95 -4.0337 200.403 -9.44203 194.503 12.093Z" fill="#D11D1D"/>
<path fill-rule="evenodd" clip-rule="evenodd" d="M213.875 23.5982C223.905 2.65316 206.402 -0.395177 203.845 9.04482C212.4 4.71816 217.808 11.0115 213.875 23.5982Z" fill="white"/>
<path fill-rule="evenodd" clip-rule="evenodd" d="M252.618 44.0518C250.455 46.2151 249.963 47.6901 252.913 49.6568C255.863 47.7884 256.158 44.7401 252.618 44.0518Z" fill="black"/>
</g>
</g>
</g>
<defs>
<clipPath id="clip0_462_12">
<rect width="413" height="172.67" fill="white"/>
</clipPath>
<clipPath id="clip1_462_12">
<rect width="413" height="172.67" fill="white"/>
</clipPath>
<clipPath id="clip2_462_12">
<rect width="413" height="172.673" fill="white" transform="translate(0 -0.00195312)"/>
</clipPath>
</defs>
</svg>
