<svg width="71" height="71" viewBox="0 0 71 71" fill="none" xmlns="http://www.w3.org/2000/svg">
<path fill-rule="evenodd" clip-rule="evenodd" d="M52.7572 34.4011C54.4103 35.5794 55.9511 36.9077 57.3603 38.369C57.5878 38.564 56.5734 39.476 55.7156 40.5946C53.7075 39.3351 51.075 41.845 53.3224 43.8564C52.3838 44.9851 52.9806 43.9923 51.6552 45.5878C50.3415 44.2474 47.6765 46.1196 49.3704 48.3236C48.5368 49.5398 47.8616 50.0116 46.6129 51.9005C44.9416 51.9005 45.3917 47.9977 43.6762 54.2562C42.926 56.9812 41.3747 58.8159 37.9937 60.894C37.4668 59.5319 34.2267 58.8859 33.4673 61.7784C32.3386 61.7951 31.5401 62.0985 30.1997 62.061C29.8662 59.206 26.3077 59.8412 25.6458 61.5234C24.5622 61.2358 21.0269 60.6006 21.2278 60.1505C21.5485 59.0681 21.7969 57.9656 21.9714 56.8503C23.2418 55.9442 25.5316 56.0092 25.7975 58.2774C27.1438 58.3157 27.9357 58.0056 29.0652 57.9948C29.8254 55.1015 33.0664 55.7441 33.5915 57.1104C36.9784 55.0264 38.5255 53.1926 39.274 50.4667C40.9945 44.2149 40.5444 48.1169 42.2157 48.1169C43.4661 46.223 44.133 45.7503 44.9732 44.54C43.2794 42.331 45.9394 40.4554 47.2531 41.7992C48.5868 40.2087 47.9858 41.2023 48.9244 40.0678C46.6737 38.0672 49.3095 35.5465 51.3176 36.806C52.1695 35.6932 53.1898 34.7812 52.9623 34.5862C52.8973 34.5262 52.8264 34.467 52.7564 34.402L52.7572 34.4011Z" fill="#CCCACB"/>
<path d="M27.3505 15.7455C22.3187 16.5697 17.628 18.8168 13.8324 22.2213C10.0368 25.6258 7.29482 30.0455 5.93043 34.9583C4.56604 39.8712 4.63621 45.0719 6.13266 49.9461C7.62911 54.8203 10.4893 59.1644 14.3754 62.4653C18.2615 65.7662 23.0112 67.8859 28.0633 68.574C33.1154 69.2622 38.2589 68.49 42.8863 66.3487C47.5137 64.2075 51.4315 60.7866 54.1771 56.4902C56.9227 52.1937 58.3813 47.2013 58.3805 42.1025" stroke="black" stroke-width="2.50074" stroke-miterlimit="22.926" stroke-linecap="round" stroke-linejoin="round"/>
<path fill-rule="evenodd" clip-rule="evenodd" d="M48.3117 30.5082C45.8801 32.448 37.7402 42.1025 36.7724 44.9025C35.9096 47.4099 35.041 50.8785 32.5495 51.9638C31.4854 52.5121 30.3619 52.9364 29.201 53.2283C27.2471 53.8035 21.4828 53.2883 19.4531 52.8866C18.5953 52.7132 17.1574 53.1416 17.6617 50.6717C18.4544 46.7906 33.1847 46.8181 25.0106 34.7303C23.5101 32.5047 19.2513 28.9386 22.128 27.3056C23.4418 26.5554 27.1537 25.27 28.3157 26.958C28.5925 27.3598 29.8995 31.897 30.483 32.7172C31.0257 33.4825 29.8645 29.3304 31.2591 28.3476C34.5317 26.0411 31.8943 22.5017 34.6076 21.2538C36.0622 20.5869 43.6011 27.6857 46.2444 28.9394C46.9823 29.3924 47.6732 29.9179 48.3067 30.5082H48.3117Z" stroke="black" stroke-width="2.50074" stroke-miterlimit="22.926" stroke-linecap="round" stroke-linejoin="round"/>
<path d="M48.3117 30.509C50.3524 31.7736 51.802 33.4999 52.9631 34.5102C53.1907 34.7053 52.1704 35.6172 51.3185 36.73C49.3104 35.4705 46.6721 37.9896 48.9253 39.9977C47.9867 41.1264 48.5835 40.1336 47.2539 41.724C45.9402 40.3836 43.2811 42.2559 44.9741 44.4649C44.133 45.681 43.4653 46.1479 42.2166 48.0417C40.5453 48.0417 40.9954 44.1389 39.2749 50.3916C38.5247 53.1216 36.9792 54.9563 33.5924 57.0353C33.0655 55.6732 29.8254 55.0272 29.066 57.9197C27.9374 57.9305 27.1446 58.2398 25.7984 58.2023C25.465 55.3423 21.9122 55.9824 21.2445 57.6646C20.17 57.3712 16.6307 56.7368 16.8265 56.2859C17.2825 55.2547 17.4401 52.904 17.7818 52.4156" stroke="black" stroke-width="2.50074" stroke-miterlimit="22.926" stroke-linecap="round" stroke-linejoin="round"/>
<path d="M30.8181 37.2119C29.1952 37.6679 27.7189 38.7482 26.0309 38.7482" stroke="black" stroke-width="2.50074" stroke-miterlimit="22.926" stroke-linecap="round" stroke-linejoin="round"/>
<path d="M31.2958 42.0808C29.7653 42.0808 28.1473 41.9341 26.4435 41.9341" stroke="black" stroke-width="2.50074" stroke-miterlimit="22.926" stroke-linecap="round" stroke-linejoin="round"/>
<path fill-rule="evenodd" clip-rule="evenodd" d="M58.3805 18.3513C58.3742 20.4151 57.5515 22.3926 56.0922 23.8519C54.6328 25.3113 52.6554 26.1339 50.5916 26.1403C52.6554 26.1467 54.6328 26.9694 56.0922 28.4287C57.5515 29.888 58.3742 31.8655 58.3805 33.9293C58.386 31.8652 59.2084 29.8872 60.668 28.4277C62.1275 26.9682 64.1054 26.1458 66.1695 26.1403C64.1054 26.1348 62.1275 25.3124 60.668 23.8529C59.2084 22.3934 58.386 20.4154 58.3805 18.3513Z" stroke="black" stroke-width="2.50074" stroke-miterlimit="22.926" stroke-linecap="round" stroke-linejoin="round"/>
<path fill-rule="evenodd" clip-rule="evenodd" d="M49.1153 6.78955C49.1105 8.24918 48.5285 9.64764 47.4964 10.6798C46.4643 11.7119 45.0658 12.2939 43.6062 12.2987C45.0658 12.3035 46.4643 12.8855 47.4964 13.9176C48.5285 14.9497 49.1105 16.3482 49.1153 17.8078C49.1189 16.3491 49.6994 14.951 50.7302 13.9188C51.7609 12.8866 53.1582 12.3042 54.617 12.2987C53.1582 12.2932 51.7609 11.7108 50.7302 10.6786C49.6994 9.64638 49.1189 8.24829 49.1153 6.78955Z" stroke="black" stroke-width="2.50074" stroke-miterlimit="22.926" stroke-linecap="round" stroke-linejoin="round"/>
<path fill-rule="evenodd" clip-rule="evenodd" d="M33.4998 1.31873C33.4934 3.38253 32.6708 5.35999 31.2114 6.81933C29.7521 8.27867 27.7746 9.10133 25.7108 9.10771C27.774 9.11298 29.7512 9.9345 31.2106 11.3928C32.67 12.8511 33.493 14.8277 33.4998 16.8909C33.5053 14.8283 34.3271 12.8519 35.7855 11.3934C37.2439 9.93499 39.2204 9.11321 41.283 9.10771C39.2198 9.10089 37.2432 8.27789 35.7849 6.81848C34.3266 5.35907 33.5051 3.38186 33.4998 1.31873Z" stroke="black" stroke-width="2.50074" stroke-miterlimit="22.926" stroke-linecap="round" stroke-linejoin="round"/>
</svg>
