<svg width="331" height="60" viewBox="0 0 331 60" fill="none" xmlns="http://www.w3.org/2000/svg">
<g clip-path="url(#clip0_1_682)">
<g clip-path="url(#clip1_1_682)">
<g clip-path="url(#clip2_1_682)">
<path fill-rule="evenodd" clip-rule="evenodd" d="M43.8564 55.8926C41.3625 54.2789 38.8686 52.812 36.3748 51.1983C35.0545 50.1714 33.4408 50.0247 31.9738 50.9049C30.9469 51.4917 29.7733 51.9318 28.7464 52.5186C25.519 54.2789 22.4383 56.186 19.2109 57.9464C18.0374 58.5332 16.7171 58.9733 15.5435 59.4134C10.8491 61.0271 18.6242 42.8364 19.5043 40.9293C17.5973 39.1689 15.8369 37.2618 13.9298 35.3547C12.1694 33.5943 6.74151 26.1127 11.876 25.6726C16.8638 25.2325 21.5581 25.2325 26.5459 25.2325C27.5728 23.1787 28.453 21.2716 29.4799 19.3645C30.5068 17.3107 31.5337 15.2569 32.7073 13.3499C35.788 8.36208 38.4286 7.92198 41.3625 13.6432C42.3894 15.5503 43.1229 17.6041 44.0031 19.5112C44.5899 20.8315 45.3234 22.1518 45.9102 23.4721C46.2036 24.2056 46.9371 24.6457 47.6706 24.6457C55.1523 25.6726 65.5679 24.6457 57.7929 33.1543C55.7391 35.5014 53.3919 37.5552 51.3381 39.7557C48.6975 42.543 49.2843 41.3694 49.8711 45.0369C50.3112 48.2643 51.1914 51.6384 51.6315 54.8657C52.9518 64.1078 48.2574 58.8266 43.8564 56.0393V55.8926Z" fill="#CCCACB"/>
<path fill-rule="evenodd" clip-rule="evenodd" d="M36.2281 48.7043C33.7342 47.0906 31.2403 45.6236 28.7464 44.0099C27.4261 42.983 25.8124 42.8363 24.3454 43.7165C23.3185 44.3033 22.1449 44.7434 21.118 45.3302C17.8907 47.0906 14.81 48.9977 11.5826 50.7581C10.409 51.3449 9.0887 51.785 7.91511 52.2251C3.22073 53.8388 10.9958 35.6481 11.876 33.741C9.9689 31.9806 8.20851 30.0735 6.30142 28.1664C4.54103 26.406 -0.886846 18.9243 4.24763 18.4842C9.2354 18.0442 13.9298 18.0442 18.9176 18.0442C19.9444 15.9904 20.8246 14.0833 21.8515 12.1762C22.8784 10.1224 23.9053 8.0686 25.0789 6.16151C28.1596 1.02704 30.8002 0.733637 33.7342 6.45491C34.7611 8.362 35.4946 10.2691 36.3748 12.3229C36.9616 13.6432 37.6951 14.9635 38.2819 16.2838C38.5753 17.0173 39.3088 17.4574 40.0422 17.4574C47.5239 18.4842 57.9396 17.4574 50.1645 25.9659C48.1107 28.3131 45.7635 30.3669 43.7097 32.5674C41.0691 35.3547 41.6559 34.1811 42.2427 37.8485C42.6828 41.0759 43.563 44.45 44.0031 47.6774C45.3234 56.9195 40.629 51.6383 36.2281 48.851V48.7043Z" fill="#487F04" stroke="black" stroke-width="4.40098" stroke-linejoin="round"/>
<path fill-rule="evenodd" clip-rule="evenodd" d="M111.338 55.8926C108.844 54.2789 106.35 52.812 103.856 51.1983C102.536 50.1714 100.922 50.0247 99.4555 50.9049C98.4286 51.4917 97.255 51.9318 96.2281 52.5186C93.0007 54.2789 89.92 56.186 86.6926 57.9464C85.519 58.5332 84.1987 58.9733 83.0252 59.4134C78.3308 61.0271 86.1058 42.8364 86.986 40.9293C85.0789 39.1689 83.3186 37.2618 81.4115 35.3547C79.6511 33.5943 74.2232 26.1127 79.3577 25.6726C84.3454 25.2325 89.0398 25.2325 94.0276 25.2325C95.0545 23.1787 95.9347 21.2716 96.9616 19.3645C97.9885 17.3107 99.0154 15.2569 100.189 13.3499C103.27 8.36208 105.91 7.92198 108.844 13.6432C109.871 15.5503 110.605 17.6041 111.485 19.5112C112.072 20.8315 112.805 22.1518 113.392 23.4721C113.685 24.2056 114.419 24.6457 115.152 24.6457C122.634 25.6726 133.05 24.6457 125.275 33.1543C123.221 35.5014 120.874 37.5552 118.82 39.7557C116.179 42.543 116.766 41.3694 117.353 45.0369C117.793 48.2643 118.673 51.6384 119.113 54.8657C120.433 64.1078 115.739 58.8266 111.338 56.0393V55.8926Z" fill="#CCCACB"/>
<path fill-rule="evenodd" clip-rule="evenodd" d="M103.71 48.7043C101.216 47.0906 98.722 45.6236 96.2281 44.0099C94.9078 42.983 93.2941 42.8363 91.8271 43.7165C90.8002 44.3033 89.6266 44.7434 88.5997 45.3302C85.3723 47.0906 82.2917 48.9977 79.0643 50.7581C77.8907 51.3449 76.5704 51.785 75.3968 52.2251C70.7024 53.8388 78.4775 35.6481 79.3577 33.741C77.4506 31.9806 75.6902 30.0735 73.7831 28.1664C72.0227 26.406 66.5948 18.9243 71.7293 18.4842C76.7171 18.0442 81.4115 18.0442 86.3992 18.0442C87.4261 15.9904 88.3063 14.0833 89.3332 12.1762C90.3601 10.1224 91.387 8.0686 92.5606 6.16151C95.6413 1.02704 98.2819 0.733637 101.216 6.45491C102.243 8.362 102.976 10.2691 103.856 12.3229C104.443 13.6432 105.177 14.9635 105.764 16.2838C106.057 17.0173 106.79 17.4574 107.524 17.4574C115.006 18.4842 125.421 17.4574 117.646 25.9659C115.592 28.3131 113.245 30.3669 111.191 32.5674C108.551 35.3547 109.138 34.1811 109.724 37.8485C110.165 41.0759 111.045 44.45 111.485 47.6774C112.805 56.9195 108.111 51.6383 103.71 48.851V48.7043Z" fill="#487F04" stroke="black" stroke-width="4.40098" stroke-linejoin="round"/>
<path fill-rule="evenodd" clip-rule="evenodd" d="M178.82 55.8926C176.326 54.2789 173.832 52.812 171.338 51.1983C170.018 50.1714 168.404 50.0247 166.937 50.9049C165.91 51.4917 164.737 51.9318 163.71 52.5186C160.482 54.2789 157.402 56.186 154.174 57.9464C153.001 58.5332 151.68 58.9733 150.507 59.4134C145.812 61.0271 153.587 42.8364 154.468 40.9293C152.561 39.1689 150.8 37.2618 148.893 35.3547C147.133 33.5943 141.705 26.1127 146.839 25.6726C151.827 25.2325 156.521 25.2325 161.509 25.2325C162.536 23.1787 163.416 21.2716 164.443 19.3645C165.47 17.3107 166.497 15.2569 167.671 13.3499C170.751 8.36208 173.392 7.92198 176.326 13.6432C177.353 15.5503 178.086 17.6041 178.966 19.5112C179.553 20.8315 180.287 22.1518 180.873 23.4721C181.167 24.2056 181.9 24.6457 182.634 24.6457C190.116 25.6726 200.531 24.6457 192.756 33.1543C190.702 35.5014 188.355 37.5552 186.301 39.7557C183.661 42.543 184.248 41.3694 184.834 45.0369C185.274 48.2643 186.155 51.6384 186.595 54.8657C187.915 64.1078 183.221 58.8266 178.82 56.0393V55.8926Z" fill="#CCCACB"/>
<path fill-rule="evenodd" clip-rule="evenodd" d="M171.191 48.7043C168.697 47.0906 166.204 45.6236 163.71 44.0099C162.389 42.983 160.776 42.8363 159.309 43.7165C158.282 44.3033 157.108 44.7434 156.081 45.3302C152.854 47.0906 149.773 48.9977 146.546 50.7581C145.372 51.3449 144.052 51.785 142.878 52.2251C138.184 53.8388 145.959 35.6481 146.839 33.741C144.932 31.9806 143.172 30.0735 141.265 28.1664C139.504 26.406 134.076 18.9243 139.211 18.4842C144.199 18.0442 148.893 18.0442 153.881 18.0442C154.908 15.9904 155.788 14.0833 156.815 12.1762C157.842 10.1224 158.869 8.0686 160.042 6.16151C163.123 1.02704 165.763 0.733637 168.697 6.45491C169.724 8.362 170.458 10.2691 171.338 12.3229C171.925 13.6432 172.658 14.9635 173.245 16.2838C173.539 17.0173 174.272 17.4574 175.006 17.4574C182.487 18.4842 192.903 17.4574 185.128 25.9659C183.074 28.3131 180.727 30.3669 178.673 32.5674C176.032 35.3547 176.619 34.1811 177.206 37.8485C177.646 41.0759 178.526 44.45 178.966 47.6774C180.287 56.9195 175.592 51.6383 171.191 48.851V48.7043Z" fill="#487F04" stroke="black" stroke-width="4.40098" stroke-linejoin="round"/>
<path fill-rule="evenodd" clip-rule="evenodd" d="M246.301 55.8926C243.807 54.2789 241.314 52.812 238.82 51.1983C237.499 50.1714 235.886 50.0247 234.419 50.9049C233.392 51.4917 232.218 51.9318 231.191 52.5186C227.964 54.2789 224.883 56.186 221.656 57.9464C220.482 58.5332 219.162 58.9733 217.988 59.4134C213.294 61.0271 221.069 42.8364 221.949 40.9293C220.042 39.1689 218.282 37.2618 216.375 35.3547C214.614 33.5943 209.186 26.1127 214.321 25.6726C219.309 25.2325 224.003 25.2325 228.991 25.2325C230.018 23.1787 230.898 21.2716 231.925 19.3645C232.952 17.3107 233.979 15.2569 235.152 13.3499C238.233 8.36208 240.873 7.92198 243.807 13.6432C244.834 15.5503 245.568 17.6041 246.448 19.5112C247.035 20.8315 247.768 22.1518 248.355 23.4721C248.649 24.2056 249.382 24.6457 250.116 24.6457C257.597 25.6726 268.013 24.6457 260.238 33.1543C258.184 35.5014 255.837 37.5552 253.783 39.7557C251.142 42.543 251.729 41.3694 252.316 45.0369C252.756 48.2643 253.636 51.6384 254.076 54.8657C255.397 64.1078 250.702 58.8266 246.301 56.0393V55.8926Z" fill="#CCCACB"/>
<path fill-rule="evenodd" clip-rule="evenodd" d="M238.673 48.7043C236.179 47.0906 233.685 45.6236 231.191 44.0099C229.871 42.983 228.257 42.8363 226.79 43.7165C225.763 44.3033 224.59 44.7434 223.563 45.3302C220.336 47.0906 217.255 48.9977 214.028 50.7581C212.854 51.3449 211.534 51.785 210.36 52.2251C205.666 53.8388 213.441 35.6481 214.321 33.741C212.414 31.9806 210.653 30.0735 208.746 28.1664C206.986 26.406 201.558 18.9243 206.693 18.4842C211.68 18.0442 216.375 18.0442 221.362 18.0442C222.389 15.9904 223.27 14.0833 224.296 12.1762C225.323 10.1224 226.35 8.0686 227.524 6.16151C230.605 1.02704 233.245 0.733637 236.179 6.45491C237.206 8.362 237.94 10.2691 238.82 12.3229C239.407 13.6432 240.14 14.9635 240.727 16.2838C241.02 17.0173 241.754 17.4574 242.487 17.4574C249.969 18.4842 260.385 17.4574 252.609 25.9659C250.556 28.3131 248.208 30.3669 246.155 32.5674C243.514 35.3547 244.101 34.1811 244.688 37.8485C245.128 41.0759 246.008 44.45 246.448 47.6774C247.768 56.9195 243.074 51.6383 238.673 48.851V48.7043Z" fill="#487F04" stroke="black" stroke-width="4.40098" stroke-linejoin="round"/>
<path fill-rule="evenodd" clip-rule="evenodd" d="M313.783 55.8926C311.289 54.2789 308.795 52.812 306.301 51.1983C304.981 50.1714 303.367 50.0247 301.9 50.9049C300.873 51.4917 299.7 51.9318 298.673 52.5186C295.446 54.2789 292.365 56.186 289.137 57.9464C287.964 58.5332 286.644 58.9733 285.47 59.4134C280.776 61.0271 288.551 42.8364 289.431 40.9293C287.524 39.1689 285.763 37.2618 283.856 35.3547C282.096 33.5943 276.668 26.1127 281.803 25.6726C286.79 25.2325 291.485 25.2325 296.472 25.2325C297.499 23.1787 298.38 21.2716 299.406 19.3645C300.433 17.3107 301.46 15.2569 302.634 13.3499C305.714 8.36208 308.355 7.92198 311.289 13.6432C312.316 15.5503 313.049 17.6041 313.93 19.5112C314.516 20.8315 315.25 22.1518 315.837 23.4721C316.13 24.2056 316.864 24.6457 317.597 24.6457C325.079 25.6726 335.494 24.6457 327.719 33.1543C325.666 35.5014 323.318 37.5552 321.265 39.7557C318.624 42.543 319.211 41.3694 319.798 45.0369C320.238 48.2643 321.118 51.6384 321.558 54.8657C322.878 64.1078 318.184 58.8266 313.783 56.0393V55.8926Z" fill="#CCCACB"/>
<path fill-rule="evenodd" clip-rule="evenodd" d="M306.155 48.7043C303.661 47.0906 301.167 45.6236 298.673 44.0099C297.353 42.983 295.739 42.8363 294.272 43.7165C293.245 44.3033 292.071 44.7434 291.045 45.3302C287.817 47.0906 284.736 48.9977 281.509 50.7581C280.336 51.3449 279.015 51.785 277.842 52.2251C273.147 53.8388 280.922 35.6481 281.803 33.741C279.895 31.9806 278.135 30.0735 276.228 28.1664C274.468 26.406 269.04 18.9243 274.174 18.4842C279.162 18.0442 283.856 18.0442 288.844 18.0442C289.871 15.9904 290.751 14.0833 291.778 12.1762C292.805 10.1224 293.832 8.0686 295.005 6.16151C298.086 1.02704 300.727 0.733637 303.661 6.45491C304.688 8.362 305.421 10.2691 306.301 12.3229C306.888 13.6432 307.622 14.9635 308.208 16.2838C308.502 17.0173 309.235 17.4574 309.969 17.4574C317.45 18.4842 327.866 17.4574 320.091 25.9659C318.037 28.3131 315.69 30.3669 313.636 32.5674C310.996 35.3547 311.582 34.1811 312.169 37.8485C312.609 41.0759 313.49 44.45 313.93 47.6774C315.25 56.9195 310.556 51.6383 306.155 48.851V48.7043Z" fill="#487F04" stroke="black" stroke-width="4.40098" stroke-linejoin="round"/>
</g>
</g>
</g>
<defs>
<clipPath id="clip0_1_682">
<rect width="330.5" height="60" fill="white"/>
</clipPath>
<clipPath id="clip1_1_682">
<rect width="330.5" height="60" fill="white"/>
</clipPath>
<clipPath id="clip2_1_682">
<rect width="330.513" height="60" fill="white" transform="translate(-0.00671387)"/>
</clipPath>
</defs>
</svg>
