<svg width="31" height="31" viewBox="0 0 31 31" fill="none" xmlns="http://www.w3.org/2000/svg">
<path d="M15.4115 27.0341C20.7844 27.0341 25.1401 22.6785 25.1401 17.3055C25.1401 11.9326 20.7844 7.5769 15.4115 7.5769C10.0385 7.5769 5.68286 11.9326 5.68286 17.3055C5.68286 22.6785 10.0385 27.0341 15.4115 27.0341Z" fill="white"/>
<path d="M15.563 0.408449C12.5964 0.409259 9.6966 1.28971 7.23032 2.93848C4.76404 4.58725 2.84202 6.93029 1.7073 9.67135C0.572573 12.4124 0.276096 15.4284 0.855357 18.3379C1.43462 21.2475 2.8636 23.9199 4.96162 26.0174C7.05965 28.1148 9.73249 29.5431 12.6422 30.1215C15.5519 30.7 18.5678 30.4027 21.3085 29.2672C24.0493 28.1318 26.3918 26.2091 28.0399 23.7424C29.688 21.2756 30.5677 18.3756 30.5677 15.409C30.5681 13.4386 30.1802 11.4875 29.4262 9.66709C28.6723 7.84669 27.567 6.19271 26.1735 4.79965C24.7801 3.40659 23.1258 2.30176 21.3052 1.5483C19.4846 0.794833 17.5334 0.407507 15.563 0.408449ZM21.605 15.6896L11.7105 21.6752C11.6614 21.7042 11.6055 21.7195 11.5485 21.7197C11.4915 21.7198 11.4355 21.7048 11.3863 21.6761C11.337 21.6474 11.2963 21.6061 11.2684 21.5565C11.2404 21.5068 11.2262 21.4506 11.2271 21.3936V9.42023C11.2258 9.36312 11.2398 9.3067 11.2677 9.25685C11.2956 9.207 11.3364 9.16554 11.3857 9.13678C11.4351 9.10803 11.4912 9.09303 11.5484 9.09335C11.6055 9.09367 11.6615 9.1093 11.7105 9.13861L21.605 15.1243C21.6536 15.1537 21.6938 15.1951 21.7217 15.2446C21.7497 15.294 21.7644 15.3498 21.7645 15.4066C21.7646 15.4634 21.7501 15.5193 21.7223 15.5688C21.6946 15.6184 21.6545 15.66 21.6061 15.6896H21.605Z" fill="#D11D1D"/>
</svg>
