<svg width="1919" height="1336" viewBox="0 0 1919 1336" fill="none" xmlns="http://www.w3.org/2000/svg">
<g clip-path="url(#clip0_472_64)">
<g clip-path="url(#clip1_472_64)">
<path d="M1368.13 1049.52H1397.14C1397.14 1049.84 1396.82 1268.67 1396.82 1268.67C1387.15 1268.03 1377.48 1267.71 1367.81 1267.39C1367.81 1194.55 1367.81 1122.03 1368.13 1049.52ZM1348.8 1284.14C1350.73 1285.43 1352.66 1286.4 1354.28 1287.69C1357.5 1313.15 1332.04 1296.71 1348.8 1284.14ZM1347.83 1030.18C1355.56 1030.82 1354.6 1036.95 1354.28 1042.75C1344.61 1054.03 1337.52 1035.66 1347.83 1030.18ZM1324.3 1268.67C1315.6 1268.03 1306.9 1267.71 1298.2 1267.39V1049.52C1298.52 1049.52 1324.62 1049.84 1324.62 1049.84C1324.62 1122.68 1324.62 1195.84 1324.3 1268.67ZM1273.7 1034.37C1275.31 1033.08 1276.6 1032.11 1278.21 1030.82C1297.55 1041.78 1269.83 1061.12 1273.7 1034.37ZM1277.25 1284.14H1281.44C1295.62 1307.99 1261.13 1304.45 1277.25 1284.14ZM1207.95 1031.14H1213.11C1226.32 1052.74 1194.42 1051.77 1207.95 1031.14ZM1131.89 1032.43C1133.5 1031.14 1134.79 1030.18 1136.41 1028.89C1154.45 1035.98 1130.6 1059.51 1131.89 1032.43ZM1061.63 1034.37C1063.57 1032.76 1065.5 1031.47 1067.11 1029.86C1084.19 1039.85 1060.34 1060.8 1061.63 1034.37ZM991.051 1034.37L994.596 1030.82C1014.9 1034.37 990.729 1063.37 991.051 1034.37ZM947.541 1024.7H947.864C948.831 1055.32 945.608 1052.74 947.541 1024.7ZM928.204 1031.14C930.46 1032.43 932.716 1033.4 934.65 1034.69C937.228 1060.15 913.056 1043.39 928.204 1031.14ZM1416.16 1031.14C1417.44 1031.14 1418.73 1031.79 1420.35 1032.11C1433.56 1056.28 1399.72 1047.9 1416.16 1031.14ZM1418.09 1283.18H1422.28C1437.1 1307.03 1404.23 1304.45 1418.09 1283.18ZM1485.13 1034.37C1486.74 1033.08 1488.03 1032.11 1489.64 1030.82C1508.65 1037.59 1483.84 1062.73 1485.13 1034.37ZM1557 1030.18H1562.15C1574.08 1053.71 1543.46 1049.19 1557 1030.18ZM1627.58 1030.18H1632.74C1645.95 1051.13 1614.69 1051.77 1627.58 1030.18ZM1694.29 1033.4C1695.26 1032.11 1695.91 1031.14 1696.55 1029.86C1718.79 1030.82 1694.29 1063.7 1694.29 1033.4ZM1804.52 1048.55C1810.32 1048.55 1816.12 1049.19 1821.92 1049.52C1822.89 1122.03 1821.92 1194.55 1820.96 1267.06H1805.49C1805.49 1267.06 1803.23 1267.39 1803.23 1266.74C1803.23 1198.74 1800.97 1114.94 1804.2 1048.87L1804.52 1048.55ZM1395.53 1334.1C1409.06 1334.1 1422.6 1335.07 1435.82 1335.07C1449.03 1335.07 1436.14 1332.81 1436.14 1332.81C1436.78 1323.14 1439.04 1266.74 1439.04 1266.74V1049.52H1467.72L1466.43 1334.74H1508.65L1509.3 1049.84H1534.11V1334.74H1576.98C1578.59 1273.51 1574.08 1083.68 1576.01 1050.48L1602.12 1049.19C1602.12 1107.21 1602.12 1255.46 1602.12 1335.07H1645.31C1645.31 1292.52 1645.31 1232.58 1645.31 1231.61C1648.85 1199.06 1642.08 1094.31 1645.63 1050.48H1671.73C1673.02 1073.69 1669.8 1265.45 1669.8 1335.07H1709.76L1716.53 1049.84H1740.06C1740.06 1074.01 1740.06 1244.5 1738.77 1335.07H1881.87C1882.51 1319.6 1883.16 1306.71 1883.48 1303.48H1918.29V1266.74H1885.41C1885.41 1266.74 1883.16 1267.06 1883.16 1266.42C1883.48 1194.23 1882.19 1122.35 1882.19 1049.84H1917.97V1012.45H1888.64C1888.64 1008.91 1888.64 1005.36 1887.67 1001.82C1886.7 999.238 1857.05 957.984 1854.8 955.728C1853.83 954.761 1853.51 956.695 1852.54 956.051C1841.58 976.033 1820.96 989.891 1818.7 1013.1H1805.49C1805.49 1013.1 1802.26 1013.1 1802.26 1011.81C1801.94 1002.46 1805.49 970.554 1803.23 963.786C1802.58 961.53 1776.16 939.614 1773.26 934.779C1768.42 939.291 1743.61 968.298 1743.28 970.876C1742.96 973.132 1744.57 1005.68 1744.25 1013.1C1740.7 1012.77 1719.76 1014.06 1718.79 1012.77C1717.5 1010.84 1720.08 972.488 1718.79 967.975C1718.47 966.364 1699.45 947.993 1696.87 944.126C1664.97 973.132 1680.44 977.967 1674.31 1013.42C1670.44 1012.45 1648.53 1015.03 1647.24 1012.13C1645.95 1008.91 1648.53 979.256 1647.24 973.454C1646.59 970.876 1629.84 950.894 1626.29 945.415C1623.71 949.605 1605.99 970.554 1605.34 972.488C1604.05 977.967 1606.63 1003.75 1605.02 1013.74C1600.83 1012.77 1578.59 1015.35 1576.98 1012.45C1575.69 1009.55 1578.27 974.099 1576.98 969.587C1576.66 968.298 1558.29 949.282 1556.03 945.737C1531.21 977 1536.37 973.132 1536.37 1013.74H1511.55C1507.69 1002.46 1511.55 975.388 1510.26 969.909C1509.94 968.298 1489.32 949.605 1487.38 945.093C1484.16 948.638 1468.04 972.488 1467.72 974.099C1466.43 979.578 1469.01 1012.13 1467.4 1013.42C1466.11 1014.39 1442.26 1013.42 1438.39 1013.1C1438.39 972.488 1443.55 977.322 1418.73 946.382C1388.76 975.711 1401.33 979.256 1396.17 1014.71L1367.17 1012.45C1367.17 974.744 1372.32 976.033 1346.22 947.671C1318.82 973.777 1325.91 978.933 1325.27 1014.39H1298.2C1295.94 971.843 1305.61 978.611 1275.64 946.382C1242.44 975.388 1258.88 1002.14 1255.98 1013.1C1255.65 1014.71 1232.13 1013.1 1228.9 1013.42C1226.97 972.488 1235.35 977.322 1206.34 946.06C1181.2 974.421 1186.36 978.611 1184.75 1014.39C1174.76 1013.74 1164.77 1013.42 1154.78 1013.1C1154.78 977.967 1159.93 973.454 1135.12 947.349C1108.69 975.388 1115.78 976.033 1115.46 1013.1C1106.43 1013.74 1097.41 1014.06 1088.38 1014.39C1084.52 1012.77 1088.38 977 1087.09 971.198C1086.77 969.587 1067.76 948.96 1064.21 946.382C1062.6 951.861 1044.87 971.521 1044.55 973.454C1043.26 978.933 1046.81 1002.78 1045.52 1013.1C1036.49 1013.74 1027.47 1014.06 1018.45 1014.39C1014.58 1012.45 1018.45 976.033 1017.16 970.232C1016.83 968.62 997.497 949.927 995.241 946.382C971.391 977.967 976.548 974.099 976.548 1014.39H949.475C943.996 977 958.499 980.867 927.881 946.382C904.032 976.355 907.577 975.066 908.222 1013.1C896.619 1013.42 885.983 1014.06 876.315 1014.39V1050.16H904.676C903.71 1102.69 905.643 1245.47 906.61 1336.03H945.608C944.641 1267.06 947.219 1083.03 945.608 1051.13H971.713C975.903 1099.79 972.036 1256.11 972.68 1336.03H1015.87C1015.87 1246.76 1012 1073.04 1016.19 1049.52L1041.01 1050.8C1041.97 1101.08 1040.36 1250.63 1040.68 1335.71H1086.77C1086.77 1253.85 1084.52 1076.91 1084.84 1050.8H1111.91C1111.27 1075.3 1113.2 1244.83 1113.2 1335.71H1155.1C1155.1 1252.88 1152.2 1068.85 1154.13 1050.8H1182.17C1182.17 1103.98 1182.17 1241.6 1182.17 1335.71H1225.04C1225.04 1240.96 1228.26 1090.77 1226 1050.8H1251.46C1247.92 1077.88 1256.94 1258.36 1252.43 1268.35C1250.82 1271.9 1232.77 1268.35 1228.9 1270.61C1229.55 1275.12 1230.51 1286.4 1229.87 1290.91C1233.42 1301.23 1231.16 1303.48 1227.61 1318.31C1230.84 1314.76 1230.19 1305.09 1232.13 1304.13C1233.42 1303.48 1246.95 1304.45 1251.46 1304.13V1332.81C1265.64 1332.81 1280.15 1333.78 1294.33 1333.78C1308.51 1333.78 1294.33 1331.52 1295.62 1331.52V1304.45H1321.72C1321.72 1313.15 1321.72 1322.18 1322.05 1331.52C1323.66 1331.52 1323.01 1333.78 1323.33 1333.78H1364.59V1305.74C1373.93 1305.09 1383.28 1304.77 1392.63 1304.45C1393.27 1314.44 1393.59 1324.11 1393.92 1334.1H1394.24H1395.53Z" fill="#E6E6E6"/>
<path d="M1917.64 323.067V410.731C1913.13 406.541 1904.43 403.963 1900.56 401.062C1886.06 391.071 1874.46 381.402 1858.66 372.378C1842.55 361.42 1775.19 313.721 1770.03 311.465C1757.79 305.664 1762.62 310.498 1753.92 315.332C1737.16 324.357 1724.59 337.893 1721.37 340.149C1716.53 343.372 1711.05 346.273 1705.9 349.818C1683.34 365.288 1661.74 381.725 1639.18 397.517C1632.74 402.029 1625 406.219 1618.23 410.731C1593.74 427.49 1570.21 444.894 1545.72 462.298C1541.21 465.521 1537.02 468.744 1532.5 471.967C1508.33 489.048 1483.19 504.841 1459.99 523.534C1454.51 524.501 1451.29 529.013 1446.77 531.269C1419.38 545.772 1394.56 569.299 1368.46 586.703C1363.62 589.926 1358.14 592.827 1352.99 596.372C1327.85 613.131 1303.68 631.18 1278.54 647.939C1267.9 654.707 1256.62 662.12 1245.98 668.888C1203.12 696.605 1158.64 722.388 1116.42 751.073C1045.2 749.139 1042.94 762.997 1045.84 712.075C1285.95 551.895 1523.48 387.526 1758.11 218.967C1810.96 253.774 1864.14 288.904 1917 324.034L1917.64 323.067Z" fill="white"/>
<path d="M1917.64 534.492V586.058H1771.32C1769.71 577.357 1757.46 581.546 1751.66 578.323C1746.18 575.745 1720.08 551.251 1713.63 549.639C1696.55 546.416 1625.97 575.745 1605.99 585.736C1527.35 586.058 1448.38 591.215 1370.07 585.736C1395.53 568.655 1420.67 545.127 1448.38 530.302L1462.57 534.169H1918.29L1917.64 534.492Z" fill="#828282"/>
<path d="M1917.64 664.053V1265.77C1682.05 1265.77 1479 1299.61 1243.41 1265.77L1252.75 696.282C1255.33 696.282 1290.78 664.053 1293.36 664.053C1501.56 678.556 1709.76 654.384 1917.97 664.053H1917.64Z" fill="white"/>
<path d="M1917.64 475.512V523.211C1849.96 526.434 1482.87 518.699 1460.63 523.211C1483.51 504.518 1508.65 489.048 1533.15 471.645C1661.42 477.768 1789.37 474.867 1917.97 475.512H1917.64Z" fill="#8B8B8B"/>
<path d="M1888.96 603.14C1898.63 606.363 1906.36 616.031 1917.64 616.354V648.905C1779.38 644.393 1640.79 648.905 1502.53 648.905C1364.27 648.905 1493.83 646.972 1491.25 646.972L1576.98 601.206C1633.38 601.206 1842.55 594.438 1876.71 599.272C1877.36 599.272 1885.74 601.851 1888.96 603.14Z" fill="white"/>
<path d="M1873.81 414.277C1882.84 420.078 1901.53 429.747 1917.64 429.747V462.298H1546.04C1570.21 445.217 1594.06 428.135 1618.56 410.731C1703.64 413.954 1788.73 412.665 1873.81 414.599V414.277Z" fill="#8B8B8B"/>
<path d="M1605.34 586.059H1917.32V599.273C1905.4 600.24 1890.89 596.05 1888.64 603.14C1885.41 602.173 1876.71 599.273 1876.39 599.273C1842.23 594.438 1633.06 601.206 1576.66 601.206C1520.26 601.206 1427.11 600.562 1353.95 595.405C1358.79 592.182 1364.27 589.282 1369.42 585.736C1448.06 591.215 1527.02 586.059 1605.34 585.736V586.059Z" fill="#010101"/>
<path d="M1917.64 871.288V1080.78C1899.27 1075.94 1861.56 1082.71 1858.34 1076.27C1854.15 1067.24 1859.95 898.683 1856.41 872.577L1917.32 871.933L1917.64 871.288Z" fill="#A1A0A0"/>
<path d="M1917.64 759.13V869.676L1856.73 869.032L1854.8 758.485L1917.64 759.13Z" fill="#A1A0A0"/>
<path d="M1917.64 648.584V661.797C1766.49 661.153 1615.65 662.764 1464.5 661.797C1477.71 649.873 1516.07 668.566 1502.53 648.584C1641.12 648.584 1779.38 644.071 1917.64 648.584Z" fill="#010101"/>
<path d="M1405.52 707.885C1576.33 710.463 1746.83 709.819 1917.64 709.819V719.487C1737.8 718.521 1558.29 721.099 1378.77 717.554C1350.41 717.231 1281.11 721.421 1287.24 711.752C1284.66 707.562 1311.41 706.273 1324.3 705.951C1351.37 704.984 1378.12 707.563 1405.2 707.885H1405.52Z" fill="#010101"/>
<path d="M1917.64 523.211V534.491H1461.6L1447.42 530.624C1451.93 528.368 1455.15 524.178 1460.63 522.889C1483.19 518.377 1849.96 526.112 1917.64 522.889" fill="#010101"/>
<path d="M1917.64 461.976V475.19C1789.37 474.545 1661.1 477.446 1532.83 471.322C1537.34 468.099 1541.53 464.876 1546.04 461.653H1917.64V461.976Z" fill="#010101"/>
<path d="M1639.5 397.195L1638.86 401.063H1900.56C1904.43 403.641 1913.13 406.542 1917.64 410.732V416.533C1903.14 414.921 1888.64 414.921 1873.81 414.599C1788.73 412.665 1703.64 413.955 1618.56 410.732C1625.32 406.22 1632.74 402.03 1639.5 397.518" fill="#010101"/>
<path d="M1917.64 1117.2V1138.15H1810.96C1809.35 1123.97 1810.96 1118.49 1810.96 1117.2H1917.64Z" fill="white"/>
<path d="M1917.64 1107.85V1117.52H1810.96C1810.96 1117.2 1810.32 1119.78 1809.03 1109.78C1845.13 1109.14 1881.22 1108.82 1917.64 1107.85Z" fill="#828282"/>
<path d="M1917.64 416.21V429.424C1902.17 429.424 1882.84 419.755 1873.81 413.954C1888.31 413.954 1902.82 413.954 1917.64 415.888" fill="#A1A0A0"/>
<path d="M1917.64 599.273V616.355C1906.69 616.355 1898.63 606.041 1888.96 603.141C1890.89 596.372 1905.72 600.562 1917.64 599.273Z" fill="#828282"/>
<path d="M1289.17 648.583C1288.21 651.806 1288.21 655.029 1287.24 658.252C1284.02 675.978 1284.02 694.027 1287.24 711.753C1280.79 721.421 1350.09 717.232 1378.77 717.554L1355.89 769.121C1346.86 769.121 1289.17 769.121 1286.59 771.055C1284.34 772.666 1286.59 778.467 1285.95 780.723C1282.08 791.681 1282.73 812.308 1282.08 825.522C1282.08 825.844 1285.95 830.357 1285.95 831.968V843.248C1285.95 860.652 1282.08 879.023 1284.02 896.749C1281.76 897.393 1254.36 899.327 1247.92 898.683V750.428C1247.92 723.033 1248.56 695.96 1247.92 668.243C1258.55 661.475 1269.83 654.385 1280.47 647.294C1290.78 644.071 1287.24 649.228 1290.14 649.228H1289.82L1289.17 648.583Z" fill="#A1A0A0"/>
<path d="M1247.6 667.599C1248.24 694.994 1247.6 722.066 1247.6 749.783C1204.41 749.461 1161.22 750.428 1118.03 749.783C1160.25 721.099 1204.73 695.96 1247.6 667.599Z" fill="#828282"/>
<path d="M1535.08 1077.23C1532.5 1087.22 1530.25 1097.54 1527.35 1107.85H1473.85C1470.62 1097.54 1469.01 1087.55 1466.11 1077.23H1534.76H1535.08Z" fill="white"/>
<path d="M1630.16 1119.13C1628.22 1131.7 1621.78 1196.16 1614.04 1197.45C1603.41 1199.06 1591.48 1137.5 1619.84 1155.55C1632.41 1134.92 1604.37 1145.24 1598.9 1142.34C1596.64 1141.37 1595.67 1125.58 1594.38 1119.45H1630.16H0H1629.84L1630.16 1119.13Z" fill="white"/>
<path d="M1525.73 1121.06C1523.48 1127.83 1523.16 1140.08 1519.29 1142.01C1517.68 1142.66 1486.42 1142.34 1485.13 1142.01C1481.26 1141.05 1477.71 1125.58 1476.75 1121.06H1526.06H1525.73Z" fill="white"/>
<path d="M1527.67 1107.85C1527.35 1109.46 1527.67 1114.3 1525.73 1121.06H1476.1C1475.46 1118.81 1475.46 1111.4 1474.17 1107.85H1527.67Z" fill="#8B8B8B"/>
<path d="M1632.09 1105.92C1632.09 1110.43 1631.12 1114.62 1630.16 1119.13H1594.06C1593.42 1115.91 1593.09 1111.07 1592.13 1107.85C1605.34 1104.63 1618.88 1106.24 1632.09 1105.92Z" fill="#8B8B8B"/>
<path d="M1344.28 780.079C1342.67 785.558 1337.84 817.465 1336.55 819.077C1335.58 820.688 1323.66 817.465 1325.27 831.324C1312.05 831.646 1298.52 831.324 1285.3 831.324C1285.3 829.39 1281.44 825.2 1281.44 824.878C1281.44 811.664 1281.44 791.359 1285.3 780.079C1304.96 784.269 1324.62 780.079 1344.61 780.079H1344.28Z" fill="#A1A0A0"/>
<path d="M1321.72 842.926H1285.63V831.646C1298.84 831.646 1312.38 831.968 1325.59 831.646C1357.18 831.001 1437.75 822.944 1424.86 840.025L1321.72 842.603V842.926Z" fill="#010101"/>
<path d="M1344.28 780.078C1324.62 780.078 1304.96 784.268 1284.98 780.078C1285.63 777.822 1284.02 772.021 1285.63 770.41C1288.21 768.476 1345.9 768.476 1354.92 768.476C1391.66 768.154 1434.53 763.641 1422.6 779.756C1396.17 779.756 1370.07 779.434 1343.64 779.756H1343.96L1344.28 780.078Z" fill="#010101"/>
<path d="M1321.72 842.926C1322.37 859.363 1306.25 866.131 1296.91 876.122C1294.97 878.056 1290.14 893.526 1283.69 895.782C1281.76 878.378 1285.63 860.007 1285.63 842.281H1321.72C1321.72 842.604 1321.72 842.604 1321.72 842.604V842.926Z" fill="#CCCACB"/>
<path d="M1833.85 747.849C1838.68 750.105 1832.88 754.617 1833.85 757.518H1737.8C1732.32 759.774 1735.55 815.209 1735.23 828.1C1734.58 784.591 1722.33 746.56 1749.41 755.584L1748.76 749.783C1777.45 750.428 1805.81 747.527 1834.49 747.849H1834.17H1833.85Z" fill="white"/>
<path d="M1917.64 745.916V747.85C1837.71 748.494 1837.71 745.271 1917.64 745.916Z" fill="#CCCACB"/>
<path d="M1430.34 1073.37C1429.37 1075.94 1427.76 1078.2 1426.47 1081.1C1368.78 1081.74 1344.28 1083.68 1286.59 1084.97L1285.95 1074.65C1345.9 1074.98 1370.71 1073.04 1430.66 1074.01C1430.66 1073.69 1430.66 1073.69 1430.66 1073.69L1430.34 1073.37Z" fill="#010101"/>
<path d="M1914.1 1136.86C1922.8 1142.66 1913.45 1143.3 1912.16 1148.14C1866.08 1148.14 1332.68 1151.36 1286.27 1151.36C1249.53 1135.89 1908.3 1138.15 1914.1 1136.54V1136.86Z" fill="#010101"/>
<path d="M1915.06 1252.24C1923.77 1258.04 1914.42 1258.68 1913.13 1263.52C1867.04 1263.52 1333.65 1266.74 1287.24 1266.74C1250.5 1251.27 1909.26 1253.53 1915.06 1251.92V1252.24Z" fill="#010101"/>
<path d="M1915.39 1193.26C1920.22 1203.25 1915.39 1203.89 1915.39 1204.54C1881.22 1201.32 1276.92 1212.92 1285.3 1194.23C1299.16 1193.9 1911.2 1194.55 1915.39 1193.58V1193.26Z" fill="#010101"/>
<path d="M1649.17 1115.59C1646.59 1110.75 1642.41 1108.82 1637.89 1105.92C1723.3 1104.31 1724.59 1123.32 1649.17 1115.59Z" fill="#A1A0A0"/>
<path d="M1465.47 753.328C1499.63 754.295 1533.47 755.262 1567.31 755.906L1566.67 861.618C1532.18 860.652 1497.7 859.685 1462.89 859.04C1463.85 823.588 1464.82 788.458 1465.47 753.328Z" fill="#5B5B5B"/>
<path d="M1583.75 755.263L1672.38 755.907C1672.38 792.971 1671.73 830.035 1671.73 867.421L1581.49 862.909L1584.07 755.263H1583.75Z" fill="#5B5B5B"/>
<path d="M1290.14 894.171H1425.18L1425.82 902.551C1380.7 904.162 1335.26 905.773 1289.82 907.063V893.849H1290.14V894.171Z" fill="#010101"/>
<path d="M1284.66 953.473H1427.11C1429.69 955.084 1425.5 962.175 1425.18 964.753H1284.34V953.473H1284.66Z" fill="#010101"/>
<path d="M1699.45 740.114C1697.52 790.392 1704.93 1018.25 1702.03 1032.43C1701.38 1036.95 1699.77 1043.39 1695.58 1046.61L1699.45 739.792V740.114Z" fill="#8B8B8B"/>
<path d="M1286.59 1020.19L1422.6 1020.83C1419.38 1022.77 1421.63 1028.24 1418.09 1029.21C1411.97 1031.47 1312.05 1026.63 1288.53 1031.15L1286.59 1019.87V1020.19Z" fill="#010101"/>
<path d="M1833.85 747.849C1805.16 747.849 1776.8 750.428 1748.12 749.783C1740.38 749.783 1736.19 753.006 1739.74 747.849C1752.95 746.882 1828.69 743.337 1833.85 747.849Z" fill="white"/>
<path d="M1583.75 745.916L1668.19 746.561L1585.68 749.139L1583.75 745.271V745.916Z" fill="#CCCACB"/>
<path d="M1576.66 601.207L1490.93 646.972C1423.89 646.972 1355.89 649.55 1289.17 648.906C1286.59 648.906 1289.82 644.072 1279.5 646.972C1304.32 630.535 1328.81 612.165 1353.95 595.405C1427.11 600.24 1502.85 601.207 1576.66 601.207Z" fill="#828282"/>
<path d="M1858.66 372.378C1874.78 381.08 1885.74 391.071 1900.56 401.062H1638.86L1639.5 397.194C1662.06 381.724 1683.66 365.287 1706.22 349.495C1739.42 357.23 1785.83 346.272 1817.73 351.429C1822.57 352.073 1850.93 368.188 1858.34 372.378H1858.66Z" fill="#747474"/>
<path d="M1721.69 340.471C1724.91 338.215 1737.16 325.001 1754.24 315.655C1756.82 321.456 1760.36 311.787 1764.55 311.787C1768.74 311.787 1803.87 340.793 1810.32 344.339H1720.72L1721.37 340.471H1721.69Z" fill="#5B5B5B"/>
<path d="M1858.66 372.378C1850.61 368.188 1822.57 352.074 1818.05 351.429C1786.47 345.95 1739.74 357.23 1706.54 349.495C1711.38 346.272 1716.85 343.372 1722.01 339.826L1721.37 343.694H1810.96C1804.52 340.471 1768.1 311.142 1765.2 311.142C1760.69 311.142 1757.14 320.811 1754.89 315.01C1763.91 310.176 1758.75 305.341 1771 311.142C1775.83 313.398 1843.52 360.775 1859.63 372.056H1858.99L1858.66 372.378Z" fill="#010101"/>
<path d="M1771 586.058H1605.34C1625 575.745 1696.23 546.416 1712.99 549.961C1719.43 550.928 1745.86 576.067 1751.02 578.646C1756.5 581.224 1769.39 577.679 1770.68 586.381L1771 586.058Z" fill="white"/>
<path d="M1458.7 661.797L1405.2 707.563C1378.12 707.24 1351.37 704.34 1324.3 705.629C1311.41 705.951 1284.66 707.241 1287.24 711.43C1284.02 693.704 1284.02 675.656 1287.24 657.93C1344.28 659.863 1401.65 661.153 1458.38 661.797" fill="#828282"/>
<path d="M1491.25 646.649C1493.83 646.649 1495.76 648.583 1502.53 648.583C1515.74 668.888 1477.71 650.195 1464.5 661.797H1458.7C1401.65 661.475 1344.28 659.863 1287.56 657.93C1288.21 654.707 1288.21 651.484 1289.49 648.261C1356.53 648.906 1424.21 646.327 1491.25 646.327" fill="#010101"/>
<path d="M1833.85 757.196C1833.85 757.196 1839.33 756.552 1839.65 757.841C1841.9 769.766 1842.87 868.387 1843.52 890.948C1843.52 891.592 1845.45 1038.56 1845.45 1077.56C1824.5 1077.88 1824.5 1076.59 1803.55 1078.2C1783.89 1080.13 1778.09 1082.07 1771 1082.07C1751.98 1082.07 1751.98 1080.46 1732.97 1079.49C1730.39 995.048 1731.04 911.252 1734.9 827.134C1735.55 814.564 1732.65 758.808 1737.48 756.552H1833.52V757.196H1833.85Z" fill="#A1A0A0"/>
<path d="M1802.58 816.498H1815.8C1849.32 863.553 1763.91 850.017 1802.58 816.498Z" fill="#A1A0A0"/>
<path d="M1787.11 909.641H1794.85C1811.61 946.382 1761.98 936.391 1787.11 909.641Z" fill="#A1A0A0"/>
<path d="M1779.7 869.354L1818.7 869.998C1799.04 870.643 1811.93 876.122 1810.32 876.444C1806.13 878.055 1770.36 876.444 1779.7 868.709V869.354Z" fill="#CCCACB"/>
<path d="M1567.31 1010.52C1567.31 1040.49 1570.53 1077.56 1564.09 1074.01C1564.09 1074.01 1554.1 1076.59 1535.08 1076.59H1466.43C1466.43 1075.94 1465.47 1079.81 1460.63 1061.12L1463.21 876.445C1477.07 882.246 1563.12 870.966 1566.99 879.023C1569.57 885.147 1566.99 1030.5 1566.99 1009.55H1567.31V1010.2V1010.52Z" fill="#606161"/>
<path d="M1522.51 943.804C1549.26 937.68 1548.62 970.876 1535.73 985.702C1525.41 975.388 1510.59 985.702 1508.33 973.455C1503.82 957.985 1517.03 945.093 1522.51 944.126V943.804Z" fill="#8B8B8B"/>
<path d="M1584.39 1079.17C1584.07 1077.23 1581.81 1073.04 1580.52 1067.89C1581.17 1004.07 1581.49 940.258 1582.46 876.444C1613.08 877.089 1643.37 877.411 1673.99 878.378C1673.35 944.448 1673.02 1010.52 1672.06 1076.27C1642.73 1077.23 1613.72 1078.2 1584.39 1078.84V1079.17Z" fill="#5B5B5B"/>
<path d="M1633.06 953.473L1645.31 961.852C1649.82 1007.3 1593.42 965.72 1633.06 953.473Z" fill="#747474"/>
<path d="M660.056 363.354H659.734C727.737 292.772 676.171 -66.5844 566.591 -145.224C538.552 -177.453 497.943 -148.125 447.02 -118.796C370.315 -74.6417 270.404 -30.4876 155.667 -197.758C53.8229 -268.34 13.5363 -214.517 0 -125.886V456.497C11.6025 461.976 26.1057 471 30.6178 462.621C28.3618 443.605 103.778 348.529 115.703 323.39C118.604 315.333 127.95 326.935 138.264 338.538C146.321 347.562 154.701 356.586 161.469 356.586C166.303 345.628 174.683 320.167 191.442 294.384C206.912 311.465 183.062 359.487 186.608 373.99C187.897 378.502 195.632 381.725 199.177 385.27C207.557 394.939 206.59 397.195 207.557 397.84C208.846 398.807 226.25 403.641 226.25 404.93C225.283 403.963 208.846 399.129 207.557 398.484C190.153 412.021 182.74 447.473 174.36 462.943H176.617V462.621C182.74 500.974 231.084 564.465 232.695 569.944C251.388 565.754 251.388 551.574 282.329 558.664C269.437 568.333 258.157 581.224 244.943 590.571C258.157 604.43 271.048 618.288 284.262 632.147C291.675 638.27 297.799 617.321 300.699 609.264C305.534 594.438 314.236 554.152 325.516 519.989C335.507 489.693 347.109 460.365 356.778 430.069C389.008 420.078 373.215 425.235 365.158 448.762C356.456 473.579 348.721 500.651 342.275 526.435C340.019 535.459 337.763 543.838 336.152 553.507C333.573 567.044 330.673 578.646 330.028 592.827C326.16 663.409 330.028 618.933 373.538 576.39C469.903 567.688 405.767 581.869 362.257 615.71C329.061 641.816 327.772 654.385 323.904 659.219C364.513 693.06 407.701 699.828 458.623 704.985C467.647 699.506 476.027 693.382 483.439 686.292C486.018 684.681 485.695 684.036 485.695 684.036C488.596 682.425 520.825 673.078 544.675 650.84C570.781 670.822 551.766 665.343 511.479 690.16C501.166 696.605 488.596 705.63 494.075 706.596C502.132 708.53 544.997 736.247 599.143 736.247C653.288 736.247 661.667 727.868 694.219 702.407C807.988 613.131 760.611 442.316 660.378 363.354H660.056Z" fill="#56BBBD"/>
<path d="M817.657 1266.74H802.187C802.187 1266.74 799.931 1267.06 799.931 1266.42C799.931 1198.41 797.675 1114.62 800.898 1048.55C806.699 1048.55 812.5 1049.19 818.302 1049.52C819.269 1122.03 818.302 1194.55 817.335 1267.06L817.657 1266.74ZM691.318 1033.4C692.285 1032.11 692.93 1031.14 693.574 1029.86C715.813 1030.82 691.318 1063.7 691.318 1033.4ZM624.281 1030.18H629.438C642.652 1051.13 611.39 1051.77 624.281 1030.18ZM553.699 1030.18H558.856C570.781 1053.71 540.163 1049.19 553.699 1030.18ZM482.15 1034.37C483.762 1033.08 485.051 1032.11 486.662 1030.82C505.678 1037.59 480.861 1062.73 482.15 1034.37ZM415.113 1283.18H419.303C434.129 1307.03 401.255 1304.45 415.113 1283.18ZM413.179 1031.14C414.469 1031.14 415.758 1031.79 417.369 1032.11C430.583 1056.28 396.743 1047.9 413.179 1031.14ZM393.842 1268.67C384.173 1268.03 374.504 1267.71 364.836 1267.39C364.836 1194.55 364.836 1122.03 365.158 1049.52H394.164C394.164 1049.84 393.842 1268.67 393.842 1268.67ZM345.82 1284.14C347.754 1285.43 349.688 1286.4 351.299 1287.69C354.522 1313.15 329.061 1296.71 345.82 1284.14ZM344.853 1030.18C352.588 1030.82 351.622 1036.95 351.299 1042.75C341.63 1054.03 334.54 1035.66 344.853 1030.18ZM321.326 1268.67C312.624 1268.03 303.922 1267.71 295.22 1267.39V1049.52C295.543 1049.52 321.648 1049.84 321.648 1049.84C321.648 1122.68 321.648 1195.84 321.326 1268.67ZM270.726 1034.37C272.337 1033.08 273.627 1032.11 275.238 1030.82C294.576 1041.78 266.858 1061.12 270.726 1034.37ZM274.271 1284.14H278.461C292.642 1307.99 258.157 1304.45 274.271 1284.14ZM204.978 1031.14H210.135C223.349 1052.74 191.442 1051.77 204.978 1031.14ZM128.917 1032.43C130.529 1031.14 131.818 1030.18 133.429 1028.89C151.478 1035.98 127.628 1059.51 128.917 1032.43ZM58.3349 1034.37C60.2687 1032.76 62.2025 1031.47 63.8139 1029.86C80.8954 1039.85 57.0458 1060.8 58.3349 1034.37ZM886.306 1012.45C886.306 1008.91 886.306 1005.36 885.339 1001.82C884.372 999.238 854.721 957.984 852.465 955.728C851.498 954.761 851.176 956.695 850.209 956.051C839.251 976.033 818.624 989.891 816.368 1013.1H803.154C803.154 1013.1 799.931 1013.1 799.931 1011.81C799.609 1002.46 803.154 970.554 800.898 963.786C800.253 961.53 773.825 939.614 770.925 934.779C766.09 939.291 741.274 968.298 740.951 970.876C740.629 973.132 742.241 1005.68 741.918 1013.1C738.373 1012.77 717.424 1014.06 716.457 1012.77C715.168 1010.84 717.746 972.488 716.457 967.975C716.135 966.364 697.12 947.993 694.541 944.126C662.634 973.132 678.104 977.967 671.981 1013.42C668.113 1012.45 646.197 1015.03 644.908 1012.13C643.619 1008.91 646.197 979.256 644.908 973.454C644.264 970.876 627.504 950.894 623.959 945.415C621.381 949.605 603.655 970.554 603.01 972.488C601.721 977.967 604.299 1003.75 602.688 1013.74C598.498 1012.77 576.26 1015.35 574.648 1012.45C573.359 1009.55 575.937 974.099 574.648 969.587C574.326 968.298 555.955 949.282 553.699 945.737C528.883 977 534.039 973.132 534.039 1013.74H509.223C505.355 1002.46 509.223 975.388 507.934 969.909C507.611 968.298 486.985 949.605 485.051 945.093C481.828 948.638 465.713 972.488 465.391 974.099C464.102 979.578 466.68 1012.13 465.069 1013.42C463.78 1014.39 439.93 1013.42 436.062 1013.1C436.062 972.488 441.219 977.322 416.402 946.382C386.429 975.711 398.999 979.256 393.842 1014.71L364.836 1012.45C364.836 974.744 369.992 976.033 343.887 947.671C316.492 973.777 323.582 978.933 322.937 1014.39H295.865C293.609 971.843 303.278 978.611 273.304 946.382C240.108 975.388 256.545 1002.14 253.644 1013.1C253.322 1014.71 229.795 1013.1 226.572 1013.42C224.638 972.488 233.018 977.322 204.011 946.06C178.873 974.421 184.029 978.611 182.418 1014.39C172.427 1013.74 162.436 1013.42 152.444 1013.1C152.444 977.967 157.601 973.454 132.785 947.349C106.357 975.388 113.447 976.033 113.125 1013.1C104.101 1013.74 95.0763 1014.06 86.0521 1014.39C82.1846 1012.77 86.0521 977 84.763 971.198C84.4407 969.587 65.4254 948.96 61.8802 946.382C60.2687 951.861 42.5426 971.521 42.2203 973.454C40.9311 978.933 44.4763 1002.78 43.1872 1013.1C34.163 1013.74 25.1388 1014.06 16.1146 1014.39C12.247 1012.45 16.1146 976.033 14.8254 970.232C14.8254 969.587 12.5693 967.331 9.6687 964.108V1335.71H13.2139C12.247 1224.84 10.3133 1069.5 13.8585 1049.19L38.6751 1050.48C39.3197 1092.7 38.6751 1232.58 38.3528 1335.39H84.4407C84.1184 1228.39 82.5069 1072.4 82.8292 1050.48H109.902C109.257 1071.43 110.869 1224.2 110.869 1335.39H152.767C152.122 1226.45 150.188 1065.63 151.8 1050.48H179.839C179.839 1095.93 179.839 1228.71 179.839 1335.39H222.704C223.349 1225.49 225.283 1085.29 223.671 1050.48H249.132C245.587 1077.56 254.611 1258.04 250.099 1268.03C248.488 1271.58 230.439 1268.03 226.572 1270.29C227.216 1274.8 228.183 1286.08 227.539 1290.59C231.084 1300.9 228.828 1303.16 225.283 1317.99C228.506 1314.44 227.861 1304.77 229.795 1303.8C231.084 1303.16 244.62 1304.13 249.132 1303.8V1332.49C263.313 1332.49 277.816 1333.46 291.997 1333.46C306.178 1333.46 291.997 1331.2 293.287 1331.2V1304.13H319.392C319.392 1312.83 319.392 1321.85 319.715 1331.2C321.326 1331.2 320.681 1333.46 321.004 1333.46H362.257V1305.42C371.604 1304.77 380.95 1304.45 390.297 1304.13C390.941 1314.12 391.264 1323.79 391.586 1333.78C405.122 1333.78 418.658 1334.74 431.872 1334.74C445.087 1334.74 432.195 1332.49 432.195 1332.49C432.839 1322.82 433.162 1313.47 433.484 1303.8C442.83 1303.8 434.773 1266.42 434.773 1266.42V1049.19H463.457V1334.42H504.711V1049.52L529.85 1049.84V1334.1H572.392C572.392 1239.67 570.136 1077.23 571.748 1049.84L597.853 1048.55C597.853 1097.21 597.853 1237.41 597.853 1334.42H642.652C642.652 1241.28 639.429 1082.39 642.008 1049.84H668.113C669.402 1071.75 667.469 1250.63 667.469 1334.42H712.912V1049.19H736.439C736.439 1072.08 738.695 1234.83 739.018 1334.42H789.618C791.874 1315.41 794.13 1302.19 796.386 1301.55C798.642 1301.55 800.576 1300.26 801.865 1298.33C802.832 1298.33 802.187 1301.55 802.187 1301.55C804.765 1302.52 807.666 1302.84 810.244 1302.52C810.244 1305.74 810.244 1318.95 810.889 1334.1H878.571C878.571 1318.63 879.215 1306.06 879.215 1302.52L881.471 1265.77C881.471 1265.77 879.215 1266.1 879.215 1265.45C879.537 1193.26 878.248 1121.39 878.248 1048.87H914.023V1011.48H884.694V1012.13L886.306 1012.45Z" fill="#E6E6E6"/>
<path d="M544.353 651.162C520.825 673.723 488.274 682.747 485.373 684.358C485.373 684.358 485.696 684.681 483.117 686.614C475.382 693.705 467.003 699.828 458.301 705.307C435.096 718.844 432.517 723.033 431.228 724C411.246 735.281 389.33 746.561 369.026 757.197C317.136 784.914 261.702 807.474 209.168 834.869C238.819 789.748 291.353 699.184 319.07 661.798L323.26 659.542C327.127 654.707 328.094 642.138 361.613 616.032C405.122 582.191 469.581 567.688 372.893 576.712C329.061 619.577 325.516 663.732 329.383 593.149C330.35 578.969 333.251 567.366 335.507 553.83C337.119 544.161 339.697 536.104 341.631 526.757C347.754 500.974 355.812 474.223 364.513 449.084C372.893 425.557 388.685 420.4 356.134 430.391C346.465 460.687 334.862 490.66 324.871 520.311C313.591 554.152 304.889 594.761 300.055 609.586C297.154 617.321 291.031 638.593 283.618 632.469C283.618 639.56 283.296 656.963 281.362 661.476C273.627 683.391 173.071 788.781 149.866 810.697C103.778 854.207 54.1453 893.849 1.61155 929.946C9.99116 874.833 24.1721 814.565 55.4345 768.154C82.5071 728.19 191.442 623.445 231.729 592.827C240.431 586.381 243.654 591.216 244.298 590.571C257.19 580.902 268.792 568.011 281.684 558.664C250.422 551.574 250.422 566.077 232.051 569.944C233.34 573.167 229.795 574.456 229.795 576.068C164.692 617.966 107.001 669.855 45.1211 715.943C72.516 650.195 103.778 586.059 136.33 522.89C149.544 497.106 170.171 467.777 173.716 461.976C182.096 446.506 189.508 411.376 206.912 397.518C205.945 397.195 206.912 394.617 198.533 384.948C195.31 381.081 187.252 378.502 185.963 373.668C182.74 359.165 206.268 311.143 190.798 294.062C174.361 319.845 165.981 345.628 160.824 356.264C145.999 356.586 120.215 308.565 115.059 323.068C121.182 346.595 119.571 402.674 117.315 428.78C108.935 520.633 89.5975 498.395 41.5759 565.755C34.4854 568.977 54.7899 531.269 39.3198 544.805C52.5338 487.437 30.6179 468.1 30.2956 461.654C25.7835 470.356 10.6357 460.687 -0.966797 455.53V1164.9C27.395 1061.12 128.273 926.723 221.738 876.445C320.037 823.911 312.947 889.659 419.625 838.092C418.336 831.646 321.326 849.372 299.088 829.712C322.615 813.92 346.465 799.095 369.67 783.302C393.842 766.865 430.583 738.181 444.442 729.479C454.111 723.356 484.729 704.985 492.141 706.597C486.662 705.307 499.232 696.605 509.545 690.16C549.832 665.343 568.847 670.5 542.741 650.84L544.353 651.162Z" fill="black"/>
<path fill-rule="evenodd" clip-rule="evenodd" d="M212.713 1237.73C214.647 1233.22 212.713 1224.84 212.713 1216.14C212.713 1212.92 212.069 1209.05 212.713 1205.51C177.583 1200.03 150.511 1249.01 192.409 1245.79C196.276 1245.79 201.111 1244.5 204.334 1243.21L213.358 1237.41H212.713V1237.73Z" fill="#CCCACB"/>
<path fill-rule="evenodd" clip-rule="evenodd" d="M511.157 1166.83C511.801 1166.51 512.124 1165.86 513.091 1165.86L517.603 1163.61C526.305 1160.71 544.998 1162.64 553.055 1165.86C564.335 1170.7 570.459 1181.98 571.103 1197.77C573.037 1233.87 536.296 1245.47 525.338 1208.08C514.38 1213.24 506 1221.3 490.852 1223.88C476.994 1224.84 476.349 1231.93 472.804 1244.5C469.581 1255.14 467.003 1264.16 464.747 1275.77H479.25C477.316 1279.96 476.349 1279.63 471.192 1282.53C467.003 1284.79 467.969 1292.52 464.102 1295.1C457.656 1299.94 450.888 1296.39 446.698 1303.16C427.361 1292.52 434.773 1278.02 428.327 1234.83C413.502 1235.8 400.933 1239.02 384.818 1236.77C371.926 1234.83 361.613 1230 346.143 1229.03L342.92 1233.55C338.73 1243.54 329.061 1253.85 318.748 1258.68C309.724 1262.87 297.154 1261.58 287.485 1258.68L278.784 1253.85C273.305 1260.94 266.214 1264.49 263.313 1274.15L225.927 1265.77C223.994 1259.97 223.994 1233.87 220.126 1231.93L203.367 1242.89C200.144 1243.86 195.31 1245.15 191.442 1245.47C149.544 1248.37 176.617 1199.7 211.747 1205.18C222.705 1156.2 232.696 1158.13 237.852 1143.63C193.054 1146.53 170.493 1165.22 145.032 1162C148.255 1147.82 180.162 1135.89 192.731 1131.06C223.349 1120.1 295.22 1123 333.573 1121.07C360.324 1119.78 374.182 1111.72 395.776 1108.17C420.915 1133.31 439.93 1167.8 480.217 1142.34C524.048 1114.94 471.192 1067.89 479.25 1043.71C492.141 1003.75 464.747 1006.33 439.93 1019.54C455.4 987.314 493.753 973.777 538.552 988.925C549.832 992.793 553.377 996.338 562.079 1001.17C576.582 1009.23 571.426 1006.65 580.127 1018.9C584.962 1025.34 619.447 1032.43 629.761 1039.53C616.547 1041.14 593.341 1044.36 592.375 1060.47C613.001 1069.5 625.248 1066.6 633.95 1046.29C634.595 1061.76 619.447 1081.75 611.712 1088.51C605.911 1093.67 605.911 1091.41 599.787 1094.64C591.085 1099.15 597.531 1095.28 592.052 1103.02C565.947 1142.01 549.187 1103.02 526.627 1118.49C515.669 1126.22 504.711 1149.1 511.157 1166.19V1166.51H511.479L511.157 1166.83ZM486.985 1257.4C489.563 1248.05 503.099 1239.99 516.636 1232.9C524.048 1245.79 541.775 1255.78 556.6 1252.88C593.986 1246.11 593.019 1203.89 598.176 1199.06C600.754 1196.8 632.661 1179.72 638.785 1176.18C645.231 1172.31 652.643 1168.44 659.089 1164.57C667.147 1160.06 673.915 1158.13 671.981 1145.88C662.312 1140.4 660.701 1142.98 650.387 1148.14C635.562 1156.2 602.043 1176.82 591.408 1180.37C585.929 1162.32 577.227 1156.2 566.591 1145.88C586.251 1145.56 599.787 1132.67 610.745 1118.49C616.869 1110.75 624.282 1112.04 631.372 1103.34C636.529 1097.54 641.041 1090.77 645.553 1083.68C675.526 1035.98 648.776 1018.25 606.233 1005.68C590.763 1001.17 596.564 997.305 586.896 989.247C569.814 975.711 537.262 961.852 511.801 960.563C463.135 957.985 438.963 978.934 420.592 1007.3L404.478 1026.96C391.908 1043.71 386.107 1051.13 377.083 1071.11C364.513 1098.5 377.083 1088.51 365.48 1093.03C346.143 1100.76 261.702 1099.79 233.985 1100.76C195.31 1101.73 152.767 1120.74 132.463 1138.15C116.992 1151.68 113.77 1195.84 169.204 1184.56L189.508 1179.4C193.698 1178.76 192.087 1179.08 194.343 1180.04C191.12 1186.17 188.219 1185.52 181.451 1188.75C159.535 1199.06 135.363 1226.78 152.122 1251.27C170.815 1278.34 217.548 1266.42 211.102 1269.32C200.144 1290.27 210.135 1318.31 241.72 1326.69C276.85 1336.03 329.384 1328.94 304.567 1288.34C298.121 1279.63 292.964 1278.34 286.841 1276.41C320.359 1279.63 350.655 1266.42 356.778 1255.14C385.14 1259.65 375.149 1261.58 408.345 1261.26L409.312 1277.38C413.502 1292.52 405.445 1310.25 447.343 1320.24C475.382 1327.01 496.654 1321.21 507.289 1312.18C524.693 1297.36 512.446 1264.49 487.629 1257.4H486.985Z" fill="black"/>
<path fill-rule="evenodd" clip-rule="evenodd" d="M222.704 1265.77L231.406 1298.65C233.34 1313.15 241.397 1311.22 258.801 1315.41C307.79 1326.37 296.832 1270.29 259.446 1289.3C262.346 1279.63 273.627 1261.91 279.106 1254.82C305.534 1218.72 297.476 1228.71 340.986 1228.71C347.754 1241.93 337.763 1227.74 342.92 1234.19L346.143 1229.68C361.613 1230.64 371.926 1235.48 384.818 1237.41C400.61 1239.35 413.502 1236.45 428.327 1235.48C434.773 1278.67 427.36 1293.17 446.698 1303.81C509.223 1321.53 506.967 1263.84 465.069 1276.41C467.002 1264.81 469.903 1255.46 473.126 1245.15C476.993 1232.58 477.316 1225.81 491.174 1224.52C487.951 1216.46 494.075 1217.75 501.81 1196.8C510.512 1174.24 504.711 1169.41 514.702 1167.8H511.479C504.711 1150.72 515.669 1127.83 526.949 1120.1C549.832 1104.31 566.269 1143.63 592.374 1104.63C597.853 1096.89 591.407 1100.76 600.109 1096.25C605.911 1093.35 605.911 1095.28 612.034 1090.13C620.091 1083.68 634.917 1063.7 634.272 1047.9C625.571 1068.53 613.323 1071.43 592.697 1062.09C593.663 1045.65 616.869 1042.75 630.083 1041.14C619.447 1034.37 585.284 1026.96 580.449 1020.51C571.748 1008.58 576.582 1011.16 562.401 1002.78C553.699 997.949 550.476 994.404 538.874 990.536C494.075 975.711 455.722 989.247 440.252 1021.15C465.391 1007.94 492.786 1005.04 479.572 1045.33C471.514 1069.5 524.371 1115.91 480.539 1143.95C440.574 1169.41 421.237 1134.92 396.098 1109.78C374.182 1113.33 360.968 1121.39 333.895 1122.68C295.865 1124.61 223.671 1121.71 193.053 1132.67C180.484 1137.5 148.255 1149.43 145.354 1163.61C170.815 1166.83 193.053 1148.14 238.174 1145.24C213.68 1169.73 194.987 1195.84 222.382 1266.74V1266.1L222.704 1265.77ZM554.344 1016.32C563.69 1014.06 566.269 1021.48 561.434 1029.53C552.088 1028.24 551.443 1024.05 554.344 1016.32ZM521.148 1027.92C528.56 1027.92 530.816 1034.37 526.949 1042.43C517.28 1041.46 514.379 1034.05 521.148 1027.92ZM541.774 1104.31C527.593 1102.69 527.916 1084.97 528.238 1070.47C534.684 1071.43 544.997 1078.2 553.055 1081.1C560.145 1083.68 571.748 1086.26 576.904 1091.09C569.814 1096.25 554.988 1106.24 541.774 1104.63V1104.31Z" fill="white"/>
<path fill-rule="evenodd" clip-rule="evenodd" d="M657.155 1175.85C659.734 1186.17 667.791 1205.18 681.327 1198.74C723.225 1178.43 743.208 1163.28 743.852 1105.92C690.996 1078.2 673.592 1086.26 626.86 1116.55C626.215 1125.9 633.628 1139.76 640.718 1145.88C651.354 1139.76 671.336 1126.87 678.749 1143.95C688.095 1163.61 666.18 1168.12 656.833 1176.18L657.155 1175.85ZM695.83 1173.92C695.186 1160.71 699.698 1169.09 708.722 1159.09C714.846 1152 711.945 1148.78 719.68 1144.59C729.027 1154.91 708.078 1173.28 695.508 1174.24L695.83 1173.92Z" fill="black"/>
<path fill-rule="evenodd" clip-rule="evenodd" d="M511.157 1166.83H514.38C504.389 1168.76 509.868 1173.6 501.488 1196.16C493.431 1217.11 487.307 1215.82 490.852 1223.88C505.678 1221.3 514.38 1213.24 525.338 1208.08C536.296 1245.47 573.037 1233.87 571.103 1197.77C570.136 1181.98 564.335 1170.7 553.055 1165.86C544.997 1162.32 526.304 1160.38 517.603 1163.61L513.09 1165.86C512.446 1165.86 512.124 1166.51 511.157 1166.83Z" fill="#CCCACB"/>
<path fill-rule="evenodd" clip-rule="evenodd" d="M278.783 1254.82L287.485 1259.65C297.154 1262.55 309.401 1263.84 318.748 1259.65C332.606 1253.21 341.953 1239.99 346.143 1230C344.854 1229.36 343.242 1229.36 340.986 1229.03C297.476 1229.03 305.856 1219.04 279.106 1255.14L278.783 1254.82Z" fill="#CCCACB"/>
<path fill-rule="evenodd" clip-rule="evenodd" d="M576.582 1090.77C571.425 1085.93 559.823 1083.68 552.732 1080.78C544.675 1077.88 534.362 1071.11 527.916 1070.14C527.916 1084.65 527.271 1102.37 541.452 1103.98C554.344 1105.59 569.492 1095.6 576.582 1090.45V1090.77Z" fill="black"/>
<path fill-rule="evenodd" clip-rule="evenodd" d="M695.831 1173.92C708.4 1172.95 729.027 1154.58 720.003 1144.27C711.945 1148.78 715.168 1151.68 709.045 1158.77C700.02 1169.09 695.508 1160.71 696.153 1173.6L695.831 1173.92Z" fill="white"/>
<path fill-rule="evenodd" clip-rule="evenodd" d="M521.148 1027.92C514.702 1034.05 517.28 1041.46 526.949 1042.43C530.817 1034.37 528.238 1027.92 521.148 1027.92Z" fill="black"/>
<path fill-rule="evenodd" clip-rule="evenodd" d="M554.344 1016.32C551.443 1024.05 552.088 1027.92 561.434 1029.53C566.591 1021.48 563.69 1014.06 554.344 1016.32Z" fill="black"/>
<path d="M720.325 1275.44H720.969C720.969 1270.93 721.936 1266.74 722.581 1262.23V1264.16C724.192 1270.29 725.481 1276.41 726.448 1282.21C724.514 1279.96 722.581 1277.7 720.647 1275.44H720.325ZM711.623 1266.1C710.011 1264.49 709.044 1263.52 707.755 1261.91C707.755 1261.91 706.144 1261.91 706.788 1262.55L709.689 1269C708.078 1271.25 706.144 1273.83 704.855 1276.41C705.822 1262.23 706.788 1247.73 709.367 1233.87C716.135 1238.06 719.358 1246.76 720.647 1254.17C717.746 1258.36 714.846 1262.23 711.623 1266.42V1266.1ZM431.55 1311.54C430.261 1309.93 428.972 1308.96 427.683 1307.99C427.683 1301.87 428.65 1295.75 429.616 1289.3C431.55 1295.43 433.162 1301.55 434.129 1307.99C433.162 1309.28 432.517 1310.25 431.55 1311.22V1311.54ZM268.148 1277.05C267.503 1289.3 266.536 1302.19 265.247 1314.76C262.669 1305.42 260.413 1296.07 256.223 1287.37C260.09 1281.89 264.28 1276.41 268.47 1270.93C268.47 1272.86 268.47 1275.12 267.825 1277.05H268.148ZM135.685 1290.59H136.33C136.33 1286.08 137.297 1281.89 137.941 1277.38V1279.31C139.553 1285.43 140.842 1291.56 141.809 1297.36C139.875 1295.1 137.941 1292.85 136.008 1290.59H135.685ZM126.661 1280.92C125.05 1279.31 124.083 1278.34 122.794 1276.73C122.794 1276.73 121.182 1276.73 121.827 1277.38L124.727 1283.82C123.116 1286.08 121.182 1288.66 119.893 1291.24C120.86 1277.05 121.827 1262.55 124.405 1248.69C131.173 1252.88 134.396 1261.58 135.685 1269C132.785 1273.19 129.884 1277.05 126.661 1281.24V1280.92ZM837.962 1268.03C835.061 1255.14 825.392 1231.29 803.799 1218.4C803.799 1218.4 802.187 1218.4 802.832 1219.04C814.112 1233.87 822.169 1250.95 826.681 1269C824.748 1270.93 822.169 1272.54 820.236 1274.48C817.335 1272.54 814.434 1270.93 810.889 1269C811.534 1258.68 812.823 1248.69 814.434 1238.38C814.434 1237.73 812.823 1238.38 812.823 1238.38C808.955 1247.08 804.443 1255.46 799.931 1263.52C797.353 1262.55 794.452 1261.26 791.551 1260.94C788.651 1249.66 782.527 1239.02 772.858 1228.71C772.858 1228.71 771.247 1228.71 771.892 1228.71C776.404 1239.02 771.247 1251.92 769.313 1262.23V1263.52C765.446 1254.49 760.289 1245.79 753.843 1238.38C753.843 1237.73 751.909 1238.38 752.232 1239.02C757.066 1250.95 757.066 1263.84 756.099 1276.73C752.232 1265.77 746.108 1256.11 737.729 1248.05C732.25 1242.89 720.325 1233.87 710.011 1231.61C710.978 1227.42 711.623 1223.23 712.912 1218.4C712.912 1217.75 711.945 1218.4 711.3 1218.4C701.954 1235.8 691.318 1252.56 684.55 1269.64V1227.42H683.583C680.683 1237.73 671.336 1247.08 667.791 1257.39C666.824 1259.97 665.857 1262.55 665.213 1265.13C665.213 1241.92 665.213 1219.36 669.08 1196.16C669.08 1195.51 668.113 1196.16 667.469 1196.16C658.122 1217.11 650.065 1237.41 645.23 1258.36C640.718 1241.92 632.983 1226.13 625.248 1209.7C625.248 1209.05 623.637 1209.7 623.637 1209.7C628.149 1233.22 626.215 1257.39 623.637 1281.24C621.703 1271.25 619.769 1261.26 618.802 1251.27C618.802 1250.3 616.224 1251.27 616.224 1251.27C614.613 1261.91 610.423 1271.9 607.2 1282.21C606.233 1285.43 605.266 1288.98 604.622 1292.52V1278.67C605.588 1249.66 598.176 1219.04 607.2 1190.04C607.2 1189.39 605.588 1190.04 605.266 1190.04C594.308 1210.02 586.573 1231.61 582.061 1253.85C578.516 1240.96 575.293 1228.39 573.681 1215.82C573.681 1215.17 571.748 1215.82 571.748 1215.82C571.748 1221.94 570.781 1228.07 569.814 1233.87C566.913 1216.79 559.823 1200.99 548.865 1187.46C548.865 1187.46 547.253 1187.46 547.898 1187.46C551.765 1200.99 546.931 1216.79 545.964 1230.64C545.32 1242.89 544.353 1255.78 543.064 1268.35C535.651 1239.67 524.371 1213.89 498.265 1187.78C498.265 1187.78 496.653 1187.78 497.298 1188.42C512.768 1209.05 520.181 1230 524.693 1251.27C523.726 1250.3 522.437 1249.02 521.148 1248.05C511.801 1240.96 501.165 1235.16 489.885 1230.97C483.117 1227.1 475.704 1224.2 467.969 1222.26C467.325 1222.26 466.358 1222.26 466.358 1223.23C475.06 1231.93 481.183 1242.57 484.729 1254.17C477.96 1246.11 466.358 1237.09 452.499 1235.48C451.855 1235.48 450.888 1235.48 451.532 1236.12H452.177C454.111 1237.73 456.044 1239.67 457.656 1241.92C459.912 1245.79 462.168 1249.66 463.457 1254.17C466.358 1261.58 468.614 1269.32 469.903 1277.38L471.515 1284.79C467.647 1275.44 461.846 1267.06 454.755 1260.3C449.276 1254.82 437.351 1245.79 426.394 1243.54C426.394 1243.54 425.427 1243.54 425.749 1244.18C437.674 1250.3 437.996 1267.39 440.252 1275.44C441.541 1280.6 442.83 1285.76 443.797 1291.24C443.797 1291.24 443.153 1291.88 442.83 1292.2C438.963 1287.69 434.451 1283.5 429.939 1278.99C430.906 1271.9 432.517 1265.45 433.806 1258.36C433.806 1257.72 432.839 1258.36 432.195 1258.36C429.616 1263.2 426.716 1268.35 423.815 1273.19C423.815 1273.19 422.848 1273.19 422.848 1273.83C416.402 1286.08 409.957 1297.36 404.478 1309.28V1267.06H403.511C400.61 1277.38 391.264 1286.72 387.718 1297.04C386.751 1299.61 385.785 1302.19 385.14 1304.77C385.14 1281.57 385.14 1259.01 389.008 1236.12C389.008 1235.48 388.041 1236.12 387.396 1236.12C378.05 1257.07 369.992 1277.38 365.158 1298.33C360.646 1281.89 352.911 1266.1 345.176 1249.66C345.176 1249.02 343.564 1249.66 343.564 1249.66C348.076 1273.19 346.143 1297.36 343.564 1321.21L340.664 1305.74C342.275 1293.81 339.052 1281.89 338.085 1270.61V1265.13C338.085 1264.49 337.118 1265.13 336.474 1265.13C332.606 1271.25 328.094 1276.73 324.227 1282.86C323.26 1265.13 322.615 1247.73 327.772 1230.97C327.772 1230.32 326.16 1230.97 325.838 1230.97C314.88 1250.95 307.145 1272.54 302.633 1294.78C299.088 1281.89 295.865 1269.32 294.253 1256.75C294.253 1256.11 292.32 1256.75 292.32 1256.75C292.32 1262.87 291.353 1269 290.386 1274.8C287.485 1257.72 280.395 1241.92 269.437 1228.39C269.437 1228.39 267.825 1228.39 268.47 1228.39C271.371 1238.7 269.437 1250.3 267.825 1261.58C262.024 1265.13 255.901 1269 250.422 1272.86C242.364 1256.75 231.729 1241.92 218.515 1229.03C218.515 1229.03 216.903 1229.03 217.548 1229.68C228.828 1244.5 236.885 1261.58 241.397 1279.63C239.464 1281.57 236.885 1283.18 234.951 1285.11C232.051 1283.18 229.15 1281.57 225.605 1279.63C226.25 1269.32 227.539 1259.33 229.15 1249.02C229.15 1248.37 227.539 1249.02 227.539 1249.02C223.671 1257.72 219.159 1266.1 214.647 1274.15C212.069 1273.19 209.168 1271.9 206.267 1271.58C203.367 1260.3 197.243 1249.66 187.574 1239.35C187.574 1239.35 185.963 1239.35 186.608 1239.35C191.12 1249.66 185.963 1262.55 184.029 1272.86V1274.15C180.162 1265.13 175.005 1256.43 168.559 1249.02C168.559 1248.37 166.625 1249.02 166.948 1249.66C171.782 1261.58 171.782 1274.48 170.815 1287.37C166.948 1276.41 160.824 1266.74 152.444 1258.68C146.966 1253.53 135.041 1244.5 124.727 1242.25C125.372 1237.73 126.339 1233.54 127.628 1229.36C127.628 1228.71 126.661 1229.36 126.016 1229.36C116.67 1246.76 106.034 1263.52 99.2662 1280.6V1238.38H98.2993C95.3986 1248.69 86.0521 1258.04 82.5069 1268.35C81.54 1270.93 80.5732 1273.51 79.9286 1276.09C79.9286 1252.88 79.9286 1230.32 83.7961 1207.12C83.7961 1206.47 82.8292 1207.12 82.1846 1207.12C72.8381 1228.07 64.7808 1248.37 59.9464 1269.32C55.4343 1252.88 47.6993 1237.09 39.9642 1220.65C39.9642 1220.01 38.3528 1220.65 38.3528 1220.65C42.8649 1244.18 40.9311 1268.35 38.3528 1292.2C37.7082 1288.98 36.7413 1285.11 36.419 1281.89V1278.67C37.0636 1270.93 39.3197 1257.39 32.5515 1250.95H31.5846V1251.59C28.0394 1252.88 24.8165 1267.39 23.205 1270.29C22.2381 1272.54 21.2713 1274.8 20.3044 1277.38C19.3375 1252.56 15.47 1226.78 22.8827 1202.28C22.8827 1201.64 21.2713 1202.28 20.949 1202.28C10.9579 1220.33 2.57826 1245.47 0.966797 1266.1V1333.46H838.929V1266.1L837.962 1268.03Z" fill="#CDCDCD"/>
<path d="M752.876 1330.23C751.909 1329.27 751.265 1328.3 750.298 1327.33C751.265 1321.53 753.199 1315.73 755.132 1310.25C756.099 1315.73 756.744 1321.53 757.388 1327.01C755.777 1327.98 754.81 1329.27 753.199 1330.23H752.876ZM453.144 1291.56L456.367 1286.08C456.367 1286.08 455.4 1285.11 455.4 1286.08C454.111 1287.37 452.822 1288.66 451.21 1289.95C447.987 1286.08 444.764 1282.86 441.541 1278.99C443.153 1272.22 446.376 1264.16 453.788 1260.62C456.367 1273.19 457.656 1286.08 458.623 1298.65C457.011 1296.39 454.755 1294.14 453.144 1291.88V1291.56ZM434.129 1303.48C435.095 1298 436.707 1292.52 438.318 1287.05H438.963V1285.43C439.608 1289.62 439.93 1293.17 440.574 1297.36C438.318 1299.29 436.062 1301.23 434.129 1303.16V1303.48ZM123.116 1316.7C122.149 1315.73 121.504 1314.76 120.538 1313.8C121.504 1307.99 123.438 1302.19 125.372 1296.71C126.339 1302.19 126.983 1307.99 127.628 1313.47C126.016 1314.44 125.05 1315.73 123.438 1316.7H123.116ZM837.962 1288.33C831.838 1299.94 826.359 1310.57 822.169 1322.18C816.69 1303.16 808.311 1284.79 797.997 1266.1C797.997 1266.1 796.386 1265.45 796.386 1266.1C801.22 1286.72 801.22 1307.35 800.576 1327.98C799.609 1325.4 798.964 1323.46 797.997 1320.89C793.808 1311.54 784.139 1303.16 780.916 1294.14H779.949V1332.17C774.148 1321.21 767.702 1310.25 759.967 1300.26C759.967 1300.26 759.967 1299.29 759 1299.29C755.777 1294.78 753.199 1290.59 749.976 1285.76C749.976 1285.76 748.364 1285.11 748.364 1285.76C750.298 1291.88 751.587 1298 752.554 1304.13C747.72 1308.32 742.885 1311.86 738.695 1316.05C738.695 1315.73 738.051 1315.41 737.729 1315.09C738.695 1310.25 739.985 1305.74 741.596 1300.9C744.174 1293.81 744.819 1278.02 757.066 1272.86C757.066 1272.86 757.066 1272.22 756.422 1272.86C745.141 1274.8 731.927 1282.86 725.804 1288.01C718.069 1293.81 711.945 1301.23 707.755 1309.93C707.755 1307.67 708.4 1305.42 709.367 1303.16C710.978 1296.07 713.234 1288.98 716.135 1282.53C717.746 1278.67 720.002 1274.8 722.581 1271.58C724.192 1269.64 726.126 1267.71 728.382 1266.1H729.027C729.027 1266.1 729.027 1265.45 728.06 1265.45C714.846 1267.39 702.599 1273.51 693.252 1282.53C697.442 1271.58 704.21 1262.23 713.234 1254.82C713.234 1254.82 712.59 1253.85 711.623 1254.17C703.566 1256.11 695.508 1258.68 688.095 1262.23C674.881 1266.1 660.378 1272.86 654.255 1277.7C653.288 1278.67 651.999 1279.63 650.387 1280.6C655.222 1261.58 663.279 1242.57 679.716 1224.2C679.716 1224.2 678.749 1223.55 678.749 1224.2C651.032 1247.4 638.14 1270.61 630.727 1296.39C629.116 1285.11 628.149 1273.83 627.504 1262.23C626.537 1249.98 621.703 1235.8 625.248 1223.55C625.248 1223.55 624.281 1222.91 624.281 1223.55C612.679 1235.16 604.944 1249.66 601.721 1265.45C601.076 1259.97 600.109 1254.49 599.465 1249.02C599.465 1249.02 597.209 1248.05 597.209 1249.02C596.242 1260.62 592.374 1271.9 588.185 1283.5C582.706 1263.2 574.326 1243.54 563.046 1225.81C563.046 1225.81 560.79 1225.17 560.79 1225.81C570.459 1251.27 562.401 1279.63 563.368 1305.42V1317.99C562.723 1314.76 561.757 1311.54 560.79 1308.64C557.567 1299.29 552.732 1290.27 551.121 1280.92C551.121 1280.28 548.543 1279.63 548.543 1280.92C547.253 1289.95 545.642 1298.97 543.064 1307.67C540.485 1286.08 538.229 1264.49 543.064 1243.21C543.064 1243.21 542.097 1242.57 541.452 1243.21C533.395 1257.72 525.337 1272.22 520.181 1287.05C514.702 1268.03 506.322 1249.66 496.009 1230.97C496.009 1230.97 494.397 1230.32 494.397 1230.97C499.232 1251.59 499.232 1272.22 498.587 1292.85C497.62 1290.27 496.976 1288.33 496.009 1285.76C491.819 1276.41 482.15 1268.03 478.927 1259.01H477.96V1297.04C469.903 1281.57 458.623 1266.42 449.276 1250.63C449.276 1250.63 447.665 1249.98 447.665 1250.63C448.632 1254.49 449.921 1258.36 450.888 1262.23C439.608 1264.49 426.716 1272.22 420.915 1277.38C412.213 1284.15 405.445 1292.85 400.932 1302.84C399.966 1291.56 399.321 1279.63 405.122 1269C405.122 1269 404.155 1268.03 403.511 1269C396.743 1275.77 391.264 1283.5 386.752 1291.88V1290.91C384.495 1281.24 379.339 1269.96 384.173 1260.62C384.173 1260.62 383.206 1259.97 383.206 1260.62C374.182 1268.35 367.092 1278.34 362.902 1289.62C359.679 1290.27 357.101 1291.24 353.878 1292.2C349.043 1284.79 343.887 1277.05 340.019 1269.32C340.019 1269.32 338.408 1268.68 338.408 1269.32C340.341 1278.34 341.308 1287.69 342.275 1297.04C338.73 1298.33 335.507 1300.26 332.284 1302.19C330.028 1300.58 327.45 1298.97 325.516 1297.68C330.995 1280.92 339.697 1265.77 351.299 1252.56C351.299 1252.56 350.332 1251.92 350.332 1252.56C334.862 1265.45 323.582 1278.67 316.169 1291.88C311.013 1288.98 305.856 1286.08 300.055 1283.18C304.567 1287.69 308.757 1292.2 312.302 1297.36C308.757 1305.42 305.534 1313.8 302.633 1322.18C301.022 1310.9 300.055 1299.62 299.41 1288.01C299.41 1286.4 299.41 1284.79 299.088 1282.86L297.476 1281.89C295.865 1271.9 293.609 1261.58 296.832 1252.24C296.832 1252.24 295.865 1251.59 295.865 1252.24C284.262 1263.84 276.527 1278.34 273.304 1294.14C272.66 1288.66 271.693 1283.18 271.048 1277.38C271.048 1277.38 268.792 1276.41 268.792 1277.38C267.825 1288.98 263.958 1300.26 259.768 1311.86C254.289 1291.56 245.91 1271.9 234.629 1254.17C234.629 1254.17 232.373 1253.53 232.373 1254.17C241.075 1277.7 234.952 1302.84 234.629 1327.01C232.373 1327.01 230.439 1327.01 228.183 1327.01C225.927 1321.21 223.349 1315.41 222.704 1309.28C222.704 1308.64 220.126 1307.99 220.126 1309.28C219.481 1315.09 218.515 1320.89 216.903 1326.37H213.036C210.78 1308.32 209.813 1289.95 214.002 1271.58C214.002 1271.58 213.036 1270.93 212.391 1271.58C204.334 1286.4 196.276 1300.58 191.12 1315.41C185.641 1296.39 177.261 1278.02 166.948 1259.33C166.948 1259.33 165.336 1258.68 165.336 1259.33C170.171 1279.96 170.171 1300.58 169.526 1321.21C168.559 1318.63 167.915 1316.7 166.948 1314.12C162.758 1304.77 153.089 1296.39 149.866 1287.37H148.899V1325.4C143.098 1314.44 136.652 1303.48 128.917 1293.49C128.917 1293.49 128.917 1292.52 127.95 1292.52C124.727 1288.01 122.149 1283.82 118.926 1278.99C118.926 1278.99 117.315 1278.34 117.315 1278.99C119.248 1285.11 120.538 1291.24 121.504 1297.36C116.67 1301.55 111.836 1305.09 107.646 1309.28C107.646 1308.96 107.001 1308.64 106.679 1308.32C107.646 1303.48 108.935 1298.97 110.546 1294.14C113.125 1287.05 113.769 1271.25 126.016 1266.1C126.016 1266.1 126.016 1265.45 125.372 1266.1C114.092 1268.03 100.878 1276.09 94.7541 1281.24C86.0522 1288.01 79.284 1296.71 74.7719 1306.71C73.805 1295.43 73.1604 1283.5 78.9617 1272.86C78.9617 1272.86 77.9948 1271.9 77.3503 1272.86C70.5821 1279.63 65.1031 1287.37 60.591 1295.75V1294.78C58.335 1285.11 53.1783 1273.83 58.0127 1264.49C58.0127 1264.49 57.0458 1263.84 57.0458 1264.49C42.2203 1277.7 35.7745 1291.24 34.163 1305.74C27.7171 1295.1 19.6598 1284.47 13.8585 1273.19C13.8585 1273.19 12.2471 1272.54 12.2471 1273.19C14.8254 1287.05 16.4369 1300.9 17.0815 1315.09C9.34644 1312.83 3.86746 1300.9 0.644531 1291.24V1337.97H838.606V1291.24L837.962 1288.33Z" fill="black"/>
<path d="M1558.29 1275.44H1558.93C1558.93 1270.93 1559.9 1266.74 1560.54 1262.23V1264.16C1562.15 1270.29 1563.44 1276.41 1564.41 1282.21C1562.48 1279.96 1560.54 1277.7 1558.61 1275.44H1558.29ZM1549.26 1266.1C1547.65 1264.49 1546.68 1263.52 1545.39 1261.91C1545.39 1261.91 1543.78 1261.91 1544.43 1262.55L1547.33 1269C1545.72 1271.25 1543.78 1273.83 1542.49 1276.41C1543.46 1262.23 1544.43 1247.73 1547.01 1233.87C1553.77 1238.06 1557 1246.76 1558.29 1254.17C1555.39 1258.36 1552.49 1262.23 1549.26 1266.42V1266.1ZM1269.19 1311.54C1267.9 1309.93 1266.61 1308.96 1265.32 1307.99C1265.32 1301.87 1266.29 1295.75 1267.26 1289.3C1269.19 1295.43 1270.8 1301.55 1271.77 1307.99C1270.8 1309.28 1270.16 1310.25 1269.19 1311.22V1311.54ZM1106.11 1277.05C1105.46 1289.3 1104.5 1302.19 1103.21 1314.76C1100.63 1305.42 1098.37 1296.07 1094.18 1287.37C1098.05 1281.89 1102.24 1276.41 1106.43 1270.93C1106.43 1272.86 1106.43 1275.12 1105.79 1277.05H1106.11ZM973.647 1290.59H974.292C974.292 1286.08 975.258 1281.89 975.903 1277.38V1279.31C977.514 1285.43 978.804 1291.56 979.771 1297.36C977.837 1295.1 975.903 1292.85 973.969 1290.59H973.647ZM964.623 1280.92C963.011 1279.31 962.044 1278.34 960.755 1276.73C960.755 1276.73 959.144 1276.73 959.788 1277.38L962.689 1283.82C961.078 1286.08 959.144 1288.66 957.855 1291.24C958.822 1277.05 959.788 1262.55 962.367 1248.69C969.135 1252.88 972.358 1261.58 973.647 1269C970.746 1273.19 967.846 1277.05 964.623 1281.24V1280.92ZM1675.92 1268.03C1673.02 1255.14 1663.35 1231.29 1641.76 1218.4C1641.76 1218.4 1640.15 1218.4 1640.79 1219.04C1652.07 1233.87 1660.13 1250.95 1664.64 1269C1662.71 1270.93 1660.13 1272.54 1658.2 1274.48C1655.3 1272.54 1652.4 1270.93 1648.85 1269C1649.5 1258.68 1650.78 1248.69 1652.4 1238.38C1652.4 1237.73 1650.78 1238.38 1650.78 1238.38C1646.92 1247.08 1642.4 1255.46 1637.89 1263.52C1635.31 1262.55 1632.41 1261.26 1629.51 1260.94C1626.61 1249.66 1620.49 1239.02 1610.82 1228.71C1610.82 1228.71 1609.21 1228.71 1609.85 1228.71C1614.37 1239.02 1609.21 1251.92 1607.27 1262.23V1263.52C1603.41 1254.49 1598.25 1245.79 1591.8 1238.38C1591.8 1237.73 1589.87 1238.38 1590.19 1239.02C1595.03 1250.95 1595.03 1263.84 1594.06 1276.73C1590.19 1265.77 1584.07 1256.11 1575.69 1248.05C1570.21 1242.89 1558.29 1233.87 1547.97 1231.61C1548.94 1227.42 1549.58 1223.23 1550.87 1218.4C1550.87 1217.75 1549.91 1218.4 1549.26 1218.4C1539.92 1235.8 1529.28 1252.56 1522.51 1269.64V1227.42H1521.55C1518.64 1237.73 1509.3 1247.08 1505.75 1257.39C1504.79 1259.97 1503.82 1262.55 1503.17 1265.13C1503.17 1241.92 1503.17 1219.36 1507.04 1196.16C1507.04 1195.51 1506.07 1196.16 1505.43 1196.16C1496.08 1217.11 1488.03 1237.41 1483.19 1258.36C1478.68 1241.92 1470.95 1226.13 1463.21 1209.7C1463.21 1209.05 1461.6 1209.7 1461.6 1209.7C1466.11 1233.22 1464.18 1257.39 1461.6 1281.24C1459.66 1271.25 1457.73 1261.26 1456.76 1251.27C1456.76 1250.3 1454.19 1251.27 1454.19 1251.27C1452.57 1261.91 1448.38 1271.9 1445.16 1282.21C1444.19 1285.43 1443.23 1288.98 1442.58 1292.52V1278.67C1443.55 1249.66 1436.14 1219.04 1445.16 1190.04C1445.16 1189.39 1443.55 1190.04 1443.23 1190.04C1432.27 1210.02 1424.53 1231.61 1420.02 1253.85C1416.48 1240.96 1413.25 1228.39 1411.64 1215.82C1411.64 1215.17 1409.71 1215.82 1409.71 1215.82C1409.71 1221.94 1408.74 1228.07 1407.78 1233.87C1404.87 1216.79 1397.78 1200.99 1386.83 1187.46C1386.83 1187.46 1385.22 1187.46 1385.86 1187.46C1389.73 1200.99 1384.89 1216.79 1383.93 1230.64C1383.28 1242.89 1382.31 1255.78 1381.03 1268.35C1373.61 1239.67 1362.33 1213.89 1336.23 1187.78C1336.23 1187.78 1334.62 1187.78 1335.26 1188.42C1350.73 1209.05 1358.14 1230 1362.65 1251.27C1361.69 1250.3 1360.4 1249.02 1359.11 1248.05C1349.76 1240.96 1339.13 1235.16 1327.85 1230.97C1321.08 1227.1 1313.67 1224.2 1305.93 1222.26C1305.29 1222.26 1304.32 1222.26 1304.32 1223.23C1313.02 1231.93 1319.15 1242.57 1322.69 1254.17C1315.92 1246.11 1304.32 1237.09 1290.46 1235.48C1289.82 1235.48 1288.85 1235.48 1289.49 1236.12H1290.14C1292.07 1237.73 1294.01 1239.67 1295.62 1241.92C1297.87 1245.79 1300.13 1249.66 1301.42 1254.17C1304.32 1261.58 1306.58 1269.32 1307.86 1277.38L1309.48 1284.79C1305.61 1275.44 1299.81 1267.06 1292.72 1260.3C1287.24 1254.82 1275.31 1245.79 1264.36 1243.54C1264.36 1243.54 1263.39 1243.54 1263.71 1244.18C1275.64 1250.3 1275.96 1267.39 1278.21 1275.44C1279.5 1280.6 1280.79 1285.76 1281.76 1291.24C1281.76 1291.24 1281.11 1291.88 1280.79 1292.2C1276.92 1287.69 1272.41 1283.5 1267.9 1278.99C1268.87 1271.9 1270.48 1265.45 1271.77 1258.36C1271.77 1257.72 1270.8 1258.36 1270.16 1258.36C1267.58 1263.2 1264.68 1268.35 1261.78 1273.19C1261.78 1273.19 1260.81 1273.19 1260.81 1273.83C1254.36 1286.08 1247.92 1297.36 1242.44 1309.28V1267.06H1241.47C1238.57 1277.38 1229.23 1286.72 1225.68 1297.04C1224.71 1299.61 1223.75 1302.19 1223.1 1304.77C1223.1 1281.57 1223.1 1259.01 1226.97 1236.12C1226.97 1235.48 1226 1236.12 1225.36 1236.12C1216.01 1257.07 1207.95 1277.38 1203.12 1298.33C1198.61 1281.89 1190.87 1266.1 1183.14 1249.66C1183.14 1249.02 1181.53 1249.66 1181.53 1249.66C1186.04 1273.19 1184.1 1297.36 1181.53 1321.21L1178.63 1305.74C1180.24 1293.81 1177.01 1281.89 1176.05 1270.61V1265.13C1176.05 1264.49 1175.08 1265.13 1174.44 1265.13C1170.57 1271.25 1166.06 1276.73 1162.19 1282.86C1161.22 1265.13 1160.58 1247.73 1165.73 1230.97C1165.73 1230.32 1164.12 1230.97 1163.8 1230.97C1152.84 1250.95 1145.11 1272.54 1140.59 1294.78C1137.05 1281.89 1133.83 1269.32 1132.22 1256.75C1132.22 1256.11 1130.28 1256.75 1130.28 1256.75C1130.28 1262.87 1129.31 1269 1128.35 1274.8C1125.45 1257.72 1118.36 1241.92 1107.4 1228.39C1107.4 1228.39 1105.79 1228.39 1106.43 1228.39C1109.33 1238.7 1107.4 1250.3 1105.79 1261.58C1099.99 1265.13 1093.86 1269 1088.38 1272.86C1080.33 1256.75 1069.69 1241.92 1056.48 1229.03C1056.48 1229.03 1054.86 1229.03 1055.51 1229.68C1066.79 1244.5 1074.85 1261.58 1079.36 1279.63C1077.43 1281.57 1074.85 1283.18 1072.91 1285.11C1070.01 1283.18 1067.11 1281.57 1063.57 1279.63C1064.21 1269.32 1065.5 1259.33 1067.11 1249.02C1067.11 1248.37 1065.5 1249.02 1065.5 1249.02C1061.63 1257.72 1057.12 1266.1 1052.61 1274.15C1050.03 1273.19 1047.13 1271.9 1044.23 1271.58C1041.33 1260.3 1035.2 1249.66 1025.54 1239.35C1025.54 1239.35 1023.92 1239.35 1024.57 1239.35C1029.08 1249.66 1023.92 1262.55 1021.99 1272.86V1274.15C1018.12 1265.13 1012.97 1256.43 1006.52 1249.02C1006.52 1248.37 1004.59 1249.02 1004.91 1249.66C1009.74 1261.58 1009.74 1274.48 1008.78 1287.37C1004.91 1276.41 998.786 1266.74 990.406 1258.68C984.927 1253.53 973.002 1244.5 962.689 1242.25C963.334 1237.73 964.3 1233.54 965.59 1229.36C965.59 1228.71 964.623 1229.36 963.978 1229.36C954.632 1246.76 943.996 1263.52 937.228 1280.6V1238.38H936.261C933.36 1248.69 924.014 1258.04 920.469 1268.35C919.502 1270.93 918.535 1273.51 917.89 1276.09C917.89 1252.88 917.89 1230.32 921.758 1207.12C921.758 1206.47 920.791 1207.12 920.146 1207.12C910.8 1228.07 902.743 1248.37 897.908 1269.32C893.396 1252.88 885.661 1237.09 877.926 1220.65C877.926 1220.01 876.314 1220.65 876.314 1220.65C880.827 1244.18 878.893 1268.35 876.314 1292.2C875.67 1288.98 874.703 1285.11 874.381 1281.89V1278.67C875.025 1270.93 877.281 1257.39 870.513 1250.95H869.546V1251.59C866.001 1252.88 862.778 1267.39 861.167 1270.29C860.2 1272.54 859.233 1274.8 858.266 1277.38C857.299 1252.56 853.432 1226.78 860.844 1202.28C860.844 1201.64 859.233 1202.28 858.911 1202.28C848.92 1220.33 840.54 1245.47 838.928 1266.1V1333.46H1676.89V1266.1L1675.92 1268.03Z" fill="#CDCDCD"/>
<path d="M1590.84 1330.23C1589.87 1329.27 1589.23 1328.3 1588.26 1327.33C1589.23 1321.53 1591.16 1315.73 1593.09 1310.25C1594.06 1315.73 1594.71 1321.53 1595.35 1327.01C1593.74 1327.98 1592.77 1329.27 1591.16 1330.23H1590.84ZM1291.11 1291.56L1294.33 1286.08C1294.33 1286.08 1293.36 1285.11 1293.36 1286.08C1292.07 1287.37 1290.78 1288.66 1289.17 1289.95C1285.95 1286.08 1282.73 1282.86 1279.5 1278.99C1281.11 1272.22 1284.34 1264.16 1291.75 1260.62C1294.33 1273.19 1295.62 1286.08 1296.58 1298.65C1294.97 1296.39 1292.72 1294.14 1291.11 1291.88V1291.56ZM1271.77 1303.48C1272.73 1298 1274.35 1292.52 1275.96 1287.05H1276.6V1285.43C1277.25 1289.62 1277.57 1293.17 1278.21 1297.36C1275.96 1299.29 1273.7 1301.23 1271.77 1303.16V1303.48ZM961.078 1316.7C960.111 1315.73 959.466 1314.76 958.499 1313.8C959.466 1307.99 961.4 1302.19 963.334 1296.71C964.301 1302.19 964.945 1307.99 965.59 1313.47C963.978 1314.44 963.011 1315.73 961.4 1316.7H961.078ZM1675.92 1288.33C1669.8 1299.94 1664.32 1310.57 1660.13 1322.18C1654.65 1303.16 1646.27 1284.79 1635.96 1266.1C1635.96 1266.1 1634.35 1265.45 1634.35 1266.1C1639.18 1286.72 1639.18 1307.35 1638.54 1327.98C1637.57 1325.4 1636.93 1323.46 1635.96 1320.89C1631.77 1311.54 1622.1 1303.16 1618.88 1294.14H1617.91V1332.17C1612.11 1321.21 1605.66 1310.25 1597.93 1300.26C1597.93 1300.26 1597.93 1299.29 1596.96 1299.29C1593.74 1294.78 1591.16 1290.59 1587.94 1285.76C1587.94 1285.76 1586.33 1285.11 1586.33 1285.76C1588.26 1291.88 1589.55 1298 1590.52 1304.13C1585.68 1308.32 1580.85 1311.86 1576.66 1316.05C1576.66 1315.73 1576.01 1315.41 1575.69 1315.09C1576.66 1310.25 1577.95 1305.74 1579.56 1300.9C1582.14 1293.81 1582.78 1278.02 1595.03 1272.86C1595.03 1272.86 1595.03 1272.22 1594.38 1272.86C1583.1 1274.8 1569.89 1282.86 1563.77 1288.01C1556.03 1293.81 1549.91 1301.23 1545.72 1309.93C1545.72 1307.67 1546.36 1305.42 1547.33 1303.16C1548.94 1296.07 1551.2 1288.98 1554.1 1282.53C1555.71 1278.67 1557.96 1274.8 1560.54 1271.58C1562.15 1269.64 1564.09 1267.71 1566.34 1266.1H1566.99C1566.99 1266.1 1566.99 1265.45 1566.02 1265.45C1552.81 1267.39 1540.56 1273.51 1531.21 1282.53C1535.4 1271.58 1542.17 1262.23 1551.2 1254.82C1551.2 1254.82 1550.55 1253.85 1549.58 1254.17C1541.53 1256.11 1533.47 1258.68 1526.06 1262.23C1512.84 1266.1 1498.34 1272.86 1492.22 1277.7C1491.25 1278.67 1489.96 1279.63 1488.35 1280.6C1493.18 1261.58 1501.24 1242.57 1517.68 1224.2C1517.68 1224.2 1516.71 1223.55 1516.71 1224.2C1488.99 1247.4 1476.1 1270.61 1468.69 1296.39C1467.08 1285.11 1466.11 1273.83 1465.47 1262.23C1464.5 1249.98 1459.66 1235.8 1463.21 1223.55C1463.21 1223.55 1462.24 1222.91 1462.24 1223.55C1450.64 1235.16 1442.91 1249.66 1439.68 1265.45C1439.04 1259.97 1438.07 1254.49 1437.43 1249.02C1437.43 1249.02 1435.17 1248.05 1435.17 1249.02C1434.2 1260.62 1430.34 1271.9 1426.15 1283.5C1420.67 1263.2 1412.29 1243.54 1401.01 1225.81C1401.01 1225.81 1398.75 1225.17 1398.75 1225.81C1408.42 1251.27 1400.36 1279.63 1401.33 1305.42V1317.99C1400.69 1314.76 1399.72 1311.54 1398.75 1308.64C1395.53 1299.29 1390.69 1290.27 1389.08 1280.92C1389.08 1280.28 1386.5 1279.63 1386.5 1280.92C1385.22 1289.95 1383.6 1298.97 1381.03 1307.67C1378.45 1286.08 1376.19 1264.49 1381.03 1243.21C1381.03 1243.21 1380.06 1242.57 1379.41 1243.21C1371.36 1257.72 1363.3 1272.22 1358.14 1287.05C1352.66 1268.03 1344.28 1249.66 1333.97 1230.97C1333.97 1230.97 1332.36 1230.32 1332.36 1230.97C1337.19 1251.59 1337.19 1272.22 1336.55 1292.85C1335.58 1290.27 1334.94 1288.33 1333.97 1285.76C1329.78 1276.41 1320.11 1268.03 1316.89 1259.01H1315.92V1297.04C1307.86 1281.57 1296.58 1266.42 1287.24 1250.63C1287.24 1250.63 1285.63 1249.98 1285.63 1250.63C1286.59 1254.49 1287.88 1258.36 1288.85 1262.23C1277.57 1264.49 1264.68 1272.22 1258.88 1277.38C1250.17 1284.15 1243.41 1292.85 1238.89 1302.84C1237.93 1291.56 1237.28 1279.63 1243.08 1269C1243.08 1269 1242.12 1268.03 1241.47 1269C1234.7 1275.77 1229.23 1283.5 1224.71 1291.88V1290.91C1222.46 1281.24 1217.3 1269.96 1222.13 1260.62C1222.13 1260.62 1221.17 1259.97 1221.17 1260.62C1212.14 1268.35 1205.05 1278.34 1200.86 1289.62C1197.64 1290.27 1195.06 1291.24 1191.84 1292.2C1187 1284.79 1181.85 1277.05 1177.98 1269.32C1177.98 1269.32 1176.37 1268.68 1176.37 1269.32C1178.3 1278.34 1179.27 1287.69 1180.24 1297.04C1176.69 1298.33 1173.47 1300.26 1170.25 1302.19C1167.99 1300.58 1165.41 1298.97 1163.48 1297.68C1168.96 1280.92 1177.66 1265.77 1189.26 1252.56C1189.26 1252.56 1188.29 1251.92 1188.29 1252.56C1172.82 1265.45 1161.54 1278.67 1154.13 1291.88C1148.97 1288.98 1143.82 1286.08 1138.02 1283.18C1142.53 1287.69 1146.72 1292.2 1150.26 1297.36C1146.72 1305.42 1143.5 1313.8 1140.59 1322.18C1138.98 1310.9 1138.02 1299.62 1137.37 1288.01C1137.37 1286.4 1137.37 1284.79 1137.05 1282.86L1135.44 1281.89C1133.83 1271.9 1131.57 1261.58 1134.79 1252.24C1134.79 1252.24 1133.83 1251.59 1133.83 1252.24C1122.22 1263.84 1114.49 1278.34 1111.27 1294.14C1110.62 1288.66 1109.65 1283.18 1109.01 1277.38C1109.01 1277.38 1106.75 1276.41 1106.75 1277.38C1105.79 1288.98 1101.92 1300.26 1097.73 1311.86C1092.25 1291.56 1083.87 1271.9 1072.59 1254.17C1072.59 1254.17 1070.33 1253.53 1070.33 1254.17C1079.04 1277.7 1072.91 1302.84 1072.59 1327.01C1070.33 1327.01 1068.4 1327.01 1066.15 1327.01C1063.89 1321.21 1061.31 1315.41 1060.67 1309.28C1060.67 1308.64 1058.09 1307.99 1058.09 1309.28C1057.44 1315.09 1056.48 1320.89 1054.86 1326.37H1051C1048.74 1308.32 1047.77 1289.95 1051.96 1271.58C1051.96 1271.58 1051 1270.93 1050.35 1271.58C1042.3 1286.4 1034.24 1300.58 1029.08 1315.41C1023.6 1296.39 1015.22 1278.02 1004.91 1259.33C1004.91 1259.33 1003.3 1258.68 1003.3 1259.33C1008.13 1279.96 1008.13 1300.58 1007.49 1321.21C1006.52 1318.63 1005.88 1316.7 1004.91 1314.12C1000.72 1304.77 991.051 1296.39 987.828 1287.37H986.861V1325.4C981.06 1314.44 974.614 1303.48 966.879 1293.49C966.879 1293.49 966.879 1292.52 965.912 1292.52C962.689 1288.01 960.111 1283.82 956.888 1278.99C956.888 1278.99 955.276 1278.34 955.276 1278.99C957.21 1285.11 958.499 1291.24 959.466 1297.36C954.632 1301.55 949.797 1305.09 945.608 1309.28C945.608 1308.96 944.963 1308.64 944.641 1308.32C945.608 1303.48 946.897 1298.97 948.508 1294.14C951.086 1287.05 951.731 1271.25 963.978 1266.1C963.978 1266.1 963.978 1265.45 963.334 1266.1C952.053 1268.03 938.839 1276.09 932.716 1281.24C924.014 1288.01 917.246 1296.71 912.734 1306.71C911.767 1295.43 911.122 1283.5 916.923 1272.86C916.923 1272.86 915.957 1271.9 915.312 1272.86C908.544 1279.63 903.065 1287.37 898.553 1295.75V1294.78C896.297 1285.11 891.14 1273.83 895.974 1264.49C895.974 1264.49 895.008 1263.84 895.008 1264.49C880.182 1277.7 873.736 1291.24 872.125 1305.74C865.679 1295.1 857.622 1284.47 851.82 1273.19C851.82 1273.19 850.209 1272.54 850.209 1273.19C852.787 1287.05 854.399 1300.9 855.043 1315.09C847.308 1312.83 841.829 1300.9 838.606 1291.24V1337.97H1676.57V1291.24L1675.92 1288.33Z" fill="black"/>
<path d="M1811.29 1290.59H1811.93C1811.93 1286.08 1812.9 1281.89 1813.54 1277.38V1279.31C1815.15 1285.43 1816.44 1291.56 1817.41 1297.36C1815.48 1295.1 1813.54 1292.85 1811.61 1290.59M1802.26 1280.92C1800.65 1279.31 1799.68 1278.34 1798.39 1276.73C1798.39 1276.73 1796.78 1276.73 1797.43 1277.38L1800.33 1283.82C1798.72 1286.08 1796.78 1288.66 1795.49 1291.24C1796.46 1277.05 1797.43 1262.55 1800.01 1248.69C1806.77 1252.88 1810 1261.58 1811.29 1269C1808.39 1273.19 1805.49 1277.05 1802.26 1281.24V1280.92ZM1917.64 1259.65C1910.87 1249.01 1902.82 1239.02 1893.79 1230C1893.79 1230 1892.18 1230 1892.83 1230.64C1904.11 1245.47 1912.16 1262.55 1916.68 1280.6C1914.74 1282.53 1912.16 1284.14 1910.23 1286.08C1907.33 1284.14 1904.43 1282.53 1900.88 1280.6C1901.53 1270.29 1902.82 1260.3 1904.43 1249.98C1904.43 1249.34 1902.82 1249.98 1902.82 1249.98C1898.95 1258.68 1894.44 1267.06 1889.93 1275.12C1887.35 1274.15 1884.45 1272.86 1881.55 1272.54C1878.65 1261.26 1872.52 1250.63 1862.85 1240.31C1862.85 1240.31 1861.24 1240.31 1861.89 1240.31C1866.4 1250.63 1861.24 1263.52 1859.31 1273.83V1275.12C1855.44 1266.1 1850.28 1257.39 1843.84 1249.98C1843.84 1249.34 1841.9 1249.98 1842.23 1250.63C1847.06 1262.55 1847.06 1275.44 1846.09 1288.33C1842.23 1277.38 1836.1 1267.71 1827.72 1259.65C1822.24 1254.49 1810.32 1245.47 1800.01 1243.21C1800.65 1238.7 1801.62 1234.51 1802.91 1230.32C1802.91 1229.68 1801.94 1230.32 1801.3 1230.32C1791.95 1247.73 1781.31 1264.49 1774.54 1281.57V1239.35H1773.58C1770.68 1249.66 1761.33 1259.01 1757.79 1269.32C1756.82 1271.9 1755.85 1274.48 1755.21 1277.05C1755.21 1253.85 1755.21 1231.29 1759.07 1208.08C1759.07 1207.44 1758.11 1208.08 1757.46 1208.08C1748.12 1229.03 1740.06 1249.34 1735.23 1270.29C1730.71 1253.85 1722.98 1238.06 1715.24 1221.62C1715.24 1220.98 1713.63 1221.62 1713.63 1221.62C1718.14 1245.15 1716.21 1269.32 1713.63 1293.17C1712.99 1289.95 1712.02 1286.08 1711.7 1282.86V1279.63C1712.34 1271.9 1714.6 1258.36 1707.83 1251.92H1706.86V1252.56C1703.32 1253.85 1700.1 1268.35 1698.48 1271.25C1697.52 1273.51 1696.55 1275.77 1695.58 1278.34C1694.62 1253.53 1690.75 1227.74 1698.16 1203.25C1698.16 1202.6 1696.55 1203.25 1696.23 1203.25C1686.24 1221.3 1677.86 1246.44 1676.25 1267.06V1334.42H1917.97V1259.01L1917.64 1259.65Z" fill="#CDCDCD"/>
<path d="M1799.04 1316.7C1798.07 1315.73 1797.43 1314.76 1796.46 1313.8C1797.43 1307.99 1799.36 1302.19 1801.3 1296.71C1802.26 1302.19 1802.91 1307.99 1803.55 1313.47C1801.94 1314.44 1800.97 1315.73 1799.36 1316.7H1799.04ZM1917.64 1265.13C1915.39 1260.62 1912.81 1256.43 1909.91 1252.24C1909.91 1252.24 1907.65 1251.59 1907.65 1252.24C1916.35 1275.77 1910.23 1300.9 1909.91 1325.08C1907.65 1325.08 1905.72 1325.08 1903.46 1325.08C1901.21 1319.27 1898.63 1313.47 1897.98 1307.35C1897.98 1306.71 1895.4 1306.06 1895.4 1307.35C1894.76 1313.15 1893.79 1318.95 1892.18 1324.43H1888.31C1886.06 1306.38 1885.09 1288.01 1889.28 1269.64C1889.28 1269.64 1888.31 1269 1887.67 1269.64C1879.61 1284.47 1871.56 1298.65 1866.4 1313.47C1860.92 1294.46 1852.54 1276.09 1842.23 1257.39C1842.23 1257.39 1840.62 1256.75 1840.62 1257.39C1845.45 1278.02 1845.45 1298.65 1844.81 1319.27C1843.84 1316.7 1843.19 1314.76 1842.23 1312.18C1838.04 1302.84 1828.37 1294.46 1825.15 1285.43H1824.18V1323.46C1818.38 1312.51 1811.93 1301.55 1804.2 1291.56C1804.2 1291.56 1804.2 1290.59 1803.23 1290.59C1800.01 1286.08 1797.43 1281.89 1794.21 1277.05C1794.21 1277.05 1792.59 1276.41 1792.59 1277.05C1794.53 1283.18 1795.82 1289.3 1796.78 1295.42C1791.95 1299.61 1787.11 1303.16 1782.92 1307.35C1782.92 1307.03 1782.28 1306.71 1781.96 1306.38C1782.92 1301.55 1784.21 1297.04 1785.83 1292.2C1788.4 1285.11 1789.05 1269.32 1801.3 1264.16C1801.3 1264.16 1801.3 1263.52 1800.65 1264.16C1789.37 1266.1 1776.16 1274.15 1770.03 1279.31C1761.33 1286.08 1754.56 1294.78 1750.05 1304.77C1749.08 1293.49 1748.44 1281.57 1754.24 1270.93C1754.24 1270.93 1753.27 1269.96 1752.63 1270.93C1745.86 1277.7 1740.38 1285.43 1735.87 1293.81V1292.85C1733.61 1283.18 1728.46 1271.9 1733.29 1262.55C1733.29 1262.55 1732.32 1261.91 1732.32 1262.55C1717.5 1275.77 1711.05 1289.3 1709.44 1303.8C1703 1293.17 1694.94 1282.53 1689.14 1271.25C1689.14 1271.25 1687.53 1270.61 1687.53 1271.25C1690.1 1285.11 1691.72 1298.97 1692.36 1313.15C1684.63 1310.89 1679.15 1298.97 1675.92 1289.3V1336.03H1917.64V1265.77V1265.13Z" fill="black"/>
</g>
</g>
<defs>
<clipPath id="clip0_472_64">
<rect width="1918.61" height="1335.39" fill="white"/>
</clipPath>
<clipPath id="clip1_472_64">
<rect width="1918.61" height="1565.7" fill="white" transform="translate(0 -230.31)"/>
</clipPath>
</defs>
</svg>
